<svg width="500" height="500" viewBox="0 0 500 500" fill="none" xmlns="http://www.w3.org/2000/svg">
<path d="M371.85 219.188C335.741 292.003 249.851 335.214 249.851 335.214C249.851 335.214 163.959 292.003 127.918 219.188C97.8483 158.452 116.898 92.8071 164.359 78.4681C232.392 57.8931 249.85 135.923 249.85 135.923C249.85 135.923 267.307 57.8931 335.408 78.4681C382.868 92.8071 401.919 158.452 371.85 219.188Z" fill="#EBEBEB"/>
<path d="M79.0586 238.597C85.6226 243.057 94.9986 242.611 94.9986 242.611C94.9986 242.611 100.23 234.816 99.8016 226.895C99.4446 220.288 94.6756 215.62 89.9526 216.677C83.1806 218.191 87.3796 229.104 87.3796 229.104C87.3796 229.104 80.2116 219.866 75.4076 224.883C72.0586 228.379 73.5886 234.875 79.0586 238.597Z" fill="#C7C7C7"/>
<path d="M386.754 92.4C388.158 96.184 392.174 98.766 392.174 98.766C392.174 98.766 396.641 97.08 398.801 93.672C400.603 90.829 400.004 87.488 397.735 86.532C394.482 85.161 393.002 90.922 393.002 90.922C393.002 90.922 392.758 84.98 389.287 85.64C386.869 86.101 385.585 89.244 386.754 92.4Z" fill="#C7C7C7"/>
<path d="M367.86 199.018C372 211.116 384.512 219.617 384.512 219.617C384.512 219.617 398.796 214.637 405.91 204.018C411.845 195.16 410.219 184.53 403.11 181.321C392.92 176.717 387.768 194.841 387.768 194.841C387.768 194.841 387.473 176.002 376.429 177.816C368.732 179.079 364.414 188.928 367.86 199.018Z" fill="#C7C7C7"/>
<path d="M25.1113 441.688C169.189 441.076 330.812 441.071 474.89 441.688C330.811 442.305 169.188 442.301 25.1113 441.688Z" fill="#263238"/>
<path d="M195.64 228.652C196.753 234.373 197.855 240.125 199.218 245.792C200.051 249.254 201.112 252.595 202.282 255.912C203.774 256.686 205.499 257.35 207.496 257.853C207.189 257.013 206.894 256.173 206.602 255.352C205.184 251.385 204.163 247.349 203.173 243.254C203.137 243.117 203.352 243.084 203.388 243.221C204.561 247.381 206.077 251.482 207.623 255.519C207.96 256.397 208.326 257.268 208.7 258.13C210.276 258.464 212.002 258.705 213.905 258.828C213.508 257.875 213.133 256.911 212.762 255.972C211.88 253.753 211.048 251.518 210.285 249.252C208.781 244.781 207.582 240.236 206.619 235.617C206.577 235.425 206.863 235.392 206.913 235.574C208.203 240.238 209.675 244.864 211.301 249.422C212.071 251.576 212.877 253.727 213.735 255.848C214.147 256.865 214.599 257.87 215.043 258.886C217.868 258.998 221.051 258.865 224.645 258.426C233.805 257.309 242.649 253.186 250.486 248.328C257.19 244.164 263.197 238.651 267.444 231.825C264.038 229.34 261.06 226.03 258.659 222.748C258.583 222.635 258.728 222.519 258.821 222.611C260.782 224.626 262.822 226.548 264.95 228.38C265.951 229.241 266.99 230.046 268.033 230.857C268.095 230.753 268.151 230.65 268.213 230.546C268.609 229.863 269.026 229.139 269.417 228.374C267.349 226.688 265.45 224.741 263.618 222.84C260.987 220.115 258.555 217.251 256.474 214.087C256.336 213.88 256.599 213.654 256.772 213.838C259.301 216.519 261.75 219.267 264.32 221.911C266.128 223.771 268.069 225.514 269.931 227.325C271.004 224.975 271.659 222.392 270.632 219.906C269.782 217.858 268.055 216.377 266.544 214.863C264.836 213.169 263.199 211.403 261.719 209.505C250.083 194.582 240.275 158.43 226.912 159.237C226.827 159.147 203.087 154.78 194.118 167.337C179.886 187.263 192.076 242.933 194.006 247.257C195.151 249.805 197.134 252.738 200.739 255.025C199.764 252.215 199.001 249.323 198.327 246.499C196.922 240.627 196.116 234.678 195.345 228.695C195.325 228.505 195.606 228.462 195.64 228.652Z" fill="#263238"/>
<path d="M198.716 239.047C210.759 260.057 227.599 288.849 235.279 291.336C255.226 297.796 294.665 300.928 308.085 296.522C313.134 294.864 309.693 253.465 304.236 255.048C294.155 257.973 252.369 259.398 249.121 258.15C246.864 257.282 227.144 239.004 211.883 228.1C190.231 212.632 194.398 231.514 198.716 239.047Z" fill="#D3766A"/>
<g opacity="0.1">
<path d="M198.716 239.047C210.759 260.057 227.599 288.849 235.279 291.336C255.226 297.796 294.665 300.928 308.085 296.522C313.134 294.864 309.693 253.465 304.236 255.048C294.155 257.973 252.369 259.398 249.121 258.15C246.864 257.282 227.144 239.004 211.883 228.1C190.231 212.632 194.398 231.514 198.716 239.047Z" fill="black"/>
</g>
<path d="M362.186 262.488C361.984 263.343 361.536 263.86 360.91 264.146C363.883 266.332 365.735 268.818 364.579 271.343C363.91 272.823 362.423 273.466 360.511 273.497C361.805 274.827 362.22 276.245 361.25 277.712C359.547 280.284 352.614 279.475 345.832 277.909C350.31 279.721 353.703 281.971 352.275 284.342C348.46 290.627 333.638 285.509 323.113 283.455C319.99 282.842 316.043 282.37 313.184 282.738C312.659 282.806 312.167 282.906 311.72 283.047C310.409 283.438 309.525 284.128 309.416 285.238C309.234 287.221 313.493 288.888 316.55 289.084C322.353 289.43 329.373 294.988 329.194 298.625C328.942 303.952 315.738 301.391 310.919 301.641C304.469 301.979 293.883 298.884 293.085 298.777C293.085 298.777 292.118 294.87 291.086 289.373C289.1 278.894 286.871 262.661 290.507 256.897C290.507 256.897 310.696 248.013 331.822 245.897C339 245.185 363.999 255.334 362.186 262.488Z" fill="#D3766A"/>
<path opacity="0.1" d="M362.186 262.488C361.984 263.343 361.536 263.86 360.91 264.146C363.883 266.332 365.735 268.818 364.579 271.343C363.91 272.823 362.423 273.466 360.511 273.497C361.805 274.827 362.22 276.245 361.25 277.712C359.547 280.284 352.614 279.475 345.832 277.909C350.31 279.721 353.703 281.971 352.275 284.342C348.46 290.627 333.638 285.509 323.113 283.455C319.99 282.842 316.043 282.37 313.184 282.738C312.659 282.806 312.167 282.906 311.72 283.047C310.409 283.438 309.525 284.128 309.416 285.238C309.234 287.221 313.493 288.888 316.55 289.084C322.353 289.43 329.373 294.988 329.194 298.625C328.942 303.952 315.738 301.391 310.919 301.641C304.469 301.979 293.883 298.884 293.085 298.777C293.085 298.777 292.118 294.87 291.086 289.373C289.1 278.894 286.871 262.661 290.507 256.897C290.507 256.897 310.696 248.013 331.822 245.897C339 245.185 363.999 255.334 362.186 262.488Z" fill="black"/>
<path d="M321.42 271.995C325.771 271.223 329.276 271.379 333.581 272.501C339.047 273.926 341.655 275.802 346.59 278.002C346.72 278.06 346.636 278.264 346.506 278.206C344.156 277.162 336.178 274.039 333.786 273.28C329.403 271.887 325.975 271.408 321.428 272.072C321.38 272.079 321.372 272.004 321.42 271.995Z" fill="#263238"/>
<path d="M322.776 262.506C327.819 262.187 331.273 262.12 336.308 262.842C341.818 263.633 346.837 266.29 351.743 268.82C354.689 270.34 357.604 271.921 360.48 273.574C360.601 273.644 360.524 273.846 360.396 273.778C355.394 271.141 350.314 268.65 345.163 266.324C340.317 264.136 335.331 262.903 330.032 262.719C327.046 262.615 325.769 262.466 322.788 262.594C322.731 262.596 322.719 262.509 322.776 262.506Z" fill="#263238"/>
<path d="M324.208 253.765C329.002 253.148 333.247 252.494 338.046 253.546C344.4 254.938 350.339 258.278 352.778 259.578C355.472 261.014 358.117 262.538 360.739 264.103C360.846 264.166 360.74 264.355 360.63 264.293C354.712 260.934 348.551 257.931 342.257 255.367C339.249 254.142 337.057 253.654 333.817 253.402C330.614 253.152 327.395 253.497 324.211 253.798C324.191 253.8 324.187 253.768 324.208 253.765Z" fill="#263238"/>
<path d="M239.659 246.433L220.305 278.996C220.305 278.996 198.459 243.524 194.979 231.279C191.062 217.498 198.965 218.509 210.917 225.037C222.867 231.566 239.659 246.433 239.659 246.433Z" fill="#FFC727"/>
<path d="M233.089 244.078C230.062 247.891 222.6 260.604 221.345 262.693C220.683 263.795 218.238 268.305 217.569 269.398C217.484 269.538 217.716 269.644 217.801 269.505C219.076 267.419 220.572 265.46 221.867 263.379C223.192 261.25 231.222 248.64 233.249 244.179C233.294 244.082 233.158 243.992 233.089 244.078Z" fill="#263238"/>
<path opacity="0.1" d="M232.752 258.056L220.306 279.001C220.306 279.001 198.458 243.524 194.975 231.278C193.102 224.671 193.943 221.463 196.64 220.626L196.651 220.625L232.752 258.056Z" fill="black"/>
<path d="M341.061 439.631C344.338 438.537 341.429 429.079 337.782 426.157C336.622 425.231 332.322 423.041 326.931 420.442C315.06 414.733 297.995 407.106 297.995 407.106L312.541 345.509L253.286 345.831C253.286 345.831 237.105 403.684 237.203 407.281C237.208 407.503 237.213 407.725 237.217 407.947C237.724 424.274 238.532 437.64 239.876 438.479C243.467 440.753 337.764 440.736 341.061 439.631Z" fill="#D3766A"/>
<path d="M341.063 439.627C337.763 440.737 243.464 440.757 239.874 438.477C238.534 437.637 237.724 424.277 237.214 407.947C237.214 407.727 237.204 407.497 237.204 407.277C237.184 406.507 237.904 403.257 239.054 398.627H299.993L297.993 407.107C297.993 407.107 315.063 414.737 326.933 420.437C332.323 423.037 336.623 425.227 337.783 426.157C341.433 429.077 344.333 438.538 341.063 439.627Z" fill="#EBEBEB"/>
<path d="M342.122 440.159C338.767 441.286 242.75 441.176 239.1 438.847C237.697 437.986 236.898 423.995 236.417 407.061C236.414 406.884 236.411 406.707 236.407 406.53L298.353 405.909L298.328 406.96C298.328 406.96 335.062 423.441 338.808 426.424C342.525 429.396 345.478 439.047 342.122 440.159Z" fill="#FFC727"/>
<path d="M341.04 436.435C324.855 436.019 259.535 435.869 243.505 436.687C243.374 436.694 243.374 436.783 243.505 436.789C259.538 437.552 324.857 437.173 341.041 436.7C341.382 436.69 341.382 436.444 341.04 436.435Z" fill="#263238"/>
<path d="M305.249 406.094C298.881 404.898 291.09 405.867 286.218 410.399C286.029 410.575 286.281 410.84 286.488 410.775C292.774 408.801 298.643 407.537 305.222 406.898C305.686 406.854 305.705 406.18 305.249 406.094Z" fill="#263238"/>
<path d="M309.844 408.87C303.476 407.674 295.685 408.643 290.813 413.175C290.624 413.351 290.877 413.617 291.083 413.552C297.369 411.579 303.238 410.314 309.817 409.675C310.281 409.63 310.3 408.956 309.844 408.87Z" fill="#263238"/>
<path d="M314.438 411.646C308.07 410.45 300.279 411.419 295.407 415.951C295.218 416.127 295.469 416.392 295.676 416.327C301.962 414.353 307.832 413.089 314.411 412.45C314.875 412.406 314.894 411.732 314.438 411.646Z" fill="#263238"/>
<path d="M313.547 392.212C311.048 388.762 306.386 390.307 303.724 392.538C299.414 396.151 295.639 401.798 293.898 407.117C293.855 407.248 293.943 407.327 294.048 407.347C294.066 407.831 294.5 408.345 295.046 408.144C300.307 406.202 306.173 404.779 310.682 401.281C313.315 399.237 315.911 395.475 313.547 392.212ZM302.421 403.569C299.856 404.586 297.258 405.472 294.731 406.585C296.655 403.746 298.447 400.84 300.657 398.197C301.712 396.936 302.818 395.661 304.037 394.554C305.933 392.832 313.44 389.171 312.309 396.158C311.686 400.009 305.478 402.355 302.421 403.569Z" fill="#263238"/>
<path d="M277.712 405.435C282.959 407.679 288.994 407.572 294.576 408.119C295.155 408.176 295.445 407.569 295.34 407.096C295.437 407.05 295.501 406.951 295.427 406.836C292.397 402.131 287.316 397.623 282.232 395.218C279.093 393.733 274.191 393.418 272.647 397.387C271.185 401.142 274.649 404.125 277.712 405.435ZM274.842 400.891C271.98 394.417 280.169 396.06 282.439 397.246C283.897 398.009 285.291 398.962 286.631 399.915C289.437 401.913 291.906 404.272 294.486 406.531C291.761 406.094 289.022 405.895 286.283 405.559C283.02 405.159 276.419 404.46 274.842 400.891Z" fill="#263238"/>
<path d="M170.712 304.45C170.712 304.45 160.089 342.901 178.632 354.281C191.012 361.879 245.72 351.371 248.048 344.609C252.446 331.835 252.454 327.153 252.454 327.153L238.406 394.883L307.326 395.691C307.326 395.691 320.26 339.658 316.937 280.187C315.709 258.198 286.151 251.545 265.59 262.483C245.654 273.088 209.952 302.526 209.952 302.526L170.712 304.45Z" fill="#37474F"/>
<path d="M244.221 355.193C247.934 346.103 247.644 342.535 256.92 314.323C258.16 310.552 259.197 306.718 260.305 302.906C261.454 298.954 262.814 295.017 263.684 290.992C263.726 290.796 264.045 290.877 263.986 291.069C262.915 294.556 262.221 298.157 261.299 301.686C260.396 305.141 259.479 308.592 258.514 312.029C258.097 313.514 257.661 314.993 257.237 316.476C257.424 316.168 257.611 315.862 257.786 315.561C258.596 314.169 259.409 312.784 260.253 311.412C261.991 308.587 264.096 305.931 265.618 302.984C265.71 302.805 265.996 302.966 265.89 303.136C264.138 305.954 262.893 309.084 261.252 311.971C260.456 313.372 259.622 314.743 258.768 316.11C258.014 317.316 257.256 318.686 256.293 319.768C255.027 324.124 252.309 334.614 250.956 338.943C246.692 352.583 248.09 348.144 244.911 355.466C244.742 355.851 244.061 355.585 244.221 355.193Z" fill="#263238"/>
<path d="M275.613 383.691C265.238 383.582 254.88 382.994 244.509 382.796C244.312 382.792 244.282 382.487 244.485 382.486C254.824 382.426 265.152 382.022 275.493 382.146C285.872 382.269 296.221 382.781 306.592 383.129C306.857 383.138 306.899 383.548 306.625 383.548C296.284 383.569 285.955 383.8 275.613 383.691Z" fill="#263238"/>
<path d="M250.186 380.225C251.134 375.645 252.46 371.141 253.67 366.625C254.882 362.103 256.095 357.583 257.344 353.072C259.842 344.046 262.446 335.05 265.044 326.052C266.519 320.944 268.112 315.862 269.677 310.781C269.722 310.636 269.946 310.688 269.908 310.838C265.286 328.984 260.297 347.038 255.006 365.001C253.505 370.097 252.14 375.262 250.349 380.266C250.312 380.364 250.164 380.332 250.186 380.225Z" fill="#263238"/>
<path d="M178.628 354.276C160.088 342.898 170.708 304.449 170.708 304.449L203.778 302.833L248.798 342.395C248.562 343.104 248.315 343.843 248.049 344.612C245.725 351.37 191.011 361.881 178.628 354.276Z" fill="#263238"/>
<path d="M307.669 394.134C307.452 395.158 307.324 395.69 307.324 395.69L238.405 394.882L249.212 342.76L307.669 394.134Z" fill="#263238"/>
<path d="M33.0869 448.847C32.4679 452.246 42.1569 454.251 46.4749 452.462C47.8449 451.892 51.8349 449.178 56.7099 445.706C67.4299 438.052 82.3339 426.77 82.3339 426.77L132.977 429.832L161.234 377.748C161.234 377.748 114.66 375.057 111.46 373.41C111.263 373.307 111.066 373.205 110.869 373.102C96.3159 365.683 84.2139 359.954 82.8309 360.727C79.1079 362.778 33.7069 445.425 33.0869 448.847Z" fill="#D3766A"/>
<path d="M120.349 374.749L93.7048 427.461L82.3308 426.769C82.3308 426.769 67.4248 438.044 56.7038 445.704C51.8298 449.17 47.8518 451.886 46.4748 452.462C42.1588 454.257 32.4688 452.241 33.0858 448.844C33.7068 445.42 79.1078 362.778 82.8318 360.724C84.2068 359.957 96.3228 365.68 110.867 373.103C111.072 373.2 111.262 373.308 111.454 373.402C112.245 373.812 115.649 374.28 120.349 374.749Z" fill="#EBEBEB"/>
<path d="M32.1129 449.523C32.7409 446.04 79.0839 361.947 82.8819 359.87C84.3119 359.055 96.9589 365.093 112.031 372.828C112.188 372.91 112.344 372.993 112.501 373.075L83.2089 427.662L82.2999 427.134C82.2999 427.134 50.1639 451.388 45.7449 453.235C41.3509 455.06 31.4709 453 32.1129 449.523Z" fill="#FFC727"/>
<path d="M35.8977 450.368C44.0577 436.384 75.6497 379.213 82.6537 364.77C82.7107 364.652 82.6327 364.61 82.5637 364.721C74.1727 378.405 43.0457 435.831 35.6647 450.241C35.5097 450.545 35.7247 450.664 35.8977 450.368Z" fill="#263238"/>
<path d="M79.7256 433.616C83.8406 428.611 86.7436 421.317 85.1186 414.864C85.0556 414.614 84.7016 414.707 84.6586 414.919C83.3606 421.378 81.6426 427.131 79.0336 433.205C78.8486 433.633 79.4306 433.974 79.7256 433.616Z" fill="#263238"/>
<path d="M75.0795 436.305C79.1945 431.301 82.0985 424.006 80.4725 417.553C80.4095 417.303 80.0545 417.396 80.0125 417.608C78.7145 424.068 76.9955 429.82 74.3865 435.894C74.2035 436.322 74.7845 436.663 75.0795 436.305Z" fill="#263238"/>
<path d="M70.4343 438.994C74.5493 433.989 77.4533 426.695 75.8273 420.242C75.7643 419.992 75.4103 420.085 75.3673 420.297C74.0693 426.757 72.3503 432.509 69.7413 438.582C69.5573 439.011 70.1393 439.352 70.4343 438.994Z" fill="#263238"/>
<path d="M87.8945 447.574C92.1215 447.046 93.0125 442.216 92.3395 438.809C91.2485 433.292 88.1185 427.263 84.2955 423.176C84.2015 423.076 84.0895 423.114 84.0225 423.197C83.5885 422.979 82.9305 423.112 82.8435 423.688C82.0115 429.234 80.4335 435.06 81.3275 440.697C81.8495 443.987 83.8965 448.074 87.8945 447.574ZM83.3005 432.354C83.6435 429.616 84.1195 426.912 84.3615 424.163C85.9225 427.217 87.6065 430.187 88.8585 433.396C89.4555 434.928 90.0405 436.512 90.4235 438.112C91.0195 440.603 90.6125 448.945 85.0335 444.589C81.9575 442.188 82.8915 435.617 83.3005 432.354Z" fill="#263238"/>
<path d="M93.5654 409.801C89.0714 413.319 86.2584 418.659 83.0904 423.287C82.7614 423.767 83.1544 424.313 83.6194 424.449C83.6124 424.556 83.6684 424.66 83.8054 424.651C89.3884 424.262 95.7864 421.98 100.342 418.683C103.156 416.647 105.793 412.503 103.058 409.238C100.471 406.148 96.1884 407.747 93.5654 409.801ZM98.9304 409.474C105.981 410.084 100.598 416.469 98.4654 417.888C97.0944 418.799 95.5874 419.561 94.1074 420.276C91.0044 421.773 87.7484 422.8 84.5264 423.973C86.2224 421.795 87.7154 419.491 89.3294 417.253C91.2514 414.585 95.0434 409.138 98.9304 409.474Z" fill="#263238"/>
<path d="M217.843 297.151C217.843 297.151 219.598 313.141 219.438 325.378C219.438 325.378 284.905 359.688 287.893 392.301C288.951 403.853 287.409 425.494 264.76 435.357C239.452 446.378 99.5879 438.79 99.5879 438.79L117.061 374.395L178.748 374.421C178.748 374.421 135.219 381.345 130.491 352.338C126.096 325.378 142.656 297.151 142.656 297.151H217.843Z" fill="#37474F"/>
<path d="M114.033 435.638C115.575 428.22 117.066 420.764 118.787 413.385C120.512 405.986 122.346 398.62 124.294 391.285C124.844 389.214 125.411 387.149 125.971 385.081C126.238 384.095 126.506 383.111 126.794 382.131C127.084 381.144 127.309 380.118 127.695 379.171C127.738 379.064 127.856 379.126 127.846 379.227C127.67 381.114 127.139 383.066 126.736 384.92C126.347 386.71 125.975 388.505 125.583 390.294C124.775 393.975 123.955 397.65 123.111 401.322C121.419 408.682 119.545 415.977 117.632 423.274C116.545 427.419 115.454 431.563 114.35 435.701C114.288 435.935 113.982 435.884 114.033 435.638Z" fill="#263238"/>
<path d="M157.451 374.412C162.449 374.054 167.457 373.892 172.465 373.792C177.474 373.69 182.484 373.744 187.495 373.831C192.503 373.994 197.514 374.191 202.51 374.639C207.5 375.094 212.502 375.648 217.388 376.786L213.665 376.304L209.931 375.949C207.441 375.737 204.951 375.531 202.453 375.42C197.464 375.134 192.468 374.929 187.468 374.847C182.471 374.675 177.469 374.636 172.466 374.571L157.451 374.412Z" fill="#263238"/>
<path d="M156.359 302.433C154.118 308.171 152.183 314.024 150.541 319.951C148.917 325.88 147.619 331.909 146.976 338.002C146.669 341.046 146.545 344.113 146.784 347.145C147.028 350.163 147.628 353.192 149.006 355.834C149.68 357.158 150.595 358.338 151.675 359.321C152.792 360.307 154.039 361.155 155.345 361.899C157.978 363.364 160.84 364.429 163.76 365.283C169.623 366.965 175.718 367.837 181.811 368.559C187.914 369.266 194.051 369.764 200.189 370.39C206.324 371.018 212.481 371.754 218.535 373.242C221.54 373.992 224.583 374.957 227.35 376.492C230.114 378.01 232.653 379.82 235.018 381.925L236.404 383.159L234.533 383.134L184.653 382.461L159.712 382.26C151.398 382.228 143.084 382.213 134.771 382.436C143.074 381.952 151.394 381.824 159.709 381.675C168.025 381.536 176.341 381.511 184.657 381.486L209.605 381.504L234.552 381.738L234.067 382.946C231.826 380.965 229.31 379.182 226.668 377.749C224.033 376.297 221.145 375.395 218.18 374.668C212.253 373.245 206.138 372.546 200.032 371.868C193.918 371.215 187.776 370.687 181.644 369.947C175.519 369.19 169.373 368.285 163.389 366.539C160.406 365.657 157.46 364.543 154.732 362.96C153.375 362.161 152.074 361.25 150.896 360.179C149.714 359.076 148.734 357.764 148.029 356.333C146.59 353.471 146.026 350.315 145.815 347.213C145.613 344.097 145.784 340.986 146.136 337.909C146.847 331.75 148.327 325.728 150.079 319.818C151.857 313.911 153.929 308.095 156.359 302.433Z" fill="#263238"/>
<path d="M210.712 296.475C210.713 296.337 210.94 296.323 210.956 296.462C211.213 298.693 211.994 311.431 212.38 316.23C212.518 317.941 212.424 320.988 214.917 320.986C216.89 320.984 217.872 318.833 218.091 317.161C218.357 315.123 217.265 300.336 217.013 295.414C217.006 295.273 217.233 295.267 217.257 295.401C218.164 300.332 219.922 316.015 219.4 318.214C218.99 319.938 218.104 321.575 216.35 322.155C216.314 322.167 216.633 324.459 216.267 327.967C216.25 328.128 215.751 328.171 215.713 328.042L215.701 328.046C215.787 326.894 215.176 322.426 215.192 322.401C213.899 322.398 212.886 322.109 212.019 320.954C210.287 318.646 210.666 302.149 210.712 296.475Z" fill="#263238"/>
<path d="M203.638 334.254C205.422 333.024 207.268 331.904 209.126 330.804C210.979 329.695 212.875 328.663 214.778 327.645C216.693 326.649 218.612 325.66 220.58 324.766C222.543 323.864 224.522 322.989 226.566 322.269C225.639 322.832 224.688 323.339 223.759 323.892L220.933 325.463C219.054 326.518 217.152 327.528 215.251 328.543C213.34 329.537 211.435 330.544 209.496 331.488L206.589 332.91C205.605 333.354 204.636 333.83 203.638 334.254Z" fill="#263238"/>
<path d="M157.174 324.014C160.649 324 171.475 324.634 176.638 320.273C180.814 316.746 182.65 304.701 183.37 301.396C183.405 301.232 183.644 301.288 183.648 301.441C183.759 305.147 183.229 308.922 182.247 312.495C181.409 315.545 180.279 318.951 177.814 321.089C175.22 323.339 171.699 324.129 168.38 324.539C164.633 325.002 160.897 324.892 157.165 324.384C156.934 324.352 156.93 324.015 157.174 324.014Z" fill="#263238"/>
<path d="M220.507 286.967L218.165 313.932L132.67 314.451C132.67 314.451 156.622 246.998 180.726 224.136C190.314 215.042 199.277 217.666 206.15 224.544C207.718 226.114 226.719 257.063 228.366 268.151C229.719 277.257 220.507 286.967 220.507 286.967Z" fill="#FFC727"/>
<path d="M208.57 281.932C204.302 282.139 200.002 282.534 195.767 283.552C193.66 284.059 191.581 284.687 189.5 285.373C188.462 285.715 187.424 286.013 186.379 286.304C185.307 286.602 184.161 286.868 183.072 286.822C182.974 286.818 182.96 287.007 183.057 287.018C184.109 287.144 185.116 287.261 186.182 287.204C187.194 287.151 188.214 286.958 189.218 286.728C191.358 286.24 193.483 285.625 195.62 285.109C199.93 284.067 204.239 283.028 208.583 282.386C208.783 282.358 208.772 281.922 208.57 281.932Z" fill="#263238"/>
<path d="M218.604 287.658C215.175 286.91 211.657 286.364 208.163 286.126C206.405 286.006 204.652 286.019 202.886 286.091C202.043 286.126 201.2 286.18 200.356 286.247C199.428 286.321 198.501 286.555 197.575 286.612C197.478 286.618 197.461 286.81 197.56 286.808C198.434 286.788 199.308 286.955 200.179 287.001C201.055 287.048 201.931 287.084 202.807 287.13C204.56 287.222 206.311 287.338 208.066 287.408C211.579 287.548 215.074 287.733 218.576 288.03C218.765 288.047 218.781 287.697 218.604 287.658Z" fill="#263238"/>
<path d="M193.496 223.521C193.504 225.245 198.884 237.653 206.443 239.014C208.906 239.453 211.902 226.118 211.902 226.118L212.349 225.184L218.585 212.107L204.773 198.015L202.748 196.105C202.748 196.105 201.278 199.795 199.493 204.408C199.409 204.622 199.325 204.835 199.238 205.065C199.13 205.323 199.026 205.566 198.936 205.812C198.66 206.497 198.382 207.199 198.119 207.903C197.917 208.438 197.718 208.958 197.526 209.528C197.319 210.095 197.13 210.649 196.923 211.216C195.004 216.847 193.503 222.791 193.496 223.521Z" fill="#D3766A"/>
<path d="M199.493 204.408C200.931 216.28 208.67 222.757 212.349 225.184L218.585 212.107L204.773 198.015L202.748 196.105C202.748 196.105 201.278 199.795 199.493 204.408Z" fill="#263238"/>
<path d="M243.096 195.651C238.773 220.706 223.278 220.947 217.876 220.008C212.972 219.156 196.384 215.634 198.094 190.265C199.805 164.897 212.821 158.986 224.14 160.34C235.458 161.695 247.419 170.594 243.096 195.651Z" fill="#D3766A"/>
<path d="M238.943 188.706C238.367 188.537 237.863 188.284 237.311 188.058C236.687 187.802 236.165 187.663 235.773 187.079C235.563 186.766 235.677 186.224 235.961 185.991C236.624 185.449 237.466 185.572 238.229 185.849C239.057 186.149 239.619 186.593 240.07 187.348C240.508 188.079 239.703 188.928 238.943 188.706Z" fill="#263238"/>
<path d="M222.396 186.037C222.996 186.07 223.555 186 224.151 185.971C224.824 185.938 225.364 185.981 225.929 185.562C226.231 185.337 226.305 184.788 226.114 184.473C225.67 183.74 224.836 183.576 224.024 183.582C223.143 183.589 222.466 183.82 221.788 184.381C221.131 184.924 221.605 185.994 222.396 186.037Z" fill="#263238"/>
<path d="M224.647 192.933C224.643 192.866 224.501 192.994 224.493 193.065C224.294 194.785 223.777 196.722 222.143 197.062C222.092 197.073 222.085 197.16 222.143 197.16C224.074 197.173 224.734 194.595 224.647 192.933Z" fill="#263238"/>
<path d="M223.382 190.918C220.659 190.301 219.626 195.794 222.149 196.365C224.633 196.927 225.665 191.435 223.382 190.918Z" fill="#263238"/>
<path d="M222.25 191.006C221.712 191.227 221.139 191.687 220.55 191.635C219.868 191.575 219.471 190.906 219.137 190.27C219.102 190.204 219.046 190.243 219.031 190.316C218.817 191.365 219.02 192.521 220.118 192.89C221.12 193.227 222.034 192.434 222.496 191.425C222.583 191.238 222.467 190.917 222.25 191.006Z" fill="#263238"/>
<path d="M234.566 194.384C234.591 194.322 234.683 194.49 234.667 194.56C234.28 196.248 234.121 198.247 235.548 199.112C235.592 199.139 235.571 199.223 235.515 199.204C233.691 198.572 233.928 195.921 234.566 194.384Z" fill="#263238"/>
<path d="M236.431 192.907C239.205 193.235 238.344 198.757 235.775 198.454C233.246 198.154 234.107 192.632 236.431 192.907Z" fill="#263238"/>
<path d="M237.526 193.45C237.917 193.811 238.266 194.41 238.782 194.525C239.38 194.659 239.919 194.131 240.395 193.618C240.444 193.565 240.481 193.618 240.471 193.691C240.336 194.751 239.816 195.796 238.77 195.841C237.816 195.882 237.278 194.87 237.191 193.78C237.173 193.578 237.369 193.304 237.526 193.45Z" fill="#263238"/>
<path d="M222.653 206.678C222.963 207.168 223.238 207.806 223.838 208.001C224.413 208.189 225.163 208.085 225.749 208.003C225.807 207.995 225.848 208.064 225.802 208.107C225.212 208.651 224.196 208.839 223.447 208.519C222.716 208.206 222.493 207.458 222.473 206.717C222.469 206.613 222.607 206.607 222.653 206.678Z" fill="#263238"/>
<path d="M230.865 201.769C230.865 201.769 230.769 204.377 230.558 205.579C230.537 205.691 230.238 205.694 229.826 205.646C229.805 205.649 229.793 205.654 229.779 205.639C227.6 205.597 225.592 204.489 224.608 202.531C224.545 202.399 224.72 202.302 224.816 202.396C226.195 203.837 227.893 204.445 229.768 204.807C229.911 204.489 229.783 200.334 229.976 200.353C230.643 200.412 231.858 201.087 232.595 201.451C232.952 196.023 232.437 190.582 232.873 185.183C232.893 184.991 233.175 184.982 233.2 185.16C234.145 190.824 233.87 197.079 233.645 202.694C233.624 203.395 231.31 202.058 230.865 201.769Z" fill="#263238"/>
<path d="M228.876 204.999C228.876 204.999 227.607 206.199 226.118 206.449C225.568 206.543 224.999 206.517 224.444 206.259C223.302 205.732 223.467 204.628 223.853 203.726C224.168 202.984 224.644 202.381 224.644 202.381C224.644 202.381 226.103 204.329 228.876 204.999Z" fill="#263238"/>
<path d="M226.118 206.45C225.568 206.544 224.999 206.518 224.444 206.26C223.302 205.733 223.467 204.629 223.853 203.727C225.113 204.086 226.229 205.182 226.118 206.45Z" fill="#FF9CBD"/>
<path d="M197.451 194.577C201.762 195.409 203.799 186.404 203.799 186.404C203.799 186.404 212.633 187.437 216.996 175.062C216.996 175.062 216.131 180.956 211.888 185.124C211.888 185.124 227.657 185.247 235.704 172.955C235.704 172.955 232.33 179.299 229.607 181.381C229.607 181.381 236.35 180.302 240.142 175.359C240.142 175.359 242.013 183.196 243.876 185.514C243.876 185.514 246.338 158.177 220.751 158.199C220.751 158.199 204.816 157.447 197.711 169.319C190.605 181.191 197.451 194.577 197.451 194.577Z" fill="#263238"/>
<path d="M206.925 187.559L200.579 181.507L199.109 183.316L206.076 188.558L206.925 187.559Z" fill="#FFC727"/>
<path d="M205.656 189.408L198.335 184.58L197.211 186.621L204.998 190.542L205.656 189.408Z" fill="#FFC727"/>
<path d="M201.744 192.876C201.744 192.876 198.398 183.788 194.411 184.786C190.425 185.783 191.532 197.971 195.219 200.569C198.907 203.167 201.379 199.801 201.379 199.801L201.744 192.876Z" fill="#D3766A"/>
<path d="M194.816 188.272C194.752 188.249 194.715 188.338 194.766 188.376C197.327 190.292 198.136 193.347 198.468 196.382C197.895 195.096 196.887 194.21 195.198 194.85C195.109 194.883 195.15 195.019 195.235 195.024C196.476 195.081 197.269 195.508 197.815 196.657C198.201 197.471 198.364 198.414 198.563 199.289C198.63 199.581 199.129 199.565 199.109 199.244C199.107 199.221 199.105 199.196 199.103 199.172C200.138 195.535 198.643 189.673 194.816 188.272Z" fill="#263238"/>
<path d="M178.703 249.247C181.293 274.586 188.061 319.73 205.39 325.76C216.535 329.638 251.646 306.713 263.673 297.232C267.937 293.87 250.602 261.241 245.156 263.254C238.024 265.891 217.075 280.399 215.211 279.822C213.668 279.344 207.646 262.281 197.594 243.793C184.916 220.472 176.569 228.372 178.703 249.247Z" fill="#D3766A"/>
<path d="M268.851 291.94C264.942 299.409 253.119 301.42 253.119 301.42L236.834 269.825C236.834 269.825 246.064 262.842 248.768 257.319C249.553 255.715 254.009 247.483 257.82 239.223C262.146 229.846 267.88 220.568 269.03 220.087C271.241 219.163 273.837 222.21 272.415 229.21C271.001 236.211 265.864 249.378 265.764 250.249C265.751 250.358 265.78 250.661 265.837 251.124C265.837 251.124 265.837 251.124 265.844 251.133C266 251.49 274.249 257.39 274.275 261.976C274.301 266.651 271.553 286.776 268.851 291.94Z" fill="#D3766A"/>
<path d="M258.066 261.817C258.066 261.817 257.809 244.422 259.838 241.424C261.867 238.426 271.299 218.565 273.492 217.595C275.685 216.625 278.298 219.722 276.879 226.721C275.46 233.721 270.325 246.884 270.224 247.761C270.123 248.638 272.839 263.714 272.67 265.18C272.502 266.646 258.066 261.817 258.066 261.817Z" fill="#D3766A"/>
<path d="M256.534 252.042C256.927 250.176 257.397 248.33 257.858 246.478C258.102 245.556 258.359 244.638 258.633 243.721C258.771 243.263 258.91 242.805 259.067 242.347C259.139 242.119 259.232 241.887 259.318 241.657C259.42 241.416 259.545 241.167 259.65 240.979C261.405 237.619 263.187 234.244 264.982 230.89C266.801 227.539 268.587 224.199 270.506 220.876C271.02 220.049 271.597 219.252 272.309 218.558C272.666 218.213 273.058 217.894 273.512 217.651C273.961 217.414 274.495 217.234 275.048 217.326C275.599 217.413 276.061 217.778 276.342 218.193C276.635 218.611 276.815 219.076 276.946 219.543C277.212 220.48 277.264 221.445 277.265 222.396C277.155 221.452 277.009 220.504 276.69 219.625C276.529 219.189 276.322 218.768 276.039 218.427C275.761 218.082 275.381 217.848 274.982 217.819C274.162 217.751 273.373 218.361 272.764 219.008C272.142 219.675 271.629 220.457 271.179 221.269C269.449 224.629 267.668 228.018 265.872 231.368C264.051 234.716 262.255 238.063 260.318 241.362C259.842 242.105 259.566 243.036 259.235 243.917C258.918 244.81 258.628 245.715 258.328 246.617L256.534 252.042Z" fill="#263238"/>
<path d="M260.78 264.658C260.78 264.658 260.574 245.59 262.603 242.592C264.632 239.594 274.065 219.733 276.258 218.763C278.451 217.793 281.064 220.89 279.645 227.889C278.226 234.889 273.091 248.052 272.99 248.929C272.889 249.806 273.998 264.634 273.829 266.1C273.66 267.566 260.78 264.658 260.78 264.658Z" fill="#D3766A"/>
<path d="M258.112 255.238C258.697 252.974 259.368 250.735 260.041 248.494C260.397 247.38 260.761 246.268 261.149 245.16C261.344 244.607 261.546 244.054 261.765 243.504C261.977 242.961 262.265 242.375 262.542 241.888C264.748 237.778 266.976 233.669 269.23 229.579L272.65 223.462L273.523 221.94C273.81 221.441 274.117 220.905 274.486 220.416C274.853 219.927 275.268 219.463 275.764 219.07C276.261 218.691 276.854 218.334 277.588 218.311C277.949 218.301 278.327 218.408 278.628 218.607C278.937 218.802 279.151 219.075 279.331 219.346C279.677 219.902 279.857 220.498 279.985 221.088C280.229 222.273 280.279 223.462 280.255 224.639C280.205 227.007 279.685 229.337 278.844 231.515C279.471 229.268 279.881 226.95 279.767 224.641C279.733 223.486 279.644 222.327 279.37 221.233C279.232 220.69 279.038 220.16 278.748 219.733C278.458 219.3 278.055 219.042 277.614 219.079C277.166 219.104 276.698 219.378 276.293 219.719C275.89 220.072 275.518 220.483 275.197 220.936C274.571 221.832 274.052 222.917 273.481 223.925L270.114 230.067C267.85 234.154 265.595 238.241 263.243 242.285C262.925 242.803 262.679 243.257 262.44 243.793C262.206 244.318 261.983 244.854 261.768 245.394C261.338 246.475 260.929 247.566 260.528 248.662L258.112 255.238Z" fill="#263238"/>
<path d="M260.187 264.527C260.187 264.527 263.88 247.928 265.768 245.137C267.656 242.346 273.249 228.382 275.29 227.479C277.331 226.576 279.764 229.459 278.443 235.975C277.122 242.491 275.531 250.22 275.437 251.036C275.343 251.852 273.987 264.736 273.829 266.1C273.671 267.465 260.187 264.527 260.187 264.527Z" fill="#D3766A"/>
<path d="M259.802 259.799C260.639 256.908 261.525 254.033 262.398 251.154C262.833 249.714 263.282 248.278 263.745 246.845L264.096 245.77C264.208 245.411 264.368 245.03 264.525 244.693C264.842 244 265.182 243.326 265.526 242.654C266.918 239.977 268.366 237.334 269.907 234.743C270.677 233.447 271.458 232.157 272.27 230.883C272.676 230.246 273.089 229.612 273.52 228.985C273.964 228.357 274.372 227.743 274.967 227.133C275.285 226.837 275.745 226.533 276.309 226.554C276.868 226.568 277.313 226.877 277.618 227.185C278.238 227.827 278.564 228.577 278.825 229.328C279.312 230.832 279.483 232.45 279.207 234.015C278.692 236.999 278.108 239.941 277.535 242.898C276.956 245.836 276.366 248.835 275.751 251.717C275.515 253.185 275.324 254.685 275.122 256.174C274.9 257.663 274.685 259.153 274.416 260.638C274.483 257.618 274.651 254.627 274.906 251.605L276.616 242.721C277.165 239.768 277.727 236.805 278.211 233.856C278.457 232.455 278.323 230.99 277.894 229.635C277.675 228.97 277.367 228.308 276.935 227.863C276.48 227.404 276.087 227.388 275.616 227.819C275.154 228.282 274.705 228.914 274.281 229.512C273.854 230.12 273.441 230.744 273.034 231.371C272.219 232.627 271.432 233.904 270.655 235.187C269.117 237.763 267.565 240.337 266.129 242.97C265.771 243.628 265.416 244.289 265.092 244.956C264.755 245.609 264.545 246.308 264.285 247.023L262.798 251.281L259.802 259.799Z" fill="#263238"/>
<path d="M212.45 268.718L181.677 290.807C181.677 290.807 175.862 249.556 177.575 236.942C179.503 222.745 186.341 226.836 194.678 237.604C203.017 248.372 212.45 268.718 212.45 268.718Z" fill="#FFC727"/>
<path d="M207.373 263.93C203.073 266.212 191.144 274.874 189.158 276.286C188.111 277.031 184.064 280.184 183.014 280.918C182.88 281.012 183.05 281.202 183.184 281.109C185.188 279.708 187.343 278.512 189.363 277.124C191.43 275.703 203.837 267.363 207.481 264.088C207.559 264.016 207.471 263.878 207.373 263.93Z" fill="#263238"/>
<path d="M177.813 253.691C177.789 253.515 177.543 253.562 177.548 253.73C177.642 257.27 177.828 260.808 178.068 264.342C177.5 262.575 177.158 260.769 176.916 258.906C176.905 258.824 176.784 258.843 176.79 258.924C176.925 261.047 177.452 263.173 178.13 265.199C178.304 267.662 178.5 270.123 178.724 272.58C179.296 278.833 179.796 285.111 180.727 291.322C180.777 291.653 181.166 291.793 181.425 291.594C182.468 290.791 183.486 289.966 184.473 289.094C184.575 289.004 184.473 288.806 184.341 288.878C183.382 289.399 182.456 289.967 181.531 290.541C181.14 284.486 180.438 278.451 179.873 272.411C179.289 266.163 178.647 259.913 177.813 253.691Z" fill="#263238"/>
<path d="M205.647 253.95C204.926 252.085 204.201 250.222 203.415 248.382C203.399 248.344 203.344 248.369 203.357 248.407C203.834 249.8 204.343 251.178 204.863 252.554C203.405 250.005 201.903 247.485 200.292 245.046C200.268 245.01 200.21 245.047 200.227 245.086C202.105 249.112 204.204 253.033 206.178 257.014C208.114 260.92 210.113 264.788 212.119 268.659C211.497 269.27 210.863 269.867 210.219 270.456C210.096 270.569 210.243 270.743 210.38 270.654C211.182 270.133 211.982 269.617 212.806 269.132C213 269.018 213.126 268.804 213.022 268.577C210.769 263.631 208.313 258.727 205.647 253.95Z" fill="#263238"/>
<path d="M345.345 250.904C345.345 250.904 356.44 240.575 364.429 240.678C372.418 240.781 391.601 242.697 404.551 242.68C416.63 242.664 418.396 267.943 403.686 274.225C390.207 279.981 364.952 259.983 360.19 257.928C355.428 255.873 347.748 257.546 347.748 257.546C347.748 257.546 344.142 253.435 345.345 250.904Z" fill="#FFC727"/>
<path opacity="0.6" d="M345.345 250.904C345.345 250.904 356.44 240.575 364.429 240.678C372.418 240.781 391.601 242.697 404.551 242.68C416.63 242.664 418.396 267.943 403.686 274.225C390.207 279.981 364.952 259.983 360.19 257.928C355.428 255.873 347.748 257.546 347.748 257.546C347.748 257.546 344.142 253.435 345.345 250.904Z" fill="black"/>
<path d="M331.145 392.823C331.145 392.823 320.558 423.503 315.347 435.958C314.092 438.958 311.601 441.095 311.429 441.266C310.544 442.151 276.041 441.392 275.409 441.266C274.777 441.14 279.074 432.861 281.476 431.724C283.877 430.586 302.077 433.936 302.077 433.936C302.077 433.936 302.751 397.915 302.54 396.82C302.329 395.725 302.372 392.823 302.372 392.823L301.951 398.336C301.951 398.336 300.729 394.207 300.687 392.311C300.645 390.415 301.825 371.668 301.825 371.668L331.145 392.823Z" fill="#FFC727"/>
<path opacity="0.3" d="M331.145 392.823C331.145 392.823 320.558 423.503 315.347 435.958C314.092 438.958 311.601 441.095 311.429 441.266C310.544 442.151 276.041 441.392 275.409 441.266C274.777 441.14 279.074 432.861 281.476 431.724C283.877 430.586 302.077 433.936 302.077 433.936C302.077 433.936 302.751 397.915 302.54 396.82C302.329 395.725 302.372 392.823 302.372 392.823L301.951 398.336C301.951 398.336 300.729 394.207 300.687 392.311C300.645 390.415 301.825 371.668 301.825 371.668L331.145 392.823Z" fill="black"/>
<path d="M283.463 435.767C281.669 436.917 279.718 439.189 280.466 441.452C280.588 439.166 282.214 437.565 283.463 435.767Z" fill="#263238"/>
<path d="M279.924 435.557C278.13 436.707 276.179 438.979 276.927 441.242C277.049 438.955 278.676 437.354 279.924 435.557Z" fill="#263238"/>
<path opacity="0.1" d="M301.385 378.844C304.73 385.374 309.671 392.347 311.366 393.798C313.266 395.425 321.171 401.267 327.047 404.521C329.434 397.779 331.144 392.822 331.144 392.822L301.826 371.668C301.826 371.668 301.621 374.914 301.385 378.844Z" fill="black"/>
<path d="M437.032 413.269L441.746 420.249C453.23 402.11 461.165 376.697 459.967 355.71C459.706 351.168 459.282 341.274 458.001 337.592C456.656 333.733 452.624 328.936 452.292 328.551C452.494 328.939 454.972 333.754 455.832 338.313C455.549 337.632 455.248 336.974 454.925 336.325C444.435 315.072 406.398 307.344 406.398 307.344C406.398 307.344 429.893 324.868 439.271 356.079C442.582 367.101 442.625 379.226 441.605 389.464C442.002 384.526 441.294 377.009 441.247 376.547C441.201 377.427 439.969 400.929 438.617 407.287C438.564 407.524 438.515 407.725 438.468 407.908C438.428 408.062 438.398 408.195 438.373 408.317C437.606 411.448 437.032 413.269 437.032 413.269Z" fill="#FFC727"/>
<path opacity="0.3" d="M437.032 413.269L441.746 420.249C453.23 402.11 461.165 376.697 459.967 355.71C459.706 351.168 459.282 341.274 458.001 337.592C456.656 333.733 452.624 328.936 452.292 328.551C452.494 328.939 454.972 333.754 455.832 338.313C455.549 337.632 455.248 336.974 454.925 336.325C444.435 315.072 406.398 307.344 406.398 307.344C406.398 307.344 429.893 324.868 439.271 356.079C442.582 367.101 442.625 379.226 441.605 389.464C442.002 384.526 441.294 377.009 441.247 376.547C441.201 377.427 439.969 400.929 438.617 407.287C438.564 407.524 438.515 407.725 438.468 407.908C438.428 408.062 438.398 408.195 438.373 408.317C437.606 411.448 437.032 413.269 437.032 413.269Z" fill="black"/>
<path opacity="0.1" d="M437.032 413.269L441.746 420.249C443.208 417.947 444.61 415.527 445.934 413.014L439.169 403.73C438.992 405.18 438.808 406.398 438.617 407.287C438.564 407.524 438.515 407.725 438.468 407.908C438.428 408.062 438.398 408.195 438.373 408.317C437.606 411.448 437.032 413.269 437.032 413.269Z" fill="black"/>
<path d="M443.761 427.217C443.541 430.121 444.135 441.125 433.141 441.125H378.793C371.719 441.125 322 400.292 313.613 390.822C305.236 381.352 297.884 369.98 297.021 360.868C294.449 333.716 316.131 292.542 316.131 292.542C316.131 292.542 298.171 279.749 292.094 271.601C286.017 263.454 287.426 245.893 288.931 244.35C290.436 242.807 320.591 256.504 320.591 256.504C320.591 256.504 332.225 248.559 339.74 246.479C347.264 244.399 372.859 265.916 376.204 273.134C379.549 280.352 376.319 292.371 372.533 299.091C368.747 305.81 363.446 309.769 363.446 309.769C363.254 311.073 363.063 313.498 363.753 315.75C364.769 319.038 390.419 354.302 395.097 357.772C399.774 361.251 425.683 370.722 431.368 380.46C437.061 390.189 444.892 411.928 443.761 427.217Z" fill="#FFC727"/>
<path opacity="0.2" d="M443.761 427.217C443.541 430.121 444.135 441.125 433.141 441.125H378.793C371.719 441.125 322 400.292 313.613 390.822C305.236 381.352 297.884 369.98 297.021 360.868C294.449 333.716 316.131 292.542 316.131 292.542C316.131 292.542 298.171 279.749 292.094 271.601C286.017 263.454 287.426 245.893 288.931 244.35C290.436 242.807 320.591 256.504 320.591 256.504C320.591 256.504 332.225 248.559 339.74 246.479C347.264 244.399 372.859 265.916 376.204 273.134C379.549 280.352 376.319 292.371 372.533 299.091C368.747 305.81 363.446 309.769 363.446 309.769C363.254 311.073 363.063 313.498 363.753 315.75C364.769 319.038 390.419 354.302 395.097 357.772C399.774 361.251 425.683 370.722 431.368 380.46C437.061 390.189 444.892 411.928 443.761 427.217Z" fill="black"/>
<path opacity="0.2" d="M402.11 361.499C402.878 370.932 407.613 384.782 414.69 392.68C421.881 400.707 436.202 401.931 440.23 402.121C437.691 393.41 434.255 385.391 431.367 380.457C427.126 373.205 411.65 366.09 402.11 361.499Z" fill="black"/>
<path opacity="0.2" d="M394.909 365.651C394.076 369.313 386.694 369.905 383.155 368.325C379.616 366.745 377.594 361.195 380.501 357.777C383.408 354.359 395.921 361.207 394.909 365.651Z" fill="black"/>
<path opacity="0.2" d="M368.749 336.415C368.939 340.9 372.854 348.106 377.088 349.558C380.235 350.637 384.286 349.725 386.369 347.68C381.633 341.629 375.978 333.96 371.501 327.628C369.547 329.072 368.605 333.085 368.749 336.415Z" fill="black"/>
<path opacity="0.1" d="M315.867 324.486C315.115 320.964 314.665 317.302 315.082 313.845C315.115 313.57 314.732 313.406 314.537 313.618C314.006 314.195 312.51 315.814 312.289 316.065C312.298 315.85 312.308 315.636 312.326 315.427C312.389 314.704 312.485 313.988 312.614 313.278C312.874 311.85 313.244 310.445 313.734 309.082C314.222 307.722 314.824 306.402 315.544 305.137C316.269 303.863 317.137 302.685 317.967 301.468C318.003 301.415 317.908 301.346 317.856 301.39C316.682 302.401 315.721 303.634 314.887 304.869C314.062 306.092 313.359 307.379 312.781 308.717C312.194 310.076 311.737 311.482 311.431 312.93C311.273 313.679 311.151 314.437 311.065 315.201C310.982 315.932 310.872 316.7 311.057 317.451C311.178 317.942 311.9 317.868 312.105 317.524C312.229 317.317 314.125 314.99 314.414 314.654C314.278 316.147 314.221 317.639 314.383 319.172C314.571 320.965 314.953 322.763 315.586 324.53C315.643 324.692 315.9 324.64 315.867 324.486Z" fill="black"/>
<path opacity="0.1" d="M363.929 308.413C364.4 308.603 365.411 308.983 366.81 309.485L363.929 308.413Z" fill="black"/>
<path d="M380.058 434.786C380.058 434.786 381.511 439.931 380.395 441.047C379.279 442.163 332.115 441.596 332.031 441.047C331.947 440.498 339.277 430.555 343.912 430.05C348.546 429.544 363.376 433.842 363.376 433.842C363.376 433.842 336.266 400.118 344.214 379.958C347.712 371.085 368.684 367.636 395.563 378.484C419.988 388.342 414.1 432.175 400.703 436.977C387.304 441.78 380.058 434.786 380.058 434.786Z" fill="#FFC727"/>
<path opacity="0.2" d="M380.058 434.786C380.058 434.786 381.511 439.931 380.395 441.047C379.279 442.163 332.115 441.596 332.031 441.047C331.947 440.498 339.277 430.555 343.912 430.05C348.546 429.544 363.376 433.842 363.376 433.842C363.376 433.842 336.266 400.118 344.214 379.958C347.712 371.085 368.684 367.636 395.563 378.484C419.988 388.342 414.1 432.175 400.703 436.977C387.304 441.78 380.058 434.786 380.058 434.786Z" fill="black"/>
<path d="M393.85 377.658C381.757 372.781 356.605 365.934 346.166 376.292C337.813 385.135 343.511 400.616 348.122 410.098C352.319 418.561 357.501 426.493 363.375 433.841C360.614 430.033 358.005 426.121 355.594 422.091C349.056 411.107 337.197 389.431 346.366 377.665C355.889 366.852 381.846 373.534 393.85 377.658Z" fill="#263238"/>
<path d="M388.842 374.115C386.231 373.326 383.419 373.178 380.733 373.661C383.398 373.961 386.154 374.105 388.842 374.115Z" fill="#263238"/>
<path d="M380.237 441.123C380.577 441.022 380.788 440.657 380.831 440.31C381.007 439.287 380.971 438.243 380.928 437.213C380.741 433.809 380.073 430.389 379.279 427.078C379.1 426.416 378.937 425.751 378.73 425.096C378.809 425.778 378.917 426.453 379.003 427.132C379.193 428.406 379.726 431.884 379.929 433.204C380.224 435.223 380.565 437.24 380.676 439.277C380.67 439.899 380.884 440.75 380.237 441.123Z" fill="#263238"/>
<path d="M380.184 426.013C379.953 427.184 379.838 428.402 379.711 429.568C379.359 432.108 380.338 429.407 380.403 428.455C380.484 427.636 380.471 426.796 380.184 426.013Z" fill="#263238"/>
<path d="M341.56 435.767C339.766 436.917 337.815 439.189 338.563 441.452C338.686 439.166 340.312 437.565 341.56 435.767Z" fill="#263238"/>
<path d="M338.021 435.557C336.227 436.707 334.276 438.979 335.024 441.242C335.147 438.955 336.773 437.354 338.021 435.557Z" fill="#263238"/>
<path d="M313.121 354.073C313.121 354.073 294.301 338.049 288.888 327.422C283.475 316.794 277.048 298.733 275.104 291.111C274.544 288.916 272.794 260.772 273.775 259.095C274.755 257.418 281.137 261.006 284.532 265.601C286.374 268.095 284.867 281.792 285.836 285.1C286.552 287.543 303.245 307.112 304.527 308.427C305.819 309.753 320.424 317.683 331.529 322.28" fill="#FFC727"/>
<g opacity="0.2">
<path d="M313.121 354.073C313.121 354.073 294.301 338.049 288.888 327.422C283.475 316.794 277.048 298.733 275.104 291.111C274.544 288.916 272.794 260.772 273.775 259.095C274.755 257.418 281.137 261.006 284.532 265.601C286.374 268.095 284.867 281.792 285.836 285.1C286.552 287.543 303.245 307.112 304.527 308.427C305.819 309.753 320.424 317.683 331.529 322.28" fill="black"/>
</g>
<path d="M277.654 266.329C277.284 263.914 275.809 260.813 273.09 260.544C275.43 261.736 276.351 264.185 277.654 266.329Z" fill="#263238"/>
<path d="M281.303 263.611C280.258 261.319 277.886 258.334 275.072 258.797C277.792 259.349 279.388 261.779 281.303 263.611Z" fill="#263238"/>
<path d="M297.69 339.177C302.24 342.911 306.029 347.339 310.174 351.473C305.158 348.412 301.216 343.826 297.69 339.177Z" fill="#263238"/>
<path d="M303.245 345.325C304.728 347.11 305.815 349.036 306.427 351.256C304.639 349.759 303.47 347.656 303.245 345.325Z" fill="#263238"/>
<path d="M320.195 317.095C315.102 315.23 310.18 312.779 305.918 309.415C310.884 311.594 315.714 314.003 320.195 317.095Z" fill="#263238"/>
<path d="M312.666 313.003C315.082 312.637 317.608 313.092 319.597 314.559C317.141 314.399 314.925 314.003 312.666 313.003Z" fill="#263238"/>
<path d="M287.966 242.836C286.657 243.831 287.18 252.373 289.422 254.263C291.663 256.153 300.181 252.021 300.76 249.807C301.338 247.592 289.633 241.569 287.966 242.836Z" fill="#263238"/>
<path d="M289.918 252.313C290.207 255.204 290.218 264.194 293.254 265.182C295.904 265.961 298.687 264.139 300.872 262.77C298.784 264.486 295.942 266.501 293.065 265.694C289.458 264.472 289.8 255.516 289.918 252.313Z" fill="#263238"/>
<path d="M288.353 259.144C288.586 260.107 288.697 261.331 289.187 262.134C289.119 262.099 289.061 262.155 289.076 262.133C289.687 259.286 289.484 256.302 289.934 253.399C290.144 255.472 290.142 257.548 289.986 259.625C289.865 260.56 289.89 261.542 289.424 262.397C288.398 263.296 288.363 259.67 288.353 259.144Z" fill="#263238"/>
<path opacity="0.2" d="M335.093 256.953C342.499 259.344 344.39 266.23 342.246 272.871C340.51 278.249 334.342 282.323 327.233 280.028C320.125 277.734 317.812 269.86 319.442 264.81C321.073 259.76 327.051 254.357 335.093 256.953Z" fill="black"/>
<path d="M327.871 260.462C332.078 261.139 333.673 264.708 333.066 268.48C332.574 271.535 329.575 274.252 325.538 273.602C321.501 272.952 319.594 268.884 320.056 266.016C320.518 263.148 323.304 259.727 327.871 260.462Z" fill="#263238"/>
<path d="M327.339 261.188C331.293 261.825 332.793 265.18 332.222 268.725C331.76 271.596 328.941 274.151 325.146 273.54C321.351 272.929 319.559 269.105 319.993 266.409C320.428 263.712 323.046 260.497 327.339 261.188Z" fill="white"/>
<path d="M326.029 261.771C329.257 262.291 330.482 265.03 330.016 267.924C329.639 270.268 327.337 272.353 324.239 271.855C321.141 271.356 319.678 268.234 320.032 266.033C320.387 263.832 322.524 261.207 326.029 261.771Z" fill="#263238"/>
<path d="M363.881 310.048C363.881 310.048 373.496 300.793 374.697 300.324C375.898 299.856 381.918 302.865 382.446 305.049C382.974 307.233 363.91 311.434 363.91 311.434L363.881 310.048Z" fill="#455A64"/>
<path d="M367.388 310.617C367.112 310.69 366.846 310.751 366.598 310.816C366.182 310.077 365.768 309.36 365.349 308.649C365.528 308.474 365.722 308.292 365.927 308.097C366.416 308.919 366.901 309.757 367.388 310.617ZM373.049 306.947C372.35 305.735 371.66 304.56 370.967 303.413C370.771 303.584 370.577 303.766 370.382 303.949C371.051 305.065 371.727 306.207 372.401 307.389C372.53 307.61 372.659 307.832 372.789 308.064C372.982 308.39 373.171 308.723 373.354 309.061C373.614 308.995 373.873 308.918 374.126 308.847C373.897 308.429 373.67 308.023 373.432 307.628C373.307 307.389 373.178 307.168 373.049 306.947ZM379.001 303.777C378.866 303.551 378.737 303.329 378.608 303.108C378.187 302.375 377.756 301.654 377.332 300.949C376.913 300.769 376.513 300.614 376.15 300.501C376.748 301.495 377.358 302.511 377.971 303.559C378.094 303.775 378.229 304.002 378.358 304.223C378.869 305.103 379.375 306 379.884 306.919C380.14 306.809 380.38 306.706 380.603 306.599C380.069 305.638 379.537 304.699 379.001 303.777ZM379.781 302.274C379.395 302.55 379.009 302.825 378.607 303.108C378.399 303.258 378.184 303.403 377.971 303.56C376.41 304.647 374.769 305.78 373.049 306.947C372.835 307.092 372.62 307.237 372.401 307.388C370.858 308.43 369.245 309.494 367.589 310.572C368.293 310.402 369.067 310.21 369.879 309.998C370.869 309.346 371.843 308.7 372.789 308.062C373.003 307.917 373.218 307.772 373.432 307.626C375.163 306.458 376.809 305.319 378.358 304.222C378.578 304.082 378.792 303.926 379 303.776C379.501 303.424 379.986 303.08 380.461 302.747C380.244 302.584 380.015 302.432 379.781 302.274Z" fill="#37474F"/>
<path opacity="0.3" d="M363.881 310.048C363.881 310.048 374.096 300.283 376.242 301.757C378.387 303.231 365.701 309.382 363.881 310.048Z" fill="black"/>
<path d="M364.437 310.354C364.437 310.354 374.529 313.505 375.368 314.092C376.932 315.185 376.189 319.063 374.878 320.274C373.567 321.486 363.486 310.911 363.486 310.911L364.437 310.354Z" fill="#455A64"/>
<path d="M376.109 315.224C375.647 315.119 375.185 315.014 374.711 314.899C374.458 314.848 374.204 314.787 373.956 314.73C373.872 314.975 373.793 315.225 373.715 315.474C373.969 315.536 374.228 315.591 374.476 315.648C375.073 315.786 375.66 315.924 376.24 316.047C376.22 315.756 376.18 315.478 376.109 315.224ZM374.476 315.648L374.712 314.899C374.822 314.564 374.928 314.245 375.027 313.911C374.838 313.833 374.597 313.731 374.312 313.623C374.194 313.992 374.076 314.361 373.957 314.731C373.873 314.976 373.794 315.226 373.716 315.475C373.311 316.714 372.886 317.966 372.441 319.241C372.671 319.415 372.894 319.573 373.099 319.705C373.58 318.338 374.035 316.979 374.476 315.648Z" fill="#37474F"/>
<path d="M367.898 314.068C367.797 314.381 367.685 314.694 367.584 315.006C367.374 314.808 367.169 314.604 366.965 314.411C367.027 314.229 367.084 314.053 367.141 313.877C366.824 313.793 366.497 313.71 366.175 313.632C365.778 313.245 365.409 312.873 365.077 312.541C365.857 312.741 366.625 312.942 367.388 313.137C367.578 312.574 367.753 312.017 367.933 311.466C368.177 311.539 368.422 311.624 368.671 311.702C368.495 312.236 368.32 312.782 368.138 313.322C370.159 313.826 372.106 314.299 373.955 314.729C373.871 314.974 373.792 315.224 373.714 315.473C371.866 315.044 369.919 314.572 367.898 314.068Z" fill="#37474F"/>
<path opacity="0.3" d="M364.438 310.354C364.438 310.354 375.165 313.659 374.974 315.718C374.782 317.777 365.605 311.359 364.438 310.354Z" fill="black"/>
<path d="M314.658 292.633C313.842 294.402 336.313 326.686 339.417 327.528C341.739 328.158 364.703 312.818 364.909 309.869C364.995 308.63 362.278 309.595 343.78 303.803C335.199 301.116 315.318 291.202 314.658 292.633Z" fill="#455A64"/>
<path d="M320.381 294.21C320.385 294.193 320.395 294.181 320.399 294.164C320.153 294.069 319.908 293.973 319.674 293.888C319.67 293.905 319.665 293.911 319.661 293.928C319.526 294.293 319.393 294.68 319.247 295.057C319.483 295.164 319.718 295.272 319.955 295.39C320.099 294.991 320.242 294.592 320.381 294.21ZM319.685 296.12C319.449 296.013 319.214 295.905 318.978 295.798C318.608 296.791 318.224 297.812 317.825 298.852C317.991 299.114 318.168 299.387 318.341 299.665C318.809 298.46 319.262 297.272 319.685 296.12ZM323.46 305C323.561 304.759 323.652 304.52 323.748 304.285L323.753 304.279C324.496 302.398 325.194 300.571 325.837 298.82C325.926 298.569 326.017 298.33 326.107 298.09C326.264 297.651 326.416 297.229 326.569 296.808C326.322 296.702 326.082 296.6 325.841 296.499C325.694 296.915 325.542 297.348 325.384 297.775C325.3 298.02 325.209 298.259 325.12 298.51C324.472 300.267 323.78 302.099 323.031 303.975C322.941 304.215 322.845 304.46 322.744 304.701C322.607 305.044 322.47 305.387 322.328 305.736C322.499 305.993 322.675 306.243 322.851 306.505C323.058 306.007 323.264 305.498 323.46 305ZM335.961 309.986C335.715 309.891 335.47 309.806 335.225 309.711C334.529 311.489 333.786 313.309 332.997 315.16C333.243 315.255 333.483 315.346 333.733 315.435C334.523 313.583 335.259 311.758 335.961 309.986ZM335.961 309.986C335.715 309.891 335.47 309.806 335.225 309.711C334.529 311.489 333.786 313.309 332.997 315.16C333.243 315.255 333.483 315.346 333.733 315.435C334.523 313.583 335.259 311.758 335.961 309.986ZM335.961 309.986C335.715 309.891 335.47 309.806 335.225 309.711C334.529 311.489 333.786 313.309 332.997 315.16C333.243 315.255 333.483 315.346 333.733 315.435C334.523 313.583 335.259 311.758 335.961 309.986ZM329.679 307.573C329.774 307.327 329.876 307.087 329.971 306.841C330.713 304.949 331.404 303.106 332.047 301.355C332.131 301.11 332.216 300.865 332.306 300.626C332.449 300.227 332.589 299.845 332.728 299.463C332.487 299.362 332.247 299.26 332.005 299.148C331.867 299.541 331.722 299.929 331.585 300.333C331.495 300.573 331.405 300.824 331.316 301.074C330.679 302.83 329.987 304.662 329.239 306.549C329.148 306.789 329.053 307.034 328.952 307.275C328.31 308.915 327.617 310.593 326.886 312.29C327.043 312.514 327.211 312.738 327.368 312.962C327.387 312.988 327.4 313.009 327.418 313.035C327.428 313.023 327.432 313.006 327.436 312.989C328.228 311.161 328.976 309.346 329.679 307.573ZM335.961 309.986C335.715 309.891 335.47 309.806 335.225 309.711C334.529 311.489 333.786 313.309 332.997 315.16C333.243 315.255 333.483 315.346 333.733 315.435C334.523 313.583 335.259 311.758 335.961 309.986ZM335.961 309.986C335.715 309.891 335.47 309.806 335.225 309.711C334.529 311.489 333.786 313.309 332.997 315.16C333.243 315.255 333.483 315.346 333.733 315.435C334.523 313.583 335.259 311.758 335.961 309.986ZM335.961 309.986C335.715 309.891 335.47 309.806 335.225 309.711C334.529 311.489 333.786 313.309 332.997 315.16C333.243 315.255 333.483 315.346 333.733 315.435C334.523 313.583 335.259 311.758 335.961 309.986ZM332.04 319.297C332.515 318.24 332.979 317.184 333.428 316.146C333.529 315.905 333.631 315.665 333.733 315.435C334.523 313.583 335.259 311.758 335.961 309.986C336.056 309.74 336.147 309.501 336.242 309.255C336.983 307.352 337.668 305.504 338.3 303.754C338.39 303.503 338.474 303.259 338.564 303.019C338.685 302.683 338.801 302.352 338.912 302.028C338.672 301.938 338.427 301.842 338.186 301.741C338.07 302.071 337.949 302.408 337.828 302.744C337.749 302.983 337.653 303.228 337.564 303.479C336.938 305.234 336.247 307.077 335.512 308.985C333.686 308.298 331.829 307.587 329.97 306.842C329.875 307.088 329.773 307.328 329.678 307.574C331.548 308.318 333.398 309.025 335.225 309.711C334.529 311.489 333.786 313.309 332.997 315.16C332.896 315.401 332.799 315.635 332.692 315.871C332.309 316.771 331.915 317.672 331.505 318.58L331.5 318.586C331.685 318.824 331.86 319.063 332.04 319.297ZM337.377 323.867C338.214 322.055 339.018 320.247 339.769 318.454C341.711 319.136 343.601 319.785 345.432 320.394C345.527 320.148 345.624 319.914 345.72 319.679C343.9 319.069 342.01 318.421 340.074 317.744C340.857 315.876 341.592 314.04 342.284 312.269C342.374 312.018 342.469 311.773 342.565 311.538C343.299 309.619 343.978 307.766 344.598 306.006C344.687 305.755 344.772 305.511 344.862 305.271C344.982 304.924 345.092 304.588 345.213 304.252C345.212 304.241 345.222 304.229 345.221 304.218C344.967 304.157 344.74 304.087 344.514 304.029C344.502 304.019 344.485 304.015 344.468 304.011C344.358 304.346 344.242 304.677 344.121 305.013C344.037 305.258 343.952 305.503 343.863 305.753C343.242 307.502 342.563 309.356 341.829 311.274C340.001 310.637 338.143 309.964 336.243 309.256C336.148 309.502 336.057 309.741 335.962 309.987C337.856 310.69 339.721 311.368 341.543 312.011C340.858 313.788 340.122 315.624 339.333 317.486C339.237 317.721 339.14 317.955 339.039 318.196C338.283 319.984 337.484 321.787 336.641 323.604C336.534 323.84 336.426 324.075 336.313 324.306L336.319 324.311C336.286 324.375 336.247 324.444 336.22 324.513C336.416 324.74 336.605 324.95 336.782 325.151C336.871 324.961 336.965 324.765 337.054 324.575C337.162 324.339 337.269 324.103 337.377 323.867ZM346.164 320.636C346.265 320.395 346.362 320.161 346.463 319.92C347.234 318.042 347.963 316.201 348.648 314.414C348.738 314.174 348.834 313.929 348.924 313.689C349.656 311.748 350.328 309.879 350.939 308.131C351.029 307.88 351.108 307.641 351.192 307.397C351.339 306.97 351.48 306.549 351.623 306.139C351.385 306.071 351.13 305.998 350.875 305.925C350.738 306.329 350.595 306.739 350.454 307.16C350.369 307.394 350.284 307.639 350.195 307.889C349.591 309.642 348.913 311.507 348.185 313.441C348.095 313.681 347.999 313.927 347.904 314.172C347.231 315.959 346.501 317.8 345.719 319.678C345.623 319.913 345.526 320.147 345.431 320.393C344.68 322.175 343.887 323.994 343.063 325.826C342.997 325.964 342.931 326.102 342.867 326.252C343.047 326.16 343.237 326.055 343.428 325.951C343.608 325.858 343.798 325.754 343.988 325.65C344.752 323.961 345.48 322.291 346.164 320.636ZM355.059 316.445C355.143 316.2 355.239 315.954 355.329 315.715C356.055 313.758 356.716 311.89 357.315 310.142C357.4 309.897 357.484 309.653 357.563 309.414C357.743 308.863 357.925 308.333 358.097 307.816C357.849 307.759 357.595 307.698 357.335 307.631C357.173 308.136 357.001 308.654 356.819 309.183C356.74 309.422 356.655 309.667 356.571 309.911C355.967 311.664 355.305 313.533 354.586 315.495C354.489 315.73 354.399 315.969 354.315 316.214C353.837 317.492 353.328 318.806 352.794 320.15C353.181 319.885 353.563 319.627 353.943 319.357C354.331 318.369 354.703 317.398 355.059 316.445ZM363.968 311.297C364.153 310.74 364.393 309.913 364.578 309.344C364.411 309.264 364.172 309.185 363.833 309.092C363.64 309.694 363.415 310.503 363.221 311.083C363.142 311.322 363.057 311.566 362.968 311.817C362.885 312.084 362.792 312.352 362.699 312.63C362.961 312.392 363.196 312.163 363.416 311.951C363.605 311.764 363.778 311.584 363.929 311.416C363.929 311.416 363.929 311.416 363.934 311.41L363.939 311.404C363.946 311.371 363.954 311.337 363.968 311.297ZM319.247 295.057C317.706 294.346 316.169 293.619 314.647 292.873C314.657 292.933 314.674 292.998 314.692 293.074C314.714 293.144 314.738 293.225 314.773 293.316C314.832 293.488 314.916 293.702 315.029 293.93C316.337 294.566 317.655 295.191 318.978 295.798C319.067 295.548 319.163 295.302 319.247 295.057ZM363.968 311.297C363.719 311.229 363.47 311.162 363.221 311.083C361.482 310.582 359.595 310.028 357.565 309.414C357.326 309.334 357.076 309.256 356.822 309.183C355.035 308.631 353.161 308.037 351.194 307.395C350.95 307.322 350.705 307.237 350.456 307.158C348.654 306.563 346.783 305.941 344.864 305.268C344.619 305.184 344.374 305.099 344.124 305.01C342.308 304.383 340.456 303.715 338.568 303.017C338.322 302.922 338.077 302.837 337.832 302.742C336.017 302.065 334.167 301.359 332.309 300.625C332.074 300.529 331.829 300.433 331.588 300.332C329.776 299.617 327.944 298.864 326.11 298.09C325.869 297.989 325.623 297.882 325.387 297.775C323.576 297.01 321.767 296.205 319.958 295.39C319.868 295.63 319.772 295.876 319.688 296.12C321.499 296.946 323.312 297.745 325.123 298.51C325.359 298.617 325.599 298.719 325.84 298.82C327.68 299.6 329.506 300.347 331.319 301.074C330.682 302.83 329.99 304.662 329.242 306.549C329.483 306.65 329.728 306.746 329.974 306.841C330.716 304.949 331.407 303.106 332.05 301.355C333.908 302.089 335.753 302.802 337.568 303.478C336.942 305.233 336.251 307.076 335.516 308.984C333.69 308.297 331.833 307.586 329.974 306.841C329.879 307.087 329.777 307.327 329.682 307.573C331.552 308.317 333.402 309.024 335.229 309.71C335.475 309.805 335.72 309.89 335.965 309.985C337.859 310.688 339.724 311.366 341.546 312.009C341.796 312.088 342.036 312.178 342.286 312.267C344.21 312.934 346.088 313.572 347.907 314.171C348.002 313.925 348.098 313.68 348.188 313.44C346.369 312.841 344.497 312.208 342.567 311.536C343.301 309.617 343.98 307.764 344.6 306.004C346.518 306.666 348.39 307.3 350.197 307.888C349.593 309.641 348.915 311.506 348.187 313.44C348.432 313.525 348.682 313.603 348.926 313.687C349.658 311.746 350.33 309.877 350.941 308.129C352.902 308.777 354.787 309.37 356.574 309.911C356.824 309.99 357.074 310.068 357.317 310.141C359.342 310.761 361.236 311.322 362.968 311.817C363.121 311.865 363.269 311.908 363.416 311.951C363.605 311.764 363.778 311.584 363.929 311.416C363.929 311.416 363.929 311.415 363.934 311.409L364.014 311.314C363.996 311.311 363.979 311.307 363.968 311.297ZM341.829 311.272C340.001 310.635 338.143 309.962 336.243 309.254C336.984 307.351 337.669 305.503 338.301 303.753C340.189 304.451 342.047 305.113 343.863 305.751C343.242 307.5 342.563 309.354 341.829 311.272ZM355.329 315.715C355.08 315.647 354.836 315.574 354.587 315.496C352.793 314.939 350.897 314.336 348.924 313.689C348.679 313.605 348.429 313.525 348.185 313.441C346.366 312.842 344.494 312.21 342.564 311.538C342.319 311.453 342.074 311.369 341.835 311.279L341.829 311.274C340.001 310.637 338.143 309.964 336.243 309.256C335.998 309.171 335.752 309.076 335.513 308.986C333.687 308.299 331.83 307.588 329.971 306.843C329.725 306.748 329.48 306.652 329.239 306.551C327.415 305.825 325.588 305.067 323.753 304.281L323.748 304.287C323.512 304.18 323.272 304.078 323.031 303.977C322.142 303.593 321.258 303.203 320.368 302.808C320.437 302.907 320.507 303.017 320.577 303.128C320.779 303.421 320.975 303.719 321.171 304.018C321.699 304.25 322.221 304.477 322.743 304.704C322.984 304.805 323.224 304.907 323.459 305.003C325.294 305.788 327.127 306.552 328.951 307.278C329.192 307.379 329.443 307.48 329.678 307.576C331.548 308.32 333.398 309.027 335.225 309.713C335.471 309.808 335.716 309.893 335.961 309.988C337.855 310.691 339.72 311.369 341.542 312.012C341.792 312.091 342.032 312.181 342.282 312.27C344.206 312.937 346.084 313.575 347.903 314.174C348.153 314.252 348.398 314.337 348.647 314.415C350.614 315.068 352.511 315.671 354.314 316.216C354.564 316.294 354.814 316.373 355.057 316.446C355.767 316.668 356.464 316.88 357.139 317.083C357.4 316.895 357.659 316.697 357.92 316.509C357.083 316.259 356.215 315.994 355.329 315.715ZM346.463 319.92C346.218 319.835 345.968 319.757 345.719 319.678C343.899 319.068 342.009 318.42 340.073 317.743C340.856 315.875 341.591 314.039 342.283 312.268C342.032 312.178 341.793 312.089 341.543 312.011C340.858 313.788 340.122 315.623 339.333 317.485C337.498 316.832 335.628 316.149 333.733 315.435C333.482 315.345 333.242 315.255 332.997 315.16C331.165 314.468 329.308 313.745 327.437 312.991C327.414 312.982 327.391 312.973 327.368 312.964C327.387 312.99 327.4 313.011 327.418 313.037C327.681 313.402 327.944 313.767 328.206 314.131C329.716 314.734 331.207 315.31 332.691 315.871C332.937 315.966 333.183 316.062 333.428 316.146C335.329 316.865 337.198 317.548 339.038 318.195C339.278 318.286 339.522 318.37 339.767 318.454C341.709 319.136 343.599 319.785 345.43 320.394C345.675 320.479 345.919 320.552 346.163 320.636C347.516 321.086 348.846 321.516 350.124 321.923C350.401 321.739 350.679 321.556 350.956 321.372C349.509 320.913 348.01 320.431 346.463 319.92ZM343.063 325.827C341.22 325.208 339.314 324.556 337.377 323.867C337.132 323.783 336.893 323.692 336.642 323.603C336.078 323.402 335.514 323.2 334.949 322.988C335.288 323.407 335.62 323.799 335.927 324.172L335.933 324.177C336.058 324.222 336.178 324.261 336.314 324.305L336.32 324.31C336.56 324.4 336.81 324.49 337.055 324.574C338.907 325.231 340.711 325.859 342.475 326.451C342.602 326.385 342.735 326.324 342.867 326.252C343.047 326.16 343.237 326.055 343.428 325.951C343.308 325.911 343.182 325.867 343.063 325.827Z" fill="#37474F"/>
<path opacity="0.1" d="M351.419 321.068C345.87 324.751 340.478 327.813 339.415 327.526C336.892 326.842 321.525 305.312 316.342 296.384C321.936 304.874 338.375 323.925 340.845 324.543C342.542 324.968 349.393 321.946 351.419 321.068Z" fill="black"/>
<path d="M371.418 268.995C371.418 268.995 386.072 272.874 390.244 279.688C394.416 286.501 403.024 303.752 409.944 314.698C416.398 324.908 395.954 339.881 382.796 330.786C370.739 322.451 374.192 290.423 373.392 285.299C372.592 280.175 367.08 274.569 367.08 274.569C367.08 274.569 368.634 269.327 371.418 268.995Z" fill="#FFC727"/>
<path opacity="0.5" d="M371.418 268.995C371.418 268.995 386.072 272.874 390.244 279.688C394.416 286.501 403.024 303.752 409.944 314.698C416.398 324.908 395.954 339.881 382.796 330.786C370.739 322.451 374.192 290.423 373.392 285.299C372.592 280.175 367.08 274.569 367.08 274.569C367.08 274.569 368.634 269.327 371.418 268.995Z" fill="black"/>
<path d="M88.7512 125.161C90.7932 144.687 108.287 158.869 127.814 156.826C135.706 156.001 142.72 152.651 148.153 147.648L165.94 150.259L157.04 134.882C159.199 129.629 160.109 123.782 159.479 117.762C157.437 98.2362 139.942 84.0552 120.416 86.0972C100.89 88.1412 86.7092 105.635 88.7512 125.161Z" fill="white"/>
<path d="M99.3926 95.8001C103.254 92.0331 107.966 89.1231 113.104 87.3931C118.249 85.6831 123.793 85.1921 129.181 85.9081C134.564 86.6361 139.821 88.5491 144.354 91.6011C148.89 94.6431 152.733 98.7231 155.489 103.458C161.017 112.913 161.988 124.998 157.679 135.146L157.638 134.538L166.485 149.945L167.138 151.082L165.849 150.884L148.079 148.156L148.499 148.026C143.578 152.487 137.416 155.533 130.91 156.711C129.284 157.009 127.64 157.185 125.99 157.223C124.342 157.367 122.695 157.218 121.051 157.129C117.789 156.736 114.518 156.126 111.479 154.846C108.425 153.644 105.503 152.074 102.903 150.071C101.539 149.151 100.387 147.97 99.1506 146.894C98.0616 145.67 96.8606 144.539 95.9276 143.184C91.8676 138.015 89.4946 131.653 88.7516 125.161C87.5966 114.456 91.5426 103.262 99.3926 95.8001ZM96.0336 143.102C96.9716 144.445 98.1766 145.564 99.2676 146.774C100.506 147.837 101.659 149.003 103.023 149.909C105.614 151.897 108.556 153.392 111.599 154.531C114.63 155.746 117.875 156.291 121.095 156.622C122.719 156.68 124.341 156.801 125.96 156.629C127.582 156.565 129.194 156.363 130.783 156.043C137.146 154.775 143.102 151.691 147.808 147.274L147.983 147.11L148.229 147.145L166.033 149.638L165.397 150.577L156.445 135.231L156.276 134.94L156.404 134.622C158.38 129.731 159.239 124.401 158.907 119.133C158.484 113.883 157.088 108.653 154.394 104.089C151.751 99.5151 148.093 95.5321 143.756 92.4861C139.408 89.4471 134.323 87.4911 129.073 86.6861C123.818 85.8951 118.361 86.2751 113.26 87.8721C108.167 89.4901 103.448 92.2801 99.5486 95.9611C91.6966 103.322 87.6726 114.448 88.7536 125.163C89.5396 131.648 91.9536 137.98 96.0336 143.102Z" fill="#263238"/>
<path d="M110.608 127.767C116.699 135.828 123.976 139.366 123.976 139.366C123.976 139.366 131.247 135.828 137.339 127.767C142.045 121.54 141.812 111.79 135.08 109.681C127.635 107.349 123.976 118.553 123.976 118.553C123.976 118.553 120.264 107.275 112.866 109.681C106.158 111.863 105.902 121.539 110.608 127.767Z" fill="#FFC727"/>
</svg>
