<svg width="500" height="500" viewBox="0 0 500 500" fill="none" xmlns="http://www.w3.org/2000/svg">
<path d="M92.2033 226.555C92.0383 224.854 91.6603 223.174 91.3803 221.483C90.2583 217.47 89.1733 213.454 87.0683 209.818C86.4953 208.827 85.8293 207.864 85.0653 207.012C82.6893 204.365 79.8373 203.988 76.7993 205.831C74.5233 207.213 72.7853 209.147 71.3393 211.337C68.1843 216.115 66.0073 221.291 66.4053 227.105C66.8093 232.976 69.3503 237.91 74.3203 241.282C79.8963 245.064 86.4673 243.497 89.9103 237.696C91.9523 234.253 92.5833 230.491 92.2033 226.555Z" fill="#EBEBEB"/>
<path d="M121.788 230.849C125.066 224.822 125.189 218.606 121.834 212.61C118.641 206.899 113.817 202.876 107.663 200.558C106.6 200.157 105.434 199.941 104.296 199.845C101.168 199.579 99.0426 200.958 97.9266 203.903C96.7986 206.877 96.8196 209.982 97.0816 213.081C97.2796 215.41 97.6326 217.727 97.9156 220.051C98.6676 224.312 100.018 228.299 102.905 231.629C104.76 233.768 106.963 235.394 109.728 236.158C114.451 237.464 119.295 235.433 121.788 230.849Z" fill="#EBEBEB"/>
<path d="M139.57 252.949C144.871 249.062 147.012 243.659 146.456 237.159C146.395 236.444 146.169 235.741 146.018 235.032C145.055 230.637 143.221 226.685 139.971 223.485C139.667 223.186 139.344 222.898 139.006 222.64C135.626 220.05 132.397 220.374 129.614 223.607C127.553 226 126.313 228.839 125.341 231.794C124.071 235.654 122.978 239.551 123.487 243.698C123.798 246.228 124.584 248.58 126.08 250.658C129.376 255.234 135.02 256.284 139.57 252.949Z" fill="#EBEBEB"/>
<path d="M73.4659 279.936C73.5259 280.561 73.6389 281.178 73.7569 281.991C75.2599 287.936 79.3539 291.412 85.3539 292.71C91.6869 294.079 97.6189 292.648 103.125 289.466C106.781 287.351 110.579 286.513 114.773 286.969C120.995 287.643 126.888 286.56 132.098 282.921C136.471 279.867 139.065 275.736 138.836 270.234C138.655 265.926 136.702 262.347 133.565 259.511C131.847 257.96 129.89 256.596 127.855 255.488C123.35 253.036 119.319 250.039 115.826 246.271C108.754 238.64 97.0399 238.476 89.7939 245.871C87.5559 248.156 86.0359 250.867 85.2629 253.977C84.2399 258.094 82.2869 261.68 79.4059 264.812C75.8669 268.656 73.6079 273.117 73.4259 278.457C73.4089 278.949 73.4179 279.447 73.4659 279.936Z" fill="#EBEBEB"/>
<path d="M53.2813 254.191C54.8923 261.311 58.6793 265.828 64.9673 268.022C71.4023 270.268 77.1983 266.761 78.2013 260.182C78.5543 257.863 78.3193 255.58 77.5743 253.359C75.8293 248.147 72.2583 244.238 68.2993 240.665C66.9003 239.404 65.2523 238.334 63.5583 237.505C60.0193 235.773 56.9413 236.84 55.0233 240.275C53.3333 243.299 52.8663 246.616 52.9293 250.012C52.9583 251.617 53.1963 253.22 53.2813 254.191Z" fill="#EBEBEB"/>
<path d="M200.767 83.2531C200.658 80.6421 200.222 78.0441 199.936 75.4391C198.56 69.2171 197.241 62.9921 194.333 57.2621C193.541 55.7001 192.605 54.1731 191.51 52.8091C188.104 48.5661 183.78 47.7511 178.986 50.3111C175.394 52.2311 172.578 55.0371 170.184 58.2591C164.965 65.2911 161.204 73.0121 161.324 81.9231C161.448 90.9231 164.912 98.6701 172.219 104.239C180.415 110.484 190.582 108.643 196.327 100.074C199.736 94.9881 201.015 89.2961 200.767 83.2531Z" fill="#EBEBEB"/>
<path d="M245.583 92.3001C251.095 83.3721 251.806 73.8901 247.187 64.4511C242.791 55.4611 235.763 48.9121 226.56 44.8551C224.971 44.1531 223.207 43.7261 221.478 43.4831C216.723 42.8141 213.362 44.7411 211.41 49.1441C209.437 53.5901 209.208 58.3351 209.348 63.0891C209.454 66.6631 209.798 70.2301 210.036 73.8021C210.826 80.3731 212.552 86.5741 216.681 91.9021C219.334 95.3251 222.562 97.9931 226.719 99.3921C233.823 101.784 241.39 99.0891 245.583 92.3001Z" fill="#EBEBEB"/>
<path d="M270.88 127.544C279.302 122.054 283.026 113.983 282.723 104.01C282.69 102.912 282.403 101.82 282.233 100.725C281.132 93.9332 278.664 87.7432 273.97 82.5832C273.53 82.1002 273.062 81.6342 272.568 81.2112C267.625 76.9722 262.667 77.1962 258.145 81.8982C254.796 85.3792 252.663 89.6112 250.93 94.0412C248.667 99.8282 246.67 105.687 247.099 112.063C247.361 115.953 248.362 119.611 250.472 122.91C255.12 130.175 263.651 132.254 270.88 127.544Z" fill="#EBEBEB"/>
<path d="M167.663 163.196C167.702 164.155 167.823 165.107 167.935 166.358C169.73 175.563 175.69 181.216 184.744 183.703C194.3 186.326 203.48 184.64 212.154 180.243C217.915 177.321 223.786 176.361 230.153 177.41C239.598 178.963 248.688 177.805 256.95 172.686C263.885 168.389 268.193 162.299 268.307 153.878C268.392 147.284 265.711 141.654 261.16 137.06C258.667 134.547 255.793 132.299 252.779 130.437C246.105 126.314 240.202 121.397 235.185 115.35C225.028 103.103 207.152 101.867 195.465 112.55C191.855 115.851 189.306 119.863 187.864 124.548C185.956 130.749 182.672 136.061 178.008 140.601C172.28 146.174 168.455 152.796 167.729 160.936C167.661 161.683 167.632 162.444 167.663 163.196Z" fill="#EBEBEB"/>
<path d="M139.005 122.183C140.866 133.192 146.27 140.407 155.688 144.287C165.325 148.258 174.472 143.39 176.557 133.427C177.291 129.915 177.125 126.409 176.173 122.954C173.946 114.848 168.821 108.579 163.076 102.789C161.045 100.746 158.619 98.974 156.102 97.564C150.843 94.621 146.054 95.991 142.835 101.076C140 105.552 139.009 110.578 138.818 115.769C138.728 118.225 138.956 120.692 139.005 122.183Z" fill="#EBEBEB"/>
<path d="M405.754 188.888C406.589 187.397 407.238 185.802 407.972 184.253C409.34 180.317 410.742 176.4 411.089 172.213C411.184 171.072 411.187 169.901 411.046 168.766C410.606 165.236 408.479 163.299 404.932 163.079C402.274 162.915 399.744 163.511 397.306 164.484C391.989 166.608 387.247 169.615 384.256 174.616C381.238 179.668 380.508 185.169 382.665 190.775C385.085 197.063 391.375 199.526 397.513 196.727C401.154 195.066 403.819 192.337 405.754 188.888Z" fill="#EBEBEB"/>
<path d="M427.596 209.298C433.727 206.219 437.375 201.185 438.042 194.346C438.679 187.834 437.014 181.777 433.283 176.362C432.639 175.426 431.804 174.583 430.925 173.855C428.508 171.852 425.976 171.771 423.379 173.552C420.756 175.35 419 177.912 417.447 180.607C416.28 182.633 415.248 184.737 414.155 186.806C412.341 190.735 411.174 194.779 411.645 199.161C411.948 201.976 412.829 204.569 414.663 206.774C417.796 210.542 422.933 211.638 427.596 209.298Z" fill="#EBEBEB"/>
<path d="M429.586 237.594C436.157 237.427 440.999 234.213 444.252 228.557C444.61 227.935 444.825 227.229 445.106 226.561C446.823 222.403 447.573 218.11 446.73 213.628C446.651 213.208 446.55 212.788 446.42 212.384C445.123 208.329 442.286 206.752 438.156 207.818C435.098 208.607 432.459 210.231 429.975 212.102C426.73 214.547 423.608 217.123 421.659 220.819C420.471 223.074 419.773 225.454 419.816 228.014C419.911 233.652 423.946 237.736 429.586 237.594Z" fill="#EBEBEB"/>
<path d="M359.903 222.03C359.596 222.577 359.336 223.149 358.969 223.883C356.81 229.623 358.188 234.813 362.375 239.304C366.794 244.042 372.483 246.253 378.819 246.781C383.028 247.131 386.625 248.61 389.809 251.378C394.533 255.482 399.99 257.956 406.345 257.941C411.679 257.928 416.167 256.016 419.118 251.368C421.427 247.727 421.867 243.673 420.909 239.555C420.383 237.301 419.555 235.063 418.516 232.993C416.215 228.408 414.616 223.646 413.899 218.559C412.447 208.257 402.921 201.437 392.75 203.374C389.608 203.973 386.813 205.332 384.403 207.445C381.214 210.242 377.563 212.072 373.41 213C368.31 214.137 363.909 216.511 360.712 220.792C360.42 221.187 360.143 221.601 359.903 222.03Z" fill="#EBEBEB"/>
<path d="M358.02 189.37C355.28 196.136 355.812 202.006 359.723 207.397C363.725 212.913 370.486 213.342 375.065 208.511C376.678 206.808 377.789 204.799 378.444 202.55C379.985 197.274 379.283 192.026 378.072 186.833C377.642 184.999 376.9 183.18 375.982 181.532C374.064 178.09 370.928 177.21 367.393 178.936C364.279 180.455 362.004 182.912 360.117 185.737C359.224 187.072 358.505 188.523 358.02 189.37Z" fill="#EBEBEB"/>
<path d="M44.4541 444.697L95.8401 444.454L147.227 444.366L250 444.198L352.773 444.365L404.159 444.452L455.546 444.697L404.159 444.942L352.773 445.03L250 445.196L147.227 445.028L95.8401 444.94L44.4541 444.697Z" fill="#263238"/>
<path d="M215.191 139.564C221.671 143.967 230.927 143.527 230.927 143.527C230.927 143.527 236.091 135.832 235.668 128.013C235.316 121.49 230.608 116.882 225.945 117.926C219.259 119.421 223.405 130.194 223.405 130.194C223.405 130.194 216.329 121.075 211.586 126.027C208.281 129.477 209.791 135.889 215.191 139.564Z" fill="#FFC727"/>
<path d="M234.346 98.3049C236.149 103.165 241.307 106.481 241.307 106.481C241.307 106.481 247.044 104.315 249.818 99.9389C252.132 96.2879 251.363 91.9969 248.449 90.7699C244.272 89.0099 242.371 96.4069 242.371 96.4069C242.371 96.4069 242.057 88.7759 237.6 89.6239C234.494 90.2159 232.846 94.2519 234.346 98.3049Z" fill="#FFC727"/>
<path d="M410.112 213.382C411.164 218.458 415.766 222.51 415.766 222.51C415.766 222.51 421.763 221.231 425.162 217.32C427.998 214.058 427.882 209.7 425.186 208.049C421.32 205.681 418.331 212.71 418.331 212.71C418.331 212.71 419.167 205.118 414.633 205.288C411.473 205.406 409.238 209.149 410.112 213.382Z" fill="#FFC727"/>
<path d="M77.9175 222.545C85.5275 229.988 98.0135 231.619 98.0135 231.619C98.0135 231.619 106.767 222.566 108.076 212.006C109.17 203.198 103.978 195.905 97.4905 196.183C88.1905 196.578 91.1505 211.981 91.1505 211.981C91.1505 211.981 83.8736 198.087 76.3426 203.573C71.0956 207.396 71.5755 216.336 77.9175 222.545Z" fill="#FFC727"/>
<path d="M93.6057 415.064C88.7167 418.025 83.3127 421.415 77.3767 420.486C71.8987 419.63 66.0107 417.079 63.6637 411.689C62.9957 410.151 62.8287 409.065 64.7367 408.815C67.6447 408.435 70.9437 410.035 73.6197 410.957C77.0917 412.155 80.5597 413.127 84.2007 413.656C86.7337 414.026 89.3037 414.135 91.8487 414.443C92.1677 414.475 92.4877 414.517 92.8087 414.568C92.9277 414.581 93.0517 414.596 93.1747 414.617C93.2227 414.595 93.2727 414.567 93.3187 414.542C93.4167 414.493 93.5117 414.496 93.5837 414.535C93.6157 414.55 93.6447 414.571 93.6697 414.599C93.7807 414.726 93.7967 414.949 93.6057 415.064Z" fill="#455A64"/>
<path d="M93.6685 414.598C89.2425 416.97 84.6215 419.811 79.4535 418.793C77.0635 418.321 74.7325 417.315 72.6205 416.119C71.6535 415.576 68.7605 413.966 68.8435 412.636C68.9955 410.228 78.2495 414.532 79.3585 414.82C83.5215 415.892 87.7665 415.531 91.8485 414.444C92.1675 414.476 92.4875 414.518 92.8085 414.569C89.9515 415.445 86.9685 415.925 83.9785 415.835C79.8305 415.715 76.5675 413.939 72.7025 412.735C71.8665 412.473 69.2395 411.495 69.2895 412.989C69.3225 413.973 72.1335 415.563 72.7385 415.902C74.7445 417.032 76.9555 417.978 79.2125 418.455C84.4135 419.557 89.0645 416.82 93.5845 414.536C93.6135 414.549 93.6435 414.57 93.6685 414.598Z" fill="white"/>
<path d="M98.0547 416.571C98.1177 416.787 98.1887 416.998 98.2567 417.216C98.2607 417.223 98.2587 417.229 98.2597 417.238C98.2787 417.297 98.2627 417.353 98.2277 417.39C98.1527 417.482 97.9997 417.506 97.9097 417.436C97.8747 417.414 97.8507 417.371 97.8397 417.317C97.8327 417.288 97.8267 417.259 97.8217 417.225C97.8077 417.158 97.7947 417.092 97.7807 417.025C97.7757 417.023 97.7697 417.022 97.7617 417.017C97.7487 417.001 97.7297 416.984 97.7157 416.968C94.9897 414.162 92.7297 410.923 89.9547 408.139C87.3077 405.484 84.4767 403.01 82.0407 400.15C80.5047 398.349 73.4137 388.959 78.6057 387.724C80.9067 387.178 83.8747 389.294 85.5887 390.594C87.8867 392.337 89.7887 394.549 91.3217 396.984C95.1137 403.005 95.9917 409.92 98.0547 416.571Z" fill="#455A64"/>
<path d="M98.2606 417.216C98.2006 417.036 98.1506 416.866 98.0906 416.696C98.0806 416.646 98.0706 416.616 98.0506 416.576C97.9106 416.316 97.7606 416.066 97.6106 415.826C95.9706 411.536 94.5506 407.156 92.4206 403.096C91.1806 400.746 89.7006 398.506 87.8406 396.596C87.2106 395.926 84.1406 392.726 82.9306 393.526C82.1406 394.036 82.9006 395.736 83.1306 396.306C84.1106 398.736 86.1306 400.636 87.8006 402.586C91.2206 406.576 94.2506 410.836 97.0406 415.266C97.1606 415.566 97.2806 415.886 97.4006 416.196C97.5006 416.446 97.6006 416.696 97.7006 416.946C97.7006 416.956 97.7106 416.956 97.7106 416.966C97.7506 417.056 97.7806 417.136 97.8206 417.226C97.8506 417.296 97.8706 417.366 97.9106 417.436C98.0006 417.506 98.1506 417.476 98.2206 417.386C98.1406 417.186 98.0706 416.986 97.9906 416.786C98.0806 416.936 98.1706 417.086 98.2606 417.236C98.2606 417.226 98.2606 417.226 98.2606 417.216ZM91.4206 406.676C89.9306 404.706 88.3506 402.826 86.7306 400.976C85.8106 399.926 84.8806 398.876 84.1406 397.686C83.5906 396.786 81.8006 393.276 84.7606 394.416C86.9006 395.246 89.0406 398.356 90.2506 400.166C91.6106 402.176 92.6906 404.336 93.6606 406.556C94.7506 409.066 95.6706 411.656 96.6406 414.216C95.0206 411.616 93.2806 409.106 91.4206 406.676Z" fill="white"/>
<path d="M108.382 428.758L108.379 428.76C108.304 428.824 108.219 428.879 108.207 428.885C103.518 431.2 97.6806 435.019 92.2036 434.121C88.1566 433.456 82.9466 430.59 81.7456 426.358C80.4016 421.583 88.9126 423.462 91.0986 423.84C96.6686 424.81 108.261 428.325 108.343 428.474C108.377 428.494 108.413 428.504 108.447 428.524C108.453 428.528 108.459 428.533 108.464 428.534C108.545 428.584 108.471 428.678 108.382 428.758Z" fill="#455A64"/>
<path d="M108.46 428.536C108.11 428.526 107.76 428.506 107.4 428.486C103.35 428.276 99.3004 427.886 95.2904 427.296C94.2704 427.146 86.5904 425.446 86.7304 427.506C86.8104 428.756 89.6304 429.826 90.5504 430.206C92.2004 430.876 93.9704 431.266 95.7404 431.356C99.8404 431.556 103.75 429.906 107.7 428.896C107.88 428.846 108.07 428.796 108.26 428.756C108.3 428.756 108.34 428.766 108.37 428.756H108.38C108.47 428.676 108.54 428.586 108.46 428.536ZM97.9904 430.976C96.1804 431.136 94.3404 430.966 92.5704 430.516C91.4004 430.216 87.1804 428.996 87.2704 427.466C87.3204 426.666 87.8104 426.806 88.7404 426.756C89.1604 426.726 89.5904 426.746 90.0104 426.766C91.0604 426.846 92.0904 427.036 93.1204 427.206C94.9304 427.516 96.7404 427.776 98.5604 427.986C101.55 428.356 104.54 428.586 107.54 428.726C104.33 429.416 101.25 430.696 97.9904 430.976Z" fill="white"/>
<path d="M111.466 414.712C113.218 420.579 113.099 426.898 111.271 432.726C111.256 432.767 111.238 432.8 111.213 432.823C111.142 432.904 111.026 432.913 110.931 432.867C110.838 432.825 110.769 432.724 110.807 432.592C110.844 432.474 110.874 432.351 110.909 432.23C108.203 425.609 105.595 418.98 102.762 412.406C102.094 410.858 98.0353 400.892 101.748 400.811C104.04 400.762 106.292 404.516 107.402 406.149C109.186 408.77 110.558 411.678 111.466 414.712Z" fill="#455A64"/>
<path d="M111.531 427.646C111.531 425.276 111.301 422.926 110.871 420.646C110.411 418.276 109.711 415.986 108.781 413.766C107.921 411.726 106.801 408.876 105.171 407.326C104.731 406.896 104.161 406.516 103.781 407.196C103.061 408.516 105.061 413.146 105.561 414.466C107.581 419.896 109.081 425.366 110.611 430.926C110.741 431.396 110.871 431.866 111.001 432.346C110.981 432.516 110.961 432.696 110.931 432.866C111.031 432.916 111.141 432.906 111.211 432.826C111.211 432.776 111.191 432.726 111.181 432.676C111.211 432.446 111.251 432.206 111.271 431.966C111.451 430.536 111.531 429.086 111.531 427.646ZM111.031 431.976C110.991 431.776 110.961 431.586 110.911 431.396C109.981 427.026 108.841 422.666 107.351 418.456C106.591 416.306 105.701 414.226 105.011 412.056C104.731 411.146 103.821 408.576 104.291 407.816C104.731 407.076 105.251 407.976 105.621 408.466C105.871 408.816 106.261 409.506 106.461 409.856C110.351 416.576 111.801 424.076 111.071 431.636C111.061 431.756 111.041 431.866 111.031 431.976Z" fill="white"/>
<path d="M119.2 445.196H118C117.73 444.726 117.45 444.266 117.18 443.806C115.27 440.626 113.33 437.466 111.32 434.336C110.18 432.546 109.03 430.786 107.82 429.076C107.78 429.016 107.74 428.966 107.7 428.896C107.6 428.766 107.5 428.626 107.4 428.486C107.3 428.336 107.18 428.186 107.07 428.036C104.3 424.236 101.2 420.726 97.2904 417.876C96.0104 416.946 94.7004 416.066 93.3504 415.216H93.3404C93.2104 415.136 93.0904 415.056 92.9604 414.976H92.9504C92.9204 414.956 92.8904 414.936 92.8504 414.916C92.8504 414.916 92.8404 414.916 92.8404 414.906C92.7204 414.826 92.5804 414.746 92.4504 414.676C92.4504 414.666 92.4404 414.666 92.4404 414.666C92.3404 414.606 92.2504 414.546 92.1504 414.486C92.1504 414.476 92.1404 414.476 92.1404 414.476C87.9604 411.946 83.5604 409.746 79.2804 407.446C78.0504 406.796 76.8204 406.136 75.6104 405.466C75.5204 405.426 75.4504 405.386 75.3904 405.346C75.2904 405.306 75.2004 405.256 75.1104 405.206C69.7004 402.266 64.3204 399.276 58.8504 396.486C58.6404 396.386 58.8304 396.086 59.0304 396.196C62.7004 398.016 66.4104 399.756 70.1104 401.526C70.6004 401.756 71.1004 401.996 71.5904 402.236C72.5704 402.696 73.5404 403.166 74.5104 403.636C74.5204 403.636 74.5204 403.646 74.5304 403.656C76.4804 404.576 78.3904 405.526 80.3104 406.516C85.7004 409.266 91.2504 411.996 96.2904 415.406C96.6604 415.666 97.0304 415.926 97.4004 416.196C97.6404 416.356 97.8704 416.526 98.0904 416.696C98.3604 416.876 98.6204 417.076 98.8804 417.276C103.5 420.796 106.89 425.176 109.97 429.926C109.97 429.926 109.97 429.936 109.98 429.936C110.18 430.266 110.4 430.586 110.61 430.926C110.7 431.076 110.81 431.236 110.91 431.396C110.96 431.476 111.01 431.556 111.07 431.636C111.13 431.746 111.2 431.846 111.27 431.966C111.32 432.046 111.37 432.126 111.42 432.216C111.6 432.496 111.77 432.786 111.95 433.076C113.89 436.246 115.79 439.436 117.66 442.626C118.17 443.486 118.68 444.336 119.2 445.196Z" fill="#455A64"/>
<path d="M59.5084 402.187C55.1374 400.223 48.0704 395.083 49.7394 389.427C50.4084 387.151 52.3844 385.857 54.7404 386.129C57.4694 386.45 59.8254 388.621 61.6824 390.469C66.6484 395.401 71.1074 400.763 76.4274 405.344C76.4834 405.357 76.8794 405.736 77.0004 405.834C77.1104 405.929 76.9474 406.086 76.8394 405.994C76.6644 405.846 76.4924 405.695 76.3174 405.547C70.7294 404.884 64.6914 404.517 59.5084 402.187Z" fill="#455A64"/>
<path d="M76.4709 405.336C76.4309 405.316 76.3909 405.286 76.3509 405.276C74.6909 404.356 73.1209 403.336 71.5909 402.236C68.4209 399.936 65.5109 397.296 62.6309 394.616C61.5309 393.576 56.2909 388.416 55.4609 392.096C55.1109 393.656 56.2609 395.416 57.1209 396.596C58.4809 398.516 60.2709 400.076 62.2609 401.316C66.2309 403.776 70.8209 404.756 75.3909 405.346C75.6009 405.376 75.8109 405.406 76.0109 405.426C76.0709 405.466 76.1209 405.496 76.1809 405.526C76.1809 405.536 76.1909 405.536 76.1909 405.536C76.2209 405.556 76.2709 405.586 76.3109 405.596C76.3409 405.616 76.3609 405.626 76.3909 405.616H76.4009C76.4909 405.606 76.5509 405.516 76.5409 405.436V405.426C76.5309 405.386 76.5109 405.356 76.4709 405.336ZM75.1109 405.206C71.3609 404.596 67.5709 403.776 64.1509 402.076C62.3809 401.186 60.6909 400.056 59.2509 398.686C58.6209 398.076 58.0209 397.406 57.5009 396.696C57.1009 396.176 56.7209 395.606 56.4309 395.016C55.7609 393.726 55.5109 392.046 56.1909 391.496C57.0209 390.816 57.6309 391.186 58.8409 391.906C59.2509 392.146 59.6409 392.426 60.0109 392.716C60.9509 393.436 61.8209 394.246 62.6809 395.056C64.1109 396.396 65.5409 397.726 67.0209 399.006C68.0309 399.876 69.0609 400.726 70.1109 401.526C71.9309 402.916 73.8209 404.186 75.8209 405.316C75.5909 405.286 75.3509 405.246 75.1109 405.206Z" fill="white"/>
<path d="M416.764 400.745C414.291 403.683 411.623 406.451 408.928 409.183C407.402 410.735 405.856 412.268 404.328 413.827C402.648 415.54 400.756 417.169 399.997 419.506C399.999 419.511 400.006 419.514 400.005 419.517C400.013 419.549 399.852 419.804 399.847 419.806C399.831 419.816 399.816 419.823 399.803 419.826C399.624 419.892 399.37 419.727 399.437 419.485C399.454 419.431 399.473 419.381 399.488 419.33C399.488 419.309 399.484 419.288 399.483 419.267C399.442 418.594 399.793 417.582 399.871 417.162C400.224 415.255 400.712 413.366 401.286 411.51C402.458 407.71 404.057 404.038 406.138 400.643C407.999 397.607 410.245 394.806 412.837 392.367C414.915 390.415 417.975 387.481 420.86 386.829C423.472 386.244 423.105 389.664 422.711 391.26C421.808 394.877 419.105 397.964 416.764 400.745Z" fill="#455A64"/>
<path d="M418.311 392.106C417.141 391.346 413.851 394.556 412.381 395.916C410.051 398.046 408.031 400.476 406.291 403.106C403.151 407.836 401.031 413.126 399.651 418.606C399.591 418.826 399.531 419.046 399.481 419.266C399.481 419.286 399.491 419.316 399.481 419.336C399.471 419.376 399.451 419.426 399.441 419.486C399.371 419.726 399.621 419.896 399.811 419.826C399.971 419.426 400.141 419.036 400.341 418.656C400.351 418.616 400.371 418.576 400.391 418.536C400.441 418.446 400.481 418.346 400.541 418.256C400.671 417.966 400.821 417.686 400.971 417.416C403.141 413.386 406.231 409.826 409.181 406.346C412.641 402.266 419.851 393.116 418.311 392.106ZM416.721 395.926C416.381 396.516 416.011 397.086 415.631 397.656C414.861 398.816 414.011 399.936 413.161 401.036C411.291 403.426 409.291 405.716 407.341 408.036C404.751 411.136 402.081 414.386 400.271 418.026C399.991 418.586 399.741 419.146 399.511 419.716C399.631 419.266 399.751 418.816 399.881 418.376C401.251 413.586 403.071 408.926 405.671 404.666C407.121 402.266 408.821 400.016 410.751 397.966C411.791 396.876 412.881 395.846 414.041 394.886C414.531 394.486 417.431 391.886 418.041 392.516C418.481 392.956 416.751 395.866 416.721 395.926Z" fill="white"/>
<path d="M429.381 421.498C424.528 424.281 418.848 425.136 413.345 425.457C410.396 425.626 407.441 425.659 404.494 425.759C402.024 425.841 399.152 425.764 396.611 426.387C396.501 426.41 396.384 426.439 396.27 426.473C395.546 426.669 394.851 426.93 394.203 427.268C394.149 427.292 394.101 427.29 394.061 427.267C393.998 427.316 393.94 427.363 393.87 427.406C393.826 427.438 393.761 427.385 393.8 427.335C393.848 427.272 393.91 427.206 393.958 427.143C393.964 427.137 393.966 427.134 393.972 427.128C393.965 427.06 393.989 426.997 394.064 426.96C394.086 426.944 394.116 426.931 394.145 426.917C394.197 426.855 394.25 426.79 394.305 426.73C398.086 422.246 404.701 419.534 410.028 417.653C415.328 415.778 421.072 414.765 426.644 415.943C428.044 416.242 431.362 416.708 431.908 418.36C432.408 419.87 430.411 420.911 429.381 421.498Z" fill="#455A64"/>
<path d="M426.061 419.366C425.701 417.696 421.081 418.256 419.951 418.356C416.521 418.646 413.161 419.476 409.851 420.356C404.401 421.806 399.201 423.626 394.501 426.656V426.666C394.431 426.686 394.371 426.706 394.311 426.726C394.241 426.796 394.191 426.856 394.141 426.916C394.111 426.926 394.081 426.946 394.061 426.956C393.991 426.996 393.961 427.066 393.971 427.136C394.061 427.106 394.141 427.076 394.231 427.056C394.901 426.836 395.581 426.646 396.271 426.476C396.381 426.446 396.501 426.406 396.611 426.386C401.361 425.196 406.301 424.806 411.181 424.226C414.571 423.826 417.981 423.276 421.241 422.246C422.071 421.986 426.361 420.776 426.061 419.366ZM423.671 420.996C418.431 423.546 412.071 423.756 406.371 424.396C402.521 424.816 398.661 425.366 394.981 426.506C399.301 423.946 404.191 422.286 408.981 420.976C411.741 420.216 414.541 419.506 417.371 419.066C418.891 418.816 420.451 418.616 422.011 418.606C422.711 418.596 424.081 418.626 424.791 418.836C426.481 419.336 424.571 420.556 423.671 420.996Z" fill="white"/>
<path d="M387.064 436.767C386.977 436.815 386.86 436.803 386.767 436.748C386.768 436.789 386.771 436.823 386.773 436.86C386.775 436.918 386.734 436.951 386.692 436.955C386.647 436.967 386.599 436.944 386.588 436.887C385.248 430.292 384.614 422.926 386.109 416.314C386.739 413.526 387.764 410.822 389.258 408.377C390.28 406.707 392.342 403.345 394.523 403.06C398.913 402.496 394.859 414.371 394.243 416.158C393.122 419.417 391.727 422.574 390.541 425.809C389.247 429.352 388.212 432.982 387.176 436.607C387.157 436.684 387.116 436.737 387.064 436.767Z" fill="#455A64"/>
<path d="M392.9 407.456C392.05 407.716 389.77 412.096 389.27 413.286C388.14 416.006 387.45 418.886 387.01 421.786C386.28 426.616 386.15 431.636 386.65 436.526C386.66 436.676 386.67 436.816 386.69 436.956C386.73 436.946 386.78 436.916 386.77 436.856C386.77 436.826 386.76 436.786 386.77 436.756C386.8 436.776 386.82 436.776 386.85 436.786C386.92 436.806 387 436.806 387.07 436.766V436.756C387.08 436.396 387.1 436.046 387.13 435.686C387.5 429.796 388.79 424.306 390.95 418.676C391.98 415.956 393.14 413.186 393.71 410.316C393.84 409.606 394.55 406.966 392.9 407.456ZM393.5 409.876C393.39 410.816 393.12 411.776 392.83 412.666C392.4 413.946 391.94 415.216 391.45 416.486C390.49 419.016 389.49 421.546 388.72 424.146C387.61 427.846 386.95 431.736 386.85 435.616C386.62 431.836 386.63 428.066 387.03 424.266C387.32 421.376 387.83 418.476 388.73 415.696C389.08 414.596 389.51 413.516 389.99 412.456C390.38 411.636 390.78 410.806 391.28 410.056C392.51 408.196 392.97 407.816 393.32 407.946C393.54 408.036 393.68 408.406 393.5 409.876Z" fill="white"/>
<path d="M406.108 435.229C404.447 436.957 402.22 438.078 400.008 438.936C395.555 440.653 390.802 441.396 386.246 442.795C385.566 443.004 384.89 443.226 384.217 443.471C384.145 443.5 383.409 443.985 383.45 443.931C383.459 443.918 383.671 443.69 384.038 443.31L384.043 443.308C385.851 441.428 391.412 435.822 395.25 433.599C397.61 432.233 400.172 430.923 402.806 430.172C404.067 429.822 406.929 429.154 407.963 430.377C409.074 431.695 406.977 434.329 406.108 435.229Z" fill="#455A64"/>
<path d="M404.871 432.556C404.051 430.816 396.401 434.836 395.391 435.346C391.661 437.226 388.201 439.586 385.091 442.366C384.731 442.666 384.391 442.986 384.041 443.306C383.801 443.556 383.621 443.746 383.531 443.846C383.501 443.876 383.471 443.896 383.461 443.916C383.491 443.916 383.581 443.856 383.691 443.796C383.741 443.766 383.801 443.726 383.851 443.696C383.931 443.646 384.011 443.596 384.071 443.556C384.141 443.516 384.201 443.476 384.221 443.466C384.331 443.426 384.451 443.386 384.561 443.346C384.781 443.266 385.011 443.186 385.231 443.116C385.571 443.006 385.911 442.896 386.241 442.796H386.251C389.281 441.496 392.341 440.246 395.351 438.876C397.521 437.886 399.631 436.796 401.621 435.476C402.071 435.176 405.231 433.316 404.871 432.556ZM403.321 434.086C397.791 438.316 390.991 440.066 384.771 442.966C384.661 443.016 384.571 443.066 384.461 443.106C384.601 442.996 384.731 442.876 384.871 442.766C387.511 440.526 390.311 438.526 393.321 436.826C395.141 435.796 397.041 434.876 398.981 434.066C400.001 433.646 401.121 433.096 402.201 432.806C402.691 432.686 404.031 432.386 404.221 432.706C404.481 433.156 403.681 433.806 403.321 434.086Z" fill="white"/>
<path d="M449.408 398.782C439.235 405.506 425.686 402.913 415.171 408.935C415.15 408.947 415.134 408.958 415.118 408.968C414.797 409.151 414.481 409.343 414.165 409.544C414.011 409.64 413.845 409.52 413.825 409.391C413.815 409.331 413.838 409.27 413.908 409.224C413.98 409.174 414.059 409.127 414.136 409.083C418.524 403.916 424.61 399.616 430.534 396.395C435.689 393.597 441.527 391.641 447.454 392.256C448.916 392.404 451.826 392.606 452.448 394.335C453.111 396.164 450.663 397.955 449.408 398.782Z" fill="#455A64"/>
<path d="M445.471 396.796C445.201 396.076 444.111 396.036 443.521 395.976C442.041 395.816 440.511 395.876 439.051 396.076C436.001 396.466 433.081 397.476 430.291 398.736C425.611 400.876 420.881 403.476 416.801 406.756C415.881 407.496 414.991 408.266 414.141 409.086C414.031 409.186 413.931 409.286 413.821 409.386C413.841 409.516 414.011 409.636 414.161 409.546C414.461 409.356 414.741 409.186 415.041 409.016C415.051 409.006 415.071 408.996 415.081 408.986C415.101 408.966 415.131 408.956 415.171 408.936C417.191 407.596 419.291 406.416 421.551 405.476C425.031 404.036 428.741 403.186 432.371 402.206C433.801 401.826 446.411 399.276 445.471 396.796ZM443.411 398.546C440.741 399.946 437.651 400.486 434.751 401.266C431.831 402.066 428.901 402.816 425.991 403.656C423.691 404.316 421.421 405.156 419.251 406.206C417.441 407.076 415.701 408.096 414.081 409.276C415.541 407.946 417.111 406.736 418.731 405.616C418.751 405.596 418.771 405.586 418.791 405.586C421.681 403.586 424.791 401.866 427.871 400.266C427.901 400.246 427.951 400.226 427.991 400.206C430.731 398.796 433.591 397.556 436.601 396.836C438.231 396.456 439.901 396.196 441.591 396.196C443.491 396.196 445.031 396.396 445.091 397.046C445.121 397.486 444.201 398.136 443.411 398.546Z" fill="white"/>
<path d="M428.011 400.506C425.071 402.356 422.151 404.276 419.251 406.206C417.881 407.116 416.521 408.026 415.171 408.936C415.131 408.956 415.101 408.966 415.081 408.986C415.071 408.996 415.051 409.006 415.041 409.016C414.561 409.326 414.081 409.646 413.611 409.966C409.171 412.936 404.491 415.876 400.581 419.536C398.541 421.436 396.731 423.606 395.051 425.906C395.041 425.916 395.031 425.936 395.021 425.946C394.851 426.186 394.681 426.416 394.501 426.656V426.666C394.411 426.796 394.321 426.926 394.231 427.056C394.171 427.126 394.131 427.206 394.081 427.276C392.671 429.286 391.361 431.366 390.091 433.396C388.321 436.226 386.761 439.146 385.231 442.096C385.221 442.096 385.221 442.106 385.221 442.106C385.171 442.186 385.121 442.276 385.091 442.366C385.011 442.496 384.941 442.626 384.871 442.766C384.831 442.836 384.801 442.896 384.771 442.966C384.701 443.096 384.631 443.216 384.561 443.346C384.241 443.966 383.921 444.576 383.591 445.196H382.381C383.541 442.296 384.981 439.436 386.551 436.706V436.696C386.581 436.626 386.611 436.586 386.651 436.526C386.801 436.246 386.971 435.956 387.131 435.686C387.331 435.336 387.521 435.006 387.731 434.666C387.731 434.656 387.741 434.656 387.741 434.646C388.241 433.836 388.721 433.026 389.221 432.236C392.111 427.616 395.261 422.876 399.181 419.046C399.291 418.946 399.401 418.846 399.511 418.736C399.551 418.686 399.601 418.646 399.651 418.606C399.721 418.526 399.801 418.456 399.881 418.376L400.271 418.026C400.501 417.816 400.741 417.616 400.971 417.416L401.181 417.236L401.191 417.226C404.911 414.086 409.221 411.496 413.301 408.916C414.051 408.446 414.791 407.976 415.551 407.516C415.961 407.266 416.381 407.006 416.801 406.756C417.441 406.376 418.091 405.996 418.731 405.616C418.751 405.596 418.771 405.586 418.791 405.586C421.811 403.796 424.861 402.076 427.871 400.266C428.011 400.186 428.151 400.426 428.011 400.506Z" fill="#455A64"/>
<path d="M357.713 359.511C357.713 359.511 376.276 413.303 385.413 435.139C387.614 440.399 391.981 444.145 392.283 444.446C393.834 445.997 454.33 444.668 455.438 444.446C456.546 444.224 449.012 429.71 444.801 427.716C440.591 425.722 408.681 431.594 408.681 431.594C408.681 431.594 407.499 368.439 407.868 366.519C408.237 364.599 408.163 359.512 408.163 359.512L408.902 369.179C408.902 369.179 411.044 361.94 411.118 358.616C411.192 355.292 409.124 322.422 409.124 322.422L357.713 359.511Z" fill="#FFC727"/>
<path opacity="0.4" d="M357.713 359.511C357.713 359.511 376.276 413.303 385.413 435.139C387.614 440.399 391.981 444.145 392.283 444.446C393.834 445.997 454.33 444.668 455.438 444.446C456.546 444.224 449.012 429.71 444.801 427.716C440.591 425.722 408.681 431.594 408.681 431.594C408.681 431.594 407.499 368.439 407.868 366.519C408.237 364.599 408.163 359.512 408.163 359.512L408.902 369.179C408.902 369.179 411.044 361.94 411.118 358.616C411.192 355.292 409.124 322.422 409.124 322.422L357.713 359.511Z" fill="black"/>
<path d="M441.316 434.806C444.462 436.822 447.881 440.806 446.571 444.774C446.356 440.765 443.504 437.959 441.316 434.806Z" fill="#263238"/>
<path d="M447.521 434.437C450.667 436.453 454.086 440.437 452.776 444.405C452.561 440.396 449.71 437.589 447.521 434.437Z" fill="#263238"/>
<path opacity="0.1" d="M409.893 335.002C404.029 346.45 395.365 358.676 392.393 361.222C389.061 364.074 375.201 374.318 364.899 380.023C360.714 368.202 357.715 359.512 357.715 359.512L409.119 322.422C409.119 322.422 409.48 328.112 409.893 335.002Z" fill="black"/>
<path d="M169.289 399.316L165.714 413.645C135.907 390.658 107.579 353.557 96.9544 318.266C94.6574 310.628 89.4164 294.073 89.3164 287.239C89.2164 280.074 92.9774 269.751 93.2934 268.918C93.1924 269.679 92.0014 279.098 93.3224 287.124C93.3794 285.832 93.4804 284.568 93.6234 283.305C98.1464 241.997 156.166 206.433 156.166 206.433C156.166 206.433 127.982 249.406 131.27 306.45C132.433 326.594 139.641 346.595 147.466 362.848C143.848 354.951 140.502 342.144 140.301 341.354C140.904 342.775 157.042 380.752 163.087 390.415C163.317 390.774 163.518 391.076 163.704 391.348C163.862 391.578 163.991 391.779 164.106 391.965C167.25 396.66 169.289 399.316 169.289 399.316Z" fill="#FFC727"/>
<path opacity="0.4" d="M169.289 399.316L165.714 413.645C135.907 390.658 107.579 353.557 96.9544 318.266C94.6574 310.628 89.4164 294.073 89.3164 287.239C89.2164 280.074 92.9774 269.751 93.2934 268.918C93.1924 269.679 92.0014 279.098 93.3224 287.124C93.3794 285.832 93.4804 284.568 93.6234 283.305C98.1464 241.997 156.166 206.433 156.166 206.433C156.166 206.433 127.982 249.406 131.27 306.45C132.433 326.594 139.641 346.595 147.466 362.848C143.848 354.951 140.502 342.144 140.301 341.354C140.904 342.775 157.042 380.752 163.087 390.415C163.317 390.774 163.518 391.076 163.704 391.348C163.862 391.578 163.991 391.779 164.106 391.965C167.25 396.66 169.289 399.316 169.289 399.316Z" fill="black"/>
<path opacity="0.1" d="M169.29 399.316L165.715 413.645C161.925 410.73 158.163 407.586 154.473 404.241L160.044 384.887C161.207 387.17 162.241 389.065 163.088 390.415C163.318 390.774 163.519 391.076 163.705 391.348C163.863 391.578 163.992 391.779 164.107 391.965C167.251 396.66 169.29 399.316 169.29 399.316Z" fill="black"/>
<path d="M160.27 419.823C160.648 424.91 159.605 444.198 178.884 444.198C198.163 444.198 261.761 444.198 274.17 444.198C286.579 444.198 373.747 372.6 388.444 356.003C403.141 339.406 415.77 319.44 417.542 303.485C419.315 287.53 402.4 215.068 384.007 181.164C384.007 181.164 383.859 165.209 379.649 152.357C375.439 139.504 363.694 121.112 350.398 116.902C337.102 112.692 275.055 123.328 268.851 135.516C262.646 147.704 263.089 169.199 263.089 169.199C263.089 169.199 209.687 192.02 209.909 195.787C210.131 199.554 231.182 222.157 248.91 223.93C266.638 225.703 300.76 212.188 300.76 212.188C300.76 212.188 302.311 218.614 300.538 224.376C298.765 230.138 253.781 291.981 245.582 298.066C237.383 304.151 191.956 320.77 181.984 337.833C172.015 354.895 158.276 393.009 160.27 419.823Z" fill="#FFC727"/>
<path d="M160.27 419.823C160.648 424.91 159.605 444.198 178.884 444.198C198.163 444.198 261.761 444.198 274.17 444.198C286.579 444.198 373.747 372.6 388.444 356.003C403.141 339.406 415.77 319.44 417.542 303.485C419.315 287.53 402.4 215.068 384.007 181.164C384.007 181.164 383.859 165.209 379.649 152.357C375.439 139.504 363.694 121.112 350.398 116.902C337.102 112.692 275.055 123.328 268.851 135.516C262.646 147.704 263.089 169.199 263.089 169.199C263.089 169.199 209.687 192.02 209.909 195.787C210.131 199.554 231.182 222.157 248.91 223.93C266.638 225.703 300.76 212.188 300.76 212.188C300.76 212.188 302.311 218.614 300.538 224.376C298.765 230.138 253.781 291.981 245.582 298.066C237.383 304.151 191.956 320.77 181.984 337.833C172.015 354.895 158.276 393.009 160.27 419.823Z" fill="#FFC727"/>
<path opacity="0.3" d="M160.27 419.823C160.648 424.91 159.605 444.198 178.884 444.198C198.163 444.198 261.761 444.198 274.17 444.198C286.579 444.198 373.747 372.6 388.444 356.003C403.141 339.406 415.77 319.44 417.542 303.485C419.315 287.53 402.4 215.068 384.007 181.164C384.007 181.164 383.859 165.209 379.649 152.357C375.439 139.504 363.694 121.112 350.398 116.902C337.102 112.692 275.055 123.328 268.851 135.516C262.646 147.704 263.089 169.199 263.089 169.199C263.089 169.199 209.687 192.02 209.909 195.787C210.131 199.554 231.182 222.157 248.91 223.93C266.638 225.703 300.76 212.188 300.76 212.188C300.76 212.188 302.311 218.614 300.538 224.376C298.765 230.138 253.781 291.981 245.582 298.066C237.383 304.151 191.956 320.77 181.984 337.833C172.015 354.895 158.276 393.009 160.27 419.823Z" fill="black"/>
<path opacity="0.1" d="M190.855 335.831C183.765 345.147 175.382 398.777 184.444 417.822C192.147 434.028 235.928 442.878 262.21 444.197H178.887C159.602 444.197 160.642 424.912 160.269 419.821C158.27 393.006 172.011 354.89 181.993 337.831C191.962 320.772 237.382 304.153 245.592 298.062C253.788 291.985 298.769 230.132 300.541 224.375C302.314 218.618 300.768 212.194 300.768 212.194C300.768 212.194 314.335 205.77 319.333 202.998C319.333 202.998 322.891 216.032 322.905 223.336C322.905 230.666 261.905 297.37 251.417 302.194C240.926 307.03 197.945 326.529 190.855 335.831Z" fill="black"/>
<path opacity="0.2" d="M233.29 304.592C231.944 321.131 223.641 345.414 211.233 359.261C198.625 373.335 173.516 375.48 166.453 375.814C170.904 360.541 176.928 346.48 181.993 337.831C189.429 325.116 216.564 312.641 233.29 304.592Z" fill="black"/>
<path opacity="0.2" d="M245.917 311.87C247.378 318.291 260.321 319.328 266.525 316.558C272.73 313.788 276.275 304.056 271.179 298.064C266.082 292.072 244.144 304.08 245.917 311.87Z" fill="black"/>
<path opacity="0.2" d="M291.784 260.611C291.451 268.474 284.587 281.109 277.164 283.654C271.646 285.546 264.543 283.947 260.891 280.362C269.194 269.753 279.11 256.306 286.959 245.204C290.384 247.737 292.037 254.774 291.784 260.611Z" fill="black"/>
<path opacity="0.1" d="M376.655 276.011C377.973 269.835 378.762 263.415 378.032 257.354C377.974 256.872 378.645 256.584 378.988 256.957C379.92 257.968 382.543 260.807 382.929 261.247C382.913 260.87 382.896 260.495 382.864 260.128C382.754 258.861 382.585 257.605 382.359 256.361C381.904 253.858 381.254 251.393 380.396 249.004C379.54 246.62 378.485 244.306 377.222 242.088C375.951 239.855 374.429 237.789 372.974 235.655C372.911 235.563 373.077 235.44 373.168 235.519C375.227 237.292 376.911 239.453 378.373 241.619C379.82 243.763 381.052 246.02 382.065 248.365C383.094 250.747 383.894 253.214 384.432 255.752C384.71 257.065 384.922 258.394 385.074 259.734C385.22 261.015 385.412 262.363 385.089 263.679C384.877 264.541 383.612 264.41 383.251 263.807C383.034 263.444 379.709 259.365 379.203 258.774C379.441 261.391 379.54 264.008 379.258 266.695C378.928 269.839 378.259 272.991 377.149 276.09C377.047 276.373 376.597 276.283 376.655 276.011Z" fill="black"/>
<path opacity="0.1" d="M300.234 211.516C299.408 211.849 297.635 212.515 295.183 213.395L300.234 211.516Z" fill="black"/>
<path d="M271.955 433.086C271.955 433.086 269.408 442.107 271.364 444.063C273.32 446.019 356.014 445.026 356.162 444.063C356.31 443.1 343.457 425.668 335.332 424.781C327.207 423.895 301.206 431.429 301.206 431.429C301.206 431.429 348.738 372.3 334.803 336.954C328.669 321.397 291.899 315.349 244.773 334.37C201.948 351.654 212.272 428.506 235.761 436.927C259.251 445.348 271.955 433.086 271.955 433.086Z" fill="#FFC727"/>
<path opacity="0.3" d="M271.955 433.086C271.955 433.086 269.408 442.107 271.364 444.063C273.32 446.019 356.014 445.026 356.162 444.063C356.31 443.1 343.457 425.668 335.332 424.781C327.207 423.895 301.206 431.429 301.206 431.429C301.206 431.429 348.738 372.3 334.803 336.954C328.669 321.397 291.899 315.349 244.773 334.37C201.948 351.654 212.272 428.506 235.761 436.927C259.251 445.348 271.955 433.086 271.955 433.086Z" fill="black"/>
<path d="M247.773 332.923C268.976 324.373 313.075 312.367 331.377 330.529C346.023 346.034 336.032 373.176 327.948 389.801C320.589 404.64 311.504 418.547 301.205 431.43C306.046 424.754 310.62 417.894 314.847 410.829C326.311 391.571 347.103 353.567 331.027 332.937C314.33 313.976 268.82 325.694 247.773 332.923Z" fill="#263238"/>
<path d="M256.555 326.712C261.134 325.329 266.063 325.068 270.773 325.916C266.099 326.442 261.267 326.693 256.555 326.712Z" fill="#263238"/>
<path d="M271.641 444.197C271.046 444.02 270.673 443.38 270.598 442.772C270.289 440.979 270.353 439.148 270.429 437.342C270.757 431.375 271.927 425.378 273.321 419.572C273.635 418.412 273.921 417.246 274.283 416.098C274.144 417.293 273.954 418.477 273.804 419.668C273.471 421.902 272.536 428 272.18 430.315C271.663 433.855 271.066 437.392 270.872 440.963C270.882 442.051 270.506 443.542 271.641 444.197Z" fill="#263238"/>
<path d="M271.736 417.704C272.141 419.756 272.343 421.893 272.565 423.937C273.182 428.391 271.466 423.655 271.352 421.985C271.209 420.55 271.233 419.078 271.736 417.704Z" fill="#263238"/>
<path d="M339.454 434.806C342.6 436.822 346.019 440.806 344.709 444.774C344.494 440.765 341.642 437.959 339.454 434.806Z" fill="#263238"/>
<path d="M345.658 434.437C348.804 436.453 352.223 440.437 350.913 444.405C350.698 440.396 347.847 437.589 345.658 434.437Z" fill="#263238"/>
<path d="M384.009 180.287C384.009 180.287 386.354 157.573 387.407 155.635C388.46 153.696 399.65 150.981 402.753 153.253C405.855 155.524 385.58 182.067 385.58 182.067L384.009 180.287Z" fill="#455A64"/>
<path d="M389.222 177.158C388.942 177.558 388.662 177.931 388.409 178.291C387.05 177.784 385.717 177.305 384.384 176.838C384.424 176.412 384.477 175.958 384.531 175.479C386.077 176.012 387.636 176.572 389.222 177.158ZM392.567 166.109C390.315 165.296 388.116 164.523 385.943 163.79C385.876 164.23 385.823 164.683 385.77 165.136C387.876 165.856 390.022 166.602 392.207 167.402C392.62 167.548 393.033 167.695 393.46 167.855C394.073 168.068 394.686 168.295 395.299 168.535C395.565 168.162 395.819 167.775 396.072 167.402C395.312 167.109 394.566 166.829 393.82 166.576C393.393 166.403 392.98 166.256 392.567 166.109ZM396.845 155.394C396.419 155.247 396.005 155.101 395.592 154.954C394.233 154.461 392.873 153.994 391.54 153.541C390.794 153.768 390.101 154.007 389.501 154.261C391.38 154.901 393.299 155.554 395.258 156.247C395.658 156.394 396.084 156.54 396.498 156.687C398.137 157.273 399.79 157.886 401.469 158.526C401.682 158.1 401.882 157.7 402.055 157.313C400.297 156.647 398.564 156.007 396.845 155.394ZM396.205 152.569C396.005 153.355 395.805 154.142 395.592 154.955C395.485 155.381 395.365 155.808 395.259 156.248C394.419 159.393 393.527 162.685 392.567 166.11C392.447 166.536 392.327 166.963 392.207 167.403C391.341 170.468 390.408 173.64 389.435 176.879C390.168 175.879 390.968 174.773 391.794 173.6C392.367 171.654 392.927 169.735 393.46 167.856C393.58 167.43 393.7 167.002 393.82 166.576C394.793 163.137 395.686 159.833 396.499 156.688C396.632 156.262 396.739 155.822 396.845 155.395C397.112 154.382 397.365 153.396 397.618 152.436C397.152 152.462 396.685 152.516 396.205 152.569Z" fill="#37474F"/>
<path opacity="0.3" d="M384.009 180.287C384.009 180.287 386.576 156.244 391.008 155.801C395.44 155.358 385.653 177.406 384.009 180.287Z" fill="black"/>
<path d="M385.076 180.072C385.076 180.072 401.745 173.046 403.49 172.885C406.741 172.586 410.052 178.475 409.678 181.506C409.304 184.537 384.45 181.85 384.45 181.85L385.076 180.072Z" fill="#455A64"/>
<path d="M405.708 173.546C404.988 173.919 404.269 174.292 403.522 174.665C403.135 174.878 402.736 175.078 402.349 175.278C402.509 175.691 402.682 176.104 402.856 176.518C403.256 176.318 403.656 176.105 404.042 175.905C404.975 175.425 405.894 174.959 406.787 174.479C406.441 174.119 406.081 173.799 405.708 173.546ZM404.042 175.905L403.522 174.665C403.295 174.105 403.082 173.572 402.842 173.026C402.509 173.133 402.082 173.266 401.589 173.439C401.842 174.052 402.095 174.665 402.349 175.278C402.509 175.691 402.682 176.104 402.856 176.518C403.696 178.584 404.522 180.689 405.348 182.848C405.841 182.821 406.308 182.781 406.721 182.728C405.841 180.41 404.935 178.131 404.042 175.905Z" fill="#37474F"/>
<path d="M393.7 181.103C393.913 181.623 394.113 182.156 394.326 182.676C393.833 182.649 393.34 182.609 392.86 182.583C392.74 182.276 392.62 181.983 392.5 181.69C391.994 181.93 391.474 182.183 390.967 182.436C390.021 182.369 389.128 182.289 388.328 182.223C389.568 181.623 390.794 181.037 392.006 180.45C391.633 179.504 391.246 178.584 390.873 177.665C391.273 177.492 391.686 177.332 392.099 177.159C392.459 178.052 392.832 178.958 393.192 179.864C396.391 178.291 399.456 176.759 402.348 175.279C402.508 175.692 402.681 176.105 402.855 176.519C399.964 177.998 396.898 179.53 393.7 181.103Z" fill="#37474F"/>
<path opacity="0.3" d="M385.076 180.072C385.076 180.072 402.746 172.545 404.769 175.447C406.792 178.35 387.71 180.097 385.076 180.072Z" fill="black"/>
<path d="M300.449 211.883C301.335 215.096 366.355 232.473 371.341 230.146C375.072 228.405 388.144 182.997 385.156 178.916C383.901 177.201 381.415 181.464 350.843 194.322C336.662 200.286 299.732 209.284 300.449 211.883Z" fill="#455A64"/>
<path d="M309.67 207.624C309.657 207.597 309.657 207.571 309.643 207.544C309.216 207.691 308.79 207.837 308.39 207.984C308.403 208.011 308.403 208.024 308.417 208.051C308.644 208.677 308.897 209.33 309.123 209.984C309.549 209.864 309.976 209.744 310.416 209.637C310.163 208.957 309.91 208.277 309.67 207.624ZM310.87 210.89C310.444 211.01 310.017 211.13 309.591 211.25C310.204 212.956 310.831 214.715 311.457 216.514C311.964 216.674 312.497 216.834 313.03 217.007C312.309 214.915 311.59 212.862 310.87 210.89ZM325.61 218.326C325.477 217.9 325.33 217.486 325.197 217.073V217.06C324.091 213.781 322.985 210.623 321.892 207.624C321.732 207.198 321.585 206.784 321.439 206.371C321.159 205.625 320.893 204.905 320.626 204.185C320.186 204.318 319.76 204.451 319.333 204.585C319.6 205.291 319.879 206.024 320.146 206.757C320.306 207.17 320.453 207.583 320.612 208.01C321.705 211.022 322.824 214.181 323.917 217.459C324.064 217.872 324.21 218.299 324.343 218.725C324.543 219.325 324.743 219.924 324.943 220.538C325.45 220.685 325.956 220.818 326.476 220.964C326.196 220.086 325.903 219.193 325.61 218.326ZM347.454 211.036C347.027 211.183 346.614 211.343 346.188 211.489C347.241 214.581 348.28 217.779 349.293 221.071C349.719 220.924 350.133 220.778 350.559 220.618C349.546 217.327 348.493 214.128 347.454 211.036ZM347.454 211.036C347.027 211.183 346.614 211.343 346.188 211.489C347.241 214.581 348.28 217.779 349.293 221.071C349.719 220.924 350.133 220.778 350.559 220.618C349.546 217.327 348.493 214.128 347.454 211.036ZM347.454 211.036C347.027 211.183 346.614 211.343 346.188 211.489C347.241 214.581 348.28 217.779 349.293 221.071C349.719 220.924 350.133 220.778 350.559 220.618C349.546 217.327 348.493 214.128 347.454 211.036ZM336.578 214.821C336.431 214.395 336.298 213.968 336.152 213.542C335.032 210.25 333.9 207.078 332.807 204.08C332.647 203.667 332.487 203.254 332.341 202.84C332.088 202.16 331.848 201.507 331.608 200.854C331.181 200.987 330.755 201.121 330.315 201.241C330.568 201.907 330.808 202.574 331.075 203.253C331.222 203.666 331.381 204.093 331.541 204.519C332.647 207.518 333.767 210.676 334.873 213.968C335.02 214.381 335.166 214.808 335.3 215.234C336.273 218.086 337.219 221.045 338.139 224.07C338.592 224.19 339.059 224.297 339.512 224.416C339.565 224.429 339.605 224.443 339.659 224.456C339.659 224.429 339.646 224.403 339.632 224.376C338.644 221.112 337.618 217.913 336.578 214.821ZM347.454 211.036C347.027 211.183 346.614 211.343 346.188 211.489C347.241 214.581 348.28 217.779 349.293 221.071C349.719 220.924 350.133 220.778 350.559 220.618C349.546 217.327 348.493 214.128 347.454 211.036ZM347.454 211.036C347.027 211.183 346.614 211.343 346.188 211.489C347.241 214.581 348.28 217.779 349.293 221.071C349.719 220.924 350.133 220.778 350.559 220.618C349.546 217.327 348.493 214.128 347.454 211.036ZM347.454 211.036C347.027 211.183 346.614 211.343 346.188 211.489C347.241 214.581 348.28 217.779 349.293 221.071C349.719 220.924 350.133 220.778 350.559 220.618C349.546 217.327 348.493 214.128 347.454 211.036ZM352.611 227.536C352.065 225.63 351.505 223.738 350.945 221.885C350.812 221.459 350.678 221.032 350.559 220.619C349.546 217.327 348.493 214.129 347.454 211.037C347.307 210.611 347.161 210.197 347.014 209.771C345.881 206.466 344.735 203.294 343.629 200.308C343.469 199.882 343.309 199.468 343.163 199.055C342.95 198.482 342.737 197.922 342.523 197.376C342.11 197.523 341.683 197.669 341.257 197.802C341.47 198.362 341.683 198.935 341.897 199.508C342.057 199.908 342.203 200.334 342.363 200.761C343.482 203.746 344.615 206.918 345.761 210.224C342.616 211.343 339.404 212.463 336.152 213.542C336.299 213.968 336.432 214.395 336.578 214.821C339.843 213.728 343.042 212.609 346.187 211.489C347.24 214.581 348.279 217.779 349.292 221.071C349.425 221.497 349.558 221.911 349.678 222.337C350.171 223.936 350.651 225.549 351.117 227.188V227.201C351.625 227.309 352.118 227.429 352.611 227.536ZM364.633 227.616C363.727 224.324 362.78 221.072 361.781 217.9C365.073 216.647 368.258 215.408 371.323 214.182C371.176 213.756 371.043 213.342 370.91 212.929C367.858 214.142 364.673 215.381 361.394 216.634C360.354 213.329 359.288 210.117 358.235 207.038C358.075 206.612 357.928 206.185 357.795 205.772C356.635 202.453 355.476 199.281 354.343 196.296C354.183 195.87 354.023 195.456 353.877 195.043C353.65 194.457 353.424 193.897 353.211 193.324C353.198 193.311 353.198 193.284 353.184 193.271C352.784 193.471 352.411 193.631 352.051 193.804C352.024 193.804 351.998 193.817 351.971 193.831C352.198 194.391 352.411 194.951 352.624 195.524C352.784 195.937 352.944 196.35 353.104 196.777C354.224 199.749 355.383 202.921 356.543 206.24C353.451 207.426 350.279 208.599 347.014 209.772C347.161 210.198 347.307 210.611 347.454 211.037C350.706 209.864 353.891 208.692 356.983 207.52C358.049 210.599 359.115 213.811 360.142 217.116C360.275 217.529 360.409 217.942 360.542 218.369C361.528 221.541 362.474 224.78 363.381 228.085C363.501 228.511 363.621 228.938 363.727 229.364H363.74C363.767 229.484 363.793 229.617 363.833 229.737C364.339 229.817 364.819 229.883 365.272 229.95C365.179 229.603 365.085 229.244 364.992 228.897C364.873 228.469 364.753 228.042 364.633 227.616ZM372.549 213.689C372.416 213.262 372.282 212.849 372.149 212.423C371.083 209.118 370.003 205.906 368.924 202.814C368.777 202.401 368.631 201.974 368.484 201.561C367.298 198.216 366.112 195.03 364.979 192.072C364.819 191.646 364.659 191.246 364.499 190.832C364.219 190.112 363.939 189.406 363.673 188.713C363.286 188.886 362.873 189.073 362.46 189.259C362.727 189.939 362.993 190.632 363.273 191.338C363.419 191.738 363.579 192.151 363.739 192.578C364.885 195.537 366.058 198.722 367.244 202.054C367.391 202.467 367.537 202.894 367.684 203.32C368.777 206.399 369.856 209.611 370.909 212.929C371.042 213.342 371.176 213.755 371.323 214.182C372.309 217.341 373.281 220.593 374.228 223.898C374.295 224.151 374.361 224.405 374.441 224.671C374.574 224.351 374.707 224.005 374.841 223.658C374.974 223.338 375.108 222.992 375.241 222.645C374.375 219.592 373.482 216.607 372.549 213.689ZM379.546 198.389C379.386 197.976 379.239 197.549 379.093 197.136C377.88 193.777 376.681 190.605 375.535 187.66C375.375 187.247 375.215 186.834 375.055 186.434C374.682 185.514 374.335 184.621 373.989 183.755C373.602 183.955 373.203 184.155 372.79 184.355C373.136 185.195 373.483 186.061 373.83 186.954C373.99 187.354 374.15 187.767 374.31 188.18C375.456 191.139 376.656 194.311 377.882 197.669C378.015 198.082 378.162 198.495 378.322 198.909C379.108 201.108 379.895 203.387 380.681 205.733C380.894 204.96 381.107 204.2 381.307 203.427C380.719 201.707 380.133 200.028 379.546 198.389ZM385.503 181.823C385.13 180.89 384.53 179.544 384.144 178.598C383.837 178.678 383.438 178.838 382.891 179.091C383.304 180.09 383.904 181.397 384.29 182.37C384.45 182.77 384.61 183.183 384.77 183.609C384.957 184.049 385.13 184.502 385.316 184.968C385.396 184.368 385.449 183.808 385.503 183.289C385.543 182.836 385.57 182.409 385.583 182.023C385.583 182.023 385.583 182.023 385.583 182.01V181.997C385.557 181.943 385.53 181.889 385.503 181.823ZM309.123 209.984C306.324 210.757 303.513 211.503 300.701 212.21C300.781 212.277 300.874 212.343 300.981 212.423C301.088 212.49 301.208 212.57 301.354 212.65C301.621 212.81 301.967 212.996 302.367 213.17C304.779 212.557 307.192 211.917 309.591 211.251C309.43 210.823 309.283 210.397 309.123 209.984ZM385.503 181.823C385.103 182.009 384.703 182.197 384.29 182.37C381.465 183.636 378.387 184.995 375.055 186.434C374.655 186.594 374.241 186.767 373.828 186.954C370.883 188.207 367.777 189.5 364.499 190.832C364.099 191.005 363.686 191.165 363.273 191.338C360.261 192.551 357.129 193.804 353.877 195.043C353.464 195.203 353.051 195.363 352.624 195.523C349.559 196.709 346.401 197.882 343.163 199.055C342.737 199.202 342.322 199.362 341.896 199.508C338.777 200.628 335.579 201.747 332.34 202.84C331.927 202.973 331.5 203.12 331.074 203.253C327.915 204.319 324.69 205.359 321.438 206.372C321.011 206.505 320.572 206.639 320.145 206.758C316.933 207.758 313.681 208.704 310.416 209.637C310.563 210.05 310.71 210.477 310.87 210.89C314.149 209.97 317.4 209.011 320.611 208.011C321.038 207.891 321.464 207.758 321.89 207.624C325.155 206.611 328.367 205.572 331.539 204.519C332.645 207.518 333.765 210.676 334.871 213.968C335.298 213.835 335.724 213.688 336.15 213.542C335.03 210.25 333.898 207.078 332.805 204.08C336.044 202.987 339.242 201.881 342.361 200.761C343.48 203.746 344.613 206.918 345.759 210.224C342.614 211.343 339.402 212.463 336.15 213.542C336.297 213.968 336.43 214.395 336.576 214.821C339.841 213.728 343.04 212.609 346.185 211.489C346.611 211.342 347.025 211.182 347.451 211.036C350.703 209.863 353.888 208.69 356.98 207.518C357.393 207.345 357.806 207.198 358.233 207.038C361.485 205.785 364.643 204.546 367.682 203.32C367.536 202.894 367.389 202.467 367.242 202.054C364.203 203.28 361.058 204.52 357.793 205.772C356.633 202.453 355.474 199.281 354.341 196.296C357.579 195.043 360.725 193.804 363.737 192.578C364.883 195.537 366.056 198.722 367.242 202.054C367.655 201.894 368.068 201.721 368.482 201.561C367.296 198.216 366.11 195.03 364.977 192.072C368.255 190.753 371.374 189.446 374.306 188.18C374.719 188.007 375.132 187.834 375.532 187.66C378.864 186.234 381.956 184.874 384.768 183.608C385.021 183.501 385.261 183.395 385.501 183.288C385.541 182.835 385.568 182.408 385.581 182.022C385.581 182.022 385.581 182.022 385.581 182.009V181.796C385.557 181.809 385.53 181.823 385.503 181.823ZM356.543 206.238C353.451 207.424 350.279 208.598 347.014 209.771C345.881 206.466 344.735 203.294 343.629 200.308C346.868 199.135 350.026 197.948 353.105 196.775C354.224 199.748 355.383 202.92 356.543 206.238ZM379.093 197.136C378.693 197.323 378.293 197.496 377.88 197.669C374.921 198.922 371.776 200.228 368.484 201.561C368.071 201.721 367.658 201.894 367.244 202.054C364.205 203.28 361.06 204.52 357.795 205.772C357.382 205.932 356.969 206.092 356.556 206.238H356.543C353.451 207.424 350.279 208.598 347.014 209.771C346.601 209.931 346.174 210.078 345.761 210.224C342.616 211.343 339.404 212.462 336.152 213.541C335.725 213.688 335.299 213.834 334.873 213.967C331.688 215.033 328.463 216.06 325.197 217.06V217.073C324.77 217.193 324.344 217.325 323.918 217.459C322.332 217.939 320.746 218.405 319.147 218.872C319.347 218.925 319.56 218.992 319.773 219.059C320.36 219.219 320.946 219.392 321.532 219.565C322.478 219.285 323.41 219.005 324.343 218.725C324.77 218.592 325.197 218.458 325.61 218.325C328.875 217.325 332.114 216.299 335.299 215.233C335.725 215.1 336.165 214.954 336.578 214.821C339.843 213.728 343.042 212.609 346.187 211.489C346.613 211.342 347.027 211.181 347.453 211.035C350.705 209.862 353.89 208.689 356.982 207.517C357.395 207.344 357.808 207.198 358.235 207.038C361.487 205.785 364.645 204.545 367.684 203.319C368.097 203.146 368.51 202.987 368.924 202.814C372.216 201.495 375.361 200.187 378.32 198.908C378.733 198.735 379.146 198.561 379.546 198.388C380.719 197.895 381.865 197.402 382.971 196.922C383.104 196.389 383.224 195.843 383.357 195.309C381.985 195.91 380.559 196.523 379.093 197.136ZM372.149 212.422C371.736 212.582 371.323 212.755 370.909 212.929C367.857 214.142 364.672 215.381 361.393 216.634C360.353 213.329 359.287 210.117 358.234 207.038C357.807 207.198 357.394 207.345 356.981 207.518C358.047 210.597 359.113 213.809 360.14 217.114C357.021 218.287 353.823 219.46 350.558 220.619C350.131 220.779 349.718 220.926 349.292 221.072C346.133 222.192 342.908 223.298 339.63 224.377C339.59 224.39 339.55 224.404 339.51 224.417C339.563 224.43 339.603 224.444 339.657 224.457C340.403 224.644 341.15 224.83 341.896 225.017C344.535 224.137 347.12 223.244 349.679 222.338C350.106 222.191 350.532 222.045 350.945 221.885C354.224 220.725 357.422 219.553 360.541 218.366C360.954 218.219 361.367 218.06 361.781 217.9C365.073 216.647 368.258 215.408 371.323 214.182C371.736 214.022 372.136 213.849 372.549 213.689C374.815 212.783 377.027 211.876 379.146 210.997C379.306 210.451 379.466 209.904 379.626 209.358C377.227 210.357 374.735 211.383 372.149 212.422ZM374.229 223.897C371.137 225.123 367.925 226.377 364.633 227.616C364.22 227.776 363.807 227.921 363.38 228.081C362.42 228.441 361.461 228.801 360.488 229.147C361.394 229.32 362.26 229.467 363.073 229.614H363.086C363.299 229.534 363.499 229.454 363.726 229.361H363.739C364.152 229.214 364.579 229.054 364.992 228.894C368.137 227.708 371.189 226.535 374.148 225.362C374.241 225.135 374.348 224.909 374.441 224.669C374.574 224.349 374.707 224.003 374.841 223.656C374.642 223.737 374.428 223.817 374.229 223.897Z" fill="#37474F"/>
<path opacity="0.1" d="M379.893 208.451C376.708 219.393 373.043 229.348 371.337 230.148C367.285 232.041 323.425 220.872 306.792 214.928C323.478 219.846 366.001 226.591 369.911 224.67C372.597 223.351 378.213 211.836 379.893 208.451Z" fill="black"/>
<path d="M301.354 296.516C301.354 296.516 332.673 317.677 350.548 321.297C368.423 324.916 403.879 297.189 403.879 297.189C403.879 297.189 417.665 318.712 419.784 321.297C421.903 323.882 433.13 325.338 435.198 323.207C437.266 321.076 437.119 311.178 435.198 305.712C433.277 300.246 412.595 276.461 404.322 277.2C396.049 277.939 371.978 290.302 370.21 290.053C367.406 289.657 351.974 270.848 340.65 256.37" fill="#FFC727"/>
<path opacity="0.3" d="M301.354 296.516C301.354 296.516 332.673 317.677 350.548 321.297C368.423 324.916 403.879 297.189 403.879 297.189C403.879 297.189 417.665 318.712 419.784 321.297C421.903 323.882 433.13 325.338 435.198 323.207C437.266 321.076 437.119 311.178 435.198 305.712C433.277 300.246 412.595 276.461 404.322 277.2C396.049 277.939 371.978 290.302 370.21 290.053C367.406 289.657 351.974 270.848 340.65 256.37" fill="black"/>
<path opacity="0.1" d="M435.202 323.207C433.136 325.339 421.901 323.887 419.782 321.301C417.663 318.715 403.882 297.192 403.882 297.192C403.882 297.192 368.418 324.913 350.546 321.301C338.964 318.955 321.745 309.24 311.057 302.696C317.214 305.961 346.148 313.011 354.238 313.984C362.661 314.984 403.883 295.566 403.883 295.566C403.883 295.566 421.423 317.581 423.196 318.527C424.969 319.46 431.874 322.183 433.943 321.536C435.213 321.139 436.415 316.929 436.642 313.984C436.854 318.089 436.401 321.968 435.202 323.207Z" fill="black"/>
<path d="M426.513 314.443C429.659 316.459 433.078 320.443 431.768 324.411C431.553 320.401 428.702 317.595 426.513 314.443Z" fill="#263238"/>
<path d="M432.576 311.029C435.131 313.911 437.832 319.078 435.439 322.725C436.355 318.58 433.948 314.843 432.576 311.029Z" fill="#263238"/>
<path d="M308.593 302.017C320.392 307.896 332.169 314.049 344.522 318.65L347.615 319.654C348.14 319.774 349.439 320.127 349.944 320.246C365.952 322.65 390.267 305.549 403.88 297.188C393.383 305.275 382.374 312.958 370.175 318.331C363.526 321.054 356.019 323.696 348.72 321.936C342.78 320.395 337.181 317.67 331.709 315.006C323.774 311.077 316.093 306.687 308.593 302.017Z" fill="#263238"/>
<path d="M400.776 292.415C405.539 299.352 410.469 306.757 414.771 313.978C409.266 307.414 404.452 300.159 400.776 292.415Z" fill="#263238"/>
<path d="M313.172 308C317.331 308.806 321.188 310.012 325.305 310.994C321.082 311.402 316.806 310.089 313.172 308Z" fill="#263238"/>
<path d="M344.741 261.56L359.362 278.085C362.886 281.806 366.073 286.014 370.187 289.045C370.937 288.941 373.917 287.582 375.185 287.053C381.928 284.151 388.658 281.125 395.651 278.687C398.312 277.806 400.975 276.849 403.811 276.589C404.813 276.485 405.808 276.8 406.714 277.186C410.157 278.672 413.164 280.888 415.938 283.352C412.927 281.263 409.789 279.239 406.377 278.107C405.572 277.841 404.76 277.588 403.914 277.733C401.269 278.154 398.712 279.202 396.191 280.151C390.291 282.48 381.88 286.301 375.978 288.887C374.352 289.542 372.423 290.462 370.678 290.952C370.266 291.063 369.772 291.025 369.397 290.823C367.833 289.976 366.699 288.666 365.478 287.451C362.921 284.744 360.518 281.951 358.182 279.097C353.489 273.411 349.039 267.541 344.741 261.56Z" fill="#263238"/>
<path d="M350.99 264.937C353.289 267.315 355.012 270.588 354.865 273.97C353.63 270.842 352.138 268.103 350.99 264.937Z" fill="#263238"/>
<path d="M319.325 117.007C328.979 125.775 331.638 161.526 340.354 173.935C349.07 186.344 379.94 182.503 384.449 165.219C388.957 147.934 364.582 119.127 350.4 116.025C336.217 112.922 319.325 117.007 319.325 117.007Z" fill="#FFC727"/>
<path opacity="0.6" d="M319.325 117.007C328.979 125.775 331.638 161.526 340.354 173.935C349.07 186.344 379.94 182.503 384.449 165.219C388.957 147.934 364.582 119.127 350.4 116.025C336.217 112.922 319.325 117.007 319.325 117.007Z" fill="black"/>
<path d="M206.808 195.242C206.547 198.113 218.22 207.541 223.317 206.876C228.414 206.211 233.143 190.301 230.962 186.932C228.781 183.564 207.141 191.585 206.808 195.242Z" fill="#263238"/>
<path d="M221.381 203.926C225.464 206.971 237.111 217.593 241.981 214.832C246.124 212.325 247.058 206.568 247.871 202.121C247.622 206.853 246.868 212.914 242.419 215.684C236.572 218.906 225.385 207.868 221.381 203.926Z" fill="#263238"/>
<path d="M228.369 214.033C229.891 214.87 231.607 216.174 233.225 216.491C233.1 216.537 233.103 216.679 233.092 216.634C230.13 212.476 226.03 209.208 222.805 205.191C225.736 207.371 228.421 209.83 230.923 212.488C231.99 213.75 233.29 214.879 233.846 216.495C233.796 218.886 229.062 214.642 228.369 214.033Z" fill="#263238"/>
<path opacity="0.2" d="M280.828 150.955C292.683 144.198 303.831 149.899 309.889 160.529C314.795 169.138 312.769 181.939 301.391 188.424C290.013 194.908 277.089 188.587 272.481 180.503C267.875 172.419 267.956 158.291 280.828 150.955Z" fill="black"/>
<path d="M276.826 164.452C282.679 159.81 289.185 161.966 293.348 167.214C296.719 171.464 296.688 178.559 291.071 183.015C285.454 187.471 277.935 185.126 274.769 181.135C271.603 177.144 270.471 169.493 276.826 164.452Z" fill="#263238"/>
<path d="M277.135 165.999C282.636 161.635 288.753 163.663 292.665 168.595C295.834 172.59 295.805 179.259 290.525 183.448C285.245 187.636 278.177 185.432 275.201 181.681C272.226 177.929 271.162 170.737 277.135 165.999Z" fill="white"/>
<path d="M276.34 168.383C280.831 164.82 285.825 166.476 289.019 170.503C291.606 173.764 291.582 179.209 287.272 182.629C282.962 186.048 277.191 184.249 274.762 181.186C272.332 178.123 271.464 172.252 276.34 168.383Z" fill="#263238"/>
<path d="M64.1201 294.422C64.8951 287.559 68.1051 268.299 69.3221 266.639C70.5401 264.979 84.3761 271.509 90.3531 284.46L64.1201 294.422Z" fill="#FFC727"/>
<path opacity="0.1" d="M65.6436 293.844C66.2186 288.232 68.5916 272.63 69.4966 271.272C70.4006 269.914 80.8936 275.777 85.3326 286.367L65.6436 293.844Z" fill="black"/>
<path d="M71.5069 291.551C71.5069 291.551 71.9398 288.775 71.4168 288.019C70.8948 287.263 70.0868 286.557 70.0868 286.557C70.0868 286.557 71.8568 287.035 72.4078 287.516C72.9578 287.996 73.5368 288.767 73.5368 288.767C73.5368 288.767 73.5628 286.788 72.3158 285.75C71.0698 284.712 69.0898 283.769 69.0898 283.769C69.0898 283.769 73.3399 283.79 74.8549 284.712C76.3709 285.634 78.1718 286.308 79.0308 286.757C79.8898 287.206 82.3048 287.516 82.3048 287.516L71.5069 291.551Z" fill="#FFC727"/>
<path d="M128.014 375.834C125.695 377.52 117.512 392.52 119.173 397.833C120.833 403.146 130.903 421.882 131.651 423.044C132.398 424.206 137.85 439.064 137.601 439.728C137.352 440.392 130.711 443.132 130.711 444.225C130.711 445.318 147.314 445.116 147.563 444.636C147.812 444.156 147.895 441.167 147.895 440.919C147.895 440.67 156.519 420.22 158.018 416.484C159.517 412.748 155.527 394.9 155.527 393.239C155.526 391.579 153.583 357.238 128.014 375.834Z" fill="#FFC727"/>
<g opacity="0.1">
<path d="M128.014 375.834C125.695 377.52 117.512 392.52 119.173 397.833C120.833 403.146 130.903 421.882 131.651 423.044C132.398 424.206 137.85 439.064 137.601 439.728C137.352 440.392 130.711 443.132 130.711 444.225C130.711 445.318 147.314 445.116 147.563 444.636C147.812 444.156 147.895 441.167 147.895 440.919C147.895 440.67 156.519 420.22 158.018 416.484C159.517 412.748 155.527 394.9 155.527 393.239C155.526 391.579 153.583 357.238 128.014 375.834Z" fill="black"/>
</g>
<path d="M99.8166 375.834C97.4976 377.52 92.8435 392.52 94.5035 397.833C96.1635 403.146 110.424 421.659 111.171 422.821C111.918 423.983 118.518 439.839 118.269 440.504C118.02 441.168 112.729 443.447 112.729 444.54C112.729 445.633 129.725 445.117 129.974 444.637C130.223 444.157 130.671 439.428 130.671 439.179C130.671 438.93 139.893 423.457 141.392 419.721C142.891 415.985 147.053 401.072 147.053 399.412C147.054 397.75 125.386 357.238 99.8166 375.834Z" fill="#FFC727"/>
<path d="M226.642 341.421C231.344 345.933 239.285 364.271 239.783 370.329C240.281 376.387 236.711 405.443 237.126 406.688C237.419 407.566 242.716 417.418 246.369 423.042C246.874 423.819 249.007 426.767 249.081 427.11C249.33 428.272 247.753 431.842 247.172 432.589C246.591 433.336 235.66 442.745 234.996 442.081C234.332 441.417 236.795 434.969 236.795 434.554C236.795 434.139 218.233 423.852 216.954 422.793C214.546 420.801 197.03 401.118 195.37 390.574C193.709 380.032 212.09 327.457 226.642 341.421Z" fill="#FFC727"/>
<path opacity="0.1" d="M223.828 339.548L211.608 417.033C205.527 409.906 196.53 397.979 195.365 390.57C193.812 380.702 209.832 333.962 223.828 339.548Z" fill="black"/>
<path d="M111.522 281.333C114.262 276.518 128.623 260.444 131.612 260.179C134.601 259.915 141.242 281.333 142.321 285.899C143.4 290.465 142.321 306.26 142.321 306.26L111.522 281.333Z" fill="#FFC727"/>
<path opacity="0.1" d="M112.356 282.008C114.523 278.199 125.144 265.203 127.508 264.994C129.872 264.785 135.126 281.727 135.979 285.339C136.833 288.951 136.074 301.205 136.074 301.205L112.356 282.008Z" fill="black"/>
<path d="M117.528 286.204C117.528 286.204 120.338 284.1 120.646 282.89C120.953 281.68 120.953 280.223 120.953 280.223C120.953 280.223 122.045 282.461 122.045 283.454C122.045 284.447 121.773 285.726 121.773 285.726C121.773 285.726 123.822 283.985 123.77 281.783C123.719 279.581 122.915 276.713 122.915 276.713C122.915 276.713 126.689 281.08 127.099 283.455C127.509 285.83 127.842 289.261 128.149 290.541C128.456 291.821 129.548 295.933 129.548 295.933L117.528 286.204Z" fill="#FFC727"/>
<path d="M61.6296 311.136C60.9656 312.796 52.6426 326.59 53.1406 330.575C53.6386 334.56 62.9586 349.656 83.3806 357.626C83.3806 357.626 85.5386 359.452 86.0376 365.097C86.5356 370.742 83.9036 384.189 84.1556 388.231C84.3216 390.887 85.6496 393.212 85.6496 393.212C85.6496 393.212 85.4436 387.954 86.0996 386.847C86.0996 386.847 87.2406 393.82 88.3196 396.228C89.1726 398.132 91.4326 399.383 91.4326 399.383L89.2466 393.599C89.2466 393.599 92.6366 400.503 104.633 406.55C114.809 411.679 155.218 410.092 159.977 410.092C164.737 410.092 203.689 404.344 207.407 396.809C208.634 394.323 221.229 371.592 222.186 365.484C222.704 362.18 230.888 348.913 228.527 343.696C226.171 338.489 218.112 329.41 210.063 324.75C203.754 321.097 175.03 320.267 151.619 329.731C151.619 329.731 151.01 329.067 149.682 328.071C148.354 327.075 146.542 326.802 146.542 326.802C146.542 326.802 142.709 303.83 141.381 300.952C140.053 298.074 120.793 282.578 115.369 280.475C109.945 278.372 88.1396 281.25 84.0436 282.135C79.9486 283.02 65.1156 291.876 64.1196 294.421C63.1236 296.968 61.6296 311.136 61.6296 311.136Z" fill="#FFC727"/>
<path opacity="0.1" d="M126.23 409.96C117.05 409.52 108.57 408.54 104.63 406.55C93.0098 400.69 89.4698 394.03 89.2598 393.62L91.4298 399.38C91.4298 399.38 89.1698 398.13 88.3198 396.23C87.2398 393.82 86.0998 386.85 86.0998 386.85C85.4398 387.95 85.6498 393.21 85.6498 393.21C85.6498 393.21 84.3198 390.89 84.1498 388.23C83.8998 384.19 86.5298 370.74 86.0398 365.1C85.5398 359.45 83.3798 357.63 83.3798 357.63C62.9598 349.66 53.6398 334.56 53.1398 330.57C52.6398 326.59 60.9698 312.8 61.6298 311.14C61.6298 311.14 63.1198 296.97 64.1198 294.42C62.6798 302.37 63.4298 312 63.2598 312.67C63.0998 313.33 57.4098 327.03 58.7598 330.57C60.0998 334.12 78.7798 354.73 90.3098 357.48C90.3098 357.48 94.1398 368.37 93.6698 373.36C93.1898 378.35 94.0798 392.15 95.0498 395.3C96.0198 398.46 100.2 400.82 103.89 404.2C107.46 407.48 125.13 409.82 126.23 409.96Z" fill="black"/>
<path d="M172.553 407.993C168.516 408.932 164.488 409.842 160.39 410.5C153.488 411.117 146.588 410.976 139.673 410.924C134.128 410.746 128.567 410.786 123.081 409.79C117.58 408.328 112.784 405.403 108.363 402.122C110.752 403.5 113.183 404.789 115.677 405.915C123.117 409.801 131.561 409.101 139.702 409.439C146.543 409.51 153.45 409.823 160.277 409.595C163.099 409.287 169.664 408.354 172.553 407.993Z" fill="#263238"/>
<path d="M83.3799 357.625C85.1129 358.19 100.134 356.719 103.361 355.654C106.063 354.762 121.786 343.492 133.775 335.3C140.78 330.513 147.137 326.649 147.631 326.649C147.631 326.649 151.164 328.371 151.62 329.217C151.62 329.217 144.597 331.447 142.571 332.705C140.546 333.963 134.463 337.925 134.463 337.925C134.463 337.925 110.885 358.689 105.398 359.936C99.9109 361.183 84.8639 361.349 84.8639 361.349C84.8639 361.349 83.7829 359.894 83.6589 359.188C83.5329 358.481 83.3799 357.625 83.3799 357.625Z" fill="#455A64"/>
<path d="M133.521 338.49C136.742 336.042 139.917 333.497 143.534 331.637C146.136 330.651 148.867 330.09 151.619 329.732C149.049 330.703 146.435 331.483 143.909 332.526C140.669 334.296 136.902 336.996 133.521 338.49Z" fill="#263238"/>
<path d="M146.542 326.803C145.318 327.54 143.653 328.684 142.42 329.438C141.718 329.846 141.247 330.466 140.607 330.954C139.98 331.481 139.327 331.983 138.599 332.42C139.37 331.153 140.297 330.046 141.33 328.993C142.894 327.909 144.625 326.974 146.542 326.803Z" fill="#263238"/>
<path d="M74.3067 302.779C69.7527 302.313 66.9957 306.626 66.4527 311.938C66.0127 316.24 68.2657 320.911 72.6367 321.358C77.0077 321.805 80.2397 316.919 80.6527 312.879C81.0667 308.839 79.2517 303.285 74.3067 302.779Z" fill="#263238"/>
<path d="M74.6304 303.938C70.3494 303.5 67.7584 307.554 67.2474 312.547C66.8334 316.591 68.9514 320.981 73.0604 321.402C77.1694 321.823 80.2064 317.229 80.5954 313.431C80.9844 309.634 79.2794 304.414 74.6304 303.938Z" fill="white"/>
<path d="M76.0348 304.072C72.6838 303.729 70.6558 306.903 70.2558 310.812C69.9318 313.978 71.5898 317.414 74.8068 317.743C78.0228 318.072 80.4008 314.476 80.7048 311.504C81.0088 308.531 79.6738 304.444 76.0348 304.072Z" fill="#263238"/>
<path d="M108.255 302.456C114.464 301.268 118.498 305.436 119.563 311.003C120.426 315.512 117.621 320.821 111.663 321.961C105.704 323.101 100.984 318.395 100.174 314.162C99.364 309.927 101.513 303.746 108.255 302.456Z" fill="#263238"/>
<path d="M107.881 303.737C113.717 302.621 117.509 306.538 118.51 311.771C119.321 316.009 116.685 320.999 111.084 322.071C105.483 323.143 101.046 318.719 100.285 314.74C99.5243 310.761 101.544 304.949 107.881 303.737Z" fill="white"/>
<path d="M110.288 304.203C115.053 303.291 118.149 306.49 118.966 310.762C119.628 314.222 117.476 318.296 112.903 319.171C108.33 320.046 104.708 316.434 104.086 313.186C103.465 309.936 105.115 305.192 110.288 304.203Z" fill="#263238"/>
<path d="M91.0115 315.223C90.9465 315.791 87.5495 317.912 87.1555 317.914C86.7675 317.916 83.2845 315.832 83.1905 315.265C83.0965 314.705 86.2735 314.477 87.0855 314.473C87.9025 314.469 91.0825 314.662 91.0115 315.223Z" fill="#263238"/>
<path d="M80.6748 319.316C81.2358 320.117 81.8068 320.909 82.4378 321.631C82.7558 321.984 83.0828 322.34 83.4438 322.587C83.6178 322.708 83.8168 322.789 83.9208 322.781C84.0268 322.77 84.2208 322.69 84.3598 322.569C84.6658 322.325 84.9088 321.934 85.1318 321.54C85.3498 321.137 85.5368 320.707 85.7008 320.265C86.0308 319.385 86.3158 318.458 86.5238 317.545L86.9098 315.85L87.4918 317.49C87.8758 318.571 88.3628 319.653 88.9248 320.652C89.2078 321.152 89.5198 321.632 89.8788 322.052C90.2408 322.457 90.6488 322.838 91.0958 322.949L91.2608 322.979L91.4268 322.983C91.5498 322.972 91.6748 322.952 91.7998 322.92C92.0498 322.854 92.2998 322.747 92.5398 322.609C93.0228 322.335 93.4628 321.954 93.8768 321.546C94.7018 320.72 95.4188 319.763 96.0718 318.765C95.5968 319.863 94.9878 320.909 94.2218 321.859C93.8368 322.333 93.3978 322.773 92.8738 323.139C92.3448 323.489 91.7258 323.809 90.9428 323.691C90.2068 323.545 89.6728 323.091 89.2328 322.636C88.7958 322.168 88.4358 321.657 88.1098 321.134C87.4658 320.077 86.9718 318.976 86.5378 317.82L87.5058 317.766C87.2588 318.747 86.9708 319.689 86.5758 320.619C86.3768 321.081 86.1508 321.537 85.8818 321.978C85.6078 322.417 85.2868 322.849 84.8018 323.185C84.5488 323.347 84.2798 323.48 83.8958 323.479C83.5078 323.442 83.2718 323.25 83.0598 323.083C82.6518 322.727 82.3488 322.327 82.0668 321.915C81.5158 321.088 81.0578 320.218 80.6748 319.316Z" fill="#263238"/>
<path d="M64.7949 315.861C62.2909 315.749 59.7889 315.721 57.2879 315.751C54.7879 315.784 52.2869 315.844 49.7939 316.02C48.5449 316.075 47.2999 316.182 46.0529 316.274C44.8089 316.39 43.5639 316.507 42.3219 316.646C39.8329 316.897 37.3609 317.279 34.8789 317.637C36.1009 317.365 37.3249 317.084 38.5589 316.859C39.7939 316.64 41.0309 316.428 42.2739 316.261C44.7579 315.901 47.2609 315.685 49.7639 315.516C52.2699 315.382 54.7809 315.314 57.2899 315.364C58.5439 315.39 59.7979 315.441 61.0499 315.509C62.2999 315.604 63.5519 315.692 64.7949 315.861Z" fill="#263238"/>
<path d="M63.8227 317.347C62.6957 317.438 61.5717 317.525 60.4487 317.639C59.3247 317.74 58.2027 317.851 57.0817 317.976C54.8397 318.221 52.6007 318.481 50.3717 318.817C49.2537 318.96 48.1407 319.137 47.0267 319.306L43.6947 319.88L42.0297 320.179L40.3717 320.515C39.2587 320.709 38.1667 320.99 37.0547 321.202C39.2157 320.542 41.4037 319.959 43.6187 319.5C45.8297 319.023 48.0627 318.649 50.2997 318.319C52.5427 318.024 54.7887 317.755 57.0447 317.592C59.3017 317.427 61.5617 317.316 63.8227 317.347Z" fill="#263238"/>
<path d="M64.5108 318.742C63.5868 318.93 62.6648 319.113 61.7478 319.32C60.8278 319.515 59.9088 319.712 58.9948 319.929C57.1648 320.358 55.3348 320.781 53.5158 321.25C51.6948 321.71 49.8788 322.19 48.0668 322.689C46.2518 323.178 44.4508 323.718 42.6338 324.221C43.5088 323.872 44.3908 323.539 45.2758 323.216C46.1668 322.911 47.0568 322.6 47.9558 322.317C49.7478 321.729 51.5678 321.234 53.3918 320.761C55.2208 320.302 57.0608 319.89 58.9158 319.551C60.7688 319.208 62.6318 318.907 64.5108 318.742Z" fill="#263238"/>
<path d="M122.417 319.712C123.959 319.512 125.512 319.405 127.064 319.294C128.617 319.211 130.172 319.15 131.728 319.119C134.84 319.058 137.954 319.134 141.062 319.297C144.168 319.494 147.273 319.754 150.356 320.183C151.9 320.381 153.435 320.635 154.969 320.897C155.737 321.023 156.498 321.183 157.259 321.341L159.541 321.821C156.466 321.359 153.398 320.881 150.309 320.568C148.767 320.392 147.222 320.253 145.677 320.109C144.13 319.996 142.583 319.865 141.033 319.8C137.937 319.595 134.833 319.527 131.73 319.505C128.627 319.486 125.521 319.541 122.417 319.712Z" fill="#263238"/>
<path d="M123.627 321.553C126.431 321.533 129.235 321.674 132.032 321.881C134.83 322.085 137.617 322.411 140.399 322.775C143.176 323.172 145.946 323.63 148.692 324.205C151.443 324.758 154.161 325.463 156.851 326.25C155.475 325.978 154.119 325.627 152.74 325.38L150.683 324.96L148.618 324.586C147.242 324.332 145.861 324.109 144.482 323.875C143.099 323.668 141.717 323.449 140.329 323.274C137.561 322.869 134.78 322.552 131.997 322.265C130.605 322.119 129.212 321.99 127.816 321.874C126.422 321.746 125.026 321.648 123.627 321.553Z" fill="#263238"/>
<path d="M122.778 323.285C125.105 323.509 127.415 323.888 129.713 324.315C132.011 324.746 134.293 325.262 136.565 325.813C138.827 326.406 141.088 327.004 143.317 327.712C144.434 328.056 145.541 328.433 146.649 328.803C147.751 329.191 148.848 329.596 149.939 330.013C147.691 329.371 145.458 328.696 143.207 328.085C140.961 327.456 138.708 326.856 136.443 326.303C134.187 325.713 131.911 325.206 129.635 324.695C128.498 324.435 127.356 324.198 126.213 323.965C125.073 323.72 123.927 323.502 122.778 323.285Z" fill="#263238"/>
<path d="M69.6416 297.442C70.0616 295.906 71.3786 294.862 72.7986 294.322C74.2196 293.813 75.8586 293.776 77.2246 294.614C76.5196 295.028 75.8846 295.254 75.2746 295.521C73.4106 296.235 71.6066 296.922 69.6416 297.442Z" fill="#263238"/>
<path d="M119.055 299.021C117.12 298.399 115.353 297.616 113.532 296.804C112.936 296.506 112.314 296.246 111.632 295.795C113.04 295.031 114.676 295.155 116.068 295.738C117.458 296.353 118.717 297.465 119.055 299.021Z" fill="#263238"/>
<path d="M93.269 340.978C91.947 339.599 90.7201 338.072 89.9401 336.396C89.8781 336.263 89.6601 336.296 89.6321 336.446C89.5551 336.855 89.337 338.005 89.309 338.179C89.253 338.079 89.1971 337.98 89.1471 337.881C88.9731 337.537 88.8161 337.187 88.6751 336.831C88.3921 336.114 88.165 335.376 88.003 334.624C87.842 333.874 87.742 333.11 87.711 332.337C87.68 331.559 87.739 330.785 87.77 330.003C87.771 329.969 87.709 329.964 87.699 329.999C87.456 330.784 87.3701 331.609 87.3421 332.4C87.3141 333.183 87.359 333.961 87.475 334.726C87.592 335.504 87.7811 336.266 88.0491 337.005C88.1871 337.387 88.345 337.763 88.52 338.132C88.687 338.485 88.8531 338.863 89.1461 339.15C89.3381 339.338 89.6401 339.102 89.6361 338.889C89.6341 338.761 89.833 337.18 89.868 336.947C90.225 337.659 90.617 338.348 91.118 338.995C91.704 339.752 92.378 340.456 93.157 341.076C93.226 341.133 93.327 341.038 93.269 340.978Z" fill="#263238"/>
<path opacity="0.1" d="M130.769 312.89C133.173 317.152 135.447 321.426 136.728 326.209C137.713 330.229 130.464 335.186 127.555 337.246C129.343 335.609 131.111 333.959 132.738 332.2C133.98 330.706 135.61 329.183 135.87 327.209C135.735 325.79 135.177 324.404 134.695 323.025C133.506 319.747 132.013 316.17 130.769 312.89Z" fill="black"/>
<path d="M146.805 361.61C144.055 366.169 137.728 392.713 141.16 399.023C144.591 405.332 175.473 418.283 176.58 419.611C177.687 420.939 183 439.978 182.668 440.531C182.336 441.084 176.657 443.473 176.801 444.612C176.898 445.373 190.803 444.844 191.633 444.844C192.463 444.844 193.479 441.925 193.349 442.136C193.129 442.491 208.519 414.985 211.581 409.593C213.086 406.943 207.407 398.635 207.407 396.809C207.407 394.983 220.726 378.711 220.69 370.078C220.67 365.217 212.887 345.505 194.457 342.849C176.027 340.193 153.114 351.15 146.805 361.61Z" fill="#FFC727"/>
<path opacity="0.1" d="M184.183 440.884C181.668 442.114 179.42 443.04 178.79 444.2C178.67 444.42 178.88 444.68 179.3 444.97C177.83 444.92 176.83 444.81 176.8 444.61C176.66 443.47 182.34 441.08 182.67 440.53C183 439.98 177.69 420.94 176.58 419.61C175.47 418.28 144.59 405.33 141.16 399.02C138.77 394.62 141.12 380.36 143.7 370.6C143.07 375.35 144.1 394.16 148.08 398.23C152.05 402.29 179.37 414.61 180.43 416.1C181.48 417.59 185.815 440.085 184.183 440.884Z" fill="black"/>
<path d="M158.054 410.324C152.067 407.651 145.322 405.316 140.973 400.098C139.564 398.161 139.679 395.592 139.609 393.321C139.797 384.434 141.696 375.706 144.613 367.361C142.743 376.96 140.667 386.723 141.244 396.527C141.321 397.515 141.568 398.482 142.14 399.294C146.185 404.308 152.614 406.945 158.054 410.324Z" fill="#263238"/>
<path d="M141.551 370.329C142.008 373.187 141.928 375.821 141.952 378.705C140.568 376.151 140.631 373.028 141.551 370.329Z" fill="#263238"/>
<path d="M216.65 348.217C218.954 353.746 221.107 359.341 222.304 365.312C222.496 366.437 222.695 367.733 222.415 368.885C220.012 378.006 214.588 386.048 209.733 394.014C209.372 394.62 208.331 396.225 208.029 396.828C207.936 396.587 208.1 397.131 208.221 397.424C209.531 400.891 211.394 404.268 212.236 407.948C212.331 408.308 212.195 408.817 212.005 409.174C211.214 410.887 210.169 412.465 209.097 414.002C209.979 412.36 210.895 410.73 211.545 408.992C211.659 408.651 211.772 408.44 211.665 408.051C210.492 404.328 208.437 400.954 206.932 397.306C206.873 397.089 206.791 396.98 206.821 396.699C207.218 395.477 208.001 394.449 208.612 393.332C213.177 385.357 218.542 377.463 221.162 368.598C221.66 364.633 220.111 360.678 219.191 356.817C218.424 353.931 217.527 351.08 216.65 348.217Z" fill="#263238"/>
<path d="M248.069 285.355C248.808 285.015 251.105 282.829 251.304 282.639C251.194 282.859 249.357 286.434 248.678 286.863C247.979 287.302 245.403 289.709 244.234 290.478C236.315 302.601 225.78 317.529 222.295 328.184C219.299 337.321 222.295 343.792 222.295 343.792L211.161 333.667C209.174 330.931 203.692 322.213 205.689 307.434C207.676 292.655 219.539 274.391 208.205 254.14C196.881 233.879 185.637 239.755 169.288 249.177C169.288 249.177 185.974 221.974 215.485 221.427C234.626 221.072 250.375 263.347 249.007 279.774C249.297 279.235 249.546 278.696 249.636 278.256C249.896 276.898 250.005 270.427 250.005 270.427C250.005 270.427 251.723 276.708 251.223 279.474C250.864 281.481 249.006 283.688 247.508 285.615C247.69 285.525 247.879 285.445 248.069 285.355Z" fill="#FFC727"/>
<path d="M206.499 323.564C208.561 328.036 210.608 332.612 211.015 337.585C209.604 332.876 207.597 328.382 206.499 323.564Z" fill="#263238"/>
<path d="M209.031 330.575C209.558 331.981 209.248 333.589 208.758 334.978C208.564 333.475 208.877 332.052 209.031 330.575Z" fill="#263238"/>
<path d="M221.106 333.679L221.302 336.634C221.341 339.607 222.269 342.403 222.555 345.343C220.953 341.691 220.135 337.615 221.106 333.679Z" fill="#263238"/>
<path d="M221.251 339.28C222.215 340.359 223.213 342.1 223.989 343.322C222.603 342.399 221.727 340.851 221.251 339.28Z" fill="#263238"/>
<path opacity="0.1" d="M211.15 333.65C209.14 330.89 203.69 322.18 205.69 307.43C207.68 292.65 219.54 274.39 208.21 254.14C196.88 233.88 185.64 239.75 169.29 249.18C169.29 249.18 181.79 228.8 204.28 222.97C196.12 225.86 188.08 234.71 184.55 238.84C184.55 238.84 198.48 236.85 204.28 241.5C210.08 246.16 218.33 264.28 220.69 273.93C223.05 283.57 208.67 303.77 207.59 313.67C206.53 323.28 210.9 333.1 211.15 333.65Z" fill="black"/>
</svg>
