<svg width="500" height="500" viewBox="0 0 500 500" fill="none" xmlns="http://www.w3.org/2000/svg">
<path d="M233.493 64.0991H58.0332V463.831H233.493V64.0991Z" fill="#EBEBEB"/>
<path d="M58.0334 463.831H48.5664V54.6321L58.0334 64.0991V463.831Z" fill="#DBDBDB"/>
<path d="M210.547 87.7461H80.9785V273.587H210.547V87.7461Z" fill="white"/>
<path d="M82.1861 348.901C82.7881 371.098 83.0452 395.999 83.1082 418.204C83.1242 425.904 83.2062 433.605 83.1682 441.305L82.1861 440.323L103.031 440.409C123.07 440.486 145.534 440.77 165.567 441.305C145.538 441.84 123.068 442.125 103.031 442.201L82.1861 442.287L81.2082 442.291C81.1592 434.262 81.2462 426.232 81.2632 418.203C81.3272 395.996 81.5851 371.102 82.1861 348.901Z" fill="#C7C7C7"/>
<path d="M209.342 397.879C208.766 372.31 208.494 343.629 208.43 318.053L208.346 291.444L209.342 292.44L183.436 292.35C158.533 292.281 130.617 292.006 105.719 291.444C139.187 290.66 175.804 290.542 209.341 290.448L210.341 290.445L210.338 291.445C210.246 325.907 210.145 363.485 209.342 397.879Z" fill="#C7C7C7"/>
<path d="M233.494 64.0991H58.0334L48.5664 54.6321H233.494V64.0991Z" fill="#C7C7C7"/>
<path d="M103.157 287.026H80.9805V328.76H103.157V287.026Z" fill="#DBDBDB"/>
<path d="M97.8825 296.177V305.642L80.9805 304.277V296.177H97.8825Z" fill="#C7C7C7"/>
<path d="M97.8785 291.444H68.4785V300.909H97.8785V291.444Z" fill="#DBDBDB"/>
<path d="M400.509 60.0161H306.52V177.168H400.509V60.0161Z" fill="#EBEBEB"/>
<path d="M397.132 63.0071H309.896V174.177H397.132V63.0071Z" fill="white"/>
<path d="M385.031 74.769H321.996V162.414H385.031V74.769Z" fill="#EBEBEB"/>
<path d="M402.682 60.0161H400.508V177.168H402.682V60.0161Z" fill="#DBDBDB"/>
<path d="M48.5664 463.831C177.616 463.219 322.381 463.214 451.431 463.831C322.381 464.448 177.616 464.443 48.5664 463.831Z" fill="#263238"/>
<path d="M309.345 463.035C311.81 463.853 382.163 463.649 384.843 461.948C385.855 461.313 386.425 451.055 386.759 438.655C386.834 435.975 386.889 433.219 386.932 430.399C386.986 427.073 387.028 423.704 387.049 420.431C387.135 405.738 386.932 392.8 386.932 392.8H341.13L341.152 420.431L341.162 430.399L341.399 438.655C341.399 438.655 314.501 450.786 311.767 452.972C309.043 455.145 306.89 462.228 309.345 463.035Z" fill="#D3766A"/>
<path d="M309.349 463.03C311.804 463.852 382.163 463.644 384.838 461.945C385.792 461.353 386.351 452.42 386.679 441.185C381.045 443.794 332.389 453.779 320.923 453.911C309.918 454.021 327.434 445.153 330.229 443.772C322.491 447.367 313.305 451.741 311.771 452.968C309.042 455.149 306.894 462.23 309.349 463.03Z" fill="#263238"/>
<path d="M411.666 191.722C411.666 191.722 387.657 303.298 385.968 312.198C385.577 314.225 390.605 431.17 390.605 431.17H338.088C338.088 431.17 338.053 327.873 340.206 310.093C342.36 292.303 369.544 191.721 369.544 191.721H411.666V191.722Z" fill="#37474F"/>
<path d="M411.67 191.726C411.67 191.726 399.988 241.412 392.338 279.921L369.541 191.726H411.67Z" fill="#263238"/>
<path d="M385.189 420.575C382.305 420.2 360.337 419.442 341.958 420.226C341.834 420.231 341.843 420.404 341.963 420.414C347.953 420.947 381.797 421.174 385.166 420.788C385.277 420.776 385.32 420.592 385.189 420.575Z" fill="#263238"/>
<path d="M369.799 463.535C372.272 464.329 442.621 463.446 445.285 461.719C446.291 461.074 446.762 450.811 446.976 438.408C447.025 435.727 445.235 392.799 445.235 392.799L400.907 392.996L401.619 438.846C401.619 438.846 374.838 451.236 372.125 453.448C369.422 455.648 367.338 462.751 369.799 463.535Z" fill="#D3766A"/>
<path d="M369.8 463.536C372.266 464.334 442.624 463.446 445.288 461.719C446.18 461.14 446.642 452.974 446.892 442.472C436.703 445.535 393.22 453.404 382.497 453.303C372.764 453.202 385.466 446.543 390.497 444.077C382.789 447.74 373.656 452.205 372.129 453.449C369.417 455.645 367.333 462.749 369.8 463.536Z" fill="#263238"/>
<path d="M397.946 432.115H451.433C451.433 432.115 441.302 353.105 440.498 339.828C440.088 333.056 435.773 263.611 431.849 231.044C431.849 231.044 431.846 224.89 431.576 215.727C431.339 207.685 425.364 191.682 425.364 191.682H369.506C369.506 191.682 370.391 210.906 376.799 226.977C376.799 226.977 383.81 229.307 391.349 233.463C391.349 233.463 394.163 329.808 395.058 347.058C396.195 368.991 397.946 432.115 397.946 432.115Z" fill="#37474F"/>
<path d="M386.64 218.788C386.466 217.631 386.292 216.474 386.115 215.317C385.79 213.198 385.358 211.094 384.987 208.982C384.144 204.191 383.27 199.385 382.202 194.637C382.176 194.522 381.983 194.551 381.995 194.67C382.184 196.587 382.404 198.502 382.676 200.408C382.948 202.317 383.136 204.237 383.405 206.145C383.939 209.93 384.466 213.72 385.111 217.487C385.359 218.938 386.265 221.541 384.175 221.991C382.52 222.348 381.307 220.722 380.821 219.36C380.228 217.7 380.017 215.863 379.708 214.133C379.367 212.223 379.067 210.306 378.796 208.384C378.206 204.198 377.558 200.031 376.877 195.86C376.858 195.741 376.666 195.777 376.67 195.893C376.804 200.191 377.03 204.445 377.596 208.711C377.866 210.747 378.169 212.779 378.515 214.804C378.838 216.696 379.079 218.731 379.915 220.479C380.571 221.85 381.797 223.086 383.372 223.254C383.404 223.257 383.436 223.255 383.469 223.257C383.433 223.285 383.406 223.323 383.408 223.377C383.431 224.055 383.417 224.742 383.489 225.417C383.56 226.086 383.693 226.755 383.82 227.415C383.948 228.082 384.109 228.767 384.337 229.407C384.447 229.717 384.562 230.026 384.705 230.322C384.855 230.632 385.064 230.873 385.245 231.163C385.319 231.281 385.46 231.207 385.468 231.093L385.478 231.094C385.468 230.982 385.467 230.872 385.465 230.763C385.466 230.743 385.462 230.724 385.463 230.705L385.462 230.703C385.458 230.506 385.453 230.31 385.424 230.11C385.375 229.783 385.302 229.461 385.231 229.139C385.089 228.495 384.913 227.852 384.74 227.216C384.567 226.579 384.43 225.934 384.265 225.295C384.095 224.636 383.88 223.993 383.727 223.329C383.72 223.299 383.699 223.284 383.682 223.267C384.91 223.282 386.152 222.63 386.598 221.44C386.921 220.576 386.773 219.673 386.64 218.788Z" fill="#263238"/>
<path d="M396.582 235.212C395.216 234.182 393.624 233.347 392.124 232.527C390.491 231.635 388.806 230.836 387.07 230.164C383.672 228.85 380.191 228 376.698 227.002C376.594 226.972 376.532 227.146 376.636 227.182C380.027 228.374 383.298 230.005 386.586 231.452C388.205 232.164 389.84 232.836 391.485 233.485C393.133 234.135 394.78 234.905 396.466 235.445C396.594 235.486 396.686 235.291 396.582 235.212Z" fill="#263238"/>
<path d="M415.73 213.156C413.38 213.146 411.04 212.804 408.767 212.22C407.718 211.95 406.681 211.615 405.652 211.277C404.664 210.953 403.64 210.555 402.843 209.867C401.26 208.502 400.523 206.351 399.835 204.444C399.059 202.288 398.497 200.094 398.01 197.858C397.986 197.747 397.825 197.785 397.822 197.888C397.747 200.395 398.105 202.948 398.77 205.365C399.337 207.428 400.102 209.732 401.769 211.178C403.523 212.7 405.905 213.234 408.15 213.512C410.685 213.825 413.212 213.75 415.736 213.407C415.892 213.385 415.895 213.157 415.73 213.156Z" fill="#263238"/>
<path d="M444.73 422.786C441.845 422.411 419.878 421.653 401.499 422.437C401.375 422.442 401.384 422.615 401.503 422.625C407.493 423.158 441.337 423.385 444.706 422.999C444.817 422.986 444.86 422.803 444.73 422.786Z" fill="#263238"/>
<path d="M380.645 83.217C380.645 83.217 390.285 77.649 399.043 82.87C407.801 88.092 412.171 101.285 410.897 112.449C409.624 123.613 418.839 130.796 419.977 139.05C421.115 147.305 415.756 151.234 414.014 155.609C412.02 160.618 420.713 178.117 399.513 182.612C373.001 188.234 362.512 172.061 364.971 158.478C366.176 151.825 369.815 147.045 369.645 141.684C369.475 136.323 365.605 132.121 367.454 125.284C369.303 118.447 371.939 119.322 372.818 108.625C373.698 97.93 371.258 85.211 380.645 83.217Z" fill="#263238"/>
<path d="M397.199 82.65C403.033 86.298 407.435 91.478 410.066 97.551C411.399 100.628 412.232 103.885 412.503 107.196C412.858 111.542 412.269 115.627 413.968 119.819C416.689 126.533 421.981 132.079 421.877 139.615C421.829 143.092 420.798 146.522 418.863 149.504C416.626 152.95 413.402 155.697 411.547 159.378C411.47 159.53 411.233 159.403 411.304 159.252C412.847 155.982 415.402 153.459 417.512 150.519C420.037 147.001 421.423 142.848 421.222 138.603C420.881 131.447 415.664 126.039 413.151 119.557C412.014 116.623 411.891 113.762 411.928 110.665C411.972 107.004 411.514 103.423 410.344 99.92C408.037 93.012 403.288 87.096 397.126 82.741C397.07 82.703 397.14 82.614 397.199 82.65Z" fill="#263238"/>
<path d="M409.927 163.765C409.96 163.764 409.961 163.812 409.928 163.813C409.895 163.813 409.894 163.766 409.927 163.765Z" fill="#263238"/>
<path d="M365.031 156.561C365.641 153.347 367.26 150.413 367.867 147.211C368.598 143.355 367.556 139.547 366.752 135.79C365.605 130.43 365.628 125.346 367.908 120.235C369.382 116.931 371.196 113.83 372.271 110.362C373.435 106.606 374.055 102.676 374.084 98.7611C374.085 98.6751 374.221 98.6731 374.223 98.7591C374.373 104.525 373.397 110.008 370.974 115.321C369.582 118.374 367.829 121.249 367.056 124.53C366.127 128.475 366.589 132.258 367.349 136.182C367.855 138.796 368.458 141.445 368.487 144.117C368.517 146.898 367.687 149.376 366.754 151.989C364.335 158.759 364.505 165.645 367.254 172.288C367.301 172.402 367.098 172.489 367.046 172.375C364.776 167.402 364.012 161.932 365.031 156.561Z" fill="#263238"/>
<path d="M420.674 138.081C420.326 132.188 416.141 128.26 413.551 123.194C411.593 119.366 410.235 115.266 410.779 110.998C410.788 110.928 410.913 110.943 410.911 111.012C410.707 117.18 413.398 122.717 416.906 127.811C419.238 131.198 421.176 134.46 421.275 138.588C421.372 142.631 419.82 146.069 417.579 149.459C415.982 151.875 414.409 154.13 413.767 156.962C413.129 159.778 413.339 162.722 413.529 165.567C413.539 165.716 413.297 165.717 413.282 165.572C412.808 161.162 412.663 156.879 414.809 152.803C417.447 147.795 421.027 144.069 420.674 138.081Z" fill="#263238"/>
<path d="M363.93 152.395C364.78 150.354 365.994 148.484 367.212 146.62C369.406 143.261 369.732 140.563 368.906 136.64C368.887 136.551 369.023 136.51 369.054 136.599C370.197 139.822 370.504 142.512 368.637 145.535C366.032 149.754 363.475 153.602 363.017 158.589C362.204 167.44 367.348 175.582 375.519 179.9C375.634 179.961 375.536 180.123 375.418 180.067C368.569 176.852 363.696 170.895 362.571 163.782C361.968 159.964 362.428 156 363.93 152.395Z" fill="#263238"/>
<path d="M387.994 137.58C381.506 162.495 371.551 186.819 364.828 190.338C355.182 195.387 332.919 201.74 319.514 201.329C315.576 201.208 312.258 175.321 316.419 174.664C322.122 173.764 349.595 167.75 350.087 167.611C351.141 167.315 374.045 138.882 377.886 132.868C384.627 122.31 391.478 124.199 387.994 137.58Z" fill="#D3766A"/>
<path d="M329.043 200.415C325.871 201.319 308.769 206.387 304.444 206.256C300.119 206.125 287.699 204.844 287.464 201.521C287.229 198.198 290.894 198.283 290.894 198.283C290.894 198.283 285.735 196.911 285.803 193.545C285.871 190.179 291.569 190.497 291.569 190.497C291.569 190.497 286.374 188.702 286.681 185.35C286.988 181.998 292.665 183.277 292.665 183.277C292.665 183.277 287.838 181.858 289.254 179.202C290.957 176.007 299.559 179.629 304.345 179.416C305.432 179.368 326.304 176.867 326.304 176.867L329.043 200.415Z" fill="#D3766A"/>
<path d="M292.179 183.178C298.511 185.826 301.74 185.89 308.403 184.767C308.533 184.745 308.595 184.934 308.461 184.969C302.037 186.662 297.975 187.167 292.035 183.478C291.744 183.297 291.877 183.051 292.179 183.178Z" fill="#263238"/>
<path d="M291.071 190.278C297.888 192.454 301.389 192.554 308.455 191.891C308.555 191.882 308.581 192.05 308.481 192.067C301.605 193.297 297.542 193.708 291.016 190.639C290.72 190.501 290.759 190.179 291.071 190.278Z" fill="#263238"/>
<path d="M291.254 198.238C298.007 199.868 301.84 200.143 308.617 198.619C308.777 198.583 308.844 198.813 308.688 198.864C301.929 201.09 297.142 200.783 291.227 198.448C290.823 198.289 290.829 198.135 291.254 198.238Z" fill="#263238"/>
<path d="M330.122 172.968C330.122 172.968 322.386 169.21 318.624 168.308C314.861 167.407 299.603 169.209 299.805 172.526C300.066 176.809 309.079 177.504 313.538 177.268C313.538 177.268 314.132 187.177 320.493 189.076C326.853 190.975 330.122 172.968 330.122 172.968Z" fill="#D3766A"/>
<path d="M300.262 173.68C303.317 177.414 309.151 176.727 313.494 176.821C313.824 176.828 313.935 177.096 313.88 177.348C314.406 181.485 316.353 187.167 320.254 189.206C320.368 189.266 320.299 189.436 320.176 189.392C315.695 187.773 313.327 182.346 313.04 177.778C308.585 177.752 302.704 178.185 300.224 173.708C300.21 173.683 300.242 173.656 300.262 173.68Z" fill="#263238"/>
<path d="M326.291 170.024L332.428 201.734C332.428 201.734 363.704 195.529 367.952 189.586C372.2 183.643 384.534 156.532 388.361 138.393C392.161 120.38 383.441 124.046 376.288 133.517C368.887 143.315 350.303 167.001 349.802 167.106C349.299 167.21 326.291 170.024 326.291 170.024Z" fill="#EBEBEB"/>
<path d="M332.224 171.023C332.209 170.923 332.372 170.893 332.398 170.99C334.772 179.758 336.525 188.725 337.928 197.695C337.944 197.794 337.779 197.825 337.754 197.727C335.478 188.938 333.529 180.012 332.224 171.023Z" fill="#263238"/>
<path opacity="0.1" d="M331.129 195.032L332.425 201.731C332.425 201.731 363.708 195.531 367.953 189.589C372.198 183.646 384.536 156.528 388.362 138.389C390.314 129.124 388.956 125.602 386.195 125.643L331.129 195.032Z" fill="black"/>
<path d="M369.273 171.667L369.073 189.641L424.232 189.202C424.232 189.202 419.271 148.578 404.861 130.83C397.377 121.613 388.761 122.566 382.839 128.32C381.34 129.776 367.606 150.017 365.571 158.811C363.794 166.57 369.273 171.667 369.273 171.667Z" fill="#FFC727"/>
<path d="M380.803 169.494C383.161 169.881 385.522 170.35 387.8 171.083C388.933 171.447 390.042 171.862 391.148 172.302C391.7 172.521 392.254 172.721 392.813 172.919C393.387 173.122 394.004 173.316 394.613 173.372C394.668 173.377 394.661 173.459 394.606 173.457C394.012 173.438 393.443 173.417 392.854 173.319C392.295 173.225 391.743 173.072 391.201 172.903C390.048 172.544 388.913 172.132 387.763 171.762C385.445 171.015 383.127 170.268 380.76 169.69C380.653 169.662 380.692 169.476 380.803 169.494Z" fill="#263238"/>
<path d="M374.794 171.248C376.757 171.167 378.755 171.178 380.715 171.321C381.701 171.392 382.675 171.52 383.652 171.675C384.118 171.749 384.583 171.831 385.047 171.919C385.557 172.015 386.055 172.181 386.566 172.27C386.619 172.279 386.614 172.363 386.559 172.355C386.074 172.285 385.576 172.296 385.088 172.255C384.597 172.214 384.108 172.169 383.617 172.127C382.635 172.044 381.653 171.971 380.672 171.879C378.708 171.693 376.75 171.529 374.781 171.412C374.675 171.403 374.692 171.252 374.794 171.248Z" fill="#263238"/>
<path d="M367.127 194.753L428.11 194.311L425.464 187.232L369.088 187.641L367.127 194.753Z" fill="#FFC727"/>
<path opacity="0.3" d="M367.127 194.753L428.11 194.311L425.464 187.232L369.088 187.641L367.127 194.753Z" fill="black"/>
<path d="M372.94 195.819L372.873 186.461L388.375 186.349L388.442 195.707L372.94 195.819ZM374.846 188.405L374.886 193.844L386.469 193.76L386.429 188.321L374.846 188.405Z" fill="#A6A6A6"/>
<path d="M384.894 126.462C384.894 126.462 376.465 154.195 375.774 158.663C375.083 163.13 364.232 258.724 364.232 258.724L345.473 249.137C345.395 248.834 362.783 202.646 363.958 197.569C367.194 183.586 368.998 172.254 368.941 172.069C368.802 171.618 362.458 165.593 365.139 157.955C368.753 147.657 376.157 136.784 380.691 130.567C383.44 126.798 384.894 126.462 384.894 126.462Z" fill="#EBEBEB"/>
<path d="M396.653 124.404C396.653 124.404 396.133 159.479 395.696 162.693C395.259 165.907 397.162 263.765 397.162 263.765L440.434 256.019C440.434 256.019 428.604 175.027 411.282 139.304C404.639 125.604 396.653 124.404 396.653 124.404Z" fill="#EBEBEB"/>
<path d="M403.667 128.342C422.301 148.728 438.21 181.26 435.997 197.597C434.404 209.361 426.493 205.144 424.922 204.777C415.324 202.533 401.547 160.104 397.613 140.733C393.707 121.502 399.059 123.301 403.667 128.342Z" fill="#EBEBEB"/>
<path d="M415.768 196.149C414.979 193.937 414.155 191.746 413.401 189.525L411.067 182.896C409.535 178.469 407.965 174.056 406.504 169.606C404.956 165.186 403.51 160.732 402.075 156.275C401.352 154.048 400.651 151.814 399.989 149.569C399.283 147.334 398.679 145.074 398.055 142.81C398.804 147.448 399.98 152.006 401.237 156.528C402.503 161.051 403.961 165.514 405.427 169.972C406.982 174.4 408.538 178.828 410.249 183.199C411.962 187.566 413.735 191.916 415.768 196.149Z" fill="#263238"/>
<path d="M399.428 148.569C399.16 147.746 398.807 147.001 398.454 146.251C398.266 145.882 398.094 145.508 397.89 145.144C397.691 144.778 397.506 144.406 397.268 144.04C397.3 144.909 397.581 145.733 397.943 146.499C398.325 147.257 398.786 147.982 399.428 148.569Z" fill="#263238"/>
<path d="M382.655 128.924C384.113 123.933 388.932 123.945 391.056 124.272C394.747 124.841 397.344 125.985 397.879 130.936C398.443 136.157 397.647 141.112 396.729 146.261C396.557 147.222 398.047 147.515 398.219 146.551C399.278 140.617 401.852 129.543 397.242 124.638C394.096 121.291 383.247 119.957 381.165 128.634C380.937 129.584 382.382 129.856 382.655 128.924Z" fill="#455A64"/>
<path d="M400.349 149.889C399.981 151.78 398.151 153.014 396.26 152.647C394.37 152.279 393.135 150.449 393.502 148.558C393.87 146.668 395.7 145.433 397.591 145.801C399.482 146.168 400.716 147.998 400.349 149.889Z" fill="#263238"/>
<path d="M398.986 149.624C398.765 150.762 397.663 151.505 396.525 151.284C395.387 151.063 394.644 149.961 394.865 148.823C395.086 147.685 396.188 146.942 397.326 147.163C398.464 147.384 399.208 148.486 398.986 149.624Z" fill="#EBEBEB"/>
<path d="M381.991 145.996C380.562 160.998 378.777 164.135 377.061 165.289C375.254 166.505 372.993 166.692 372.898 166.699L372.816 165.644C372.837 165.643 374.899 165.468 376.47 164.411C377.71 163.577 379.522 160.75 380.937 145.896L381.991 145.996Z" fill="#C7C7C7"/>
<path d="M374.476 165.892L374.48 165.919C374.573 166.524 374.154 167.096 373.549 167.189L372.129 167.408C371.524 167.501 370.952 167.082 370.859 166.477L370.855 166.45C370.762 165.845 371.181 165.273 371.786 165.18L373.206 164.961C373.811 164.868 374.382 165.287 374.476 165.892Z" fill="#263238"/>
<path d="M372.939 143.053C366.433 152.362 363.702 157.763 364.343 160.05C364.857 161.881 366.312 163.342 366.327 163.357L365.581 164.108C365.513 164.041 363.913 162.434 363.324 160.336C362.56 157.613 365.094 152.43 372.071 142.447L372.939 143.053Z" fill="#C7C7C7"/>
<path d="M364.903 162.471L364.882 162.489C364.419 162.89 364.368 163.597 364.768 164.06L365.708 165.147C366.109 165.61 366.815 165.661 367.279 165.261L367.299 165.243C367.762 164.842 367.813 164.136 367.413 163.672L366.473 162.585C366.073 162.121 365.366 162.07 364.903 162.471Z" fill="#263238"/>
<path d="M371.889 141.889C372.696 140.568 374.821 137.331 376.142 135.801C377.226 134.545 379.03 134.092 379.03 134.092C379.233 134.145 379.786 132.377 380.207 130.922C380.577 129.637 380.98 128.134 381.428 127.841C381.861 127.558 382.627 127.811 382.817 128.273C383.023 128.767 382.504 130.236 382.086 131.506C381.611 132.945 381.07 134.715 381.269 134.787C381.269 134.787 382.384 136.215 382.561 137.818C382.759 139.607 382.632 144.144 382.454 145.42C382.233 147.004 381.685 147.008 381.212 146.997C380.543 146.981 380.314 146.437 380.443 144.644C380.648 141.802 381.306 137.133 379.513 136.489L379.514 136.485C377.672 136.012 375.268 140.329 373.758 142.673C372.813 144.14 372.419 144.171 371.856 143.806C371.461 143.549 371.085 143.204 371.889 141.889Z" fill="#263238"/>
<path d="M396.224 127.245C395.868 128.343 391.566 135.206 386.469 134.536C384.809 134.315 383.96 125.157 383.96 125.157L383.865 124.471L382.549 114.865L394.222 108.689L395.902 107.883C395.902 107.883 396.089 110.535 396.288 113.839C396.298 113.992 396.308 114.146 396.317 114.31C396.333 114.497 396.351 114.672 396.358 114.847C396.394 115.34 396.429 115.844 396.453 116.347C396.473 116.729 396.494 117.101 396.501 117.503C396.518 117.907 396.526 118.298 396.542 118.702C396.621 122.684 396.368 126.779 396.224 127.245Z" fill="#D3766A"/>
<path d="M396.29 113.84C392.958 121.117 386.706 123.672 383.867 124.471L382.551 114.865L394.224 108.689L395.904 107.883C395.904 107.883 396.09 110.535 396.29 113.84Z" fill="#263238"/>
<path d="M370.182 101.611C369.276 118.603 379.351 121.065 383.015 121.256C386.341 121.43 397.69 121.599 400.348 104.791C403.005 87.9829 395.391 82.1899 387.805 81.3899C380.218 80.5909 371.089 84.6179 370.182 101.611Z" fill="#D3766A"/>
<path d="M373.429 100.746C373.827 100.683 374.184 100.559 374.57 100.455C375.007 100.339 375.366 100.291 375.678 99.9371C375.845 99.7471 375.816 99.3761 375.646 99.1971C375.251 98.7791 374.681 98.7881 374.15 98.9071C373.574 99.0361 373.162 99.2822 372.797 99.7462C372.442 100.195 372.904 100.829 373.429 100.746Z" fill="#263238"/>
<path d="M385.021 100.682C384.619 100.661 384.251 100.575 383.855 100.513C383.408 100.443 383.046 100.434 382.699 100.114C382.513 99.9431 382.503 99.5711 382.653 99.3751C383.001 98.9181 383.569 98.8671 384.11 98.9291C384.697 98.9961 385.132 99.1981 385.544 99.6201C385.944 100.03 385.551 100.709 385.021 100.682Z" fill="#263238"/>
<path d="M375.882 103.877C375.87 103.833 375.795 103.938 375.8 103.985C375.912 105.141 375.846 106.484 374.823 106.937C374.791 106.951 374.798 107.009 374.837 107.001C376.104 106.738 376.174 104.954 375.882 103.877Z" fill="#263238"/>
<path d="M374.77 102.734C372.897 102.714 372.995 106.461 374.729 106.479C376.437 106.498 376.34 102.751 374.77 102.734Z" fill="#263238"/>
<path d="M373.996 103.001C373.705 103.207 373.422 103.576 373.068 103.608C372.659 103.645 372.345 103.248 372.073 102.866C372.045 102.826 372.016 102.859 372.016 102.908C372.015 103.625 372.271 104.364 372.963 104.484C373.594 104.593 374.039 103.967 374.191 103.249C374.22 103.116 374.113 102.918 373.996 103.001Z" fill="#263238"/>
<path d="M382.455 104.038C382.463 103.994 382.547 104.091 382.546 104.139C382.531 105.3 382.71 106.633 383.767 106.999C383.8 107.01 383.798 107.069 383.759 107.064C382.474 106.908 382.255 105.136 382.455 104.038Z" fill="#263238"/>
<path d="M383.47 102.806C385.334 102.629 385.551 106.371 383.824 106.535C382.124 106.696 381.907 102.954 383.47 102.806Z" fill="#263238"/>
<path d="M384.263 103.007C384.57 103.188 384.884 103.531 385.238 103.534C385.649 103.537 385.928 103.115 386.167 102.711C386.192 102.669 386.223 102.699 386.227 102.748C386.288 103.462 386.095 104.221 385.416 104.398C384.796 104.56 384.3 103.972 384.089 103.27C384.05 103.141 384.14 102.934 384.263 103.007Z" fill="#263238"/>
<path d="M382.742 113.531C382.493 113.83 382.256 114.231 381.84 114.309C381.441 114.384 380.952 114.251 380.569 114.146C380.531 114.136 380.498 114.178 380.525 114.21C380.87 114.623 381.53 114.835 382.055 114.686C382.569 114.541 382.78 114.062 382.858 113.571C382.869 113.503 382.779 113.487 382.742 113.531Z" fill="#263238"/>
<path d="M377.702 109.559C377.702 109.559 377.542 111.302 377.579 112.12C377.583 112.196 377.782 112.224 378.06 112.227C378.073 112.231 378.081 112.236 378.092 112.226C379.545 112.386 380.975 111.821 381.799 110.604C381.852 110.521 381.744 110.442 381.672 110.496C380.631 111.336 379.449 111.594 378.171 111.674C378.103 111.45 378.546 108.698 378.416 108.694C377.968 108.676 377.101 109.02 376.58 109.199C376.809 105.558 377.62 101.983 377.794 98.3551C377.798 98.2251 377.611 98.1951 377.578 98.3121C376.463 101.998 376.107 106.182 375.774 109.936C375.727 110.403 377.381 109.713 377.702 109.559Z" fill="#263238"/>
<path d="M399.778 106.815C395.945 105.262 395.562 101.359 395.562 101.359C390.812 99.632 388.101 96.16 387.821 95.808C387.954 96.15 388.911 98.62 389.439 99.863C378.604 98.457 374.829 90.436 374.829 90.436C371.545 94.101 370.974 96.36 370.532 97.495C370.532 97.495 370.086 90.92 373.223 86.327C377.062 80.702 382.769 81.411 382.769 81.411C382.769 81.411 390.961 78.466 397.823 85.141C405.212 92.342 399.778 106.815 399.778 106.815Z" fill="#263238"/>
<path d="M381.19 98.543C382.952 99.409 384.888 99.952 386.803 100.256C386.819 100.259 386.821 100.235 386.806 100.231C383.737 99.544 380.936 98.112 378.669 95.911C377.711 94.981 376.873 93.944 376.174 92.806C375.443 91.616 374.716 90.191 374.521 88.797C374.506 88.691 374.341 88.714 374.356 88.82C374.563 90.294 374.769 91.652 375.443 92.998C376.083 94.277 376.966 95.452 378.023 96.415C378.969 97.277 380.043 97.978 381.19 98.543Z" fill="#263238"/>
<path d="M396.784 105.177C396.784 105.177 400.319 99.7451 402.772 100.989C405.225 102.232 402.69 110.02 399.897 111.167C397.104 112.314 395.992 109.749 395.992 109.749L396.784 105.177Z" fill="#D3766A"/>
<path d="M401.99 103.203C402.036 103.197 402.046 103.261 402.008 103.278C400.052 104.147 399.069 106.021 398.401 107.951C398.966 107.197 399.756 106.769 400.762 107.438C400.815 107.473 400.768 107.556 400.712 107.546C399.894 107.399 399.313 107.56 398.786 108.228C398.413 108.701 398.167 109.293 397.906 109.834C397.819 110.014 397.496 109.93 397.556 109.724C397.561 109.709 397.566 109.693 397.571 109.678C397.437 107.151 399.284 103.548 401.99 103.203Z" fill="#263238"/>
<path d="M433.114 205.872C426.608 209.283 416.157 207.043 388.202 198.875C384.334 197.745 384.967 168.299 389.16 169.294C394.441 170.547 414.665 176.554 416.088 177.18C428.094 182.459 437.528 203.558 433.114 205.872Z" fill="#D3766A"/>
<path d="M399.884 174.261C399.884 174.261 390.392 167.692 384.337 165.785C376.229 163.231 368.177 164.364 364.831 165.043C357.847 166.46 341.942 174.713 343.519 179.708C344.948 184.231 360.78 174.973 360.78 174.973C360.78 174.973 343.08 181.748 345.801 186.877C348.522 192.006 366.289 180.214 366.289 180.214C366.289 180.214 348.259 187.583 351.902 192.429C354.655 196.091 371.349 186.317 371.349 186.317C371.349 186.317 355.896 192.758 358.564 196.646C361.513 200.942 377.489 192.887 377.489 192.887C385.936 201.627 393.712 202.143 399.176 202.002C400.499 201.967 399.884 174.261 399.884 174.261Z" fill="#D3766A"/>
<path d="M366.752 172.238C364.644 172.959 362.506 173.674 360.469 174.579C358.432 175.485 356.426 176.462 354.482 177.553C349.716 180.229 347.15 182.65 347.325 182.518C351.459 179.389 358.699 176.035 360.737 175.129C362.769 174.225 364.757 173.219 366.79 172.314C366.84 172.291 366.802 172.22 366.752 172.238Z" fill="#263238"/>
<path d="M370.154 179.532C367.502 180.569 364.832 181.501 362.225 182.655C359.631 183.803 357.27 185.12 354.762 186.444C354.569 186.546 354.687 186.616 354.885 186.521C357.444 185.298 359.904 184.365 362.477 183.173C365.041 181.985 367.579 180.687 370.183 179.593C370.225 179.577 370.194 179.517 370.154 179.532Z" fill="#263238"/>
<path d="M374.203 185.268C370.069 186.645 366.194 188.782 362.444 190.97C362.257 191.079 362.42 191.153 362.617 191.053C366.49 189.084 369.515 187.511 374.251 185.412C374.325 185.379 374.29 185.239 374.203 185.268Z" fill="#263238"/>
<path d="M398.617 170.746L401.362 205.664C401.362 205.664 429.725 210.996 433.579 205.489C437.433 199.982 427.431 182.854 419.057 177.969C415.566 175.932 398.617 170.746 398.617 170.746Z" fill="#EBEBEB"/>
<path d="M398.708 171.909L398.675 170.741L398.6 170.802C401.459 171.81 404.323 172.797 407.167 173.833C410.018 174.844 412.858 175.889 415.633 177.061C417.014 177.648 418.414 178.231 419.684 178.984C420.965 179.743 422.16 180.645 423.297 181.614C425.554 183.58 427.442 185.967 428.995 188.571C427.744 185.806 425.957 183.257 423.73 181.14C422.627 180.069 421.392 179.137 420.082 178.326C418.754 177.511 417.355 176.904 415.961 176.283C413.143 175.12 410.275 174.118 407.389 173.176C404.49 172.274 401.58 171.418 398.633 170.69L398.547 170.669L398.558 170.751L398.708 171.909Z" fill="#263238"/>
<path d="M406.588 176.781C406.617 178.533 406.795 180.292 406.927 182.04C407.059 183.79 407.209 185.539 407.381 187.286C407.726 190.779 408.089 194.268 408.498 197.754C408.61 198.708 408.724 199.661 408.853 200.612C408.991 201.631 409.256 202.633 409.384 203.65C409.394 203.729 409.514 203.716 409.508 203.636C409.439 202.778 409.491 201.907 409.44 201.045C409.387 200.152 409.314 199.26 409.235 198.37C409.08 196.622 408.919 194.875 408.749 193.128C408.41 189.637 408.052 186.143 407.598 182.664C407.341 180.699 407.14 178.708 406.768 176.761C406.745 176.646 406.586 176.665 406.588 176.781Z" fill="#263238"/>
<path d="M401.117 202.557C401.315 203.583 401.478 204.612 401.606 205.644L401.403 205.421C407.446 206.277 413.53 206.957 419.625 207.282C422.67 207.417 425.726 207.461 428.751 207.183C430.197 206.982 431.833 206.977 432.974 205.954C434.08 204.95 434.622 203.421 434.833 201.924C434.748 203.438 434.294 205.022 433.178 206.171C428.226 210.028 407.843 207.066 401.32 205.906L401.123 205.869C401.082 204.767 401.079 203.664 401.117 202.557Z" fill="#263238"/>
<path d="M83.6312 364.315C83.6312 364.315 60.0412 402.415 60.0262 402.443C56.1732 410.162 52.9332 416.999 51.5862 420.692C51.5762 420.71 51.5662 420.729 51.5652 420.752C51.0562 422.145 50.8212 423.079 50.9442 423.421C50.9532 423.449 50.9522 423.473 50.9652 423.492C52.4862 426.195 113.279 458.787 115.782 459.21C118.289 459.647 119.687 452.533 118.337 449.386C116.968 446.229 99.2832 423.346 99.2832 423.346L122.481 385.074L83.6312 364.315Z" fill="#AD6359"/>
<path d="M115.778 459.208C113.28 458.787 52.491 426.193 50.962 423.489C50.952 423.469 50.952 423.45 50.942 423.42C50.824 423.077 51.06 422.146 51.569 420.755C51.569 420.726 51.579 420.706 51.589 420.686C52.931 416.993 56.174 410.164 60.024 402.444C60.034 402.434 61.66 399.809 64.07 395.929L103.091 417.051L99.28 423.341C99.28 423.341 116.973 446.226 118.335 449.381C119.687 452.537 118.286 459.649 115.778 459.208Z" fill="#EBEBEB"/>
<path d="M116.693 460.996C114.091 460.53 51.2579 425.999 49.7039 423.164C49.0939 422.097 53.5919 412.648 59.3549 401.388C59.4159 401.271 59.4779 401.154 59.5389 401.037L100.325 422.862L99.9309 423.541C99.9309 423.541 118.07 447.516 119.453 450.814C120.82 454.093 119.29 461.473 116.693 460.996Z" fill="#FFC727"/>
<path d="M117.321 458.169C106.872 452.088 64.1553 428.547 53.3643 423.33C53.2763 423.288 53.2443 423.346 53.3283 423.396C63.5533 429.649 106.46 452.843 117.227 458.342C117.453 458.459 117.542 458.298 117.321 458.169Z" fill="#263238"/>
<path d="M103.27 425.535C99.5285 422.467 94.0795 420.305 89.2625 421.524C89.0755 421.571 89.1455 421.835 89.3035 421.867C94.1285 422.831 98.4255 424.109 102.963 426.052C103.284 426.19 103.538 425.755 103.27 425.535Z" fill="#263238"/>
<path d="M105.283 429.002C101.542 425.933 96.0931 423.772 91.2761 424.991C91.0891 425.038 91.1591 425.303 91.3181 425.334C96.1431 426.298 100.44 427.576 104.977 429.519C105.297 429.656 105.551 429.221 105.283 429.002Z" fill="#263238"/>
<path d="M107.295 432.468C103.555 429.399 98.1048 427.238 93.2878 428.457C93.1008 428.504 93.1708 428.768 93.3298 428.8C98.1548 429.764 102.452 431.042 106.989 432.985C107.309 433.122 107.563 432.688 107.295 432.468Z" fill="#263238"/>
<path d="M66.0455 413.775C62.7425 408.994 55.3065 414.12 58.6145 418.909C61.9185 423.69 69.3545 418.564 66.0455 413.775Z" fill="#263238"/>
<path opacity="0.1" d="M102.641 427.137L106.453 455.869C112.144 458.892 116.077 460.887 116.69 460.997C119.287 461.474 120.82 454.094 119.458 450.812C118.407 448.319 107.75 433.953 102.641 427.137Z" fill="black"/>
<path d="M60.4219 398.441L106.263 422.918C106.263 422.918 168.004 333.519 169.162 311.852C170.761 281.93 145.212 186.937 145.212 186.937L104.461 186.66C104.461 186.66 121.027 284.353 119.68 301.019C118.976 309.74 60.4219 398.441 60.4219 398.441Z" fill="#FFC727"/>
<path d="M110.264 413.444C107.904 411.744 86.1745 399.151 69.6285 391.11C69.5175 391.056 69.4435 391.212 69.5425 391.278C74.5615 394.592 106.994 412.36 110.142 413.62C110.246 413.662 110.371 413.521 110.264 413.444Z" fill="#263238"/>
<path d="M125.339 280.146C123.446 265.851 121.363 251.577 118.988 237.353C116.602 223.066 114.086 208.786 111.099 194.611C110.734 192.88 110.352 191.153 109.974 189.424C109.916 189.158 109.509 189.235 109.558 189.505C112.069 203.569 114.652 217.62 116.962 231.719C119.272 245.817 121.427 259.941 123.362 274.095C123.841 277.6 124.307 281.106 124.76 284.614C125.228 288.236 125.758 291.873 125.8 295.531C125.841 299.046 125.29 302.467 124.053 305.76C122.838 308.993 121.11 311.995 119.357 314.96C111.985 327.432 75.0884 388.877 74.2314 390.462C74.1754 390.566 74.3194 390.674 74.3864 390.57C82.3094 378.275 110.767 332.068 118.244 319.393C121.616 313.676 125.482 307.886 126.583 301.215C127.728 294.28 126.25 287.028 125.339 280.146Z" fill="#263238"/>
<path d="M113.595 391.498C113.595 391.498 113.142 437.365 113.141 437.397C113.383 446.17 113.753 453.857 114.315 457.816C114.315 457.837 114.315 457.859 114.325 457.88C114.536 459.374 114.773 460.324 115.047 460.572C115.068 460.593 115.079 460.615 115.1 460.626C117.76 462.322 187.926 462.428 190.373 461.608C192.831 460.798 190.677 453.746 187.957 451.569C185.216 449.392 158.381 437.337 158.381 437.337L158.4 391.504L113.595 391.498Z" fill="#AD6359"/>
<path d="M113.234 427.98C113.234 427.98 113.141 437.365 113.141 437.397C113.383 446.17 113.753 453.857 114.315 457.816C114.315 457.837 114.315 457.859 114.325 457.88C114.621 459.353 114.879 460.325 115.047 460.572C115.068 460.593 115.079 460.615 115.1 460.626C117.76 462.322 187.926 462.428 190.373 461.608C192.831 460.798 190.677 453.746 187.957 451.569C185.216 449.392 158.381 437.337 158.381 437.337L158.385 427.776L113.234 427.98Z" fill="#EBEBEB"/>
<path d="M191.592 462.48C189.082 463.306 117.387 462.785 114.672 461.03C113.628 460.381 113.096 449.93 112.814 437.284C112.812 437.152 112.811 437.02 112.809 436.888L159.067 436.707L159.044 437.492C159.044 437.492 186.397 449.966 189.181 452.21C191.942 454.445 194.103 461.665 191.592 462.48Z" fill="#FFC727"/>
<path d="M190.8 459.694C178.717 459.309 129.944 458.899 117.97 459.437C117.873 459.442 117.872 459.508 117.969 459.513C129.937 460.155 178.712 460.171 190.799 459.892C191.054 459.886 191.055 459.702 190.8 459.694Z" fill="#263238"/>
<path d="M162.927 437.659C158.178 436.737 152.356 437.425 148.697 440.787C148.555 440.917 148.742 441.117 148.897 441.07C153.6 439.625 157.988 438.708 162.904 438.26C163.251 438.228 163.268 437.725 162.927 437.659Z" fill="#263238"/>
<path d="M166.345 439.753C161.596 438.83 155.774 439.519 152.115 442.88C151.973 443.01 152.161 443.21 152.315 443.162C157.018 441.717 161.407 440.799 166.322 440.352C166.668 440.322 166.685 439.819 166.345 439.753Z" fill="#263238"/>
<path d="M169.763 441.846C165.014 440.924 159.191 441.612 155.533 444.974C155.391 445.104 155.579 445.303 155.733 445.256C160.436 443.811 164.824 442.894 169.74 442.447C170.086 442.415 170.103 441.912 169.763 441.846Z" fill="#263238"/>
<path d="M124.588 445.003C119.41 442.366 115.303 450.41 120.49 453.051C125.669 455.688 129.775 447.644 124.588 445.003Z" fill="#263238"/>
<path d="M144.698 186.845C144.698 186.845 144.697 186.856 144.683 186.887C144.412 187.728 129.766 227.86 128.387 228.5C126.826 229.219 160.741 286.188 162.747 312.654C164.03 329.581 161.514 433.099 161.514 433.099H111.931C111.931 433.099 114.314 339.252 115.447 311.965C115.887 301.384 81.4033 248.7 80.9803 215.894C80.8473 205.553 88.2763 186.66 88.2763 186.66L144.698 186.845Z" fill="#FFC727"/>
<path d="M115.731 311.228C115.732 310.79 115.387 310.65 115.353 311.098C114.233 325.865 113.972 340.554 113.266 355.346C112.562 370.094 112.963 373.651 112.305 388.401C111.932 396.749 112.285 412.843 112.092 421.197C112.089 421.327 112.284 421.343 112.297 421.213C113.84 406.491 115.721 319.59 115.731 311.228Z" fill="#263238"/>
<path d="M162.746 313.237C162.636 309.599 162.397 305.95 161.744 302.365C161.105 298.859 159.994 295.465 158.682 292.157C155.942 285.249 152.702 278.514 149.608 271.759C146.473 264.917 143.274 258.106 139.968 251.345C138.109 247.545 136.24 243.75 134.357 239.962C132.452 236.13 130.399 232.366 128.404 228.58C128.325 228.43 128.094 228.54 128.166 228.695C131.344 235.518 134.48 242.36 137.658 249.184C140.835 256.007 143.956 262.858 147.078 269.706C150.149 276.442 153.226 283.184 156.12 289.998C157.507 293.264 158.803 296.577 159.657 300.027C160.533 303.564 160.904 307.196 161.11 310.827C161.59 319.296 161.825 327.792 162.656 336.237C162.667 336.343 162.839 336.332 162.843 336.226C163.096 328.582 162.977 320.884 162.746 313.237Z" fill="#263238"/>
<path d="M157.924 423.299C155.04 422.924 133.072 422.166 114.693 422.95C114.569 422.955 114.578 423.128 114.697 423.138C120.687 423.671 154.531 423.898 157.9 423.512C158.012 423.5 158.055 423.316 157.924 423.299Z" fill="#263238"/>
<path d="M135.241 226.272C129.936 227.51 124.734 229.507 119.737 231.647C119.541 231.731 119.634 232.031 119.844 231.966C125.048 230.336 130.341 228.809 135.449 226.894C135.85 226.744 135.648 226.177 135.241 226.272Z" fill="#263238"/>
<path d="M140.241 192.282C140.245 192.109 139.947 192.039 139.929 192.225C139.363 198.147 138.452 203.315 137.386 208.795C136.891 211.339 133.372 225.317 129.025 223.826C128.297 223.577 127.992 222.804 127.99 221.668C127.988 220.303 128.666 218.697 129.027 217.377C129.825 214.457 130.528 211.518 131.09 208.543C132.14 202.99 132.738 197.391 132.629 191.738C132.625 191.553 132.359 191.539 132.34 191.725C131.552 199.48 130.556 207.198 128.609 214.759C127.674 218.392 125.245 223.759 129.047 224.722C132.92 225.703 136.416 216.656 137.157 214.16C139.227 207.193 140.066 199.528 140.241 192.282Z" fill="#263238"/>
<path d="M129.104 224.221C128.604 225.132 128.179 226.091 127.801 227.059C127.508 227.811 127.132 228.618 127.137 229.434C127.138 229.592 127.344 229.629 127.438 229.531C128.028 228.922 128.342 228.039 128.714 227.284C129.146 226.409 129.597 225.542 130.003 224.656C130.274 224.069 129.412 223.659 129.104 224.221Z" fill="#263238"/>
<path d="M120.808 325.798C121.062 318.75 121.844 311.358 119.533 304.555C118.387 301.181 116.646 298.058 115.01 294.905C113.291 291.591 111.606 288.258 109.949 284.913C103.324 271.532 97.082 257.94 91.506 244.087C88.82 237.416 86.42 230.569 85.46 223.41C84.456 215.921 85.171 208.259 86.845 200.919C87.263 199.084 87.708 197.259 88.21 195.445C88.247 195.312 88.049 195.237 88.006 195.371C85.774 202.326 84.238 209.554 84.139 216.881C84.043 223.94 85.59 230.794 87.871 237.439C90.246 244.36 93.225 251.088 96.156 257.787C99.177 264.693 102.313 271.549 105.575 278.345C108.82 285.107 112.28 291.755 115.703 298.427C117.36 301.656 118.87 304.962 119.51 308.559C120.161 312.221 120.057 315.954 119.918 319.654C119.333 335.249 117.988 394.873 117.792 410.427C117.767 412.402 117.743 414.376 117.722 416.351C117.72 416.525 117.983 416.549 117.994 416.372C118.98 400.851 120.248 341.345 120.808 325.798Z" fill="#263238"/>
<path d="M109.686 196.945C109.679 196.834 109.513 196.856 109.5 196.956C108.915 201.247 108.581 205.699 106.509 209.592C104.607 213.165 101.291 215.467 97.6773 217.08C95.5883 218.012 93.4143 218.747 91.2403 219.454C91.0843 219.505 91.1193 219.749 91.2903 219.713C95.3913 218.861 99.5603 217.906 103.124 215.602C106.941 213.136 108.903 209.19 109.531 204.773C109.9 202.176 109.86 199.553 109.686 196.945Z" fill="#263238"/>
<path opacity="0.1" d="M152.214 214.474L84.4297 197.917C86.3107 191.657 88.2797 186.66 88.2797 186.66L104.474 186.709C104.464 186.68 104.464 186.66 104.464 186.66L120.021 186.768L144.699 186.846C144.699 186.846 144.699 186.856 144.679 186.885C144.679 186.895 144.669 186.914 144.669 186.934H145.208C145.209 186.936 148.275 198.329 152.214 214.474Z" fill="black"/>
<path d="M148.611 132.138C148.108 150.292 159.865 183.507 166.243 189.401C174.103 196.665 202.29 199.054 204.111 199.316C207.184 199.758 208.988 171.158 206.079 170.196C202.577 169.038 182.467 167.433 180.396 164.791C175.404 158.426 168.291 146.342 159.548 131.638C154.788 123.634 148.923 120.847 148.611 132.138Z" fill="#AD6359"/>
<path d="M202.904 198.897C206.013 199.979 220.696 203.68 225.013 203.796C229.33 203.912 241.775 203.345 242.2 200.048C242.624 196.751 238.967 196.626 238.967 196.626C238.967 196.626 244.185 195.554 244.309 192.197C244.434 188.84 238.738 188.832 238.738 188.832C238.738 188.832 244.016 187.341 243.901 183.983C243.786 180.625 238.058 181.576 238.058 181.576C238.058 181.576 242.947 180.438 241.688 177.711C240.174 174.431 231.397 177.548 226.641 177.063C225.561 176.953 204.91 173.27 204.91 173.27L202.904 198.897Z" fill="#AD6359"/>
<path d="M238.551 181.505C232.091 183.782 228.871 183.661 222.297 182.162C222.169 182.132 222.096 182.317 222.227 182.36C228.531 184.414 232.548 185.149 238.677 181.813C238.977 181.649 238.858 181.396 238.551 181.505Z" fill="#263238"/>
<path d="M239.248 188.642C232.332 190.421 228.838 190.32 221.837 189.257C221.738 189.242 221.702 189.408 221.801 189.432C228.581 191.05 232.606 191.691 239.283 189.006C239.585 188.884 239.565 188.561 239.248 188.642Z" fill="#263238"/>
<path d="M238.611 196.561C231.791 197.8 227.956 197.855 221.292 195.949C221.135 195.904 221.053 196.129 221.207 196.19C227.813 198.793 232.6 198.761 238.626 196.772C239.038 196.637 239.04 196.483 238.611 196.561Z" fill="#263238"/>
<path d="M199.615 171.758C199.615 171.758 207.129 167.611 210.832 166.517C214.535 165.423 229.834 166.426 229.805 169.743C229.768 174.025 220.822 175.186 216.366 175.182C216.366 175.182 216.289 185.088 210.048 187.31C203.807 189.533 199.615 171.758 199.615 171.758Z" fill="#AD6359"/>
<path d="M229.41 170.917C226.559 174.797 220.71 174.415 216.387 174.734C216.058 174.758 215.962 175.031 216.03 175.279C215.72 179.429 214.075 185.192 210.294 187.427C210.183 187.492 210.261 187.659 210.381 187.608C214.762 185.762 216.84 180.231 216.888 175.664C221.327 175.406 227.209 175.532 229.448 170.943C229.461 170.917 229.428 170.892 229.41 170.917Z" fill="#263238"/>
<path d="M172.149 149.503L151.122 165.575C151.122 165.575 146.195 136.889 147.127 128.044C148.176 118.089 153.037 120.803 159.085 128.147C165.133 135.491 172.149 149.503 172.149 149.503Z" fill="#FFC727"/>
<path d="M168.502 146.265C165.547 147.949 157.398 154.249 156.041 155.276C155.325 155.818 152.566 158.105 151.847 158.64C151.755 158.708 151.878 158.838 151.969 158.77C153.339 157.75 154.819 156.869 156.2 155.857C157.614 154.822 166.103 148.737 168.579 146.373C168.634 146.321 168.569 146.227 168.502 146.265Z" fill="#263238"/>
<path opacity="0.1" d="M147.131 128.041C146.192 136.885 151.123 165.572 151.123 165.572L161.956 157.289L152.524 122.044C149.744 120.671 147.76 122.104 147.131 128.041Z" fill="black"/>
<path d="M83.4529 193.576C83.4539 193.57 152.161 212.966 152.16 212.971C151.777 214.317 159.612 166.75 157.397 131.934C156.742 121.635 145.315 114.145 133.894 122.235C109.838 139.278 83.2059 194.45 83.4529 193.576Z" fill="#FFC727"/>
<path d="M128.858 133.908C124.89 150.631 115.626 185.11 121.829 196.236C129.969 210.834 160.265 222.849 168.175 226.328C171.621 227.844 183.051 205.529 181.389 201.863C179.726 198.197 148.574 182.277 146.56 180.04C144.546 177.803 144.06 149.825 142.418 135.327C140.347 117.038 132.217 119.753 128.858 133.908Z" fill="#AD6359"/>
<path d="M190.376 210.931C189.228 209.392 190.028 208.779 193.323 209.668C196.659 210.56 208.907 216.873 210.748 212.401C212.604 207.916 195.124 199.267 189.523 198.206C183.923 197.132 174.49 197.393 174.49 197.393C177.552 199.76 184.429 206.21 190.376 210.931Z" fill="#AD6359"/>
<path d="M159.635 221.71C168.502 228.062 179.153 236.51 191.41 237.612C193.814 237.828 195.305 236.747 195.305 236.747C200.789 237.338 202.716 234.926 202.716 234.926C207.994 233.913 209.624 231.175 209.624 231.175C209.624 231.175 216.071 231.799 217.095 227.965C218.256 223.669 208.975 223.633 203.884 220.492C192.218 213.295 177.648 199.802 174.489 197.392L159.635 221.71Z" fill="#AD6359"/>
<path d="M186.356 221.543C189.831 223.592 193.192 225.697 196.927 227.265C201.025 228.986 205.258 229.954 209.542 231.047C209.676 231.081 209.642 231.27 209.505 231.257C201.437 230.506 192.602 226.717 186.261 221.699C186.107 221.578 186.181 221.44 186.356 221.543Z" fill="#263238"/>
<path d="M180.99 227.952C184.483 229.759 190.641 232.895 202.737 234.796C202.776 234.802 202.778 234.871 202.734 234.87C194.716 234.68 187.637 232.351 180.904 228.118C180.695 227.988 180.758 227.833 180.99 227.952Z" fill="#263238"/>
<path d="M178.17 231.451C184.225 234.297 188.404 235.325 195.283 236.713C195.322 236.721 195.319 236.791 195.275 236.787C187.291 236.03 184.48 234.85 178.043 231.645C177.822 231.536 177.934 231.34 178.17 231.451Z" fill="#263238"/>
<path d="M145.467 155.211L119.939 161.386C119.939 161.386 126.95 133.366 131.338 125.708C136.276 117.089 139.604 121.499 142.155 130.59C144.707 139.68 145.467 155.211 145.467 155.211Z" fill="#FFC727"/>
<path d="M143.454 150.812C140.096 151.158 130.175 153.615 128.531 154.005C127.664 154.211 124.243 155.182 123.376 155.38C123.265 155.405 123.325 155.572 123.435 155.547C125.088 155.169 126.784 154.962 128.443 154.596C130.141 154.222 140.286 152.096 143.48 150.94C143.551 150.915 143.53 150.804 143.454 150.812Z" fill="#263238"/>
<path d="M127.128 136.531C127.159 136.412 126.988 136.378 126.948 136.487C126.086 138.786 125.284 141.107 124.517 143.441C124.613 142.158 124.863 140.908 125.193 139.648C125.208 139.592 125.125 139.573 125.107 139.627C124.64 141.026 124.425 142.529 124.333 144.008C123.804 145.636 123.287 147.268 122.792 148.906C121.53 153.073 120.216 157.236 119.196 161.47C119.142 161.696 119.356 161.887 119.574 161.826C120.453 161.582 121.322 161.317 122.184 161.014C122.274 160.983 122.259 160.829 122.155 160.841C121.403 160.926 120.66 161.05 119.916 161.178C121.242 157.186 122.364 153.125 123.575 149.097C124.827 144.929 126.044 140.746 127.128 136.531Z" fill="#263238"/>
<path d="M144.945 143.95C144.967 142.564 144.987 141.178 144.962 139.79C144.961 139.761 144.919 139.763 144.918 139.791C144.862 140.81 144.83 141.829 144.805 142.848C144.533 140.83 144.224 138.819 143.824 136.833C143.818 136.803 143.771 136.812 143.772 136.842C143.93 139.918 144.257 142.985 144.487 146.056C144.714 149.07 144.99 152.076 145.271 155.086C144.712 155.317 144.15 155.535 143.582 155.746C143.474 155.786 143.523 155.937 143.634 155.915C144.285 155.789 144.934 155.666 145.59 155.569C145.745 155.546 145.881 155.442 145.873 155.269C145.714 151.505 145.414 147.713 144.945 143.95Z" fill="#263238"/>
<path d="M153.241 133.747C149.749 133.864 142.209 127.484 140.792 122.242C140.697 121.882 141.991 118.654 143.379 114.657C144.212 112.228 145.081 109.504 145.695 106.961C145.819 106.438 160.709 114.687 160.709 114.687C160.709 114.687 157.854 119.639 156.81 124.08C156.727 124.452 156.68 124.805 156.668 125.15C156.662 125.199 156.662 125.261 156.649 125.328C156.495 127.388 156.977 133.622 153.241 133.747Z" fill="#AD6359"/>
<path d="M156.675 125.149C156.664 125.201 156.662 125.264 156.649 125.326C156.134 125.274 155.586 125.171 154.996 125.017C145.658 122.543 146.018 110.194 146.259 107.101C148.995 108.191 160.711 114.686 160.711 114.686C160.711 114.686 157.854 119.643 156.809 124.083C156.733 124.453 156.681 124.807 156.675 125.149Z" fill="#263238"/>
<path d="M147.515 86.4469C144.591 91.7809 144.175 108.862 147.462 113.374C152.228 119.915 161.738 122.425 167.726 116.305C173.531 110.373 173.68 88.1039 169.849 83.8279C164.206 77.5299 151.834 78.5669 147.515 86.4469Z" fill="#AD6359"/>
<path d="M161.517 99.637C161.509 99.593 161.425 99.689 161.425 99.736C161.428 100.887 161.237 102.206 160.185 102.558C160.152 102.569 160.154 102.627 160.193 102.623C161.469 102.482 161.704 100.728 161.517 99.637Z" fill="#263238"/>
<path d="M160.526 98.4059C158.68 98.2109 158.426 101.918 160.137 102.098C161.82 102.276 162.073 98.5689 160.526 98.4059Z" fill="#263238"/>
<path d="M168.153 100.28C168.165 100.236 168.239 100.34 168.234 100.387C168.119 101.533 168.18 102.864 169.193 103.316C169.225 103.33 169.217 103.388 169.179 103.379C167.924 103.115 167.86 101.346 168.153 100.28Z" fill="#263238"/>
<path d="M169.259 99.1509C171.115 99.1369 171.006 102.851 169.287 102.863C167.594 102.876 167.703 99.1619 169.259 99.1509Z" fill="#263238"/>
<path d="M159.179 96.6109C159.693 96.5189 160.15 96.3479 160.649 96.2039C161.211 96.0409 161.676 95.9699 162.069 95.5029C162.28 95.2519 162.232 94.7739 162.008 94.5459C161.486 94.0149 160.748 94.0429 160.063 94.2109C159.32 94.3929 158.793 94.7239 158.333 95.3339C157.887 95.9239 158.502 96.7329 159.179 96.6109Z" fill="#263238"/>
<path d="M170.82 97.383C170.312 97.264 169.863 97.07 169.373 96.9C168.82 96.708 168.359 96.613 167.991 96.126C167.793 95.864 167.866 95.389 168.102 95.173C168.651 94.671 169.387 94.737 170.062 94.94C170.795 95.16 171.303 95.518 171.732 96.15C172.146 96.763 171.49 97.54 170.82 97.383Z" fill="#263238"/>
<path d="M159.728 110.221C159.985 110.509 160.234 110.897 160.648 110.961C161.045 111.022 161.526 110.873 161.902 110.756C161.939 110.745 161.974 110.786 161.948 110.819C161.619 111.239 160.974 111.472 160.448 111.342C159.934 111.216 159.708 110.749 159.615 110.265C159.6 110.198 159.69 110.179 159.728 110.221Z" fill="#263238"/>
<path d="M161.17 106.866C161.744 107.907 162.652 108.516 163.66 108.784C164.11 108.907 164.589 108.955 165.062 108.945C165.154 108.949 165.248 108.945 165.333 108.932C165.418 108.928 165.494 108.923 165.587 108.911C165.722 108.901 165.804 108.795 165.835 108.67V108.662C165.837 108.619 165.839 108.586 165.832 108.544C165.832 108.544 165.832 108.544 165.833 108.536L165.838 108.435C165.923 107.553 165.929 106.202 165.929 106.202C166.241 106.386 167.837 107.239 167.842 106.776C167.875 102.937 167.912 98.6679 167.135 94.8409C167.116 94.7129 166.921 94.7289 166.923 94.8559C166.745 98.5439 167.217 102.238 167.097 105.946C166.585 105.711 165.753 105.282 165.29 105.26C165.162 105.288 165.325 107.87 165.255 108.263C165.255 108.263 165.254 108.28 165.245 108.305C163.747 108.393 162.658 107.868 161.284 106.772C161.204 106.699 161.108 106.77 161.17 106.866Z" fill="#263238"/>
<path d="M164.853 108.692C164.853 108.692 163.905 109.762 162.708 110.074C162.267 110.19 161.801 110.211 161.33 110.04C160.361 109.693 160.416 108.781 160.665 108.018C160.869 107.39 161.213 106.864 161.213 106.864C161.213 106.864 162.544 108.346 164.853 108.692Z" fill="#263238"/>
<path d="M162.709 110.074C162.268 110.19 161.802 110.211 161.331 110.04C160.362 109.693 160.417 108.781 160.666 108.018C161.719 108.219 162.709 109.033 162.709 110.074Z" fill="#FF9ABB"/>
<path d="M151.146 96.692C152.809 93.648 151.901 87.907 153.77 86.737C157.817 84.204 163.924 91.483 168.835 92.371C173.594 93.232 175.722 90.446 175.537 86.43C175.352 82.414 172.521 79.242 167.314 77.51C161.927 75.718 156.495 77.067 153.448 78.345C153.448 78.345 154.988 76.625 154.643 75.946C154.298 75.268 151.64 76.716 150.789 77.383C149.925 78.06 149.222 79.476 149.222 79.476C149.222 79.476 148.398 79.066 147.086 78.871C145.869 78.691 144.177 79.373 144.041 79.642C143.905 79.912 145.6 80.436 146.805 80.709C146.805 80.709 144.013 83.324 143.612 85.908C143.211 88.492 145.083 101.429 146.023 101.729C147.23 102.115 150.471 97.929 151.146 96.692Z" fill="#263238"/>
<path d="M147.328 80.479C147.375 80.461 147.422 80.53 147.375 80.559C146.041 81.358 144.898 82.359 144.162 83.753C143.306 85.373 143.099 87.245 143.183 89.052C143.346 92.567 144.463 95.925 145.356 99.299C145.382 99.398 145.216 99.445 145.183 99.348C144.009 95.835 142.854 92.04 142.832 88.308C142.814 85.124 144.149 81.702 147.328 80.479Z" fill="#263238"/>
<path d="M153.8 85.453C155.233 85.502 156.766 85.906 158.073 86.49C159.36 87.066 160.366 88.105 161.458 88.971C163.907 90.914 166.677 92.573 169.839 92.927C169.88 92.932 169.871 92.991 169.831 92.989C166.909 92.848 164.262 91.51 161.944 89.802C160.775 88.941 159.725 87.816 158.46 87.102C157.021 86.29 155.367 86.024 153.769 85.711C153.602 85.68 153.633 85.447 153.8 85.453Z" fill="#263238"/>
<path d="M156.619 77.5041C158.706 76.8591 160.904 76.5811 163.085 76.5521C165.177 76.5241 167.299 76.7241 169.286 77.4141C172.715 78.6061 175.569 81.4211 175.763 85.1901C175.861 87.1001 175.317 89.0831 174.083 90.5681C174 90.6681 173.849 90.5521 173.923 90.4451C175.928 87.5251 176.032 83.5771 173.747 80.7671C171.293 77.7501 167.261 76.8471 163.548 76.7921C161.211 76.7581 158.915 77.0771 156.628 77.5291C156.612 77.5321 156.605 77.5081 156.619 77.5041Z" fill="#263238"/>
<path d="M148.849 100.909C148.849 100.909 146.114 94.8671 143.44 95.7461C140.766 96.6241 142.126 104.894 144.773 106.486C147.42 108.078 148.942 105.656 148.942 105.656L148.849 100.909Z" fill="#AD6359"/>
<path d="M143.888 98.107C143.843 98.094 143.822 98.157 143.859 98.18C145.703 99.362 146.407 101.409 146.783 103.465C146.328 102.615 145.596 102.06 144.474 102.581C144.415 102.608 144.45 102.699 144.508 102.698C145.358 102.676 145.921 102.928 146.351 103.686C146.655 104.223 146.813 104.859 146.992 105.447C147.052 105.643 147.392 105.608 147.362 105.389C147.36 105.373 147.357 105.356 147.354 105.34C147.883 102.805 146.572 98.874 143.888 98.107Z" fill="#263238"/>
<path d="M142.167 117.328L154.279 132.505L156.65 125.327L158.965 129.324L157.479 137.255L154.371 133.523L150.447 139.047L137.572 121.509L142.167 117.328Z" fill="#FFC727"/>
<path opacity="0.6" d="M142.167 117.328L154.279 132.505L156.65 125.327L158.965 129.324L157.479 137.255L154.371 133.523L150.447 139.047L137.572 121.509L142.167 117.328Z" fill="white"/>
<path d="M297.061 461.804C264.094 461.804 237.273 428.329 237.273 387.182C237.273 346.035 264.093 312.559 297.061 312.559C330.028 312.559 356.849 346.035 356.849 387.182C356.848 428.329 330.028 461.804 297.061 461.804ZM297.061 318.543C267.393 318.543 243.257 349.334 243.257 387.182C243.257 425.029 267.394 455.821 297.061 455.821C326.728 455.821 350.865 425.03 350.865 387.182C350.865 349.334 326.728 318.543 297.061 318.543Z" fill="#263238"/>
<path d="M301.779 453.332C272.613 453.332 248.885 423.657 248.885 387.182C248.885 350.706 272.613 321.031 301.779 321.031C330.945 321.031 354.673 350.706 354.673 387.182C354.673 423.657 330.945 453.332 301.779 453.332ZM301.779 325.305C274.97 325.305 253.159 353.063 253.159 387.182C253.159 421.3 274.97 449.058 301.779 449.058C328.588 449.058 350.399 421.3 350.399 387.182C350.399 353.063 328.588 325.305 301.779 325.305Z" fill="#C7C7C7"/>
<path d="M299.741 397.997C304.477 397.997 308.316 393.155 308.316 387.182C308.316 381.209 304.477 376.367 299.741 376.367C295.005 376.367 291.166 381.209 291.166 387.182C291.166 393.155 295.005 397.997 299.741 397.997Z" fill="#C7C7C7"/>
<path d="M311.064 387.182C311.064 393.155 307.225 397.997 302.489 397.997C297.753 397.997 293.914 393.155 293.914 387.182C293.914 381.209 297.753 376.367 302.489 376.367C307.224 376.367 311.064 381.209 311.064 387.182Z" fill="#C7C7C7"/>
<path d="M380.141 385.045H302.488V389.319H380.141V385.045Z" fill="#C7C7C7"/>
<path d="M212.548 463.853C218.708 463.853 223.703 457.554 223.703 449.784C223.703 442.014 218.708 435.715 212.548 435.715C206.387 435.715 201.393 442.014 201.393 449.784C201.393 457.554 206.387 463.853 212.548 463.853Z" fill="#C7C7C7"/>
<path d="M216.122 463.853C222.283 463.853 227.277 457.554 227.277 449.784C227.277 442.014 222.283 435.715 216.122 435.715C209.961 435.715 204.967 442.014 204.967 449.784C204.967 457.554 209.961 463.853 216.122 463.853Z" fill="#C7C7C7"/>
<path d="M302.782 288.074H214.436V322.184H302.782V288.074Z" fill="#A6A6A6"/>
<path d="M288.463 404.234H214.436V399.96H288.463C295.158 399.96 300.606 394.512 300.606 387.817V212.277C300.606 203.225 307.971 195.86 317.023 195.86H326.999V200.134H317.023C310.328 200.134 304.88 205.581 304.88 212.277V387.817C304.88 396.869 297.516 404.234 288.463 404.234Z" fill="#C7C7C7"/>
<path d="M216.573 435.716H212.299V267.306C212.299 259.156 218.93 252.525 227.08 252.525H302.743V256.799H227.08C221.286 256.799 216.573 261.512 216.573 267.306V435.716Z" fill="#C7C7C7"/>
<path d="M340.237 193.596H313.76V202.094H340.237V193.596Z" fill="#263238"/>
<path d="M380.142 212.152H304.66V315.551H380.142V212.152Z" fill="#455A64"/>
<path d="M191.328 454.782H285.812V444.787H191.328V454.782Z" fill="#263238"/>
<path d="M262.041 168.986C251.758 179.45 249.585 219.418 245.882 232.932C243.378 242.07 235.316 268.078 229.912 277.352L276.978 273.667C276.978 273.667 283.539 262.565 280.546 238.846C277.527 214.919 262.041 168.986 262.041 168.986Z" fill="#FFC727"/>
<path opacity="0.1" d="M262.041 168.986C251.758 179.45 249.585 219.418 245.882 232.932C243.378 242.07 235.316 268.078 229.912 277.352L276.978 273.667C276.978 273.667 283.539 262.565 280.546 238.846C277.527 214.919 262.041 168.986 262.041 168.986Z" fill="black"/>
<path d="M147.134 464.566C149.679 465.393 222.308 464.753 225.062 462.979C226.11 462.311 226.634 451.728 226.904 438.922C226.963 436.156 232.447 391.591 232.447 391.591L183.893 391.878L180.078 439.199C180.078 439.199 152.38 451.881 149.568 454.152C146.771 456.423 144.59 463.74 147.134 464.566Z" fill="#EB9481"/>
<path d="M147.137 464.565C149.677 465.391 222.304 464.751 225.06 462.975C225.855 462.469 226.35 456.275 226.671 447.717C217.276 449.875 164.471 454.211 158.4 453.478C152.536 452.776 166.122 445.787 168.579 444.548C160.609 448.306 151.153 452.869 149.563 454.149C146.775 456.42 144.587 463.739 147.137 464.565Z" fill="#455A64"/>
<path d="M300.392 215.836C300.392 215.836 314.003 237.815 307.023 257.841C295.098 292.051 238.37 324.217 237.44 328.619C235.248 338.995 232.682 426.46 232.682 426.46L180.416 426.126C180.416 426.126 184.083 332.355 191.045 312.247C196.616 296.155 245.104 259.787 257.806 245.196C259.277 243.507 260.382 224.479 260.382 224.479L300.392 215.836Z" fill="#263238"/>
<path d="M183.576 417.066C192 416.901 217.503 416.197 228.731 417.105C228.817 417.112 228.816 417.254 228.731 417.267C224.878 417.869 192.001 417.464 183.576 417.298C183.418 417.295 183.418 417.069 183.576 417.066Z" fill="#37474F"/>
<path d="M226.684 368.893C227.083 361.041 227.564 353.193 228.098 345.35C228.361 341.492 228.657 337.636 228.959 333.781C229.1 331.975 229.042 329.978 229.651 328.251C230.136 326.876 231.114 325.788 232.17 324.815C237.635 319.773 243.38 315.009 249.04 310.19C254.749 305.329 260.466 300.475 266.091 295.517C271.589 290.672 277.036 285.753 282.219 280.57C287.081 275.708 291.729 270.437 294.858 264.264C300.707 252.728 301.106 238.502 296.218 226.57C295.62 225.11 295.022 223.658 294.32 222.243C294.207 222.016 294.526 221.844 294.662 222.054C301.517 232.664 302.708 246.774 298.873 258.683C294.57 272.045 283.778 281.772 273.736 290.988C262.592 301.216 250.836 310.742 239.356 320.583C237.956 321.783 236.559 322.988 235.169 324.2C233.918 325.29 232.446 326.358 231.537 327.77C230.522 329.347 230.634 331.433 230.495 333.24C230.342 335.232 230.193 337.224 230.049 339.216C229.481 347.057 228.96 354.903 228.52 362.752C227.633 378.581 227.336 409.084 227.271 411.016C227.258 411.402 226.67 411.388 226.671 411.001C226.709 395.273 225.886 384.603 226.684 368.893Z" fill="#37474F"/>
<path d="M261.273 464.922C263.944 465.136 336.265 447.159 338.544 444.804C338.62 444.725 338.682 444.558 338.721 444.313C339.042 441.96 311.705 378.126 311.705 378.126L268.477 389.386L287.541 432.678C287.541 432.678 263.48 451.372 261.268 454.223C259.066 457.074 258.612 464.696 261.273 464.922Z" fill="#EB9481"/>
<path d="M261.27 464.919C263.942 465.134 336.27 447.156 338.546 444.803C338.622 444.721 338.678 444.552 338.716 444.307C338.825 443.54 336.399 436.197 333.091 426.659C319.459 437.178 269.718 452.496 268.296 451.628C266.828 450.722 273.785 443.666 274.259 443.165C268.272 447.963 262.321 452.87 261.266 454.222C259.068 457.078 258.609 464.695 261.27 464.919Z" fill="#455A64"/>
<path d="M282.344 426.448L333.364 416.573C333.364 416.573 284.183 323.269 285.041 316.45C285.801 310.41 319.865 272.538 323.877 257.627C328.207 241.535 321.672 222.294 314.567 212.773L260.378 224.478C260.378 224.478 262.874 234.237 270.443 240.704C270.443 240.704 232.511 295.553 230.404 314.28C228.287 333.112 282.344 426.448 282.344 426.448Z" fill="#263238"/>
<path d="M281.971 416.588C289.058 415.037 287.001 415.372 294.105 413.908C297.582 413.192 320.435 408.506 323.806 408.462C323.88 408.461 323.906 408.594 323.837 408.621C320.697 409.847 297.759 414.095 294.267 414.738C287.133 416.052 289.165 415.59 282.015 416.815C281.881 416.839 281.838 416.617 281.971 416.588Z" fill="#37474F"/>
<path d="M262.954 239.659C268.323 241.085 273.552 243.257 278.566 245.562C278.763 245.652 278.654 245.946 278.443 245.873C273.195 244.064 267.851 242.353 262.714 240.266C262.31 240.102 262.542 239.549 262.954 239.659Z" fill="#37474F"/>
<path d="M269.233 237.812C269.703 238.731 270.095 239.694 270.437 240.665C270.703 241.419 271.051 242.23 271.008 243.036C271 243.192 270.787 243.22 270.695 243.121C270.119 242.497 269.839 241.613 269.492 240.853C269.09 239.973 268.668 239.099 268.293 238.208C268.043 237.617 268.943 237.245 269.233 237.812Z" fill="#37474F"/>
<path d="M261.524 221.22C261.519 221.129 261.704 221.084 261.719 221.181C262.168 224.272 262.822 226.957 263.576 229.801C263.926 231.121 266.353 238.353 269.048 237.443C269.499 237.291 269.678 236.876 269.661 236.28C269.64 235.564 269.19 234.741 268.943 234.059C268.396 232.55 267.91 231.028 267.51 229.484C266.764 226.601 266.299 223.681 266.276 220.711C266.275 220.613 266.442 220.599 266.456 220.696C267.074 224.742 267.821 228.763 269.16 232.673C269.804 234.552 271.409 237.297 269.047 237.914C266.64 238.543 264.308 233.898 263.804 232.61C262.399 229.014 261.751 225.017 261.524 221.22Z" fill="#37474F"/>
<path d="M309.409 237.113C308.585 236.611 307.246 236.915 306.311 236.89C305.111 236.859 303.913 236.748 302.727 236.559C301.558 236.372 300.398 236.097 299.264 235.759C298.131 235.422 296.979 235.049 296.098 234.226C294.611 232.84 293.558 230.703 292.723 228.876C291.807 226.869 290.893 224.589 290.54 222.402C290.518 222.268 290.322 222.319 290.337 222.449C290.479 223.711 290.522 224.965 290.771 226.22C291.004 227.401 291.378 228.559 291.794 229.686C292.571 231.791 293.491 234.056 295.234 235.558C297.063 237.134 299.729 237.58 302.049 237.895C303.391 238.078 304.748 238.16 306.102 238.139C307.08 238.124 308.689 238.282 309.449 237.573C309.584 237.447 309.571 237.211 309.409 237.113Z" fill="#37474F"/>
<path d="M229.402 311.175C229.613 309.475 230.122 307.85 230.794 306.279C232.132 303.15 233.678 300.096 235.188 297.048C241.256 284.799 248.131 272.94 255.555 261.466C259.739 254.999 264.112 248.657 268.889 242.614C269.066 242.39 269.445 242.604 269.277 242.853C265.498 248.457 261.69 254.046 258.019 259.724C254.345 265.407 250.843 271.198 247.477 277.068C244.146 282.877 240.967 288.773 237.947 294.749C236.438 297.736 234.948 300.734 233.504 303.754C232.764 305.301 231.996 306.847 231.424 308.466C230.832 310.144 230.617 311.857 230.593 313.636C230.491 321.148 236.028 335.274 236.649 337.114C236.704 337.276 236.456 337.364 236.375 337.222C233.536 332.225 229.965 319.876 229.527 316.437C229.306 314.693 229.184 312.926 229.402 311.175Z" fill="#37474F"/>
<path d="M229.901 311.175C230.348 307.805 231.997 304.688 233.463 301.666C234.9 298.705 236.369 295.757 237.877 292.831C240.899 286.965 244.101 281.191 247.454 275.508C250.806 269.827 254.303 264.23 257.941 258.728C259.78 255.947 261.661 253.194 263.601 250.483C264.571 249.128 265.556 247.783 266.558 246.451C267.035 245.817 267.516 245.185 268.001 244.556C268.266 244.213 268.533 243.87 268.8 243.529C268.856 243.457 269.09 243.215 269.094 243.154C268.873 242.721 268.699 242.672 268.571 243.006C268.503 243.107 268.434 243.208 268.366 243.31C264.586 248.911 260.783 254.498 257.128 260.183C253.512 265.807 250.061 271.536 246.744 277.341C243.421 283.157 240.255 289.062 237.239 295.044C235.718 298.06 234.229 301.09 232.768 304.135C232.076 305.578 231.37 307.031 230.866 308.553C230.385 310.005 230.166 311.534 230.107 313.059C229.942 317.339 231.125 321.681 232.304 325.755C233.324 329.28 234.529 332.747 235.786 336.193C235.885 336.464 236.16 336.951 236.139 337.22C236.188 337.102 236.237 336.984 236.285 336.866C236.259 336.887 236.233 336.908 236.207 336.929C236.325 336.88 236.443 336.831 236.561 336.782C236.527 336.784 236.492 336.786 236.458 336.788C236.576 336.837 236.694 336.886 236.812 336.934C236.595 336.765 236.454 336.323 236.333 336.083C236.166 335.752 236.006 335.418 235.851 335.081C235.5 334.319 235.176 333.546 234.866 332.766C234.175 331.026 233.554 329.258 232.971 327.479C231.929 324.298 230.956 321.066 230.271 317.786C229.821 315.625 229.647 313.37 229.901 311.175C229.975 310.537 228.974 310.542 228.901 311.175C228.585 313.912 228.961 316.665 229.594 319.329C230.203 321.894 230.944 324.429 231.746 326.94C232.59 329.581 233.51 332.206 234.614 334.751C234.849 335.294 235.095 335.832 235.356 336.362C235.552 336.758 235.768 337.433 236.155 337.68C236.676 338.012 237.236 337.528 237.124 336.965C237.085 336.769 236.984 336.568 236.916 336.38C235.345 332.05 233.819 327.703 232.647 323.244C231.966 320.653 231.358 318.006 231.151 315.33C231.029 313.752 231.075 312.143 231.372 310.586C231.757 308.563 232.646 306.694 233.53 304.85C237.168 297.257 240.979 289.748 245.057 282.381C249.095 275.085 253.356 267.908 257.861 260.891C260.147 257.33 262.494 253.808 264.855 250.297C266.037 248.54 267.223 246.785 268.408 245.03C268.681 244.625 268.955 244.22 269.228 243.815C269.451 243.484 269.84 243.093 269.807 242.668C269.76 242.055 269.009 241.859 268.584 242.222C268.252 242.505 267.993 242.947 267.725 243.292C267.406 243.702 267.089 244.112 266.773 244.524C266.145 245.343 265.524 246.167 264.909 246.996C263.703 248.621 262.521 250.264 261.36 251.922C258.991 255.303 256.707 258.743 254.474 262.216C250.003 269.171 245.738 276.26 241.733 283.493C239.75 287.075 237.83 290.691 235.981 294.344C234.085 298.088 232.17 301.839 230.503 305.692C229.737 307.462 229.153 309.258 228.899 311.176C228.817 311.81 229.818 311.804 229.901 311.175Z" fill="#37474F"/>
<path d="M278.433 313.754C279.803 310.801 282.035 308.168 283.897 305.515L289.953 296.882C294.026 291.076 298.059 285.244 302.134 279.44C305.951 274.004 309.964 268.645 313.077 262.76C316.115 257.016 318.135 250.651 317.965 244.088C317.731 235.092 313.252 219.842 312.565 218.23C312.523 218.132 312.651 218.059 312.711 218.15C314.669 221.155 322.175 244.632 317.054 256.776C314.56 262.689 311.419 268.28 307.784 273.526C303.803 279.273 299.688 284.925 295.65 290.631C291.552 296.422 287.451 302.21 283.351 308C281.558 310.532 279.014 313.294 278.567 316.475C278.089 319.873 280.284 323.216 281.713 326.14C287.946 338.893 294.217 351.627 300.512 364.349C306.809 377.073 318.921 402.158 319.669 403.717C319.745 403.875 319.512 404.007 319.428 403.85C312.765 391.317 308.336 382.144 302.005 369.441C295.701 356.792 289.448 344.118 283.251 331.416C281.741 328.321 280.111 325.254 278.748 322.091C277.554 319.323 277.128 316.567 278.433 313.754Z" fill="#37474F"/>
<path d="M264.824 132.1C271.305 137.212 274.073 146.537 274.073 146.537C274.073 146.537 280.759 155.484 279.801 160.856C278.843 166.228 274.506 167.971 274.506 167.971L274.726 165.028C274.726 165.028 273.285 168.944 267.214 171.159C261.142 173.375 252.661 172.402 248.114 170.725C243.567 169.048 241.159 165.9 241.159 165.9L243.253 169.898C243.253 169.898 237.168 170.386 232.824 164.356C228.48 158.327 237.747 147.862 238.393 145.766C239.038 143.67 238.472 128.993 254.063 129.735C254.063 129.735 260.362 128.58 264.824 132.1Z" fill="#C7C7C7"/>
<path d="M276.678 167.339C278.13 165.963 279.545 164.399 280.231 162.634C280.958 160.764 281.118 158.724 280.534 156.792C279.837 154.486 278.356 152.555 276.914 150.668C275.425 148.719 273.788 146.873 272.336 144.899C272.256 144.79 272.42 144.674 272.514 144.757C274.084 146.145 275.495 147.767 276.891 149.327C278.22 150.813 279.536 152.356 280.489 154.117C281.355 155.716 281.958 157.553 281.812 159.393C281.692 160.91 281.172 162.353 280.365 163.637C279.401 165.17 278.071 166.236 276.773 167.458C276.692 167.534 276.598 167.415 276.678 167.339Z" fill="#C7C7C7"/>
<path d="M230.769 157.871C231.984 152.305 236.407 148.351 238.797 143.343C240.091 140.631 240.995 137.69 242.806 135.257C242.855 135.191 242.968 135.274 242.922 135.343C241.457 137.515 240.75 140.005 239.786 142.411C238.807 144.857 237.402 147.052 235.965 149.248C233.353 153.238 230.218 157.957 231.503 162.966C232.096 165.279 233.783 167.72 236.277 168.175C236.373 168.193 236.335 168.351 236.239 168.323C234.199 167.736 232.568 166.467 231.549 164.589C230.427 162.522 230.272 160.144 230.769 157.871Z" fill="#C7C7C7"/>
<path d="M230.712 159.339C230.348 157.334 230.515 155.235 231.38 153.374C232.239 151.526 233.753 150.088 235.285 148.791C237.051 147.295 238.928 145.854 239.911 143.696C239.952 143.606 240.084 143.681 240.045 143.77C238.501 147.32 235.013 149.297 232.855 152.384C230.388 155.913 230.925 160.578 233.299 164.013C234.76 166.127 236.805 167.77 239.053 168.982C239.092 169.003 239.059 169.062 239.02 169.042C235.129 167.083 231.523 163.806 230.712 159.339Z" fill="#C7C7C7"/>
<path d="M259.179 230.234L258.949 218.931C258.949 218.931 251.343 216.503 251.44 206.709C251.485 202.201 255.767 178.683 260.852 171.721C265.621 165.19 273.286 166.784 277.893 169.052C286.914 173.492 303.338 193.249 319.601 219.62L259.179 230.234Z" fill="#EBEBEB"/>
<path d="M273.04 213.688C270.843 214.038 268.639 214.496 266.499 215.308C265.434 215.711 264.39 216.183 263.347 216.688C262.827 216.94 262.305 217.166 261.779 217.388C261.239 217.617 260.66 217.831 260.094 217.863C260.043 217.866 260.045 217.974 260.096 217.976C260.646 217.991 261.173 218.002 261.721 217.913C262.242 217.828 262.76 217.662 263.268 217.477C264.351 217.082 265.42 216.616 266.499 216.206C268.677 215.378 270.854 214.551 273.069 213.948C273.171 213.919 273.144 213.671 273.04 213.688Z" fill="#263238"/>
<path d="M278.511 216.409C276.701 216.168 274.855 216.048 273.036 216.102C272.121 216.129 271.215 216.232 270.305 216.369C269.871 216.434 269.437 216.511 269.005 216.595C268.529 216.687 268.061 216.872 267.584 216.954C267.534 216.963 267.535 217.073 267.586 217.067C268.037 217.008 268.497 217.056 268.95 217.035C269.405 217.014 269.86 216.987 270.315 216.966C271.226 216.923 272.137 216.894 273.048 216.839C274.872 216.728 276.688 216.644 278.514 216.623C278.614 216.622 278.605 216.422 278.511 216.409Z" fill="#263238"/>
<path d="M271.158 167.074C271.158 167.074 280.427 219.213 281.857 232.273C282.888 241.692 285.139 275.357 284.219 286.051L337.132 267.643C337.132 267.643 333.366 239.234 320.52 219.072C307.561 198.732 291.847 179.433 286.037 174.438C276.059 165.861 271.158 167.074 271.158 167.074Z" fill="#FFC727"/>
<g opacity="0.1">
<path d="M289.726 241.03C291.604 241.711 293.49 242.441 295.314 243.259C297.013 244.021 298.709 244.79 300.444 245.467C302.142 246.129 303.869 246.715 305.645 247.128C307.468 247.552 309.274 247.712 311.141 247.694C311.207 247.693 311.24 247.796 311.167 247.816C305.49 249.307 299.473 246.632 294.521 244.089C292.848 243.23 291.196 242.29 289.584 241.323C289.403 241.215 289.529 240.959 289.726 241.03Z" fill="black"/>
<path d="M290.462 243.384C292.857 244.961 295.303 246.39 297.964 247.475C300.561 248.534 303.299 249.239 306.07 249.657C307.678 249.899 309.315 250.043 310.939 250.118C311.039 250.123 311.053 250.258 310.951 250.274C305.223 251.216 299.114 249.655 294.249 246.566C292.848 245.676 291.529 244.681 290.38 243.479C290.324 243.42 290.395 243.34 290.462 243.384Z" fill="black"/>
<path d="M291.391 246.388C292.459 250.243 294.851 256.747 295.522 258.109C296.135 259.352 296.83 260.592 297.89 261.513C299.874 263.236 302.804 264.063 305.377 264.281C307.792 264.485 310.657 264.045 312.243 262.019C313.201 260.795 312.982 259.189 312.841 257.742C312.668 255.956 312.392 254.176 311.941 252.439C311.921 252.362 312.035 252.318 312.059 252.396C312.534 253.957 312.979 255.525 313.313 257.123C313.613 258.558 314.023 260.137 313.547 261.577C312.697 264.151 309.864 265.323 307.364 265.54C305.817 265.674 304.241 265.46 302.745 265.069C301.338 264.702 299.928 264.206 298.68 263.45C297.437 262.697 296.539 261.627 295.655 260.47C294.314 258.713 291.693 250.233 291.303 246.421C291.296 246.359 291.375 246.33 291.391 246.388Z" fill="black"/>
</g>
<path d="M270.801 168.791C270.963 169.93 268.708 178.814 263.547 180.068C260.863 180.72 258.904 172.295 258.904 172.295L258.519 171.722L253.131 163.697L260.878 153.052L262.029 151.594C262.029 151.594 263.358 153.887 264.985 156.759C265.061 156.892 265.137 157.025 265.217 157.168C265.313 157.328 265.406 157.478 265.489 157.632C265.737 158.058 265.989 158.494 266.231 158.933C266.416 159.267 266.598 159.59 266.78 159.948C266.972 160.302 267.15 160.649 267.342 161.003C269.157 164.533 270.725 168.31 270.801 168.791Z" fill="#EB9481"/>
<path d="M264.983 156.759C265.188 164.736 260.709 169.763 258.517 171.723L253.129 163.698L260.876 153.053L262.027 151.595C262.027 151.595 263.357 153.887 264.983 156.759Z" fill="#263238"/>
<path d="M237.64 145.609C232.471 161.767 241.565 166.687 245.051 167.798C248.215 168.806 259.117 171.837 265.927 156.3C272.737 140.763 266.859 133.252 259.745 130.563C252.63 127.874 242.809 129.451 237.64 145.609Z" fill="#EB9481"/>
<path d="M239.957 145.654C240.334 145.518 240.705 145.456 241.091 145.36C241.528 145.252 241.864 145.121 242.305 145.281C242.542 145.367 242.694 145.704 242.632 145.941C242.488 146.495 241.987 146.76 241.467 146.911C240.902 147.075 240.425 147.057 239.885 146.829C239.361 146.607 239.459 145.833 239.957 145.654Z" fill="#263238"/>
<path d="M252.1 147.491C251.769 147.264 251.426 147.11 251.076 146.92C250.681 146.705 250.389 146.493 249.921 146.536C249.67 146.559 249.439 146.847 249.438 147.092C249.437 147.664 249.854 148.048 250.319 148.326C250.824 148.628 251.291 148.732 251.871 148.648C252.435 148.564 252.536 147.79 252.1 147.491Z" fill="#263238"/>
<path d="M248.924 149.82C248.943 149.779 248.999 149.895 248.986 149.94C248.676 151.054 248.509 152.381 249.433 153.002C249.462 153.021 249.445 153.076 249.408 153.062C248.212 152.586 248.452 150.826 248.924 149.82Z" fill="#263238"/>
<path d="M250.212 148.893C252.051 149.197 251.308 152.852 249.605 152.57C247.929 152.294 248.671 148.638 250.212 148.893Z" fill="#263238"/>
<path d="M250.891 149.232C251.168 149.503 251.407 149.932 251.784 150.048C252.22 150.183 252.634 149.868 253 149.559C253.038 149.527 253.063 149.565 253.054 149.614C252.922 150.316 252.507 150.98 251.735 150.932C251.031 150.888 250.665 150.168 250.633 149.428C250.627 149.292 250.779 149.122 250.891 149.232Z" fill="#263238"/>
<path d="M242.348 148.627C242.347 148.582 242.249 148.664 242.242 148.711C242.067 149.854 241.673 151.133 240.575 151.318C240.541 151.324 240.534 151.381 240.573 151.383C241.859 151.441 242.364 149.738 242.348 148.627Z" fill="#263238"/>
<path d="M241.555 147.252C239.754 146.773 238.928 150.41 240.596 150.854C242.238 151.291 243.064 147.654 241.555 147.252Z" fill="#263238"/>
<path d="M240.798 147.282C240.434 147.415 240.04 147.708 239.648 147.659C239.195 147.602 238.947 147.145 238.74 146.713C238.719 146.668 238.68 146.693 238.668 146.741C238.499 147.435 238.605 148.211 239.328 148.485C239.988 148.735 240.618 148.229 240.95 147.567C241.014 147.445 240.944 147.228 240.798 147.282Z" fill="#263238"/>
<path d="M248.282 159.287C247.993 159.544 247.699 159.903 247.279 159.919C246.876 159.933 246.413 159.73 246.052 159.569C246.016 159.553 245.977 159.59 245.999 159.626C246.277 160.083 246.894 160.39 247.434 160.322C247.961 160.256 248.241 159.816 248.39 159.345C248.412 159.279 248.324 159.25 248.282 159.287Z" fill="#263238"/>
<path d="M243.479 153.933C243.479 153.933 243.062 155.644 242.978 156.463C242.971 156.54 243.165 156.596 243.441 156.641C243.454 156.647 243.461 156.653 243.473 156.645C244.896 157.018 246.403 156.668 247.401 155.577C247.465 155.503 247.37 155.408 247.291 155.451C246.131 156.133 244.917 156.216 243.633 156.106C243.598 155.874 244.445 153.199 244.316 153.176C243.872 153.092 242.96 153.307 242.414 153.408C243.179 149.818 244.514 146.381 245.222 142.795C245.245 142.667 245.064 142.609 245.014 142.72C243.361 146.224 242.389 150.336 241.504 154.023C241.388 154.482 243.136 154.04 243.479 153.933Z" fill="#263238"/>
<g opacity="0.2">
<path d="M247.389 142.033C246.766 141.982 246.141 141.96 245.529 141.823C244.91 141.685 244.326 141.426 243.703 141.301C242.522 141.065 241.358 141.214 240.134 141.4C240.03 141.416 240.035 141.483 240.139 141.47C241.392 141.319 242.656 141.27 243.876 141.652C244.899 141.973 245.828 142.232 246.906 142.273C249.281 142.362 251.598 142.753 253.531 144.236C253.543 144.246 253.559 144.228 253.547 144.218C251.808 142.822 249.581 142.213 247.389 142.033Z" fill="black"/>
<path d="M247.733 140.395C247.142 140.347 246.55 140.326 245.969 140.196C245.382 140.065 244.828 139.82 244.237 139.701C243.117 139.477 242.013 139.619 240.853 139.795C240.755 139.81 240.759 139.873 240.858 139.861C242.046 139.718 243.244 139.671 244.401 140.034C245.371 140.338 246.252 140.584 247.274 140.622C249.525 140.707 251.723 141.077 253.556 142.483C253.568 142.492 253.583 142.475 253.571 142.466C251.922 141.142 249.811 140.565 247.733 140.395Z" fill="black"/>
</g>
<path opacity="0.2" d="M247.481 154.072C247.238 154.836 247.288 155.672 247.462 156.458C247.637 157.252 247.996 157.994 248.431 158.673C248.865 159.358 249.426 159.945 250.015 160.485C250.321 160.742 250.639 160.984 250.952 161.229C251.293 161.437 251.624 161.657 251.969 161.851C251.384 161.312 250.799 160.794 250.262 160.229C249.748 159.646 249.221 159.077 248.818 158.42C248.395 157.78 248.048 157.092 247.804 156.364C247.571 155.635 247.429 154.863 247.481 154.072Z" fill="black"/>
<path opacity="0.2" d="M243.439 153.987C243.037 154.989 242.615 155.949 242.064 156.827C241.788 157.265 241.47 157.668 241.122 158.05C240.761 158.42 240.344 158.727 239.883 159.015C240.415 158.906 240.921 158.656 241.361 158.314C241.795 157.967 242.154 157.535 242.455 157.073C242.742 156.602 242.978 156.104 243.139 155.583C243.302 155.064 243.424 154.531 243.439 153.987Z" fill="black"/>
<path d="M263.679 156.918C260.56 156.496 261.628 149.376 261.628 149.376C261.628 149.376 249.351 143.772 251.049 133.012C251.049 133.012 247.068 139.098 239.529 140.325C239.529 140.325 243.036 128.967 252.729 129.161C252.729 129.161 265.116 128.059 269.077 138.71C273.038 149.361 265.773 157.202 263.679 156.918Z" fill="#C7C7C7"/>
<path d="M251.211 132.226C250.613 133.777 250.41 135.479 250.512 137.158C250.613 138.837 251.033 140.522 251.813 142.032C251.977 142.425 252.24 142.764 252.449 143.132L252.782 143.673C252.907 143.843 253.041 144.007 253.175 144.171C253.446 144.496 253.703 144.832 253.984 145.145C254.285 145.439 254.594 145.727 254.904 146.01C255.06 146.151 255.209 146.298 255.37 146.433L255.879 146.803L256.893 147.538C257.612 147.961 258.352 148.347 259.088 148.717C258.436 148.198 257.742 147.755 257.107 147.238L256.182 146.436L255.72 146.038C255.575 145.895 255.443 145.74 255.305 145.592C255.032 145.292 254.758 144.995 254.476 144.705C254.219 144.394 253.989 144.062 253.745 143.743L253.381 143.262L253.073 142.744C252.88 142.393 252.634 142.069 252.484 141.696C251.73 140.275 251.317 138.7 251.084 137.104C250.972 136.303 250.938 135.489 250.961 134.674C250.969 133.857 251.061 133.041 251.211 132.226Z" fill="#C7C7C7"/>
<path d="M261.24 154.149C261.24 154.149 266.022 149.804 268.073 151.623C270.124 153.442 265.711 160.312 262.728 160.712C259.745 161.112 259.32 158.358 259.32 158.358L261.24 154.149Z" fill="#EB9481"/>
<path d="M266.759 153.561C266.805 153.567 266.799 153.631 266.757 153.638C264.651 153.982 263.23 155.54 262.098 157.233C262.834 156.649 263.703 156.436 264.505 157.335C264.547 157.382 264.481 157.45 264.429 157.427C263.677 157.078 263.076 157.086 262.399 157.598C261.919 157.96 261.533 158.468 261.144 158.924C261.015 159.076 260.724 158.913 260.835 158.729C260.843 158.716 260.853 158.702 260.861 158.688C261.371 156.217 264.062 153.21 266.759 153.561Z" fill="#263238"/>
<path d="M263.643 160.306C263.511 161.035 262.814 161.519 262.085 161.387C261.356 161.255 260.872 160.558 261.004 159.829C261.136 159.1 261.833 158.616 262.562 158.748C263.29 158.879 263.774 159.577 263.643 160.306Z" fill="#FFC727"/>
<path d="M258.717 172.027L262.8 178.698L270.354 167.078L273.688 169.43C273.688 169.43 266.904 186.674 266.683 186.019L262.662 180.109L259.122 184.863L257.881 174.52L258.717 172.027Z" fill="#EBEBEB"/>
<path d="M257.811 174.646C257.802 174.579 257.909 174.521 257.931 174.598C258.534 176.642 259.347 184.529 259.351 184.521C259.487 184.285 262.609 180.06 262.662 180.109C263.57 180.955 266.506 185.159 266.763 185.543C267.599 182.839 272.25 172.907 273.377 170.267C273.409 170.191 273.522 170.219 273.502 170.303C272.864 173.097 267.04 186.608 266.922 186.603C266.861 186.68 263.211 181.472 262.615 180.477C262.157 181.445 259.081 185.723 259.001 185.454C258.455 183.641 258.056 176.519 257.811 174.646Z" fill="#263238"/>
<path d="M210.305 463.918H217.532V263.995C217.532 257.785 222.585 252.732 228.795 252.732C235.005 252.732 240.058 257.785 240.058 263.995V276.093H247.285V263.995C247.285 253.8 238.991 245.505 228.795 245.505C218.599 245.505 210.305 253.8 210.305 263.995V463.918Z" fill="#FFC727"/>
<path opacity="0.3" d="M210.305 463.918H217.532V263.995C217.532 257.785 222.585 252.732 228.795 252.732C235.005 252.732 240.058 257.785 240.058 263.995V276.093H247.285V263.995C247.285 253.8 238.991 245.505 228.795 245.505C218.599 245.505 210.305 253.8 210.305 263.995V463.918Z" fill="black"/>
<path d="M208.867 463.917H218.967L218.147 452.724H209.792L208.867 463.917Z" fill="#FFC727"/>
<path d="M283.189 177.825C287.55 195.421 290.207 228.367 287.479 234.238C285.064 239.436 264.041 248.416 254.397 251.62C250.788 252.819 242.955 224.543 246.839 223.339C251.499 221.894 265.116 217.137 265.574 215.937C266.077 214.619 268.814 192.395 271.909 178.348C274.715 165.615 281.539 171.169 283.189 177.825Z" fill="#EB9481"/>
<path d="M233.983 226.286C225.674 229.447 224.027 231.534 215.598 230.477C210.067 229.784 207.251 233.018 212.008 236.332C219.788 241.752 231.364 239.925 235.195 238.136L233.983 226.286Z" fill="#EB9481"/>
<path d="M258.564 222.465C258.564 222.465 247.248 222.408 238.061 224.901C231.708 226.624 218.304 231.915 213.098 250.862C211.863 255.356 213.291 262.635 217.973 256.028C221.299 251.334 221.99 247.353 224.422 244.976C224.422 244.976 227.337 254.02 231.887 255.081C233.92 255.555 239.501 256.72 243.976 257.007C243.976 257.007 244.3 256.049 244.539 254.777C244.539 254.777 248.883 255.367 254.396 251.621L258.564 222.465Z" fill="#EB9481"/>
<path d="M232.259 227.514C230.344 230.385 226.389 236.536 224.903 242.694C223.253 249.533 221.917 263.154 226.979 264.32C230.69 265.175 231.657 260.02 231.657 260.02C231.657 260.02 232.292 265.766 235.813 265.805C239.022 265.841 239.531 261.808 239.531 261.808C239.531 261.808 240.515 265.227 243.613 264.666C247.339 263.991 244.665 256.936 247.848 252.992C248.563 252.105 232.259 227.514 232.259 227.514Z" fill="#EB9481"/>
<path d="M232.42 243.232C231.062 246.226 229.723 253.819 231.548 259.921C231.589 260.059 231.716 260.102 231.705 259.968C231.122 252.823 231.958 246.086 232.484 243.248C232.491 243.209 232.435 243.198 232.42 243.232Z" fill="#263238"/>
<path d="M239.276 245.098C238.37 247.802 237.339 255.69 239.401 261.809C239.447 261.946 239.577 261.98 239.561 261.847C238.644 254.407 238.986 247.975 239.342 245.11C239.346 245.072 239.287 245.064 239.276 245.098Z" fill="#263238"/>
<path d="M232.507 226.886C228.426 228.721 224.234 230.905 219.648 230.98C216.772 230.904 213.569 230.115 210.86 231.199C207.906 233.192 212.151 236.502 214.096 237.486C215.397 238.209 216.793 238.791 218.258 239.122C216.776 238.872 215.339 238.366 213.981 237.706C211.677 236.685 207.246 233.078 210.644 230.798C213.498 229.577 216.703 230.41 219.677 230.528C224.14 230.469 228.374 228.45 232.507 226.886Z" fill="#263238"/>
<path d="M220.531 236.024C217.516 240.381 214.918 245.116 213.574 250.252C213.165 251.954 212.815 253.699 212.999 255.409C213.409 259.114 215.513 259.061 217.422 256.249C219.81 252.523 221.279 248.255 224.168 244.771L224.962 243.782C224.053 249.082 223.146 254.563 223.953 259.933C224.257 261.506 224.778 263.335 226.342 264.083C225.552 263.781 224.945 263.11 224.552 262.367C222.254 257.017 223.353 250.529 224.101 244.916L224.677 245.18C222.5 247.94 221.002 251.162 219.411 254.347C218.553 255.962 217.633 257.609 216.027 258.642C213.748 260.007 212.425 257.397 212.338 255.475C212.194 248.302 216.369 241.567 220.531 236.024Z" fill="#263238"/>
<path d="M258.898 254.79L247.352 222.261L264.654 215.393C266.405 204.551 269.913 182.873 272.25 175.558C274.992 166.977 281.129 168.32 283.66 177.142C289.448 197.322 290.905 231.297 288.663 236.042C285.451 242.842 258.898 254.79 258.898 254.79Z" fill="#FFC727"/>
<path d="M262.774 248.887C262.436 246.751 259.597 238.278 258.867 236.175C258.152 234.115 254.922 225.738 254.165 223.58C254.124 223.463 253.944 223.486 253.984 223.607C254.697 225.755 257.262 234.353 257.972 236.462C258.684 238.577 261.616 246.991 262.662 248.92C262.699 248.986 262.785 248.955 262.774 248.887Z" fill="#263238"/>
<path d="M270.072 249.306C275.279 246.285 280.491 243.189 285.167 239.434C286.299 238.48 287.471 237.476 288.206 236.263C289.738 232.141 289.193 227.385 289.186 223.02C288.63 210.993 287.232 199.013 285.979 187.034C287.09 192.965 287.947 198.94 288.682 204.93C289.348 210.927 289.965 216.94 290.114 222.989C290.084 227.519 290.567 232.27 288.742 236.572C285.978 240.297 281.775 242.45 277.974 244.901C275.384 246.449 272.751 247.923 270.072 249.306Z" fill="#263238"/>
<path d="M286.75 192.136C286.667 191.008 286.83 189.854 286.886 188.732C287.164 189.851 287.006 191.025 286.75 192.136Z" fill="#263238"/>
<path d="M268.793 192.169C267.57 199.691 266.904 207.585 265.197 215.022C265.124 215.276 265.023 215.631 264.741 215.759C259.074 218.339 253.232 220.259 247.365 222.294L247.387 222.248L247.645 223.083L247.318 222.272L247.305 222.24C250.561 220.866 253.839 219.549 257.107 218.212C258.756 217.481 263.019 215.948 264.408 215.09C266.217 207.536 266.92 199.723 268.793 192.169Z" fill="#263238"/>
<path d="M267.833 193.088C268.047 194.202 268.02 195.371 268.096 196.496C267.689 195.413 267.708 194.225 267.833 193.088Z" fill="#263238"/>
<path d="M382.452 288.126H293.975V322.236H382.452V288.126Z" fill="#A6A6A6"/>
<path d="M368.002 404.287H293.975V400.013H368.002C374.697 400.013 380.144 394.566 380.144 387.87V212.33C380.144 203.278 387.509 195.913 396.561 195.913H406.537V200.187H396.561C389.865 200.187 384.418 205.634 384.418 212.33V387.87C384.418 396.922 377.054 404.287 368.002 404.287Z" fill="#C7C7C7"/>
<path d="M296.112 448.486H291.838V267.358C291.838 259.208 298.469 252.577 306.619 252.577H382.281V256.851H306.619C300.825 256.851 296.112 261.564 296.112 267.358V448.486Z" fill="#C7C7C7"/>
<path d="M419.776 193.648H393.299V202.146H419.776V193.648Z" fill="#263238"/>
<path d="M375.595 461.804C342.628 461.804 315.807 428.329 315.807 387.182C315.807 346.035 342.627 312.559 375.595 312.559C408.562 312.559 435.383 346.035 435.383 387.182C435.383 428.329 408.563 461.804 375.595 461.804ZM375.595 318.543C345.927 318.543 321.791 349.334 321.791 387.182C321.791 425.029 345.928 455.821 375.595 455.821C405.263 455.821 429.399 425.03 429.399 387.182C429.4 349.334 405.263 318.543 375.595 318.543Z" fill="#263238"/>
<path d="M380.313 453.332C351.147 453.332 327.42 423.657 327.42 387.182C327.42 350.706 351.147 321.031 380.313 321.031C409.479 321.031 433.207 350.706 433.207 387.182C433.208 423.657 409.479 453.332 380.313 453.332ZM380.313 325.305C353.504 325.305 331.693 353.063 331.693 387.182C331.693 421.3 353.504 449.058 380.313 449.058C407.122 449.058 428.933 421.3 428.933 387.182C428.934 353.063 407.123 325.305 380.313 325.305Z" fill="#C7C7C7"/>
<path d="M378.29 397.997C383.026 397.997 386.865 393.155 386.865 387.182C386.865 381.209 383.026 376.367 378.29 376.367C373.554 376.367 369.715 381.209 369.715 387.182C369.715 393.155 373.554 397.997 378.29 397.997Z" fill="#C7C7C7"/>
<path d="M381.036 397.997C385.772 397.997 389.611 393.155 389.611 387.182C389.611 381.209 385.772 376.367 381.036 376.367C376.3 376.367 372.461 381.209 372.461 387.182C372.461 393.155 376.3 397.997 381.036 397.997Z" fill="#C7C7C7"/>
<path d="M293.042 463.853C299.202 463.853 304.197 457.554 304.197 449.784C304.197 442.014 299.202 435.715 293.042 435.715C286.881 435.715 281.887 442.014 281.887 449.784C281.887 457.554 286.881 463.853 293.042 463.853Z" fill="#C7C7C7"/>
<path d="M296.616 463.853C302.777 463.853 307.771 457.554 307.771 449.784C307.771 442.014 302.777 435.715 296.616 435.715C290.455 435.715 285.461 442.014 285.461 449.784C285.461 457.554 290.455 463.853 296.616 463.853Z" fill="#C7C7C7"/>
<path d="M195.266 112.252C195.266 123.862 204.682 133.279 216.292 133.279C220.984 133.279 225.316 131.74 228.818 129.133L239.119 131.763L234.831 122.172C236.424 119.215 237.319 115.832 237.319 112.253C237.319 100.643 227.902 91.2261 216.292 91.2261C204.683 91.2261 195.266 100.642 195.266 112.252Z" fill="white"/>
<path d="M195.266 112.252C195.353 129.344 214.952 139.184 228.606 128.846L228.739 128.745L228.907 128.787L239.228 131.336L238.719 131.941L234.392 122.367L234.296 122.154L234.408 121.942C240.732 110.369 234.136 95.3371 221.336 92.1431C208.353 88.5741 195.207 98.8161 195.266 112.252ZM195.266 112.252C195.269 94.3651 216.259 84.4981 230.069 95.8911C237.748 102.077 240.12 113.761 235.255 122.399L235.271 121.974L239.521 131.582L239.891 132.419L239.011 132.187L228.731 129.477L229.032 129.418C225.852 131.74 222.03 133.149 218.124 133.436C206.072 134.497 195.078 124.371 195.266 112.252Z" fill="#263238"/>
<path d="M205.272 116.955C210.264 123.561 216.227 126.46 216.227 126.46C216.227 126.46 222.185 123.561 227.177 116.955C231.033 111.852 230.843 103.862 225.326 102.134C219.225 100.223 216.226 109.404 216.226 109.404C216.226 109.404 213.184 100.162 207.122 102.134C201.625 103.922 201.416 111.852 205.272 116.955Z" fill="#FFC727"/>
<path d="M220.53 122.429L222.193 115.504L223.278 117.945H229.996V117.164H223.786L221.972 113.081L220.675 118.479L218.842 107.293L217.224 116.143L215.945 112.448L213.927 118.496L213.481 117.16H202.447V117.941H212.918L213.928 120.963L215.958 114.876L217.458 119.208L218.8 111.869L220.53 122.429Z" fill="white"/>
</svg>
