<svg width="500" height="500" viewBox="0 0 500 500" fill="none" xmlns="http://www.w3.org/2000/svg">
<path d="M87.5943 236.201L74.4693 236.48L67.8083 236.592C65.5823 236.639 63.3453 236.629 61.1133 236.647L60.6693 236.65L60.6673 236.201L60.6133 225.011L60.6113 224.509L61.1133 224.511L74.3533 224.574C78.7663 224.579 83.1803 224.687 87.5933 224.738L87.8693 224.741L87.8663 225.011C87.8473 226.91 87.7803 228.798 87.7353 230.665L87.5943 236.201ZM87.5943 236.201L87.4523 230.547C87.4073 228.684 87.3403 226.842 87.3213 225.011L87.5943 225.284C83.1813 225.335 78.7673 225.443 74.3543 225.448L61.1143 225.511L61.6133 225.012L61.5593 236.202L61.1133 235.756C63.2953 235.774 65.4713 235.764 67.6593 235.811L74.2383 235.923L87.5943 236.201Z" fill="#EBEBEB"/>
<path d="M72.8228 250.311L59.6978 250.59L53.0368 250.702C50.8108 250.749 48.5738 250.739 46.3418 250.757L45.8978 250.761L45.8958 250.312L45.8418 239.122L45.8398 238.62L46.3418 238.622L59.5818 238.685C63.9948 238.69 68.4088 238.798 72.8218 238.849L73.0978 238.852L73.0948 239.122C73.0758 241.021 73.0088 242.909 72.9638 244.776L72.8228 250.311ZM72.8228 250.311L72.6808 244.657C72.6358 242.794 72.5688 240.952 72.5498 239.121L72.8228 239.394C68.4098 239.445 63.9958 239.553 59.5828 239.558L46.3428 239.621L46.8418 239.122L46.7878 250.312L46.3418 249.866C48.5238 249.884 50.6998 249.874 52.8878 249.921L59.4668 250.033L72.8228 250.311Z" fill="#EBEBEB"/>
<path d="M453.661 250.311L440.536 250.59L433.875 250.702C431.649 250.749 429.412 250.739 427.18 250.757L426.736 250.761L426.734 250.312L426.68 239.122L426.678 238.62L427.18 238.622L440.42 238.685C444.833 238.69 449.247 238.798 453.66 238.849L453.936 238.852L453.933 239.122C453.914 241.021 453.847 242.909 453.802 244.776L453.661 250.311ZM453.661 250.311L453.519 244.657C453.474 242.794 453.407 240.952 453.388 239.121L453.661 239.394C449.248 239.445 444.834 239.553 440.421 239.558L427.181 239.621L427.68 239.122L427.626 250.312L427.18 249.866C429.362 249.884 431.538 249.874 433.726 249.921L440.305 250.033L453.661 250.311Z" fill="#EBEBEB"/>
<path d="M438.887 51.8451L425.762 52.1241L419.101 52.2361C416.875 52.2831 414.638 52.2731 412.406 52.2911L411.962 52.2951L411.96 51.8461L411.906 40.6561L411.904 40.1541L412.406 40.1561L425.646 40.2191C430.059 40.2241 434.473 40.3311 438.886 40.3831L439.162 40.3861L439.159 40.6561C439.14 42.5551 439.073 44.4431 439.028 46.3101L438.887 51.8451ZM438.887 51.8451L438.745 46.1911C438.7 44.3281 438.633 42.4861 438.614 40.6551L438.887 40.9281C434.474 40.9791 430.06 41.0871 425.647 41.0921L412.407 41.1551L412.906 40.6561L412.852 51.8461L412.406 51.4001C414.588 51.4181 416.764 51.4081 418.952 51.4551L425.531 51.5671L438.887 51.8451Z" fill="#EBEBEB"/>
<path d="M453.661 65.9552L440.536 66.2342L433.875 66.3462C431.649 66.3932 429.412 66.3832 427.18 66.4012L426.736 66.4052L426.734 65.9562L426.68 54.7662L426.678 54.2642L427.18 54.2662L440.42 54.3292C444.833 54.3342 449.247 54.4422 453.66 54.4932L453.936 54.4962L453.933 54.7662C453.914 56.6652 453.847 58.5532 453.802 60.4202L453.661 65.9552ZM453.661 65.9552L453.519 60.3012C453.474 58.4382 453.407 56.5962 453.388 54.7652L453.661 55.0382C449.248 55.0892 444.834 55.1972 440.421 55.2022L427.181 55.2652L427.68 54.7662L427.626 65.9562L427.18 65.5102C429.362 65.5282 431.538 65.5182 433.726 65.5652L440.305 65.6772L453.661 65.9552Z" fill="#EBEBEB"/>
<path d="M218.905 135.103L205.78 135.382L199.119 135.494C196.893 135.541 194.656 135.531 192.424 135.549L191.98 135.553L191.978 135.104L191.924 123.914L191.922 123.412L192.424 123.414L205.664 123.477C210.077 123.482 214.491 123.59 218.904 123.641L219.18 123.644L219.177 123.914C219.158 125.813 219.091 127.701 219.046 129.568L218.905 135.103ZM218.905 135.103L218.763 129.449C218.718 127.586 218.651 125.744 218.632 123.913L218.905 124.186C214.492 124.237 210.078 124.345 205.665 124.35L192.425 124.413L192.924 123.914L192.87 135.104L192.424 134.658C194.606 134.676 196.782 134.666 198.97 134.713L205.549 134.825L218.905 135.103Z" fill="#EBEBEB"/>
<path d="M233.678 149.212L220.553 149.491L213.892 149.603C211.666 149.65 209.429 149.64 207.197 149.658L206.753 149.662L206.751 149.213L206.697 138.023L206.695 137.521L207.197 137.523L220.437 137.586C224.85 137.591 229.264 137.699 233.677 137.75L233.953 137.753L233.95 138.023C233.931 139.922 233.864 141.81 233.819 143.677L233.678 149.212ZM233.678 149.212L233.536 143.558C233.491 141.695 233.424 139.853 233.405 138.022L233.678 138.295C229.265 138.346 224.851 138.454 220.438 138.459L207.198 138.522L207.697 138.023L207.643 149.213L207.197 148.767C209.379 148.785 211.555 148.775 213.743 148.822L220.322 148.934L233.678 149.212Z" fill="#EBEBEB"/>
<path d="M203.913 149.212L190.788 149.491L184.127 149.603C181.901 149.65 179.664 149.64 177.432 149.658L176.988 149.662L176.986 149.213L176.932 138.023L176.93 137.521L177.432 137.523L190.672 137.586C195.086 137.591 199.499 137.699 203.912 137.75L204.188 137.753L204.185 138.023C204.166 139.922 204.099 141.81 204.054 143.677L203.913 149.212ZM203.913 149.212L203.771 143.558C203.726 141.695 203.659 139.853 203.64 138.022L203.913 138.295C199.5 138.346 195.086 138.454 190.673 138.459L177.433 138.522L177.932 138.023L177.878 149.213L177.432 148.767C179.614 148.785 181.79 148.775 183.978 148.822L190.557 148.934L203.913 149.212Z" fill="#EBEBEB"/>
<path d="M87.5943 51.8451L74.4693 52.1241L67.8083 52.2361C65.5823 52.2831 63.3453 52.2731 61.1133 52.2911L60.6693 52.2951L60.6673 51.8461L60.6133 40.6561L60.6113 40.1541L61.1133 40.1561L74.3533 40.2191C78.7663 40.2241 83.1803 40.3311 87.5933 40.3831L87.8693 40.3861L87.8663 40.6561C87.8473 42.5551 87.7803 44.4431 87.7353 46.3101L87.5943 51.8451ZM87.5943 51.8451L87.4523 46.1911C87.4073 44.3281 87.3403 42.4861 87.3213 40.6551L87.5943 40.9281C83.1813 40.9791 78.7673 41.0871 74.3543 41.0921L61.1143 41.1551L61.6133 40.6561L61.5593 51.8461L61.1133 51.4001C63.2953 51.4181 65.4713 51.4081 67.6593 51.4551L74.2383 51.5671L87.5943 51.8451Z" fill="#EBEBEB"/>
<path d="M419.642 217.757H321.855V399.626H419.642V217.757Z" fill="#EBEBEB"/>
<path d="M424.381 212.736H317.119V217.757H424.381V212.736Z" fill="#DBDBDB"/>
<path d="M458.115 212.736H424.381V217.757H458.115V212.736Z" fill="#EBEBEB"/>
<path d="M452.774 217.757H419.643V399.626H452.774V217.757Z" fill="#DBDBDB"/>
<path d="M408.993 291.624H332.506V334.747H408.993V291.624Z" stroke="#C7C7C7" stroke-width="0.25" stroke-miterlimit="10"/>
<path d="M374.979 304.178H360.041V312.764H374.979V304.178Z" fill="#C7C7C7"/>
<path d="M379.393 304.825H364.455V312.116H379.393V304.825Z" stroke="#C7C7C7" stroke-width="0.25" stroke-miterlimit="10"/>
<path d="M408.993 346.105H332.506V389.228H408.993V346.105Z" stroke="#C7C7C7" stroke-width="0.25" stroke-miterlimit="10"/>
<path d="M374.979 358.659H360.041V367.245H374.979V358.659Z" fill="#C7C7C7"/>
<path d="M379.393 359.306H364.455V366.597H379.393V359.306Z" stroke="#C7C7C7" stroke-width="0.25" stroke-miterlimit="10"/>
<path d="M408.993 237.144H332.506V280.267H408.993V237.144Z" fill="#A6A6A6"/>
<path d="M401.544 226.101H343.318V268.308H401.544V226.101Z" fill="#C7C7C7"/>
<path d="M363.891 221.73H343.318V226.101H365.073L363.891 221.73Z" fill="#C7C7C7"/>
<path d="M401.391 268.308H343.165L338.674 229.603H396.9L401.391 268.308Z" fill="#A6A6A6"/>
<path d="M358.782 225.594H338.209L338.674 229.603H360.429L358.782 225.594Z" fill="#A6A6A6"/>
<path d="M372.145 237.144H295.658V280.267H372.145V237.144Z" fill="#EBEBEB" stroke="#C7C7C7" stroke-width="0.25" stroke-miterlimit="10"/>
<path d="M338.131 249.697H323.193V258.283H338.131V249.697Z" fill="#C7C7C7"/>
<path d="M342.545 250.345H327.607V257.636H342.545V250.345Z" stroke="#C7C7C7" stroke-width="0.25" stroke-miterlimit="10"/>
<path d="M408.993 243.606H372.332V280.267H408.993V243.606Z" fill="#DBDBDB"/>
<path d="M52.0554 121.721L183.609 121.721V113.911L52.0554 113.911V121.721Z" fill="#EBEBEB"/>
<path d="M173.624 121.724H165.809V147.559H173.624V121.724Z" fill="#EBEBEB"/>
<path d="M173.624 121.724H165.809V129.709H173.624V121.724Z" fill="#DBDBDB"/>
<path d="M69.8502 121.724H62.0352V147.559H69.8502V121.724Z" fill="#EBEBEB"/>
<path d="M69.8502 121.724H62.0352V129.709H69.8502V121.724Z" fill="#DBDBDB"/>
<path d="M150.357 113.911V64.1282H137.82V113.911H150.357Z" fill="#C7C7C7"/>
<path d="M150.359 66.9368V61.4668H137.822V66.9368H150.359Z" fill="#DBDBDB"/>
<path d="M150.359 75.9768V73.9468H137.822V75.9768H150.359Z" fill="#DBDBDB"/>
<path d="M150.359 107.381V101.911H136.26V107.381H150.359Z" fill="#DBDBDB"/>
<path d="M137.822 113.912V55.8386H129.06V113.912H137.822Z" fill="#DBDBDB"/>
<path d="M136.107 83.6348V61.2988H130.849V83.6348H136.107Z" fill="#EBEBEB"/>
<path d="M72.884 113.927L114.186 73.1016L108.026 66.87L66.7243 107.695L72.884 113.927Z" fill="#C7C7C7"/>
<path d="M81.3256 103.08L97.2109 87.3777L93.5146 83.6382L77.6292 99.3404L81.3256 103.08Z" fill="#DBDBDB"/>
<path d="M129.066 113.922V69.8105H114.187L114.187 113.922H129.066Z" fill="#A6A6A6"/>
<path d="M129.066 109.245V105.134H114.187V109.245H129.066Z" fill="#C7C7C7"/>
<path d="M129.066 102.435V100.841H114.187V102.435H129.066Z" fill="#C7C7C7"/>
<path d="M160.637 113.922V72.4666H150.359V113.922H160.637Z" fill="#A6A6A6"/>
<path d="M160.637 109.528V105.664H150.359V109.528H160.637Z" fill="#C7C7C7"/>
<path d="M160.639 84.876V81.012H150.361V84.876H160.639Z" fill="#C7C7C7"/>
<path d="M160.637 89.0192V87.5212H150.359V89.0192H160.637Z" fill="#C7C7C7"/>
<path d="M235.313 142.413L291.052 131.174L281.911 92.9209L226.172 104.16L235.313 142.413Z" fill="#DBDBDB"/>
<path d="M261.269 92.931L280.963 88.96L281.91 92.921L261.084 97.121L261.269 92.931Z" fill="#DBDBDB"/>
<path d="M235.37 142.402L291.109 131.162L286.432 95.3359L230.693 106.576L235.37 142.402Z" fill="#EBEBEB"/>
<path d="M266.252 95.597L285.946 91.626L286.431 95.336L265.605 99.536L266.252 95.597Z" fill="#EBEBEB"/>
<path d="M356.949 177.274L419.794 207.067L438.842 162.892L375.997 133.099L356.949 177.274Z" fill="#DBDBDB"/>
<path d="M418.61 147.79L440.815 158.317L438.842 162.892L415.361 151.76L418.61 147.79Z" fill="#DBDBDB"/>
<path d="M357.014 177.305L419.86 207.098L441.505 168.569L378.66 138.775L357.014 177.305Z" fill="#EBEBEB"/>
<path d="M421.541 154.052L443.746 164.579L441.504 168.569L418.023 157.437L421.541 154.052Z" fill="#EBEBEB"/>
<path d="M41.4512 399.516L93.5882 399.273L145.725 399.185L249.999 399.017L354.273 399.184L406.41 399.272L458.547 399.516L406.41 399.761L354.273 399.849L249.999 400.015L145.725 399.848L93.5882 399.759L41.4512 399.516Z" fill="#263238"/>
<path d="M250 472.805C351.938 472.805 434.576 466.646 434.576 459.048C434.576 451.45 351.938 445.291 250 445.291C148.061 445.291 65.4238 451.45 65.4238 459.048C65.4238 466.646 148.061 472.805 250 472.805Z" fill="#EBEBEB"/>
<path d="M411.899 320.426C405.261 306.781 393.644 299.774 380.553 303.646C367.461 307.518 365.433 325.773 375.206 330.383C384.979 334.993 394.752 321.532 399.914 318.766C405.077 316 411.899 320.426 411.899 320.426Z" fill="#FFC727"/>
<path d="M418.324 356.747C418.29 355.102 418.226 353.458 418.168 351.814C418.052 348.53 417.941 345.246 417.819 341.962C417.596 335.956 416.949 330.058 414.461 324.522C412.229 319.556 408.613 315.208 403.931 312.386C402.187 311.335 400.323 310.53 398.396 309.998C396.777 308.185 394.246 307.011 391.936 306.449C388.909 305.713 385.797 305.874 382.727 306.218C382.617 306.23 382.621 306.405 382.731 306.391C385.638 306.035 388.619 306.211 391.444 307.011C392.655 307.354 393.837 307.793 394.954 308.376C395.677 308.753 396.336 309.198 396.984 309.664C394.366 309.137 391.658 309.121 388.983 309.741C388.031 309.962 387.109 310.286 386.207 310.657C385.506 310.475 384.722 310.457 384.026 310.471C383.072 310.492 382.116 310.644 381.191 310.875C379.283 311.351 377.501 312.254 375.805 313.228C375.708 313.284 375.799 313.429 375.896 313.375C377.547 312.466 379.314 311.81 381.152 311.394C382.044 311.192 382.941 311.06 383.853 310.998C384.356 310.964 384.858 310.988 385.358 311.01C381.675 312.747 378.578 315.703 376.891 319.445C376.845 319.546 376.998 319.63 377.043 319.529C379.006 315.092 383.193 312.062 387.83 310.881C388.119 310.807 388.414 310.768 388.705 310.711C388.603 311.134 388.62 311.62 388.566 312.031C388.478 312.695 388.367 313.356 388.233 314.012C387.958 315.361 387.607 316.701 387.168 318.006C386.723 319.329 386.2 320.627 385.582 321.879C384.952 323.156 384.289 324.519 383.369 325.616C383.289 325.711 383.44 325.824 383.508 325.718C384.294 324.486 385.209 323.351 385.927 322.07C386.613 320.846 387.212 319.575 387.702 318.261C388.199 316.929 388.596 315.567 388.869 314.171C389.013 313.436 389.127 312.695 389.213 311.951C389.263 311.52 389.365 311.035 389.296 310.597C390.832 310.355 392.395 310.34 393.945 310.502C393.364 313.756 392.74 317.149 390.916 319.976C390.856 320.069 391.015 320.159 391.068 320.06C391.882 318.528 392.714 317.038 393.317 315.405C393.887 313.861 394.327 312.207 394.439 310.556C397.138 310.908 399.778 311.814 402.125 313.134C406.657 315.683 410.095 319.681 412.358 324.329C414.816 329.377 415.803 334.809 416.151 340.375C416.587 347.349 416.678 354.366 417.374 361.32C417.42 361.774 418.14 361.927 418.228 361.414C418.492 359.877 418.357 358.3 418.324 356.747Z" fill="#263238"/>
<path d="M402.984 311.291C402.616 310.748 401.977 310.314 401.475 309.899C400.931 309.448 400.374 309.014 399.789 308.617C398.626 307.828 397.374 307.236 396.018 306.868C395.91 306.839 395.867 307.013 395.976 307.036C397.342 307.331 398.581 308.046 399.699 308.865C400.254 309.272 400.787 309.709 401.305 310.161C401.787 310.581 402.265 311.149 402.828 311.455C402.927 311.509 403.051 311.39 402.984 311.291Z" fill="#263238"/>
<path d="M381.796 316.237C380.73 317.533 379.647 318.842 378.752 320.265C377.853 321.694 377.077 323.171 376.487 324.755C376.47 324.802 376.544 324.828 376.567 324.786C378.177 321.891 379.794 318.909 381.922 316.356C381.993 316.271 381.867 316.151 381.796 316.237Z" fill="#263238"/>
<path d="M396.078 314.886C395.935 315.738 395.688 316.569 395.328 317.355C394.978 318.117 394.527 318.844 394.064 319.542C394.034 319.588 394.104 319.637 394.14 319.598C395.32 318.341 395.979 316.613 396.246 314.928C396.264 314.819 396.097 314.776 396.078 314.886Z" fill="#263238"/>
<path d="M417.398 320.762C417.398 320.762 426.797 308.949 444.939 313.136C462.183 317.116 470.141 348.735 452.716 352.518C435.291 356.301 438.364 327.041 432.013 322.075C427.355 318.432 420.654 319.215 417.398 320.762Z" fill="#FFC727"/>
<path d="M458.953 330.404C457.763 329.38 456.532 328.396 455.215 327.539C453.983 326.737 452.644 325.985 451.229 325.549C450.517 324.481 449.743 323.454 448.864 322.507C447.245 320.762 445.395 319.3 443.382 318.141C443.562 318.13 443.742 318.111 443.922 318.105C444.886 318.073 445.843 318.067 446.806 318.134C448.754 318.269 450.625 318.72 452.404 319.528C452.506 319.574 452.581 319.415 452.478 319.371C450.69 318.611 448.803 318.019 446.888 317.686C445.958 317.525 444.999 317.434 444.055 317.443C443.546 317.448 443.036 317.482 442.531 317.532C442.437 317.541 442.338 317.547 442.24 317.555C440.581 316.716 438.827 316.074 437.011 315.632C437.18 315.587 437.345 315.534 437.516 315.495C438.403 315.291 439.302 315.16 440.205 315.053C442.025 314.839 443.82 314.883 445.633 315.136C445.744 315.152 445.775 314.979 445.664 314.966C443.854 314.743 442 314.673 440.177 314.744C438.683 314.802 437.097 314.97 435.613 315.335C434.527 315.137 433.423 315.005 432.305 314.957C425.98 314.69 419.084 317.055 415.19 322.252C411.283 327.467 410.532 334.399 409.844 340.678C408.886 349.417 408.447 358.278 409.15 367.047C409.192 367.566 409.92 367.471 409.935 366.978C410.173 359.523 410.435 352.065 411.149 344.635C411.479 341.195 411.846 337.742 412.418 334.332C412.907 331.419 413.604 328.509 414.919 325.848C416.291 323.071 418.37 320.835 421.042 319.265C423.675 317.717 426.684 316.86 429.716 316.597C432.469 316.358 435.221 316.644 437.855 317.359C437.739 317.881 437.764 318.427 437.809 318.964C437.866 319.638 438.002 320.302 438.207 320.946C438.401 321.555 438.663 322.144 438.965 322.706C439.301 323.329 439.723 323.884 440.098 324.481C440.157 324.576 440.309 324.469 440.239 324.381C439.457 323.398 439.057 322.023 438.833 320.805C438.721 320.195 438.647 319.575 438.616 318.956C438.592 318.489 438.633 318.018 438.611 317.553C441.471 318.431 444.167 319.846 446.531 321.735C446.973 322.088 447.398 322.462 447.814 322.846C447.194 323.354 446.694 324.12 446.276 324.735C445.657 325.648 445.111 326.6 444.663 327.608C443.777 329.601 443.307 331.769 442.985 333.919C442.968 334.029 443.14 334.061 443.155 333.95C443.448 331.826 444.228 329.861 445.219 327.97C445.699 327.055 446.233 326.159 446.826 325.313C447.132 324.877 447.449 324.445 447.779 324.027C447.957 323.802 448.151 323.574 448.32 323.332C450.444 325.41 452.201 327.88 453.465 330.578C453.454 330.585 453.442 330.584 453.431 330.594C452.535 331.428 451.899 332.589 451.305 333.649C450.653 334.812 450.089 336.037 449.606 337.28C448.675 339.68 448.062 342.184 447.441 344.678C447.414 344.786 447.59 344.819 447.612 344.709C448.113 342.166 449.076 339.758 450.185 337.423C450.726 336.285 451.299 335.167 451.902 334.061C452.469 333.022 453.163 331.992 453.606 330.89C454.803 333.54 455.532 336.395 455.676 339.293C455.682 339.404 455.858 339.389 455.849 339.278C455.488 334.758 454.145 330.258 451.776 326.382C452.886 326.855 453.999 327.311 455.066 327.886C456.425 328.619 457.702 329.488 458.839 330.536C458.923 330.612 459.037 330.477 458.953 330.404Z" fill="#263238"/>
<path d="M445.648 331.074C445.104 332.865 444.419 334.604 443.928 336.414C443.457 338.153 443.129 339.942 443.127 341.748C443.127 341.797 443.206 341.8 443.213 341.752C443.745 338.167 444.532 334.526 445.812 331.127C445.856 331.01 445.685 330.953 445.648 331.074Z" fill="#263238"/>
<path d="M457.141 326.63C456.419 325.949 455.629 325.359 454.739 324.914C453.854 324.472 452.9 324.215 451.958 323.93C451.853 323.898 451.816 324.076 451.927 324.1C452.873 324.312 453.751 324.75 454.603 325.202C455.454 325.653 456.291 326.147 457.069 326.716C457.127 326.759 457.194 326.68 457.141 326.63Z" fill="#263238"/>
<path d="M426.334 304.984C426.334 304.984 428.068 283.761 443.847 276.882C457.023 271.138 464.565 285.943 455.251 295.006C447.716 302.337 435.633 299.028 426.334 304.984Z" fill="#FFC727"/>
<path d="M452.332 280.993C449.943 282.012 447.575 283.023 445.315 284.315C443.422 285.398 441.611 286.621 439.867 287.931C440.129 287.395 440.357 286.833 440.621 286.309C441.033 285.489 441.474 284.687 441.962 283.91C442.965 282.312 444.07 280.816 445.437 279.511C445.518 279.434 445.39 279.311 445.311 279.392C444.008 280.727 442.724 282.12 441.653 283.651C441.112 284.423 440.604 285.224 440.154 286.052C439.743 286.807 439.277 287.644 439.094 288.496C439.037 288.54 438.976 288.578 438.92 288.623C436.152 290.804 433.652 293.302 431.384 295.996C431.428 295.787 431.472 295.579 431.526 295.388C431.822 294.352 432.141 293.326 432.482 292.304C433.198 290.155 434.082 288.01 435.332 286.114C435.393 286.021 435.238 285.934 435.18 286.03C433.986 287.997 432.791 289.947 431.878 292.066C431.441 293.081 431.073 294.136 430.788 295.203C430.618 295.838 430.343 296.607 430.275 297.335C429.587 298.205 428.912 299.084 428.274 299.991C421.501 309.633 418.101 321.297 417.285 332.966C417.042 336.447 416.992 339.933 417.109 343.421C417.226 346.91 417.353 350.481 418.033 353.913C418.076 354.132 418.42 354.067 418.415 353.852C418.336 350.786 418.019 347.732 417.96 344.663C417.901 341.591 418.008 338.512 418.257 335.449C418.751 329.347 419.909 323.245 421.698 317.39C423.527 311.404 426.23 305.64 429.721 300.413C430.386 300.281 431.044 300.101 431.698 299.932C432.486 299.729 433.275 299.527 434.058 299.308C435.565 298.886 437.06 298.408 438.458 297.695C438.556 297.645 438.464 297.491 438.367 297.548C436.99 298.354 435.46 298.777 433.906 299.087C432.671 299.333 431.389 299.494 430.152 299.777C431.296 298.11 432.515 296.496 433.821 294.955C436.818 295.247 439.872 294.982 442.798 294.285C444.356 293.914 445.898 293.43 447.392 292.854C448.973 292.245 450.469 291.463 452.028 290.811C452.145 290.762 452.064 290.59 451.957 290.654C449.281 292.279 445.918 293.112 442.857 293.632C440.034 294.112 437.2 294.287 434.345 294.335C435.466 293.05 436.624 291.796 437.859 290.619C442.003 286.672 446.926 283.045 452.383 281.155C452.488 281.122 452.433 280.95 452.332 280.993Z" fill="#263238"/>
<path d="M439.491 281.058C438.786 281.953 438.126 282.9 437.557 283.887C436.954 284.934 436.514 286.023 436.165 287.178C436.154 287.216 436.211 287.238 436.229 287.203C436.755 286.162 437.2 285.082 437.733 284.046C438.261 283.02 438.881 282.066 439.617 281.177C439.688 281.091 439.559 280.971 439.491 281.058Z" fill="#263238"/>
<path d="M454.164 288.123C453.141 288.716 452.051 289.111 450.929 289.473C449.847 289.822 448.749 290.136 447.634 290.357C447.582 290.367 447.596 290.457 447.649 290.45C448.81 290.313 449.954 290.089 451.06 289.703C452.16 289.319 453.212 288.784 454.255 288.27C454.354 288.222 454.262 288.066 454.164 288.123Z" fill="#263238"/>
<path d="M414.068 301.165C413.969 302.082 411.681 293.46 398.341 285.806C386.225 278.854 371.765 260.774 383.644 249.352C393.231 240.131 418.493 260.23 414.068 301.165Z" fill="#FFC727"/>
<path d="M423.249 350.596C423.05 341.625 422.349 332.663 421.132 323.772C420.013 315.596 418.252 307.549 415.495 299.762C414.502 296.957 413.369 294.196 412.138 291.478C412.266 290.443 412.13 289.303 412.083 288.304C412.018 286.946 411.895 285.59 411.77 284.236C411.645 282.881 411.508 281.527 411.346 280.176C411.185 278.835 410.899 277.478 410.843 276.13C410.838 276.006 410.644 276.032 410.673 276.157C410.998 277.541 411.042 279.037 411.152 280.452C411.254 281.761 411.329 283.07 411.369 284.382C411.409 285.695 411.403 287.008 411.404 288.321C411.404 288.795 411.379 289.298 411.361 289.803C410.106 287.152 408.761 284.542 407.306 282C408.209 276.468 407.036 270.687 405.906 265.279C405.883 265.17 405.717 265.22 405.74 265.329C406.329 268.146 406.555 271.028 406.62 273.902C406.671 276.173 406.565 278.445 406.556 280.715C406.235 280.171 405.917 279.626 405.588 279.088C403.859 276.263 402.01 273.495 400.047 270.808C400.26 269.516 400.107 268.147 399.918 266.869C399.703 265.417 399.374 263.966 398.951 262.56C398.526 261.146 398.036 259.76 397.474 258.395C396.896 256.992 396.126 255.665 395.569 254.258C395.522 254.141 395.348 254.221 395.412 254.329C396.169 255.594 396.632 257.115 397.082 258.514C397.519 259.872 397.893 261.265 398.173 262.664C398.455 264.069 398.686 265.476 398.883 266.895C399.013 267.833 399.096 268.806 399.258 269.755C396.389 265.923 393.283 262.266 389.917 258.884C389.837 258.804 389.725 258.927 389.798 259.009C394.862 264.763 399.445 270.863 403.362 277.46C403.508 277.706 403.647 277.956 403.791 278.203C403.056 277.742 402.213 277.377 401.521 276.992C400.228 276.274 398.932 275.559 397.63 274.856C396.367 274.174 395.106 273.484 393.851 272.788C393.204 272.429 392.566 272.056 391.908 271.719C391.161 271.337 390.32 270.971 389.647 270.466C389.545 270.39 389.437 270.545 389.545 270.605C390.829 271.311 391.964 272.36 393.204 273.151C394.454 273.949 395.718 274.713 397.013 275.435C399.385 276.758 401.961 277.71 404.295 279.078C405.916 281.912 407.407 284.822 408.785 287.784C407.368 286.875 405.921 286.014 404.452 285.19C403.506 284.66 402.559 284.139 401.6 283.634C400.674 283.147 399.713 282.696 398.913 282.01C398.829 281.938 398.713 282.057 398.793 282.136C400.303 283.614 402.106 284.643 403.919 285.702C405.633 286.704 407.365 287.67 409.147 288.544C410.574 291.669 411.865 294.855 413.008 298.091C418.623 313.991 420.686 330.869 421.672 347.633C421.966 352.632 422.118 357.625 422.18 362.631C422.242 367.631 421.978 372.621 421.988 377.617C421.988 377.764 422.232 377.799 422.252 377.646C422.852 373.214 422.957 368.707 423.151 364.243C423.348 359.704 423.35 355.139 423.249 350.596Z" fill="#263238"/>
<path d="M399.013 278.616C396.562 277.61 394.227 276.253 391.924 274.95C389.607 273.639 387.358 272.228 385.193 270.677C385.157 270.651 385.113 270.712 385.147 270.739C387.197 272.382 389.351 273.917 391.611 275.259C393.958 276.653 396.435 277.68 398.93 278.768C399.031 278.812 399.115 278.658 399.013 278.616Z" fill="#263238"/>
<path d="M402.878 260.643C402.68 259.867 402.436 259.105 402.174 258.349C402.203 258.331 402.224 258.302 402.208 258.26C402.04 257.83 401.862 257.404 401.687 256.977C401.666 256.919 401.644 256.864 401.624 256.823C401.591 256.741 401.557 256.66 401.525 256.578C401.514 256.551 401.472 256.563 401.482 256.591C401.529 256.738 401.566 256.887 401.612 257.034C401.635 257.118 401.65 257.194 401.684 257.279C402.593 260.24 403.195 263.277 403.661 266.337C403.676 266.433 403.823 266.436 403.817 266.333C403.701 264.407 403.354 262.51 402.878 260.643Z" fill="#263238"/>
<path d="M437.345 353.82L436.394 365.104L433.48 399.516H402.263L399.349 365.104L398.398 353.82H437.345Z" fill="#37474F"/>
<path d="M437.345 353.82L436.394 365.104H399.349L398.398 353.82H437.345Z" fill="#263238"/>
<path d="M440.41 349.293H395.336V360.118H440.41V349.293Z" fill="#37474F"/>
<path d="M337.792 134.184C337.792 134.184 300.259 129.227 281.575 150.98C255.464 181.38 271.795 218.561 282.743 222.963C293.692 227.365 301.758 212.827 286.963 204.833C272.529 197.034 251.775 202.733 246.061 222.372C240.348 242.011 254.094 260.6 232.344 274.968" stroke="#263238" stroke-width="0.75" stroke-miterlimit="10" stroke-dasharray="4 5"/>
<path d="M339.454 90.1169C329.437 77.7609 328.086 67.4929 326.091 63.4139C323.435 57.9839 311.693 55.2739 303.799 50.4239C298.137 46.9459 291.971 39.3699 290.651 40.8699C289.943 41.6739 292.814 46.2469 292.814 46.2469C292.814 46.2469 291.077 48.7429 295.895 52.7159C295.895 52.7159 295.149 57.2479 300.95 60.3639C300.95 60.3639 299.149 63.6889 303.323 66.7469C303.323 66.7469 301.751 70.1799 307.583 72.3869C307.583 72.3869 306.389 76.7039 311.21 78.6569C311.21 78.6569 311.074 80.4399 313.002 82.3449C316.461 85.7649 326.069 88.5029 332.725 94.6029C337.527 99.0039 337.103 103.542 337.99 103.74C340.106 104.213 340.655 102.288 340.655 102.288C340.655 102.288 340.724 91.6829 339.454 90.1169Z" fill="#EBEBEB"/>
<path d="M338.524 93.3139C338.441 92.6749 338.373 92.0219 338.146 91.4139C337.942 90.8699 337.613 90.3939 337.231 89.9609C336.417 89.0389 335.461 88.2429 334.623 87.3409C331.252 83.7149 328.603 79.4109 326.916 74.7559C326.058 72.3889 325.567 69.8969 324.606 67.5669C323.696 65.3609 322.275 63.5009 320.402 62.0229C318.585 60.5899 316.508 59.5199 314.416 58.5509C312.161 57.5059 309.877 56.5329 307.693 55.3439C303.003 52.7909 298.775 49.5089 294.995 45.7459C294.528 45.2809 294.066 44.8149 293.623 44.3269C293.571 44.2699 293.491 44.3569 293.541 44.4139C295.286 46.4059 297.11 48.2829 299.145 49.9829C301.166 51.6719 303.313 53.2109 305.564 54.5779C307.731 55.8939 309.995 57.0059 312.302 58.0539C314.45 59.0289 316.622 59.9899 318.616 61.2609C320.575 62.5089 322.331 64.0919 323.48 66.1329C324.726 68.3459 325.251 70.8659 326.004 73.2689C327.456 77.9039 329.82 82.2589 332.915 86.0019C333.694 86.9439 334.521 87.8459 335.387 88.7079C336.245 89.5609 337.31 90.3689 337.743 91.5399C337.982 92.1859 338.05 92.8869 338.148 93.5639C338.255 94.2999 338.364 95.0349 338.474 95.7699C338.689 97.2109 338.883 98.6589 339.133 100.095C339.26 100.823 339.381 101.55 339.52 102.276C339.527 102.312 339.587 102.301 339.584 102.265C339.329 99.2719 338.911 96.2919 338.524 93.3139Z" fill="#C7C7C7"/>
<path d="M318.931 63.1391C315.797 62.0651 312.67 60.9931 309.598 59.7501C306.582 58.5301 303.583 57.2141 300.759 55.5911C299.156 54.6701 297.549 53.6741 296.099 52.5251C296.072 52.5041 296.035 52.5431 296.062 52.5641C297.34 53.5771 298.626 54.5501 300.011 55.4141C301.418 56.2921 302.867 57.0941 304.357 57.8231C307.339 59.2821 310.454 60.3891 313.595 61.4501C315.364 62.0471 317.142 62.6201 318.923 63.1781C318.946 63.1841 318.954 63.1471 318.931 63.1391Z" fill="#C7C7C7"/>
<path d="M322.673 68.3139C320.171 66.8119 317.44 65.6799 314.691 64.7169C311.913 63.7439 309.071 62.9629 306.287 62.0039C304.697 61.4559 303.1 60.8949 301.569 60.1979C301.538 60.1839 301.512 60.2299 301.543 60.2459C302.854 60.8809 304.181 61.4729 305.546 61.9819C306.932 62.4989 308.338 62.9639 309.746 63.4179C312.558 64.3229 315.391 65.1799 318.149 66.2419C319.697 66.8379 321.199 67.5499 322.644 68.3659C322.678 68.3859 322.705 68.3339 322.673 68.3139Z" fill="#C7C7C7"/>
<path d="M323.753 69.3499C323.719 69.3409 323.707 69.3939 323.741 69.4029C323.774 69.4109 323.787 69.3589 323.753 69.3499Z" fill="#C7C7C7"/>
<path d="M325.432 74.767C323.149 73.008 320.537 71.616 317.847 70.59C315.018 69.51 312.061 68.786 309.092 68.215C307.36 67.882 305.618 67.615 303.874 67.35C303.84 67.345 303.828 67.396 303.863 67.403C306.875 68.014 309.903 68.587 312.878 69.362C315.733 70.106 318.535 71.045 321.213 72.288C322.691 72.974 324.098 73.833 325.419 74.784C325.43 74.792 325.442 74.775 325.432 74.767Z" fill="#C7C7C7"/>
<path d="M327.269 78.113C326.15 77.397 325.025 76.69 323.876 76.022C322.733 75.358 321.585 74.709 320.347 74.232C319.128 73.761 317.879 73.43 316.588 73.228C315.227 73.015 313.853 72.897 312.484 72.756C310.934 72.596 309.381 72.459 307.83 72.306C307.796 72.303 307.783 72.354 307.818 72.359C309.185 72.543 310.549 72.745 311.917 72.922C313.252 73.095 314.59 73.254 315.922 73.453C317.229 73.648 318.52 73.93 319.77 74.363C321.031 74.801 322.254 75.347 323.451 75.937C324.764 76.584 326.008 77.375 327.26 78.13C327.27 78.136 327.279 78.12 327.269 78.113Z" fill="#C7C7C7"/>
<path d="M332.266 86.3949C330.978 85.6419 329.699 84.8729 328.455 84.0479C327.217 83.2269 326.024 82.3319 324.737 81.5859C322.231 80.1329 319.41 79.2939 316.557 78.8679C314.948 78.6279 313.319 78.5369 311.693 78.5269C311.657 78.5269 311.661 78.5779 311.695 78.5809C314.559 78.8049 317.454 79.1669 320.215 79.9879C321.598 80.3989 322.948 80.9179 324.228 81.5889C325.529 82.2699 326.729 83.1169 327.96 83.9119C329.352 84.8109 330.778 85.6619 332.253 86.4189C332.269 86.4269 332.281 86.4039 332.266 86.3949Z" fill="#C7C7C7"/>
<path d="M331.272 84.8099C329.634 83.3789 327.855 82.0889 325.993 80.9659C324.111 79.8309 322.131 78.9189 320.036 78.2509C318.863 77.8769 317.666 77.5819 316.462 77.3249C316.428 77.3179 316.416 77.3699 316.45 77.3779C318.57 77.8839 320.623 78.6509 322.613 79.5319C324.577 80.4009 326.502 81.3759 328.295 82.5619C329.331 83.2469 330.317 84.0149 331.262 84.8189C331.269 84.8249 331.278 84.8149 331.272 84.8099Z" fill="#C7C7C7"/>
<path d="M315.419 66.2659C312.222 64.5069 308.495 64.2239 304.97 63.5849C303.95 63.3999 302.942 63.1689 301.948 62.8759C301.919 62.8679 301.899 62.9149 301.928 62.9259C305.33 64.2229 309.033 64.2089 312.517 65.1719C313.516 65.4479 314.488 65.8089 315.409 66.2849C315.421 66.2919 315.431 66.2729 315.419 66.2659Z" fill="#C7C7C7"/>
<path d="M320.501 63.5871C316.602 61.3911 312.528 59.4611 308.287 58.0191C307.096 57.6141 305.895 57.2451 304.69 56.8841C304.657 56.8741 304.645 56.9271 304.678 56.9371C306.838 57.5971 308.959 58.3911 311.059 59.2231C313.114 60.0371 315.146 60.9131 317.135 61.8771C318.268 62.4261 319.386 63.0041 320.491 63.6071C320.503 63.6131 320.513 63.5941 320.501 63.5871Z" fill="#C7C7C7"/>
<path d="M326.44 76.8008C325.19 75.8038 323.846 74.9378 322.409 74.2358C320.974 73.5348 319.455 73.0068 317.909 72.6128C317.875 72.6038 317.863 72.6568 317.897 72.6658C320.96 73.4638 323.892 74.9238 326.425 76.8168C326.436 76.8248 326.451 76.8088 326.44 76.8008Z" fill="#C7C7C7"/>
<path d="M337.208 95.2759C335.871 93.3229 334.179 91.5919 332.251 90.2169C330.266 88.8009 328.105 87.6779 325.883 86.6839C324.618 86.1179 323.328 85.6039 322.041 85.0899C322.009 85.0769 321.983 85.1239 322.015 85.1379C324.243 86.0639 326.453 87.0629 328.561 88.2399C330.642 89.4019 332.661 90.7029 334.443 92.2949C335.452 93.1959 336.376 94.2029 337.162 95.3049C337.182 95.3329 337.227 95.3049 337.208 95.2759Z" fill="#C7C7C7"/>
<path d="M388.14 106.055C403.746 102.98 411.36 95.9589 415.504 94.1029C421.021 91.6339 431.775 97.0709 440.943 98.4019C447.519 99.3559 457.106 97.4869 457.16 99.4839C457.189 100.555 452.055 102.229 452.055 102.229C452.055 102.229 451.791 105.258 445.546 105.225C445.546 105.225 443.217 109.184 436.766 107.862C436.766 107.862 436.019 111.569 430.855 111.244C430.855 111.244 429.864 114.887 423.972 112.848C423.972 112.848 422.124 116.929 417.171 115.341C417.171 115.341 416.134 116.797 413.433 117.027C408.586 117.439 399.453 113.389 390.435 113.811C383.929 114.116 381.348 117.873 380.54 117.457C378.612 116.465 379.423 114.635 379.423 114.635C379.423 114.635 386.162 106.445 388.14 106.055Z" fill="#EBEBEB"/>
<path d="M386.807 109.107C387.28 108.669 387.75 108.211 388.314 107.89C388.819 107.602 389.376 107.448 389.947 107.361C391.163 107.174 392.407 107.174 393.628 107.019C398.539 106.393 403.33 104.783 407.607 102.288C409.782 101.02 411.755 99.42 413.985 98.246C416.097 97.134 418.379 96.615 420.764 96.68C423.077 96.743 425.357 97.251 427.585 97.846C429.986 98.488 432.363 99.203 434.803 99.688C440.04 100.73 445.389 100.917 450.702 100.448C451.358 100.39 452.012 100.328 452.664 100.237C452.741 100.226 452.746 100.344 452.671 100.356C450.055 100.769 447.452 101.042 444.8 101.045C442.166 101.048 439.532 100.855 436.927 100.464C434.419 100.087 431.969 99.491 429.526 98.819C427.252 98.193 424.968 97.54 422.623 97.238C420.319 96.942 417.957 97.033 415.768 97.865C413.393 98.767 411.377 100.366 409.26 101.729C405.176 104.359 400.572 106.19 395.798 107.083C394.596 107.308 393.384 107.471 392.166 107.578C390.961 107.684 389.625 107.622 388.543 108.244C387.946 108.587 387.445 109.082 386.935 109.539C386.382 110.035 385.827 110.53 385.272 111.025C384.184 111.994 383.108 112.982 381.996 113.925C381.433 114.403 380.873 114.884 380.302 115.352C380.273 115.375 380.235 115.329 380.26 115.303C382.373 113.168 384.603 111.147 386.807 109.107Z" fill="#C7C7C7"/>
<path d="M421.18 98.479C424.275 99.661 427.363 100.84 430.519 101.852C433.617 102.846 436.763 103.756 439.972 104.318C441.793 104.637 443.665 104.901 445.515 104.947C445.55 104.948 445.553 105.002 445.518 105.001C443.888 104.96 442.277 104.884 440.66 104.661C439.017 104.434 437.391 104.122 435.78 103.728C432.555 102.939 429.454 101.794 426.363 100.598C424.622 99.924 422.89 99.225 421.164 98.513C421.14 98.504 421.158 98.471 421.18 98.479Z" fill="#C7C7C7"/>
<path d="M414.991 100.057C417.874 100.506 420.697 101.385 423.425 102.406C426.182 103.438 428.865 104.658 431.617 105.704C433.189 106.302 434.775 106.893 436.398 107.338C436.431 107.347 436.421 107.4 436.387 107.391C434.973 107.039 433.575 106.644 432.2 106.161C430.804 105.671 429.426 105.127 428.055 104.574C425.316 103.469 422.591 102.312 419.793 101.362C418.222 100.828 416.613 100.413 414.98 100.115C414.942 100.108 414.954 100.051 414.991 100.057Z" fill="#C7C7C7"/>
<path d="M413.5 100.161C413.531 100.176 413.507 100.224 413.476 100.209C413.444 100.194 413.468 100.146 413.5 100.161Z" fill="#C7C7C7"/>
<path d="M408.741 103.246C411.621 103.357 414.518 103.961 417.241 104.895C420.105 105.877 422.84 107.215 425.486 108.678C427.03 109.532 428.538 110.441 430.047 111.354C430.076 111.372 430.054 111.419 430.023 111.402C427.318 109.943 424.625 108.442 421.843 107.133C419.174 105.876 416.421 104.804 413.568 104.044C411.993 103.625 410.363 103.383 408.739 103.268C408.727 103.267 408.728 103.245 408.741 103.246Z" fill="#C7C7C7"/>
<path d="M405.187 104.641C406.505 104.807 407.822 104.985 409.132 105.208C410.436 105.43 411.732 105.667 412.989 106.092C414.227 106.511 415.398 107.057 416.519 107.728C417.701 108.435 418.831 109.225 419.973 109.993C421.266 110.863 422.546 111.752 423.835 112.627C423.863 112.646 423.841 112.694 423.811 112.675C422.644 111.941 421.466 111.223 420.302 110.483C419.165 109.761 418.036 109.026 416.886 108.326C415.757 107.639 414.585 107.028 413.348 106.561C412.099 106.09 410.81 105.726 409.513 105.412C408.091 105.068 406.628 104.879 405.183 104.658C405.171 104.658 405.175 104.639 405.187 104.641Z" fill="#C7C7C7"/>
<path d="M396.045 107.8C397.516 108.047 398.991 108.275 400.475 108.438C401.952 108.6 403.441 108.677 404.907 108.928C407.762 109.417 410.466 110.579 412.93 112.079C414.32 112.925 415.629 113.898 416.884 114.932C416.911 114.955 416.875 114.992 416.848 114.972C414.505 113.309 412.05 111.734 409.403 110.596C408.077 110.026 406.708 109.56 405.296 109.256C403.861 108.946 402.397 108.828 400.942 108.65C399.297 108.449 397.657 108.189 396.039 107.826C396.023 107.823 396.028 107.798 396.045 107.8Z" fill="#C7C7C7"/>
<path d="M397.825 107.22C399.999 107.17 402.192 107.318 404.341 107.648C406.513 107.981 408.618 108.549 410.655 109.377C411.795 109.841 412.904 110.381 413.992 110.954C414.023 110.97 413.999 111.018 413.968 111.002C412.016 110.033 409.948 109.308 407.855 108.71C405.79 108.12 403.687 107.636 401.55 107.399C400.316 107.262 399.067 107.221 397.826 107.233C397.817 107.234 397.816 107.22 397.825 107.22Z" fill="#C7C7C7"/>
<path d="M421.874 103.129C425.456 103.826 428.5 105.994 431.617 107.761C432.519 108.272 433.442 108.741 434.393 109.152C434.421 109.164 434.405 109.213 434.376 109.203C430.933 108.021 428.098 105.639 424.806 104.148C423.862 103.72 422.883 103.374 421.871 103.15C421.856 103.147 421.86 103.127 421.874 103.129Z" fill="#C7C7C7"/>
<path d="M419.688 97.8179C424.089 98.6279 428.455 99.7549 432.635 101.363C433.809 101.814 434.967 102.301 436.123 102.795C436.155 102.809 436.132 102.857 436.1 102.843C434.018 101.966 431.879 101.218 429.735 100.512C427.635 99.8209 425.514 99.1929 423.369 98.6589C422.147 98.3549 420.918 98.0829 419.684 97.8379C419.67 97.8369 419.674 97.8149 419.688 97.8179Z" fill="#C7C7C7"/>
<path d="M406.663 104.162C408.261 104.197 409.848 104.392 411.401 104.773C412.952 105.153 414.457 105.72 415.897 106.408C415.928 106.423 415.904 106.471 415.873 106.456C413.01 105.107 409.822 104.351 406.665 104.183C406.65 104.183 406.648 104.161 406.663 104.162Z" fill="#C7C7C7"/>
<path d="M386.561 111.457C388.839 110.813 391.247 110.567 393.608 110.746C396.04 110.93 398.418 111.451 400.761 112.11C402.095 112.485 403.415 112.916 404.733 113.346C404.766 113.357 404.756 113.409 404.722 113.399C402.417 112.684 400.081 112.036 397.708 111.589C395.366 111.149 392.981 110.855 390.594 110.937C389.242 110.984 387.887 111.165 386.578 111.508C386.545 111.517 386.527 111.466 386.561 111.457Z" fill="#C7C7C7"/>
<path d="M374.211 151.648L322.32 135.471L343.087 68.8579L381.616 80.8699L391.021 97.7279L374.211 151.648Z" fill="#FFC727"/>
<path opacity="0.4" d="M374.211 151.648L322.32 135.471L343.087 68.8579L381.616 80.8699L391.021 97.7279L374.211 151.648Z" fill="white"/>
<path d="M381.617 80.8699L391.022 97.7279L377.66 93.5619L381.617 80.8699Z" fill="#FFC727"/>
<path d="M344.124 83.331L372.975 92.3245L373.508 90.6136L344.657 81.6202L344.124 83.331Z" fill="white"/>
<path d="M342.778 87.6489L371.629 96.6423L372.162 94.9315L343.311 85.938L342.778 87.6489Z" fill="white"/>
<path d="M341.432 91.9655L370.283 100.959L370.817 99.2482L341.965 90.2547L341.432 91.9655Z" fill="white"/>
<path d="M340.083 96.2831L382.355 109.46L382.889 107.749L340.617 94.5722L340.083 96.2831Z" fill="white"/>
<path d="M338.738 100.601L381.01 113.778L381.543 112.067L339.271 98.8904L338.738 100.601Z" fill="white"/>
<path d="M337.392 104.917L379.664 118.094L380.197 116.383L337.925 103.206L337.392 104.917Z" fill="white"/>
<path d="M336.046 109.235L378.318 122.412L378.852 120.701L336.579 107.524L336.046 109.235Z" fill="white"/>
<path d="M334.7 113.552L376.973 126.729L377.506 125.019L335.234 111.842L334.7 113.552Z" fill="white"/>
<path d="M333.355 117.869L375.627 131.046L376.16 129.336L333.888 116.158L333.355 117.869Z" fill="white"/>
<path d="M332.009 122.187L374.281 135.364L374.815 133.653L332.542 120.476L332.009 122.187Z" fill="white"/>
<path d="M330.661 126.505L372.934 139.682L373.467 137.971L331.195 124.794L330.661 126.505Z" fill="white"/>
<path d="M329.316 130.821L371.588 143.999L372.121 142.288L329.849 129.111L329.316 130.821Z" fill="white"/>
<path d="M90.7331 450.72L284.685 451.555C331.826 414.538 336.695 359.694 303.064 326.452C282.709 306.344 256.863 310.401 232.252 307.203C232.228 307.203 232.205 307.191 232.181 307.191C223.609 306.074 215.201 304.075 207.217 299.865C181.877 286.495 167.589 254.958 146.271 228.43C143.613 225.102 140.839 221.868 137.922 218.752C120.39 200.032 85.4951 199.422 67.2441 225.741C20.8681 292.612 42.1121 392.145 90.7331 450.72Z" fill="#FFC727"/>
<path opacity="0.2" d="M90.7331 450.72L284.685 451.555C331.826 414.538 336.695 359.694 303.064 326.452C282.709 306.344 256.863 310.401 232.252 307.203C232.228 307.203 232.205 307.191 232.181 307.191C223.609 306.074 215.201 304.075 207.217 299.865C181.877 286.495 167.589 254.958 146.271 228.43C143.613 225.102 140.839 221.868 137.922 218.752C120.39 200.032 85.4951 199.422 67.2441 225.741C20.8681 292.612 42.1121 392.145 90.7331 450.72Z" fill="black"/>
<path opacity="0.1" d="M86.4294 297.713C91.5094 377.286 183.405 406.989 240.8 383.153C290.705 362.422 274.372 315.116 232.251 307.202C232.227 307.202 232.204 307.19 232.18 307.19C223.608 306.073 215.2 304.074 207.216 299.864C181.876 286.494 167.588 254.957 146.27 228.429C114.51 211.931 82.7024 239.447 86.4294 297.713Z" fill="black"/>
<path d="M433.047 460.891C429.285 461.024 335.273 432.944 332.229 429.494C330.428 427.454 334.724 415.573 336.048 403.898C336.257 402.059 304.729 356.242 304.729 356.242L364.3 342.087L400.086 414.959C400.086 414.959 430.858 441.71 433.794 445.867C436.695 450.029 436.809 460.758 433.047 460.891Z" fill="#C95F50"/>
<path d="M433.041 460.891C429.287 461.024 335.269 432.944 332.231 429.497C330.431 427.451 334.727 415.575 336.047 403.903C336.098 403.412 333.878 399.76 330.605 394.686L391.634 397.779L400.083 414.961C400.083 414.961 430.853 441.711 433.789 445.864C436.693 450.027 436.806 460.758 433.041 460.891Z" fill="#EBEBEB"/>
<path d="M435.014 461.447C431.276 461.611 333.628 433.637 330.578 430.216C329.415 428.925 331.63 421.258 336.047 403.898L400.085 414.959C400.085 414.959 432.681 442.392 435.623 446.502C438.544 450.607 438.752 461.283 435.014 461.447Z" fill="#FFC727"/>
<path d="M434.734 457.139C418.48 452.048 352.444 433.047 335.99 429.25C335.856 429.219 335.831 429.309 335.961 429.353C351.961 434.751 418.15 453.216 434.658 457.408C435.006 457.496 435.077 457.247 434.734 457.139Z" fill="#263238"/>
<path d="M430.348 441.191C426.511 439.921 422.189 440.677 419.41 442.383C416.74 444.022 414.105 446.647 413.248 450.074C413.223 450.172 413.403 450.226 413.447 450.13C416.217 443.992 423.654 440.035 430.289 441.396C430.424 441.423 430.48 441.234 430.348 441.191Z" fill="#263238"/>
<path d="M405.967 418.407C399.441 416.439 391.183 416.576 385.577 420.767C385.36 420.929 385.594 421.236 385.817 421.191C392.614 419.835 398.896 419.173 405.849 419.245C406.339 419.251 406.434 418.548 405.967 418.407Z" fill="#263238"/>
<path d="M410.461 421.828C403.935 419.86 395.677 419.996 390.071 424.188C389.854 424.35 390.088 424.657 390.311 424.612C397.108 423.256 403.39 422.594 410.343 422.666C410.833 422.671 410.928 421.968 410.461 421.828Z" fill="#263238"/>
<path d="M414.953 425.248C408.427 423.28 400.169 423.417 394.563 427.608C394.346 427.77 394.58 428.077 394.803 428.032C401.6 426.675 407.882 426.013 414.835 426.086C415.325 426.092 415.42 425.389 414.953 425.248Z" fill="#263238"/>
<path d="M419.447 428.669C412.921 426.701 404.663 426.837 399.057 431.029C398.84 431.191 399.074 431.498 399.297 431.453C406.094 430.097 412.376 429.435 419.329 429.507C419.819 429.513 419.914 428.81 419.447 428.669Z" fill="#263238"/>
<path d="M344.613 414.897C337.256 412.812 334.004 424.242 341.373 426.33C348.73 428.414 351.982 416.985 344.613 414.897Z" fill="white"/>
<path d="M418.057 402.953C415.529 399.253 410.581 400.743 407.718 403.013C403.082 406.689 398.948 412.519 396.964 418.061C396.916 418.198 397.005 418.284 397.115 418.307C397.12 418.817 397.562 419.37 398.142 419.173C403.731 417.283 409.94 415.955 414.783 412.406C417.609 410.334 420.448 406.452 418.057 402.953ZM406.029 414.574C403.303 415.57 400.544 416.427 397.856 417.524C399.961 414.595 401.93 411.589 404.33 408.874C405.475 407.579 406.676 406.269 407.989 405.141C410.033 403.384 418.031 399.751 416.641 407.066C415.874 411.098 409.278 413.386 406.029 414.574Z" fill="#263238"/>
<path d="M379.991 415.826C385.444 418.336 391.794 418.398 397.648 419.134C398.255 419.21 398.577 418.581 398.481 418.08C398.584 418.036 398.655 417.933 398.58 417.809C395.529 412.774 390.316 407.886 385.039 405.211C381.781 403.559 376.635 403.086 374.896 407.216C373.251 411.124 376.807 414.361 379.991 415.826ZM377.103 410.964C374.28 404.074 382.844 406.037 385.197 407.35C386.709 408.194 388.147 409.237 389.528 410.278C392.421 412.46 394.95 415.012 397.598 417.462C394.744 416.924 391.871 416.635 389 416.203C385.58 415.688 378.659 414.763 377.103 410.964Z" fill="#263238"/>
<path d="M383.03 373.745L373.61 379.132L343.206 396.519L326.597 406.022C326.597 406.022 297.023 348.8 282.95 333.45L282.916 333.424C281.992 332.411 281.132 331.594 280.347 330.977L280.321 330.968C279.435 330.475 277.895 330.118 275.762 329.888L275.736 329.879C257.087 327.847 182.683 335.513 139.34 333.256L159.23 305.969L168.044 293.866C216.765 287.695 288.198 266.206 315.384 279.424C344.911 293.78 383.03 373.745 383.03 373.745Z" fill="#37474F"/>
<path d="M373.391 367.277C363.883 372.385 366.544 370.792 357.09 376.001C352.464 378.55 329.18 391.308 325.26 394.404C325.174 394.472 325.259 394.624 325.362 394.586C330.043 392.84 353.045 379.583 357.624 376.949C366.981 371.568 364.239 373.016 373.538 367.537C373.712 367.435 373.57 367.181 373.391 367.277Z" fill="#263238"/>
<path d="M343.207 396.518L326.598 406.021C326.598 406.021 297.024 348.799 282.951 333.449L343.207 396.518Z" fill="#263238"/>
<path d="M332.33 398.056C325.056 386.228 291.876 327.815 285.388 325.579C279.484 323.544 150.085 328.248 148.345 328.282C148.22 328.284 148.213 328.477 148.339 328.474C162.259 328.123 281.574 325.608 284.655 326.783C291.06 329.225 330.712 396.973 331.682 398.384C331.941 398.761 332.579 398.462 332.33 398.056Z" fill="#263238"/>
<path d="M106.138 309.064C106.138 309.064 102.859 344.578 121.075 361.996C142.875 382.841 296.747 374.946 318.686 367.553C340.625 360.16 340.872 324.608 316.691 316.67C293.692 309.121 180.268 306.677 177.851 305.747C175.434 304.817 168.254 293.666 168.254 293.666L106.138 309.064Z" fill="#37474F"/>
<path d="M136.204 307.691C136.174 307.522 135.911 307.58 135.914 307.741C135.989 312.22 134.388 316.953 131.489 320.386C128.164 324.322 123.218 326.565 118.739 328.9C118.308 329.125 118.645 329.799 119.092 329.659C121.829 328.801 124.521 327.569 127.008 326.131C129.273 324.822 131.36 323.189 132.932 321.08C135.831 317.193 137.062 312.482 136.204 307.691Z" fill="#263238"/>
<path d="M176.855 303.549C175.834 302.277 174.722 301.069 173.657 299.833C171.139 296.911 168.609 293.976 165.973 291.16C165.724 290.893 165.246 291.281 165.476 291.574C167.256 293.842 169.138 296.036 170.989 298.246C171.938 299.379 172.89 300.509 173.85 301.633C174.746 302.683 175.852 303.722 176.521 304.937C177.216 306.198 176.336 307.294 175.022 307.451C173.846 307.591 172.752 307.005 171.839 306.324C169.766 304.777 168.124 302.545 166.392 300.645C165.332 299.482 164.273 298.321 163.198 297.173C162.054 295.952 160.837 294.796 159.697 293.578C159.623 293.499 159.485 293.612 159.551 293.7C160.551 295.035 161.477 296.434 162.478 297.773C163.479 299.111 164.494 300.435 165.527 301.749C166.504 302.992 167.515 304.209 168.555 305.401C169.438 306.414 170.44 307.399 171.615 308.071C173.513 309.156 176.788 309.354 177.76 306.908C178.241 305.697 177.607 304.485 176.855 303.549Z" fill="#263238"/>
<path d="M315.674 367.724C308.092 367.959 300.518 368.494 292.935 368.751C285.414 369.005 277.889 369.141 270.364 369.163C255.251 369.208 228.329 369.617 213.238 368.762C197.989 367.898 181.538 366.584 166.378 364.676C159.124 363.763 151.773 363.019 144.597 361.568C138.123 360.259 132.234 357.65 127.341 353.021C117.421 343.636 113.437 329.705 111.706 316.371C111.474 314.582 111.28 312.789 111.112 310.992C111.101 310.87 110.916 310.875 110.926 310.999C111.981 324.682 114.287 338.931 123.036 349.832C126.821 354.548 131.611 358.391 137.2 360.551C144.011 363.183 151.543 363.726 158.71 364.608C173.931 366.481 190.448 367.867 205.746 368.863C221.14 369.865 248.372 369.619 263.797 369.655C279.22 369.691 294.654 369.282 310.049 368.333C311.93 368.217 313.804 368.083 315.679 367.896C315.787 367.886 315.783 367.721 315.674 367.724Z" fill="#263238"/>
<path d="M335.512 334.327C333.991 328.332 330.307 323.337 325.175 319.925C319.671 316.266 313.119 314.65 306.644 313.79C299.319 312.817 291.906 312.366 284.544 311.743C269.437 310.465 242.516 310.097 227.392 309.042C212.279 307.987 179.725 305.866 177.895 305.817C177.736 305.813 177.706 306.083 177.867 306.099C192.463 307.538 205.741 308.764 220.362 309.909C235.055 311.06 261.55 311.477 276.233 312.745C283.549 313.377 290.864 314.017 298.177 314.681C304.953 315.296 311.924 315.899 318.306 318.434C323.78 320.609 328.721 324.155 331.564 329.419C334.311 334.504 334.952 340.614 333.949 346.256C333.017 351.494 330.621 356.616 327.08 360.601C323.59 364.527 319.138 367.555 313.976 368.736C312.644 369.041 311.035 369.267 309.809 369.527C309.716 369.547 309.623 369.745 309.717 369.746C320.637 369.887 330.636 361.789 334.455 351.769C336.56 346.25 336.968 340.063 335.512 334.327Z" fill="#263238"/>
<path d="M155.174 230.652C163.454 244.935 192.493 284.71 214.361 291.643C226.412 295.464 285.077 308.699 293.827 301.975C304.075 294.099 302.373 261.052 294.823 260.124C271.781 257.294 228.621 258.261 218.13 255.013C213.384 253.543 189.135 234.887 162.87 219.392C152.939 213.533 149.83 221.435 155.174 230.652Z" fill="#C95F50"/>
<path d="M175.443 264.932L187.168 232.627C187.168 232.627 172.81 223.023 164.115 218.83C152.608 213.281 147.85 216.253 153.992 230.659C158.1 240.298 175.443 264.932 175.443 264.932Z" fill="#C7C7C7"/>
<path d="M173.569 260.542C174.95 255.722 176.397 250.935 178.059 246.204C178.888 243.844 179.751 241.498 180.652 239.164C181.551 236.834 182.693 234.588 183.557 232.249C183.604 232.121 183.809 232.205 183.754 232.332C182.769 234.62 182.086 237.067 181.228 239.406C180.366 241.754 179.516 244.107 178.68 246.464C177.01 251.171 175.329 255.88 173.767 260.624C173.723 260.757 173.532 260.672 173.569 260.542Z" fill="#263238"/>
<path d="M182.676 245.01L175.445 264.938C175.445 264.938 158.109 240.297 153.986 230.661C152.094 226.211 151.235 222.848 151.292 220.499L182.676 245.01Z" fill="#263238"/>
<path d="M104.09 323.11C104.323 323.339 190.636 303.212 191.425 302.193C192.526 300.759 176.18 235.872 159.595 216.665C155.448 211.862 142.458 212.373 136.708 217.354C108.212 242.04 103.259 322.281 104.09 323.11Z" fill="#EBEBEB"/>
<path fill-rule="evenodd" clip-rule="evenodd" d="M155.231 214.09L135.001 218.954C135.526 218.414 136.064 217.922 136.602 217.453L152.822 213.566C153.664 213.685 154.471 213.863 155.231 214.09ZM158.244 215.481L132.434 221.675C132.026 222.13 131.642 222.585 131.269 223.063L159.285 216.343C158.985 216.027 158.626 215.748 158.244 215.481ZM160.753 218.098L129.316 225.645C128.99 226.075 128.689 226.517 128.387 226.971L161.463 219.035C161.234 218.719 161.005 218.402 160.753 218.098ZM162.742 220.841L126.776 229.467C126.51 229.897 126.243 230.326 125.989 230.768L163.371 221.792C163.165 221.474 162.948 221.157 162.742 220.841ZM164.508 223.633L124.602 233.211C124.371 233.64 124.152 234.057 123.933 234.486L165.09 224.607C164.895 224.279 164.701 223.95 164.508 223.633ZM166.143 226.464L122.71 236.883C122.514 237.3 122.307 237.717 122.111 238.134L166.677 227.44C166.495 227.11 166.313 226.781 166.143 226.464ZM167.649 229.307L121.031 240.502C120.847 240.907 120.675 241.323 120.491 241.74L168.147 230.294C167.989 229.965 167.819 229.636 167.649 229.307ZM169.072 232.176L119.505 244.074C119.345 244.479 119.184 244.883 119.024 245.299L169.547 233.175C169.401 232.834 169.242 232.505 169.072 232.176ZM170.437 235.068L118.133 247.63C117.973 248.035 117.824 248.439 117.676 248.843L170.9 236.068C170.741 235.727 170.595 235.398 170.437 235.068ZM171.742 237.974L116.866 251.15C116.718 251.554 116.581 251.959 116.456 252.363L172.181 238.986C172.035 238.645 171.888 238.303 171.742 237.974ZM172.988 240.892L115.694 254.645C115.557 255.049 115.432 255.441 115.308 255.845L173.404 241.904C173.27 241.563 173.123 241.222 172.988 240.892ZM174.188 243.823L114.606 258.128C114.493 258.532 114.368 258.924 114.255 259.328L174.592 244.836C174.457 244.493 174.322 244.164 174.188 243.823ZM175.351 246.766L113.61 261.585C113.497 261.989 113.384 262.381 113.271 262.785L175.743 247.779C175.609 247.437 175.486 247.107 175.351 246.766ZM176.468 249.709L112.675 265.029C112.562 265.421 112.461 265.825 112.36 266.217L176.849 250.722C176.726 250.38 176.603 250.039 176.468 249.709ZM177.561 252.665L111.798 268.449C111.709 268.841 111.607 269.233 111.518 269.624L177.93 253.677C177.807 253.336 177.684 253.006 177.561 252.665ZM178.618 255.621L110.991 271.856C110.89 272.248 110.8 272.64 110.723 273.031L178.975 256.645C178.864 256.304 178.741 255.962 178.618 255.621ZM179.665 258.601L110.221 275.263C110.132 275.655 110.054 276.046 109.965 276.438L180.01 259.626C179.899 259.284 179.776 258.943 179.665 258.601ZM180.663 261.57L109.509 278.657C109.431 279.049 109.354 279.428 109.276 279.82L181.008 262.606C180.897 262.265 180.786 261.911 180.663 261.57ZM181.65 264.55L108.844 282.027C108.766 282.419 108.689 282.81 108.623 283.19L181.983 265.588C181.872 265.246 181.761 264.892 181.65 264.55ZM182.613 267.543L108.215 285.396C108.149 285.787 108.072 286.179 108.018 286.558L182.923 268.568C182.824 268.227 182.712 267.885 182.613 267.543ZM183.541 270.525L107.633 288.753C107.567 289.133 107.501 289.524 107.447 289.903L183.851 271.561C183.751 271.22 183.64 270.879 183.541 270.525ZM184.445 273.53L107.098 292.097C107.032 292.488 106.966 292.868 106.912 293.247L184.755 274.567C184.656 274.226 184.557 273.884 184.445 273.53ZM185.338 276.536L106.587 295.43C106.533 295.821 106.479 296.201 106.425 296.58L185.648 277.573C185.536 277.232 185.437 276.89 185.338 276.536ZM186.195 279.542L106.123 298.761C106.069 299.152 106.015 299.532 105.961 299.911L186.493 280.579C186.405 280.238 186.306 279.896 186.195 279.542ZM187.052 282.56L105.682 302.093C105.64 302.484 105.586 302.852 105.543 303.231L187.337 283.598C187.239 283.256 187.151 282.914 187.052 282.56ZM187.862 285.579L105.289 305.4C105.247 305.779 105.205 306.17 105.162 306.55L188.148 286.629C188.061 286.286 187.961 285.933 187.862 285.579ZM188.66 288.598L104.931 308.707C104.889 309.098 104.859 309.477 104.816 309.845L188.922 289.648C188.835 289.306 188.747 288.952 188.66 288.598ZM189.422 291.629L104.608 311.989C104.578 312.38 104.547 312.759 104.517 313.126L189.673 292.678C189.598 292.337 189.51 291.983 189.422 291.629ZM190.15 294.672L104.345 315.27C104.315 315.661 104.284 316.04 104.266 316.407L190.39 295.733C190.313 295.392 190.238 295.038 190.15 294.672ZM190.818 297.74L104.128 318.551C104.11 318.942 104.091 319.321 104.072 319.664L191.033 298.79C190.97 298.46 190.894 298.118 190.818 297.74ZM191.381 300.822L104.019 321.796C104.002 322.317 104.019 322.684 104.034 322.896L191.479 301.909C191.475 301.672 191.446 301.306 191.381 300.822Z" fill="#DBDBDB"/>
<path d="M155.921 231.755C151.989 232.261 143.172 225.572 139.452 219.623C139.199 219.214 139.587 214.736 139.802 209.274C139.919 205.958 139.971 202.264 139.776 198.889L161.241 202.803C161.241 202.803 159.57 209.998 159.948 215.88C159.985 216.371 160.06 216.826 160.174 217.257C160.185 217.32 160.207 217.396 160.218 217.484C160.799 220.09 162.077 230.963 155.921 231.755Z" fill="#C95F50"/>
<path d="M160.169 217.258C160.181 217.323 160.209 217.389 160.218 217.485C159.554 217.617 158.845 217.699 158.044 217.726C145.995 218.149 142.2 203.656 141.328 199.171L161.247 202.798C161.247 202.798 159.575 209.994 159.939 215.884C159.988 216.367 160.054 216.819 160.169 217.258Z" fill="#263238"/>
<path d="M156.389 230.794C152.475 231.328 143.637 224.727 139.886 218.826C139.631 218.42 139.985 213.955 140.158 208.509C140.25 205.204 140.275 201.521 140.054 198.16L161.475 201.901C161.475 201.901 159.864 209.084 160.284 214.943C160.324 215.432 160.403 215.885 160.519 216.313C160.53 216.376 160.554 216.451 160.564 216.54C161.163 219.132 162.518 229.958 156.389 230.794Z" fill="#C95F50"/>
<path d="M160.515 216.315C160.527 216.379 160.555 216.445 160.566 216.541C159.905 216.678 159.199 216.764 158.401 216.797C146.396 217.308 142.506 202.893 141.604 198.43L161.483 201.896C161.483 201.896 159.87 209.08 160.277 214.947C160.328 215.429 160.398 215.878 160.515 216.315Z" fill="#263238"/>
<path d="M135.973 175.393C134.829 183.143 141.967 203.955 147.956 207.933C156.638 213.699 169.244 212.475 173.738 202.407C178.094 192.647 168.311 165.689 161.771 162.239C152.139 157.159 137.663 163.946 135.973 175.393Z" fill="#C95F50"/>
<path d="M152.909 181.5C153.484 181.151 153.955 180.734 154.488 180.331C155.089 179.875 155.614 179.575 155.87 178.831C156.007 178.432 155.728 177.879 155.354 177.709C154.481 177.313 153.607 177.688 152.861 178.206C152.052 178.769 151.573 179.409 151.301 180.355C151.038 181.272 152.151 181.96 152.909 181.5Z" fill="#263238"/>
<path d="M167.264 177.217C166.599 177.309 165.969 177.283 165.302 177.306C164.548 177.332 163.951 177.43 163.283 177.015C162.924 176.793 162.792 176.187 162.975 175.819C163.402 174.961 164.317 174.701 165.223 174.633C166.206 174.559 166.982 174.753 167.789 175.316C168.571 175.859 168.142 177.095 167.264 177.217Z" fill="#263238"/>
<path d="M158.988 197.652C159.429 197.879 159.909 198.231 160.436 198.116C160.942 198.006 161.451 197.605 161.849 197.29C161.888 197.259 161.948 197.292 161.933 197.344C161.732 198.001 161.064 198.58 160.372 198.667C159.696 198.753 159.208 198.296 158.872 197.758C158.825 197.683 158.924 197.619 158.988 197.652Z" fill="#263238"/>
<path d="M159.169 192.953C160.341 193.938 161.713 194.251 163.049 194.107C163.646 194.047 164.244 193.883 164.808 193.652C164.921 193.614 165.032 193.566 165.128 193.512C165.228 193.468 165.317 193.427 165.424 193.369C165.582 193.294 165.631 193.129 165.61 192.964L165.606 192.954C165.589 192.903 165.576 192.861 165.548 192.813C165.548 192.813 165.548 192.813 165.545 192.803L165.504 192.68C165.198 191.58 164.581 189.955 164.581 189.955C165.041 190.032 167.354 190.32 167.146 189.76C165.411 185.131 163.481 179.983 160.777 175.742C160.695 175.598 160.468 175.707 160.53 175.858C162.022 180.373 164.297 184.595 165.868 189.107C165.144 189.061 163.946 188.931 163.379 189.118C163.238 189.21 164.628 192.239 164.725 192.744C164.725 192.744 164.732 192.765 164.732 192.799C162.972 193.598 161.42 193.47 159.263 192.788C159.132 192.737 159.049 192.867 159.169 192.953Z" fill="#263238"/>
<path d="M163.994 193.297C163.994 193.297 163.429 194.899 162.251 195.778C161.817 196.103 161.313 196.334 160.717 196.357C159.495 196.408 159.146 195.38 159.08 194.427C159.023 193.645 159.168 192.911 159.168 192.911C159.168 192.911 161.296 193.949 163.994 193.297Z" fill="#263238"/>
<path d="M162.251 195.778C161.817 196.103 161.313 196.334 160.717 196.357C159.495 196.408 159.146 195.38 159.08 194.427C160.331 194.178 161.785 194.632 162.251 195.778Z" fill="#FF9ABB"/>
<path d="M157.19 183.959C157.164 183.908 157.098 184.057 157.115 184.115C157.55 185.522 157.811 187.207 156.656 188.031C156.62 188.057 156.644 188.127 156.69 188.107C158.197 187.455 157.828 185.222 157.19 183.959Z" fill="#263238"/>
<path d="M155.517 182.824C153.186 183.278 154.265 187.906 156.425 187.485C158.549 187.072 157.47 182.444 155.517 182.824Z" fill="#263238"/>
<path d="M165.404 181.46C165.403 181.403 165.532 181.502 165.543 181.562C165.82 183.008 166.382 184.618 167.788 184.803C167.832 184.809 167.844 184.882 167.794 184.886C166.159 185.02 165.435 182.875 165.404 181.46Z" fill="#263238"/>
<path d="M166.349 179.672C168.619 178.977 169.843 183.569 167.739 184.213C165.669 184.846 164.446 180.255 166.349 179.672Z" fill="#263238"/>
<path d="M140.884 197.149L140.899 197.147C142.074 196.863 142.55 192.429 143.171 192.151C143.805 191.856 144.687 190.953 144.69 190.459C144.678 189.967 142.713 182.417 142.496 178.395C142.293 174.372 145.166 170.195 149.035 169.477C152.906 168.773 156.017 171.636 158.593 170.618C161.181 169.583 161.362 166.673 163.137 166.592C164.9 166.528 167.228 169 168.45 171.391C166.271 166.832 163.867 163.339 161.775 162.234C152.136 157.159 137.104 162.635 135.414 174.078C134.713 178.761 137.615 189.532 140.884 197.149Z" fill="#263238"/>
<path d="M156.756 192.789C153.98 193.386 151.038 192.057 149.717 189.399C148.155 186.255 149.442 182.428 152.584 180.866C155.728 179.303 159.554 180.59 161.116 183.733C162.677 186.875 161.391 190.703 158.249 192.265C157.764 192.507 157.263 192.68 156.756 192.789ZM154.257 181.175C153.818 181.269 153.383 181.42 152.964 181.628C150.241 182.981 149.127 186.297 150.479 189.02C151.833 191.741 155.15 192.859 157.87 191.504C160.593 190.15 161.707 186.835 160.355 184.112C159.211 181.81 156.663 180.657 154.257 181.175Z" fill="#FFC727"/>
<path d="M170.256 188.072C167.853 188.468 165.267 186.366 164.348 183.175C163.884 181.565 163.906 179.913 164.41 178.527C164.929 177.092 165.9 176.105 167.141 175.748C168.386 175.387 169.729 175.711 170.933 176.65C172.097 177.558 172.992 178.944 173.455 180.554C174.425 183.926 173.173 187.258 170.663 187.981C170.528 188.019 170.393 188.05 170.256 188.072ZM167.692 176.495C167.586 176.513 167.481 176.536 167.377 176.566C166.405 176.846 165.635 177.645 165.209 178.817C164.768 180.037 164.752 181.5 165.165 182.94C166.007 185.862 168.36 187.76 170.427 187.163C172.487 186.571 173.478 183.711 172.638 180.79C172.224 179.351 171.432 178.119 170.409 177.321C169.531 176.636 168.579 176.349 167.692 176.495Z" fill="#FFC727"/>
<path d="M161.154 184.499L160.426 184.059C161.078 182.98 162.838 181.228 164.847 182.3L164.446 183.05C162.648 182.087 161.214 184.402 161.154 184.499Z" fill="#FFC727"/>
<path d="M134.842 195.207L134 195.081C134.059 194.688 134.622 191.221 136.321 190.315C137.91 189.473 149.05 186.801 149.524 186.689L149.722 187.516C146.527 188.279 137.948 190.412 136.722 191.066C135.6 191.664 134.985 194.258 134.842 195.207Z" fill="#FFC727"/>
<path d="M143.178 192.146C143.178 192.146 137.173 186.074 134.337 188.33C131.501 190.587 136.842 199.965 140.752 200.703C144.661 201.441 145.415 197.836 145.415 197.836L143.178 192.146Z" fill="#C95F50"/>
<path d="M135.933 190.981C135.873 190.986 135.876 191.07 135.931 191.083C138.687 191.685 140.453 193.842 141.827 196.157C140.898 195.335 139.764 194.991 138.643 196.122C138.584 196.181 138.667 196.276 138.736 196.248C139.753 195.841 140.546 195.893 141.404 196.617C142.011 197.129 142.486 197.827 142.967 198.456C143.127 198.666 143.522 198.471 143.389 198.221C143.379 198.203 143.368 198.184 143.358 198.165C142.859 194.867 139.517 190.707 135.933 190.981Z" fill="#263238"/>
<path d="M124.733 236.699C113.042 273.93 115.81 303.321 121.823 307.701C138.008 319.491 182.369 305.651 194.676 303.357C199.651 302.43 182.665 263.1 177.501 264.714C165.335 268.518 148.082 275.421 147.443 275.269C146.168 274.966 145.927 265.044 142.967 235.827C140.571 212.192 129.513 221.476 124.733 236.699Z" fill="#C95F50"/>
<path d="M239.747 254.476C240.317 259.419 228.01 259.79 228.01 259.79C228.01 259.79 231.117 261.26 232.271 264.354C233.592 267.897 228.615 271.524 228.615 271.524C228.615 271.524 231.452 273.663 232.342 277.054C233.266 280.573 228.766 284.948 228.766 284.948C228.766 284.948 230.314 288.392 228.981 291.875C226.702 297.829 216.965 299.02 211.083 300.947C204.782 303.011 194.833 302.774 190.119 304.196L175.439 266.344C175.439 266.344 196.653 249.044 207.689 247.371C213.812 246.444 238.876 246.921 239.747 254.476Z" fill="#C95F50"/>
<path d="M227.894 259.661C221.224 258.493 214.288 258.924 207.599 259.413C207.45 259.424 207.469 259.657 207.618 259.644C214.264 259.08 221.222 260.28 227.877 259.982C228.061 259.975 228.074 259.693 227.894 259.661Z" fill="#263238"/>
<path d="M228.383 271.043C226.867 270.824 225.282 271.106 223.774 271.293C222.15 271.494 220.531 271.723 218.915 271.977C215.679 272.486 212.455 273.067 209.251 273.744C209.109 273.774 209.119 273.999 209.271 273.975C212.496 273.474 215.729 273.021 218.973 272.657C220.596 272.474 222.221 272.306 223.847 272.148C225.36 272.001 226.967 271.972 228.42 271.49C228.633 271.418 228.612 271.076 228.383 271.043Z" fill="#263238"/>
<path d="M228.631 284.966C227.32 284.723 225.788 285.181 224.494 285.412C223.025 285.674 221.554 285.929 220.082 286.175C217.139 286.667 214.194 287.157 211.235 287.546C211.087 287.566 211.105 287.796 211.255 287.777C214.264 287.397 217.277 287.058 220.282 286.652C221.758 286.452 223.232 286.245 224.706 286.029C225.959 285.845 227.545 285.759 228.663 285.113C228.725 285.076 228.697 284.978 228.631 284.966Z" fill="#263238"/>
<path d="M147.441 275.27L154.854 272.344L162.307 269.524L169.803 266.817L173.569 265.506C174.853 265.084 176.037 264.647 177.465 264.353L177.282 264.424C181.806 261.119 186.384 257.897 191.143 254.94C193.522 253.463 195.924 252.019 198.407 250.72C199.653 250.078 200.914 249.465 202.206 248.922C203.498 248.387 204.824 247.896 206.207 247.672C204.834 247.95 203.537 248.49 202.273 249.073C201.009 249.664 199.779 250.323 198.565 251.01C196.141 252.392 193.766 253.859 191.432 255.391C186.78 258.475 182.182 261.657 177.716 265.002L177.658 265.046L177.533 265.073C176.362 265.328 175.044 265.815 173.803 266.205L170.033 267.477L162.514 270.1L154.987 272.707L147.441 275.27Z" fill="#263238"/>
<path d="M113.93 268.995L146.378 257.672C146.378 257.672 144.75 240.475 142.507 231.086C139.538 218.661 134.228 216.851 126.942 230.713C122.067 239.988 113.93 268.995 113.93 268.995Z" fill="#C7C7C7"/>
<path d="M116.15 264.769C120.758 262.795 125.383 260.891 130.101 259.19C132.454 258.342 134.818 257.528 137.195 256.752C139.569 255.977 142.031 255.443 144.39 254.634C144.52 254.59 144.583 254.801 144.45 254.839C142.055 255.521 139.727 256.538 137.371 257.35C135.006 258.166 132.645 258.993 130.29 259.834C125.586 261.514 120.874 263.186 116.21 264.972C116.08 265.024 116.026 264.822 116.15 264.769Z" fill="#263238"/>
<path d="M117.812 267.64C116.548 268.176 115.27 268.673 113.995 269.179L113.643 269.319L113.742 268.941C114.282 266.876 114.803 264.805 115.41 262.759C116.006 260.71 116.579 258.654 117.239 256.624C117.889 254.592 118.519 252.552 119.239 250.542C119.937 248.525 120.673 246.52 121.477 244.54C120.92 246.603 120.334 248.654 119.734 250.7C119.163 252.755 118.521 254.788 117.921 256.834C117.333 258.883 116.673 260.911 116.052 262.95C115.443 264.993 114.759 267.015 114.118 269.048L113.866 268.81C115.179 268.413 116.489 268.007 117.812 267.64Z" fill="#263238"/>
<path d="M119.26 248.523C119.204 249.511 119.053 250.484 118.91 251.458C118.738 252.427 118.574 253.398 118.314 254.353C118.369 253.365 118.52 252.392 118.664 251.418C118.835 250.449 119 249.478 119.26 248.523Z" fill="#263238"/>
<path d="M142.425 259.062C142.752 258.877 146.046 257.604 146.308 257.582C146.066 255.564 145.797 253.549 145.577 251.529C145.467 250.52 145.374 249.505 145.296 248.493C145.21 247.376 145.054 246.112 144.979 245.124C144.967 244.969 145.161 244.939 145.188 245.092C145.414 246.365 145.542 247.323 145.731 248.426C145.9 249.411 146.046 250.406 146.171 251.397C146.434 253.497 146.806 255.724 146.966 257.834C146.978 257.997 142.828 259.127 142.459 259.182C142.396 259.19 142.373 259.092 142.425 259.062Z" fill="#263238"/>
<path d="M146.509 246.72C146.532 247.34 146.46 247.948 146.395 248.557C146.302 249.162 146.216 249.768 146.034 250.362C146.01 249.742 146.083 249.134 146.148 248.525C146.242 247.92 146.328 247.314 146.509 246.72Z" fill="#263238"/>
<path d="M180.784 304.033L180.766 308.043L270.167 308.454L270.185 304.444L180.784 304.033Z" fill="#C7C7C7"/>
<path d="M199.913 304.127L196.834 308.123L270.166 308.461L270.185 304.451L199.913 304.127Z" fill="#A6A6A6"/>
<path d="M203.719 308.15L290.846 308.553L298.373 249.412L211.246 249.01L203.719 308.15Z" fill="#C7C7C7"/>
<path d="M245.742 278.757C245.677 281.685 247.999 284.071 250.928 284.084C253.857 284.097 256.284 281.734 256.349 278.806C256.414 275.877 254.092 273.492 251.163 273.478C248.234 273.465 245.807 275.828 245.742 278.757Z" fill="white"/>
<path d="M297.641 255.131C300.9 260.216 308.98 266.181 310.075 270.535C311.063 274.466 307.927 276.292 307.927 276.292C307.927 276.292 312.618 277.93 312.96 282.044C313.136 284.161 309.908 286.302 309.908 286.302C309.908 286.302 313.61 287.779 313.689 291.456C313.751 294.386 310.508 296.093 310.508 296.093C310.508 296.093 313.399 299.165 312.505 302.17C310.692 308.264 285.737 311.446 280.71 302.744C278.367 298.688 284.505 298.242 284.505 298.242C284.505 298.242 275.524 296.752 274.737 291.624C273.949 286.496 281.959 286.398 281.959 286.398C281.959 286.398 273.268 284.878 272.988 279.479C272.697 273.859 280.725 275.133 280.725 275.133C280.725 275.133 274.696 272.078 275.429 267.896C276.638 260.99 290.828 268.402 296.146 266.401L297.641 255.131Z" fill="#C95F50"/>
<path d="M310.034 296.437C310.116 296.42 310.156 296.531 310.075 296.563C302.121 299.609 292.449 300.519 284.172 298.308C283.9 298.236 283.9 297.763 284.215 297.785C293.182 298.432 301.192 298.292 310.034 296.437Z" fill="#263238"/>
<path d="M310.036 286.339C310.132 286.318 310.167 286.477 310.069 286.514C301.857 289.609 290.934 290.333 281.693 286.661C281.376 286.535 281.218 286.105 281.594 286.222C287.923 288.198 302.085 288.049 310.036 286.339Z" fill="#263238"/>
<path d="M280.134 274.653C289.131 277.832 298.241 277.807 307.596 276.436C307.718 276.418 307.731 276.592 307.633 276.635C303.24 278.553 297.186 278.805 292.46 278.603C287.932 278.409 283.886 277.325 280.024 274.968C279.872 274.876 279.941 274.585 280.134 274.653Z" fill="#263238"/>
</svg>
