<svg width="500" height="500" viewBox="0 0 500 500" fill="none" xmlns="http://www.w3.org/2000/svg">
<path d="M389.602 163.488C408.438 148.279 411.378 120.681 396.169 101.845C380.96 83.009 353.361 80.069 334.525 95.278C315.689 110.487 312.749 138.086 327.958 156.922C343.167 175.757 370.766 178.697 389.602 163.488Z" fill="#EBEBEB"/>
<path opacity="0.5" d="M375.433 171.142C352.377 178.516 327.704 165.796 320.33 142.74C312.954 119.677 325.668 95.0061 348.724 87.6321C357.582 84.7991 366.677 84.9321 374.939 87.4771C368.135 85.6581 360.746 85.7121 353.541 88.0171C333.493 94.4291 322.435 115.878 328.849 135.931C335.261 155.979 356.716 167.035 376.763 160.623C396.817 154.209 407.873 132.754 401.462 112.707C399.732 107.299 396.911 102.548 393.318 98.6201C398.001 103.365 401.665 109.251 403.834 116.032C411.208 139.089 398.496 163.766 375.433 171.142Z" fill="#DBDBDB"/>
<path d="M345.379 125.624C346.417 128.871 344.627 132.345 341.38 133.383C338.133 134.421 334.659 132.631 333.621 129.384C332.583 126.137 334.373 122.663 337.62 121.625C340.867 120.587 344.341 122.377 345.379 125.624Z" fill="#C7C7C7"/>
<path d="M385.256 112.87C386.294 116.117 384.504 119.591 381.257 120.629C378.01 121.667 374.536 119.877 373.498 116.63C372.46 113.383 374.25 109.909 377.497 108.871C380.744 107.833 384.218 109.623 385.256 112.87Z" fill="#C7C7C7"/>
<path d="M367.729 116.511C368.401 118.612 368.284 120.774 367.546 122.689C366.568 125.222 364.495 127.31 361.697 128.205C358.912 129.096 356.006 128.6 353.739 127.105C352.034 125.972 350.684 124.279 350.012 122.178L367.729 116.511Z" fill="#C7C7C7"/>
<path d="M367.545 122.688C366.567 125.221 364.494 127.309 361.696 128.204C358.911 129.095 356.005 128.599 353.738 127.104C355.028 124.944 357.154 123.195 359.827 122.34C362.501 121.485 365.242 121.678 367.545 122.688Z" fill="#DBDBDB"/>
<path d="M130.26 212.876C133.572 195.755 122.377 179.191 105.256 175.88C88.1352 172.568 71.5713 183.763 68.2598 200.884C64.9482 218.005 76.143 234.569 93.264 237.88C110.385 241.192 126.949 229.997 130.26 212.876Z" fill="#EBEBEB"/>
<path opacity="0.5" d="M91.253 237.432C74.387 233.01 64.301 215.746 68.724 198.88C73.148 182.01 90.408 171.922 107.273 176.346C113.753 178.045 119.23 181.64 123.27 186.378C119.836 182.644 115.323 179.823 110.053 178.44C95.388 174.594 80.38 183.362 76.533 198.031C72.687 212.696 81.46 227.705 96.124 231.551C110.793 235.398 125.802 226.626 129.648 211.961C130.685 208.005 130.805 204.027 130.138 200.251C131.152 204.944 131.106 209.938 129.805 214.899C125.383 231.765 108.123 241.857 91.253 237.432Z" fill="#DBDBDB"/>
<path d="M119.734 205.801C119.111 208.176 116.681 209.596 114.306 208.974C111.931 208.351 110.511 205.921 111.133 203.546C111.756 201.171 114.186 199.751 116.561 200.373C118.936 200.995 120.357 203.426 119.734 205.801Z" fill="#C7C7C7"/>
<path d="M90.565 198.151C89.942 200.526 87.512 201.946 85.137 201.324C82.762 200.701 81.342 198.271 81.965 195.896C82.588 193.521 85.018 192.101 87.393 192.723C89.767 193.346 91.188 195.776 90.565 198.151Z" fill="#C7C7C7"/>
<path d="M93.5633 196.943C93.6063 198.926 94.0993 200.851 95.1333 202.349C96.1753 203.845 97.7813 204.796 99.5603 205.272C101.318 205.783 103.179 205.752 104.838 204.978C106.495 204.207 107.929 202.84 109.062 201.211C108.482 203.12 107.211 204.894 105.384 206.004C104.476 206.568 103.414 206.889 102.34 207.012C101.262 207.101 100.179 206.979 99.1603 206.701C98.1533 206.404 97.1603 205.974 96.2793 205.35C95.4123 204.71 94.6543 203.899 94.1503 202.952C93.1333 201.058 92.9983 198.855 93.5633 196.943Z" fill="#C7C7C7"/>
<path d="M250 460.636C358.822 460.636 447.039 449.546 447.039 435.866C447.039 422.186 358.822 411.096 250 411.096C141.178 411.096 52.9609 422.186 52.9609 435.866C52.9609 449.546 141.178 460.636 250 460.636Z" fill="#EBEBEB"/>
<path d="M37.4336 396.757L90.5756 396.514L143.717 396.426L250 396.258L356.283 396.424L409.424 396.512L462.566 396.757L409.424 397.002L356.283 397.09L250 397.256L143.717 397.088L90.5756 397L37.4336 396.757Z" fill="#263238"/>
<path d="M434.616 260.032C457.467 237.181 457.467 200.132 434.616 177.28C411.765 154.429 374.716 154.429 351.864 177.28C329.013 200.132 329.013 237.181 351.864 260.032C374.716 282.884 411.765 282.884 434.616 260.032Z" fill="#FFC727"/>
<path opacity="0.1" d="M373.484 273.735C343.069 262.825 327.259 229.314 338.169 198.899C349.082 168.476 382.585 152.663 413 163.573C424.685 167.765 434.212 175.291 440.899 184.696C435.168 177.244 427.295 171.301 417.791 167.892C391.345 158.406 362.213 172.149 352.723 198.603C343.237 225.049 356.989 254.184 383.434 263.67C409.888 273.159 439.024 259.407 448.51 232.962C451.069 225.828 451.938 218.504 451.321 211.424C452.43 220.253 451.532 229.464 448.323 238.411C437.413 268.826 403.907 284.647 373.484 273.735Z" fill="black"/>
<path d="M363.096 195.543C363.485 193.267 364.971 191.175 366.991 189.814C368.001 189.115 369.202 188.658 370.463 188.461C371.729 188.272 373.05 188.429 374.255 188.847C375.45 189.288 376.569 190.007 377.429 190.955C378.277 191.909 378.918 193.024 379.253 194.207C379.95 196.544 379.758 199.105 378.607 201.106C378.887 198.847 378.519 196.665 377.674 194.799C376.82 192.927 375.349 191.541 373.525 190.88C371.7 190.226 369.683 190.367 367.831 191.269C365.99 192.174 364.315 193.622 363.096 195.543Z" fill="#263238"/>
<path d="M415.699 214.412C416.088 212.136 417.574 210.044 419.594 208.683C420.604 207.984 421.805 207.527 423.066 207.33C424.332 207.141 425.653 207.298 426.858 207.716C428.053 208.157 429.172 208.876 430.032 209.824C430.88 210.778 431.521 211.893 431.856 213.076C432.553 215.413 432.361 217.974 431.21 219.975C431.49 217.716 431.122 215.534 430.277 213.668C429.423 211.796 427.952 210.41 426.128 209.749C424.302 209.095 422.286 209.236 420.434 210.138C418.594 211.043 416.918 212.491 415.699 214.412Z" fill="#263238"/>
<path d="M386.312 201.216C386.119 204.27 386.637 207.303 388.053 209.748C389.481 212.193 391.859 213.861 394.553 214.806C397.213 215.802 400.105 215.969 402.76 214.955C405.411 213.946 407.773 211.99 409.683 209.599C408.543 212.457 406.373 215.022 403.438 216.504C401.978 217.258 400.314 217.624 398.654 217.686C396.992 217.696 395.346 217.381 393.816 216.836C392.305 216.264 390.833 215.489 389.554 214.432C388.298 213.353 387.229 212.023 386.562 210.515C385.214 207.499 385.245 204.1 386.312 201.216Z" fill="#263238"/>
<path d="M89.8044 351.261C114.691 350.008 133.849 328.817 132.595 303.931C131.342 279.045 110.152 259.887 85.2654 261.14C60.3793 262.394 41.2212 283.584 42.4746 308.47C43.728 333.356 64.9183 352.515 89.8044 351.261Z" fill="#FFC727"/>
<path opacity="0.1" d="M100.507 349.428C76.6416 356.586 51.4886 343.036 44.3306 319.171C37.1706 295.3 50.7146 270.149 74.5786 262.99C83.7476 260.24 93.1036 260.547 101.559 263.32C94.5916 261.321 86.9856 261.239 79.5276 263.476C58.7776 269.7 46.9966 291.567 53.2226 312.323C59.4466 333.073 81.3196 344.852 102.07 338.628C122.827 332.402 134.605 310.529 128.381 289.779C126.702 284.181 123.887 279.24 120.263 275.13C124.994 280.1 128.655 286.225 130.76 293.245C137.92 317.11 124.378 342.268 100.507 349.428Z" fill="black"/>
<path d="M59.0003 308.081C58.1373 306.509 58.0643 304.505 58.6883 302.705C58.9883 301.792 59.5333 300.941 60.2373 300.222C60.9493 299.507 61.8643 298.988 62.8233 298.692C63.7873 298.415 64.8363 298.352 65.8243 298.559C66.8063 298.778 67.7293 299.19 68.4803 299.792C69.9883 300.96 71.0163 302.685 71.1463 304.473C70.2253 302.97 68.9863 301.834 67.6263 301.098C66.2553 300.366 64.7763 300.205 63.3913 300.608C62.0113 301.022 60.8613 301.967 60.1113 303.331C59.3723 304.691 58.9503 306.319 59.0003 308.081Z" fill="#263238"/>
<path d="M111.703 289.644C112.711 293.005 110.804 296.546 107.443 297.554C104.082 298.562 100.541 296.655 99.5332 293.294C98.5252 289.933 100.432 286.392 103.793 285.384C107.153 284.376 110.695 286.283 111.703 289.644Z" fill="#263238"/>
<path d="M75.6908 302.136C75.6908 302.136 78.5638 306.013 85.4438 305.386C85.4438 305.386 84.4768 318.338 76.3278 315.286C68.1788 312.233 75.6908 302.136 75.6908 302.136Z" fill="#DD6A57"/>
<path d="M73.1875 298.318C74.6925 300.716 76.7205 302.714 79.1045 303.786C81.4975 304.851 84.1845 304.819 86.7195 304.074C89.2555 303.385 91.5185 301.948 92.9635 299.752C94.4095 297.562 95.1265 294.817 95.2695 291.989C95.9575 294.751 95.7135 297.85 94.3095 300.549C93.6205 301.904 92.5685 303.078 91.3545 304.021C90.1115 304.927 88.7055 305.58 87.2615 305.997C85.8175 306.383 84.2935 306.597 82.7615 306.494C81.2355 306.362 79.7135 305.941 78.3985 305.169C75.7565 303.63 73.9435 301.061 73.1875 298.318Z" fill="#263238"/>
<path d="M77.9043 311.862C77.9413 310.585 78.2673 309.41 78.6603 308.259C79.0833 307.119 79.5753 306.004 80.3573 304.992C80.3223 306.27 79.9963 307.445 79.6013 308.595C79.1763 309.734 78.6843 310.849 77.9043 311.862Z" fill="#263238"/>
<path d="M221.019 430.675C182.451 430.675 151.074 391.513 151.074 343.375C151.074 295.237 182.451 256.074 221.019 256.074C259.587 256.074 290.964 295.237 290.964 343.375C290.964 391.513 259.587 430.675 221.019 430.675ZM221.019 263.074C186.311 263.074 158.074 299.096 158.074 343.375C158.074 387.652 186.311 423.675 221.019 423.675C255.727 423.675 283.964 387.653 283.964 343.375C283.964 299.097 255.727 263.074 221.019 263.074Z" fill="#263238"/>
<path d="M226.54 420.764C192.419 420.764 164.66 386.047 164.66 343.375C164.66 300.702 192.419 265.985 226.54 265.985C260.661 265.985 288.421 300.702 288.421 343.375C288.42 386.047 260.661 420.764 226.54 420.764ZM226.54 270.985C195.177 270.985 169.66 303.459 169.66 343.375C169.66 383.29 195.177 415.764 226.54 415.764C257.904 415.764 283.421 383.29 283.421 343.375C283.42 303.459 257.904 270.985 226.54 270.985Z" fill="#C7C7C7"/>
<path d="M227.37 239.622H124.014V279.527H227.37V239.622Z" fill="#A6A6A6"/>
<path d="M210.618 375.518H124.014V370.518H210.618C218.451 370.518 224.824 364.145 224.824 356.312V162.74C224.824 152.15 233.44 143.534 244.03 143.534H255.701V148.534H244.03C236.197 148.534 229.824 154.906 229.824 162.74V356.311C229.824 366.901 221.208 375.518 210.618 375.518Z" fill="#C7C7C7"/>
<path d="M126.514 402.528H121.514V237.566C121.514 228.031 129.271 220.274 138.806 220.274H227.324V225.274H138.806C132.028 225.274 126.514 230.788 126.514 237.566V402.528Z" fill="#C7C7C7"/>
<path d="M224.155 356.027C229.696 356.027 234.187 350.362 234.187 343.375C234.187 336.387 229.696 330.723 224.155 330.723C218.615 330.723 214.123 336.387 214.123 343.375C214.123 350.362 218.615 356.027 224.155 356.027Z" fill="#C7C7C7"/>
<path d="M227.37 356.027C232.91 356.027 237.402 350.362 237.402 343.375C237.402 336.387 232.91 330.723 227.37 330.723C221.829 330.723 217.338 336.387 217.338 343.375C217.338 350.362 221.829 356.027 227.37 356.027Z" fill="#DBDBDB"/>
<path d="M318.214 340.875H227.369V345.875H318.214V340.875Z" fill="#C7C7C7"/>
<path d="M122.148 433.072C129.355 433.072 135.198 425.703 135.198 416.613C135.198 407.523 129.355 400.154 122.148 400.154C114.94 400.154 109.098 407.523 109.098 416.613C109.098 425.703 114.94 433.072 122.148 433.072Z" fill="#C7C7C7"/>
<path d="M126.329 433.072C133.537 433.072 139.379 425.703 139.379 416.613C139.379 407.523 133.537 400.154 126.329 400.154C119.122 400.154 113.279 407.523 113.279 416.613C113.279 425.703 119.122 433.072 126.329 433.072Z" fill="#DBDBDB"/>
<path d="M271.188 140.885H240.213V150.826H271.188V140.885Z" fill="#263238"/>
<path d="M318.216 163.816H229.91V259.574H318.216V163.816Z" fill="#263238"/>
<path d="M217.339 407.888H101.352V422.852H217.339V407.888Z" fill="#263238"/>
<path d="M254.102 93.009C257.023 88.3 263.076 86.246 269.337 86.37C275.599 86.494 283.337 88.166 285.719 97.691C287.652 105.425 286.466 113.496 288.058 122.221C289.65 130.946 303.746 150.452 289.013 163.681C275.779 175.564 244.075 172.185 239.737 153.147C236.298 138.055 252.714 120.738 253.637 114.368C254.561 108 250.899 98.171 254.102 93.009Z" fill="#263238"/>
<path d="M252.906 102.066C253.564 106.441 253.691 110.957 252.526 115.396C252.242 116.501 251.754 117.609 251.161 118.606C250.581 119.613 249.95 120.573 249.323 121.53C248.044 123.43 246.779 125.316 245.615 127.249C243.271 131.1 241.356 135.167 240.267 139.441C239.175 143.711 238.976 148.165 239.613 152.549C239.022 150.408 238.731 148.189 238.653 145.958C238.611 143.724 238.834 141.478 239.276 139.265C240.152 134.823 242.1 130.6 244.457 126.668C245.65 124.704 246.955 122.805 248.247 120.923C249.543 119.03 250.873 117.22 251.518 115.147C252.215 113.075 252.55 110.881 252.729 108.689C252.954 106.492 252.967 104.281 252.906 102.066Z" fill="#263238"/>
<path d="M286.461 104.341C287.135 108.803 287.63 113.288 288.539 117.677C289.017 119.865 289.533 122.042 290.285 124.142C291.006 126.22 292.057 128.246 293.002 130.316C293.942 132.39 294.838 134.494 295.602 136.648C296.33 138.814 296.93 141.031 297.247 143.298C297.527 145.572 297.517 147.885 297.117 150.156C296.606 152.416 295.629 154.567 294.232 156.448C295.371 154.423 296.188 152.292 296.471 150.074C296.727 147.86 296.624 145.635 296.232 143.451C295.383 139.085 293.678 134.911 291.773 130.811C290.859 128.744 289.806 126.716 289.082 124.504C288.382 122.319 287.868 120.094 287.532 117.849C286.824 113.365 286.587 108.853 286.461 104.341Z" fill="#263238"/>
<path d="M85.4796 407.124C88.1516 408.024 164.694 408.17 167.617 406.332C168.729 405.641 169.4 394.494 169.83 381.003C169.923 378.089 170.001 375.081 170.064 372.024C170.492 352.182 173.638 331.118 173.638 331.118L122.437 330.871L120.273 371.784L120.483 380.765C120.483 380.765 91.1516 393.816 88.1626 396.177C85.1886 398.539 82.8076 406.225 85.4796 407.124Z" fill="#EB9481"/>
<path d="M169.609 387.063C169.179 397.693 168.559 405.753 167.619 406.333C164.699 408.173 88.1486 408.023 85.4786 407.123C82.8086 406.223 85.1886 398.543 88.1586 396.183C89.4786 395.143 95.8586 392.043 102.609 388.893H102.629C102.629 388.893 95.9586 394.273 98.4186 395.043C111.339 399.073 155.539 390.093 169.609 387.063Z" fill="#FFC727"/>
<path d="M275.724 193.726H247.877L240.204 203.827C240.204 203.827 159.326 217.128 142.138 239.297C122.4 264.754 115.893 367.986 115.893 367.986H172.536C172.536 367.986 180.48 276.272 186.263 268.699C192.046 261.126 272.063 259.692 287.532 248.164C303.002 236.636 291.094 193.726 291.094 193.726H275.724Z" fill="#455A64"/>
<path d="M170.243 358.897C168.581 358.65 166.895 358.622 165.218 358.549C163.558 358.477 161.897 358.43 160.237 358.368C156.835 358.241 153.429 358.217 150.025 358.169C143.217 358.073 136.41 357.995 129.601 358.024C127.692 358.032 125.78 358.015 123.872 358.061C121.966 358.107 120.037 358.095 118.142 358.312C118.064 358.321 118.025 358.452 118.121 358.465C121.406 358.927 124.791 358.906 128.102 359.005C131.506 359.107 134.909 359.202 138.313 359.265C145.12 359.391 151.929 359.465 158.737 359.5C160.646 359.51 162.557 359.472 164.466 359.449C166.372 359.427 168.302 359.456 170.196 359.225C170.363 359.206 170.449 358.927 170.243 358.897Z" fill="#263238"/>
<path d="M283.285 240.819C271.55 245.637 259.088 248.459 246.609 250.558C234.052 252.67 221.386 254.029 208.766 255.689C202.431 256.522 195.983 257.231 189.827 259.004C187.156 259.773 184.342 260.687 182.16 262.473C179.919 264.306 178.922 266.971 178.307 269.72C176.849 276.236 175.782 282.864 174.652 289.443C173.502 296.141 172.457 302.856 171.453 309.577C169.432 323.11 167.695 336.681 165.953 350.252C165.743 351.889 165.557 353.528 165.364 355.167C165.344 355.338 165.603 355.409 165.629 355.233C167.627 341.881 169.42 328.499 171.433 315.149C173.446 301.795 175.611 288.461 178.115 275.189C178.67 272.245 179.005 269.049 180.264 266.3C181.518 263.562 183.916 261.975 186.644 260.906C192.598 258.573 199.07 257.771 205.363 256.891C217.801 255.152 230.299 253.829 242.695 251.793C255.075 249.759 267.258 246.943 279.052 242.622C280.488 242.096 281.915 241.544 283.332 240.969C283.422 240.931 283.378 240.781 283.285 240.819Z" fill="#263238"/>
<path d="M128.441 414.612C131.113 415.512 207.655 415.659 210.578 413.82C211.69 413.129 212.361 401.982 212.79 388.491C212.883 385.577 212.961 382.569 213.024 379.512C213.452 359.67 213.443 338.606 213.443 338.606L162.242 338.359L163.233 379.272L163.443 388.253C163.443 388.253 134.112 401.304 131.123 403.665C128.15 406.027 125.769 413.712 128.441 414.612Z" fill="#EB9481"/>
<path d="M213.44 338.609C213.44 338.609 213.45 359.669 213.02 379.509C212.96 382.569 212.88 385.579 212.79 388.489C212.73 390.579 212.65 392.599 212.57 394.549C212.14 405.179 211.52 413.239 210.58 413.819C207.66 415.659 131.11 415.509 128.44 414.609C125.77 413.709 128.15 406.029 131.12 403.669C132.44 402.629 138.82 399.529 145.57 396.379H145.59C154.22 392.359 163.44 388.249 163.44 388.249L163.23 379.269L162.24 338.359L213.44 338.609Z" fill="#EB9481"/>
<path d="M212.57 394.549C212.14 405.179 211.52 413.239 210.58 413.819C207.66 415.659 131.11 415.509 128.44 414.609C125.77 413.709 128.15 406.029 131.12 403.669C132.44 402.629 138.82 399.529 145.57 396.379H145.59C145.59 396.379 138.92 401.759 141.38 402.529C154.3 406.559 198.5 397.579 212.57 394.549Z" fill="#FFC727"/>
<path d="M163.628 388.472C163.63 388.468 163.631 388.464 163.633 388.46C163.645 388.432 163.667 388.413 163.666 388.376C163.648 385.638 162.928 373.333 162.907 371.919C162.906 371.818 162.748 371.822 162.751 371.923C162.788 373.295 162.948 385.502 163.21 388.145C157.734 390.305 152.339 392.627 146.979 395.059C144.296 396.277 141.628 397.528 138.98 398.821C136.727 399.921 134.391 400.972 132.331 402.416C130.358 403.799 128.704 405.696 128.18 408.104C128.157 408.211 128.324 408.289 128.368 408.178C129.187 406.1 130.852 404.693 132.667 403.485C134.673 402.149 136.879 401.124 139.024 400.038C144.167 397.434 149.347 394.896 154.617 392.56C157.572 391.25 160.506 389.901 163.477 388.625C163.522 388.606 163.556 388.577 163.583 388.545C163.604 388.528 163.614 388.5 163.628 388.472Z" fill="#263238"/>
<path d="M159.811 375.474L217.442 375.501C217.442 375.501 210.929 279.163 221.002 271.689C233.876 262.136 273.62 263.71 296.187 248.052C314.514 235.336 301.66 193.706 301.66 193.706H250.668C250.668 193.706 244.275 201.501 243.091 206.076C243.091 206.076 185.594 222.892 170.911 241.514C151.235 266.467 159.811 375.474 159.811 375.474Z" fill="#455A64"/>
<path d="M240.937 207.317C228.375 210.921 215.801 214.858 203.769 219.992C197.843 222.52 192.057 225.409 186.56 228.773C181.138 232.091 175.681 235.787 171.611 240.739C167.776 245.405 165.414 251.064 163.86 256.855C162.165 263.168 161.264 269.708 160.456 276.184C158.683 290.405 157.925 304.735 157.747 319.06C157.658 326.238 157.717 333.415 157.869 340.591C158.021 347.816 158.211 355.065 158.779 362.271C158.919 364.047 159.008 365.827 159.139 367.604C159.146 367.704 159.294 367.701 159.295 367.6C159.433 353.399 158.956 339.201 158.983 324.998C159.01 310.832 159.497 296.645 160.976 282.551C161.687 275.77 162.534 268.962 163.863 262.271C165.036 256.361 166.73 250.445 169.874 245.257C173.182 239.798 178.111 235.766 183.363 232.268C188.724 228.697 194.395 225.585 200.214 222.829C211.897 217.294 224.14 213.139 236.441 209.223C237.984 208.732 239.515 208.205 241.051 207.694C241.288 207.612 241.18 207.248 240.937 207.317Z" fill="#263238"/>
<path d="M248.918 207.326C248.122 207.121 247.358 206.821 246.547 206.672C245.739 206.524 244.923 206.404 244.109 206.296C242.516 206.086 240.92 205.907 239.32 205.757C236.053 205.45 232.776 205.433 229.505 205.218C229.405 205.211 229.409 205.368 229.509 205.374C232.801 205.591 236.082 206.18 239.344 206.66C240.927 206.893 242.509 207.139 244.088 207.394C244.899 207.525 245.714 207.658 246.529 207.76C247.302 207.856 248.082 207.824 248.856 207.896C249.187 207.926 249.224 207.405 248.918 207.326Z" fill="#263238"/>
<path d="M253.511 194.528C252.417 196.107 251.398 197.742 250.341 199.346C249.822 200.133 249.303 200.92 248.785 201.707C248.328 202.401 247.897 203.138 247.341 203.759C246.369 204.846 244.252 205.557 243.726 203.664C243.506 202.871 243.749 202.057 244.057 201.323C244.387 200.538 244.763 199.77 245.153 199.013C246.073 197.226 247.139 195.545 248.168 193.823C248.221 193.735 248.094 193.644 248.024 193.718C246.638 195.173 245.463 196.896 244.439 198.62C243.524 200.16 242.292 202.001 242.73 203.882C243.116 205.54 244.88 206.284 246.39 205.581C248.074 204.797 248.932 202.758 249.82 201.25C251.116 199.048 252.471 196.874 253.715 194.643C253.792 194.507 253.596 194.406 253.511 194.528Z" fill="#263238"/>
<path d="M292.641 219.359C291.496 219.062 290.266 219.001 289.1 218.783C287.915 218.561 286.73 218.344 285.561 218.05C283.341 217.493 281.111 216.825 279.003 215.926C277.16 215.14 275.392 214.139 273.973 212.706C272.426 211.143 271.638 209.127 271.197 207.007C270.943 205.788 270.776 204.546 270.617 203.311C270.457 202.07 270.376 200.727 270.858 199.549C270.865 199.541 270.874 199.537 270.878 199.526C270.905 199.451 270.932 199.376 270.959 199.301C270.998 199.193 270.839 199.149 270.783 199.232C270.175 200.138 269.936 201.191 269.917 202.272C269.896 203.474 269.943 204.692 270.04 205.89C270.228 208.208 270.668 210.629 272.014 212.58C274.673 216.434 279.617 218.098 283.981 219.079C285.397 219.397 286.847 219.638 288.291 219.784C289.025 219.858 289.756 219.874 290.492 219.895C291.218 219.916 291.935 219.976 292.655 219.857C292.917 219.812 292.867 219.417 292.641 219.359Z" fill="#263238"/>
<path d="M298.92 203.131C298.522 201.244 298.097 199.362 297.681 197.479C297.659 197.38 297.517 197.427 297.536 197.524C300.266 211.184 303.164 227.392 294.312 239.439C290.232 244.992 284.104 247.755 277.778 249.593C270.801 251.62 263.672 253.102 256.605 254.747C249.4 256.424 242.204 258.192 235.161 260.51C229.096 262.506 222.593 264.686 217.573 268.886C215.23 270.847 213.339 273.288 212.105 276.14C210.821 279.108 210.212 282.326 209.869 285.542C209.492 289.07 209.38 292.631 209.225 296.175C209.047 300.23 208.909 304.286 208.8 308.343C208.366 324.464 208.447 340.594 209.065 356.709C209.141 358.683 209.227 360.655 209.337 362.627C209.356 362.967 209.861 362.957 209.85 362.614C209.33 346.436 209.006 330.272 209.314 314.085C209.466 306.101 209.718 298.113 210.138 290.138C210.494 283.367 211.329 276.163 216.11 271.065C220.663 266.21 227.272 263.862 233.328 261.773C240.337 259.355 247.519 257.528 254.719 255.836C261.906 254.147 269.138 252.628 276.275 250.718C282.408 249.076 288.661 246.822 293.157 241.987C302.756 231.663 301.638 216.012 298.92 203.131Z" fill="#263238"/>
<path d="M214.441 367.107C212.772 366.909 211.087 366.931 209.408 366.907C207.747 366.884 206.085 366.886 204.424 366.873C201.02 366.846 197.614 366.922 194.211 366.974C187.403 367.078 180.596 367.2 173.791 367.43C171.883 367.494 169.972 367.533 168.065 367.636C166.162 367.738 164.232 367.783 162.345 368.056C162.267 368.067 162.232 368.199 162.328 368.21C165.625 368.575 169.008 368.455 172.321 368.456C175.726 368.458 179.13 368.452 182.535 368.415C189.343 368.34 196.151 368.215 202.957 368.049C204.866 368.003 206.775 367.908 208.682 367.83C210.587 367.752 212.517 367.724 214.403 367.437C214.571 367.413 214.648 367.132 214.441 367.107Z" fill="#263238"/>
<path d="M267.855 146.197C247.761 147.015 230.146 139.514 223.533 135.72C217.962 132.524 194.896 86.803 195.721 83.551C196.659 79.859 215.205 81.829 222.109 87.581C222.827 88.179 236.147 119.274 237.767 120.302C240.728 122.179 256.487 129.63 263.191 133.146C274.346 138.994 277.969 145.786 267.855 146.197Z" fill="#EB9481"/>
<path d="M268.807 147.626C262.293 148.606 248.859 147.351 248.859 147.351L244.678 123.092C244.678 123.092 264.515 130.988 273.219 138.779C276.711 141.905 275.393 146.635 268.807 147.626Z" fill="#DBDBDB"/>
<path d="M248.721 130.44C248.338 129.843 248.097 129.204 247.891 128.554C247.703 127.899 247.549 127.233 247.539 126.523C247.923 127.119 248.164 127.759 248.369 128.409C248.556 129.065 248.71 129.731 248.721 130.44Z" fill="white"/>
<path d="M268.045 140.594C268.641 140.211 269.281 139.97 269.931 139.764C270.586 139.575 271.252 139.422 271.962 139.412C271.366 139.796 270.726 140.037 270.076 140.242C269.42 140.429 268.754 140.583 268.045 140.594Z" fill="white"/>
<path d="M257.788 136.493C257.637 137.186 257.354 137.808 257.04 138.414C256.71 139.011 256.349 139.59 255.854 140.099C256.004 139.406 256.286 138.783 256.601 138.178C256.932 137.581 257.294 137.002 257.788 136.493Z" fill="white"/>
<path d="M268.81 147.63C262.29 148.61 248.86 147.35 248.86 147.35L247.99 142.28L271.44 137.3C272.07 137.79 272.67 138.29 273.22 138.78C276.71 141.9 275.39 146.64 268.81 147.63Z" fill="#C7C7C7"/>
<path d="M252.111 146.62C251.728 142.977 251.293 139.348 250.696 135.732C250.398 133.928 250.074 132.131 249.722 130.337C249.37 128.546 248.833 126.785 248.508 124.993C248.49 124.894 248.332 124.929 248.356 125.028C248.775 126.799 248.956 128.647 249.278 130.439C249.601 132.238 249.915 134.039 250.218 135.841C250.823 139.44 251.437 143.042 251.96 146.654C251.973 146.756 252.121 146.718 252.111 146.62Z" fill="#263238"/>
<path d="M241.734 200.651C241.734 200.651 263.833 208.68 307.323 209.971C307.323 209.971 296.741 154.27 284.867 138.204C279.464 130.893 273.315 131.199 267.711 134.845C266.313 135.756 248.168 153.982 246.015 160.82C244.112 166.863 248.337 174.307 248.337 174.307L241.734 200.651Z" fill="#DBDBDB"/>
<path d="M287.828 185.037C287.445 184.44 287.204 183.801 286.998 183.151C286.809 182.496 286.656 181.83 286.646 181.121C287.03 181.717 287.272 182.357 287.477 183.007C287.664 183.662 287.817 184.328 287.828 185.037Z" fill="white"/>
<path d="M271.977 159.843C271.594 159.246 271.353 158.607 271.147 157.957C270.959 157.302 270.805 156.636 270.795 155.926C271.18 156.522 271.42 157.162 271.625 157.812C271.812 158.468 271.966 159.134 271.977 159.843Z" fill="white"/>
<path d="M300.043 207.583C299.66 206.986 299.419 206.347 299.213 205.697C299.024 205.042 298.871 204.376 298.861 203.666C299.246 204.262 299.486 204.902 299.691 205.552C299.878 206.208 300.032 206.874 300.043 207.583Z" fill="white"/>
<path d="M260.662 187.411C260.279 186.814 260.038 186.175 259.832 185.525C259.643 184.87 259.49 184.204 259.48 183.494C259.865 184.09 260.105 184.73 260.31 185.38C260.497 186.036 260.651 186.702 260.662 187.411Z" fill="white"/>
<path d="M279.975 138.604C279.591 138.007 279.351 137.368 279.145 136.718C278.957 136.063 278.803 135.397 278.793 134.687C279.178 135.283 279.418 135.923 279.623 136.573C279.81 137.229 279.964 137.895 279.975 138.604Z" fill="white"/>
<path d="M271.672 180.061C272.269 179.678 272.908 179.437 273.558 179.231C274.213 179.042 274.879 178.889 275.588 178.879C274.992 179.264 274.352 179.504 273.702 179.709C273.047 179.896 272.381 180.05 271.672 180.061Z" fill="white"/>
<path d="M251.293 166.724C251.889 166.341 252.529 166.1 253.179 165.894C253.834 165.705 254.5 165.552 255.209 165.542C254.613 165.927 253.973 166.167 253.323 166.372C252.668 166.559 252.002 166.713 251.293 166.724Z" fill="white"/>
<path d="M268.043 140.594C268.639 140.211 269.279 139.97 269.929 139.764C270.584 139.575 271.25 139.422 271.96 139.412C271.364 139.796 270.724 140.037 270.074 140.242C269.418 140.429 268.752 140.583 268.043 140.594Z" fill="white"/>
<path d="M259.971 200.967C260.567 200.584 261.207 200.343 261.857 200.137C262.512 199.948 263.178 199.794 263.888 199.785C263.292 200.17 262.652 200.41 262.002 200.615C261.346 200.802 260.68 200.956 259.971 200.967Z" fill="white"/>
<path d="M288.967 156.864C289.564 156.481 290.203 156.24 290.853 156.034C291.508 155.846 292.174 155.692 292.884 155.682C292.288 156.067 291.648 156.307 290.998 156.512C290.342 156.699 289.676 156.853 288.967 156.864Z" fill="white"/>
<path d="M288 198.368C288.597 197.985 289.236 197.744 289.886 197.538C290.541 197.35 291.207 197.196 291.916 197.186C291.32 197.571 290.68 197.811 290.03 198.016C289.375 198.204 288.709 198.358 288 198.368Z" fill="white"/>
<path d="M277.938 192.053C277.245 191.902 276.623 191.62 276.017 191.306C275.42 190.976 274.841 190.614 274.332 190.119C275.026 190.269 275.648 190.551 276.253 190.866C276.849 191.197 277.429 191.559 277.938 192.053Z" fill="white"/>
<path d="M251.735 179.626C251.042 179.475 250.42 179.193 249.814 178.879C249.217 178.549 248.638 178.187 248.129 177.692C248.822 177.842 249.445 178.124 250.05 178.439C250.647 178.77 251.226 179.133 251.735 179.626Z" fill="white"/>
<path d="M283.655 167.444C282.962 167.293 282.34 167.011 281.734 166.697C281.137 166.367 280.558 166.005 280.049 165.51C280.742 165.66 281.365 165.942 281.97 166.257C282.566 166.588 283.146 166.95 283.655 167.444Z" fill="white"/>
<path d="M264.381 152.519C263.688 152.368 263.066 152.086 262.46 151.772C261.863 151.442 261.284 151.08 260.775 150.585C261.469 150.735 262.091 151.017 262.696 151.332C263.293 151.663 263.872 152.025 264.381 152.519Z" fill="white"/>
<path d="M301.274 190.109C300.581 189.958 299.959 189.676 299.353 189.362C298.756 189.032 298.177 188.67 297.668 188.175C298.361 188.325 298.984 188.607 299.589 188.922C300.186 189.253 300.765 189.615 301.274 190.109Z" fill="white"/>
<path d="M296.122 169.856C295.971 170.549 295.689 171.171 295.375 171.777C295.045 172.374 294.683 172.953 294.188 173.462C294.338 172.769 294.62 172.146 294.935 171.541C295.266 170.945 295.628 170.365 296.122 169.856Z" fill="white"/>
<path d="M265.246 169.122C265.095 169.815 264.813 170.437 264.499 171.043C264.169 171.64 263.808 172.219 263.312 172.728C263.463 172.034 263.744 171.412 264.059 170.807C264.39 170.21 264.752 169.63 265.246 169.122Z" fill="white"/>
<path d="M250.661 194.284C250.51 194.977 250.228 195.599 249.914 196.205C249.584 196.802 249.222 197.381 248.727 197.889C248.877 197.196 249.159 196.573 249.474 195.968C249.805 195.373 250.168 194.793 250.661 194.284Z" fill="white"/>
<path d="M279.62 202.013C279.469 202.706 279.187 203.328 278.873 203.934C278.543 204.531 278.181 205.11 277.686 205.619C277.836 204.926 278.118 204.303 278.433 203.698C278.764 203.102 279.126 202.522 279.62 202.013Z" fill="white"/>
<path d="M283.032 146.197C282.881 146.89 282.599 147.512 282.285 148.118C281.955 148.715 281.593 149.294 281.098 149.803C281.248 149.11 281.53 148.487 281.845 147.882C282.177 147.286 282.539 146.706 283.032 146.197Z" fill="white"/>
<path d="M252.526 153.224C252.375 153.917 252.093 154.539 251.779 155.145C251.449 155.742 251.087 156.321 250.592 156.83C250.742 156.136 251.024 155.514 251.339 154.909C251.67 154.312 252.032 153.732 252.526 153.224Z" fill="white"/>
<path d="M277.772 134.694C277.578 135.877 272.527 143.807 267.189 143.915C265.45 143.947 264.852 134.464 264.852 134.464L264.648 133.774L261.797 124.114L272.821 115.95L274.42 114.86C274.42 114.86 275.026 117.554 275.746 120.917C275.78 121.073 275.815 121.229 275.849 121.396C275.895 121.585 275.94 121.763 275.975 121.942C276.089 122.443 276.203 122.955 276.307 123.467C276.387 123.856 276.467 124.235 276.536 124.647C276.616 125.059 276.685 125.46 276.766 125.872C277.467 129.947 277.847 134.192 277.772 134.694Z" fill="#EB9481"/>
<path d="M275.746 120.917C273.46 128.911 267.439 132.511 264.648 133.775L261.797 124.115L272.821 115.951L274.42 114.861C274.42 114.861 275.025 117.554 275.746 120.917Z" fill="#263238"/>
<path d="M255.854 88.818C255.854 88.818 269.883 81.998 278.14 90.09C286.397 98.182 278.792 110.682 278.792 110.682C278.792 110.682 281.8 95.079 274.067 90.977C266.334 86.875 255.854 88.818 255.854 88.818Z" fill="#FFC727"/>
<path d="M247.141 109.111C245.675 126.726 256.06 129.594 259.859 129.906C263.307 130.189 275.086 130.715 278.364 113.346C281.643 95.9761 273.916 89.7261 266.063 88.6611C258.21 87.5961 248.608 91.4951 247.141 109.111Z" fill="#EB9481"/>
<path d="M251.771 106.327C252.188 106.304 252.569 106.214 252.979 106.148C253.442 106.074 253.818 106.063 254.176 105.731C254.368 105.553 254.377 105.168 254.222 104.965C253.859 104.492 253.27 104.442 252.71 104.508C252.102 104.579 251.651 104.79 251.226 105.229C250.812 105.655 251.221 106.358 251.771 106.327Z" fill="#263238"/>
<path d="M263.883 107.412C263.472 107.338 263.105 107.202 262.706 107.088C262.256 106.959 261.884 106.902 261.569 106.528C261.4 106.328 261.438 105.944 261.617 105.762C262.034 105.337 262.625 105.358 263.173 105.492C263.768 105.637 264.19 105.901 264.559 106.388C264.916 106.86 264.425 107.509 263.883 107.412Z" fill="#263238"/>
<path d="M261.055 111.137C261.068 111.092 261.144 111.202 261.138 111.251C260.999 112.447 261.04 113.84 262.092 114.33C262.125 114.345 262.116 114.405 262.076 114.396C260.768 114.098 260.731 112.248 261.055 111.137Z" fill="#263238"/>
<path d="M262.233 109.975C264.174 109.991 263.998 113.873 262.2 113.857C260.43 113.843 260.606 109.961 262.233 109.975Z" fill="#263238"/>
<path d="M262.985 110.215C263.314 110.45 263.629 110.853 264.035 110.912C264.506 110.98 264.881 110.59 265.208 110.213C265.242 110.174 265.274 110.209 265.272 110.261C265.249 111.005 264.929 111.755 264.126 111.83C263.394 111.898 262.902 111.216 262.75 110.46C262.722 110.319 262.852 110.12 262.985 110.215Z" fill="#263238"/>
<path d="M254.139 110.631C254.131 110.585 254.043 110.684 254.043 110.734C254.036 111.938 253.825 113.316 252.722 113.674C252.688 113.685 252.689 113.746 252.729 113.741C254.064 113.605 254.326 111.773 254.139 110.631Z" fill="#263238"/>
<path d="M253.113 109.335C251.184 109.115 250.887 112.989 252.674 113.193C254.432 113.393 254.73 109.519 253.113 109.335Z" fill="#263238"/>
<path d="M252.285 109.528C251.963 109.71 251.632 110.06 251.264 110.056C250.838 110.051 250.557 109.608 250.317 109.186C250.292 109.142 250.259 109.172 250.254 109.223C250.177 109.962 250.363 110.752 251.063 110.949C251.702 111.129 252.227 110.53 252.46 109.806C252.504 109.671 252.415 109.454 252.285 109.528Z" fill="#263238"/>
<path d="M259.981 121.013C259.693 121.295 259.405 121.683 258.969 121.72C258.55 121.755 258.059 121.566 257.675 121.417C257.637 121.402 257.599 121.442 257.623 121.479C257.936 121.941 258.593 122.23 259.151 122.133C259.696 122.038 259.965 121.567 260.097 121.068C260.116 120.998 260.024 120.972 259.981 121.013Z" fill="#263238"/>
<path d="M255.207 116.382C255.207 116.382 254.857 118.162 254.808 119.009C254.804 119.088 255.007 119.138 255.293 119.171C255.307 119.176 255.314 119.182 255.326 119.174C256.807 119.493 258.342 119.063 259.32 117.894C259.383 117.815 259.281 117.721 259.201 117.769C258.038 118.525 256.793 118.666 255.466 118.612C255.42 118.374 256.168 115.583 256.035 115.565C255.574 115.499 254.645 115.762 254.088 115.891C254.71 112.161 255.926 108.561 256.49 104.838C256.508 104.705 256.318 104.654 256.272 104.771C254.731 108.454 253.92 112.73 253.178 116.566C253.081 117.043 254.86 116.507 255.207 116.382Z" fill="#263238"/>
<path d="M255.438 118.773C255.438 118.773 256.116 119.989 257.19 120.536C257.586 120.739 258.025 120.856 258.509 120.792C259.504 120.664 259.642 119.785 259.564 119.006C259.502 118.366 259.283 117.794 259.283 117.794C259.283 117.794 257.708 118.926 255.438 118.773Z" fill="#263238"/>
<path d="M257.191 120.536C257.587 120.739 258.026 120.856 258.51 120.792C259.505 120.664 259.643 119.785 259.565 119.006C258.52 118.978 257.408 119.545 257.191 120.536Z" fill="#FF9BBC"/>
<path d="M277.569 114.516C273.73 112.693 273.572 108.668 273.572 108.668C268.804 106.612 266.232 102.889 265.965 102.511C266.081 102.87 266.915 105.46 267.382 106.767C256.353 104.676 252.962 96.2231 252.962 96.2231C249.374 99.7851 248.653 102.067 248.133 103.205C248.133 103.205 248.07 96.4351 251.563 91.9121C255.837 86.3731 270.225 84.9131 276.864 92.1691C284.01 99.9971 277.569 114.516 277.569 114.516Z" fill="#263238"/>
<path d="M259.001 104.918C260.756 105.912 262.709 106.585 264.655 107.012C264.671 107.016 264.675 106.991 264.66 106.987C261.553 106.098 258.767 104.462 256.574 102.068C255.647 101.057 254.85 99.9431 254.202 98.7341C253.524 97.4701 252.864 95.9651 252.747 94.5231C252.738 94.4131 252.568 94.4271 252.577 94.5371C252.701 96.0611 252.83 97.4661 253.441 98.8881C254.021 100.238 254.856 101.495 255.882 102.547C256.799 103.487 257.858 104.271 259.001 104.918Z" fill="#263238"/>
<path d="M277.856 119.843C277.563 119.954 277.294 120.022 277.038 120.057C276.736 120.113 276.459 120.113 276.205 120.082C275.807 120.045 275.467 119.922 275.185 119.756C274.924 119.613 274.698 119.428 274.516 119.243C274.045 118.76 273.842 118.253 273.842 118.253L274.804 113.527C274.804 113.527 278.647 107.997 281.15 109.365C283.662 110.733 280.793 118.741 277.856 119.843Z" fill="#EB9481"/>
<path d="M280.275 111.636C280.322 111.631 280.332 111.698 280.291 111.714C278.233 112.556 277.155 114.471 276.402 116.455C277.012 115.69 277.845 115.269 278.869 115.995C278.923 116.033 278.872 116.117 278.814 116.105C277.969 115.927 277.361 116.076 276.793 116.754C276.391 117.234 276.117 117.84 275.83 118.394C275.734 118.579 275.401 118.481 275.471 118.269C275.476 118.253 275.483 118.237 275.488 118.221C275.425 115.595 277.454 111.911 280.275 111.636Z" fill="#263238"/>
<path d="M277.608 119.099C277.52 119.543 277.089 119.831 276.646 119.743C276.202 119.655 275.914 119.224 276.002 118.781C276.09 118.337 276.521 118.049 276.964 118.137C277.407 118.225 277.696 118.656 277.608 119.099Z" fill="white"/>
<path d="M279.288 117.857C279.226 118.171 278.921 118.375 278.607 118.312C278.293 118.25 278.09 117.945 278.152 117.632C278.214 117.318 278.519 117.114 278.832 117.177C279.146 117.239 279.35 117.544 279.288 117.857Z" fill="white"/>
<path d="M178.167 209.842C215.262 209.842 245.334 179.77 245.334 142.675C245.334 105.58 215.262 75.5078 178.167 75.5078C141.072 75.5078 111 105.58 111 142.675C111 179.77 141.072 209.842 178.167 209.842Z" fill="#FFC727"/>
<path opacity="0.1" d="M178.164 209.844C141.074 209.844 111.004 179.764 111.004 142.674C111.004 105.574 141.074 75.5039 178.164 75.5039C192.414 75.5039 205.624 79.9439 216.494 87.5139C207.414 81.6839 196.604 78.3139 185.014 78.3139C152.764 78.3139 126.614 104.454 126.614 136.714C126.614 168.964 152.764 195.114 185.014 195.114C217.274 195.114 243.424 168.964 243.424 136.714C243.424 128.014 241.524 119.764 238.114 112.354C242.734 121.464 245.334 131.764 245.334 142.674C245.334 179.764 215.264 209.844 178.164 209.844Z" fill="black"/>
<path d="M146.094 138.844C151.317 138.844 155.551 134.61 155.551 129.387C155.551 124.164 151.317 119.93 146.094 119.93C140.871 119.93 136.637 124.164 136.637 129.387C136.637 134.61 140.871 138.844 146.094 138.844Z" fill="#263238"/>
<path d="M210.24 138.844C215.463 138.844 219.697 134.61 219.697 129.387C219.697 124.164 215.463 119.93 210.24 119.93C205.017 119.93 200.783 124.164 200.783 129.387C200.783 134.61 205.017 138.844 210.24 138.844Z" fill="#263238"/>
<path d="M192.42 126.519C192.42 129.899 191.24 132.999 189.27 135.449C186.66 138.689 182.66 140.769 178.16 140.769C173.68 140.769 169.67 138.689 167.06 135.449C165.1 132.999 163.92 129.899 163.92 126.519H192.42Z" fill="#263238"/>
<path d="M189.271 135.449C186.661 138.689 182.661 140.769 178.161 140.769C173.681 140.769 169.671 138.689 167.061 135.449C169.951 132.899 173.871 131.339 178.171 131.339C182.471 131.339 186.381 132.899 189.271 135.449Z" fill="#DD6A57"/>
<path d="M288.552 150.197C291.476 169.754 295.001 196.694 285.646 201.461C270.266 209.298 245.334 212.823 234.712 215.104C230.91 215.92 226.645 188.903 230.607 187.645C235.76 186.009 268.636 180.364 269.46 177.955C269.927 176.59 272.528 163.816 276.312 146.725C280.26 128.902 287.612 143.913 288.552 150.197Z" fill="#EB9481"/>
<path d="M236.059 214.725C225.874 217.565 213.368 221.72 201.839 218.653C199.578 218.051 198.578 216.572 198.578 216.572C193.387 215.289 192.434 212.452 192.434 212.452C187.964 209.776 187.388 206.741 187.388 206.741C187.388 206.741 181.31 205.168 181.65 201.336C182.019 197.038 190.484 200.088 196.164 198.918C209.179 196.239 226.93 188.79 230.607 187.644L236.059 214.725Z" fill="#EB9481"/>
<path d="M211.777 205.697C207.931 206.409 204.172 207.209 200.249 207.397C195.946 207.603 191.77 207.079 187.505 206.652C187.372 206.639 187.34 206.822 187.469 206.856C195.066 208.851 204.37 208.335 211.812 205.871C211.993 205.812 211.971 205.661 211.777 205.697Z" fill="#263238"/>
<path d="M214.538 213.317C210.757 213.802 204.107 214.613 192.459 212.327C192.421 212.32 192.396 212.382 192.437 212.395C199.802 214.885 207.023 215.115 214.561 213.496C214.794 213.447 214.789 213.285 214.538 213.317Z" fill="#263238"/>
<path d="M215.943 217.44C209.483 218.021 205.337 217.569 198.61 216.549C198.572 216.543 198.551 216.608 198.593 216.619C206.116 218.581 209.067 218.44 215.994 217.66C216.232 217.633 216.196 217.417 215.943 217.44Z" fill="#263238"/>
<path d="M211.644 194.698C213.201 193.677 212.676 192.854 209.38 192.569C206.045 192.273 192.794 193.955 192.603 189.27C192.403 184.569 211.195 182.498 216.648 183.392C222.104 184.274 230.609 187.644 230.609 187.644C227.034 188.784 218.628 192.374 211.644 194.698Z" fill="#EB9481"/>
<path d="M294.452 170.737L271.219 161.201C271.219 161.201 273.082 148.716 275.088 141.953C277.742 133.003 281.688 131.891 286.46 142.292C289.653 149.251 294.452 170.737 294.452 170.737Z" fill="#DBDBDB"/>
<path d="M271.979 159.839C271.809 159.589 271.679 159.329 271.549 159.059C271.549 159.059 271.549 159.059 271.549 159.049C271.599 158.769 271.649 158.449 271.709 158.129C271.859 158.679 271.969 159.239 271.979 159.839Z" fill="white"/>
<path d="M279.968 138.609C279.588 138.009 279.348 137.369 279.138 136.719C279.008 136.229 278.888 135.749 278.818 135.239C278.888 135.189 278.958 135.149 279.038 135.109C279.288 135.579 279.468 136.069 279.618 136.569C279.808 137.229 279.958 137.899 279.968 138.609Z" fill="white"/>
<path d="M290.969 156.519C290.319 156.699 289.669 156.849 288.969 156.859C289.559 156.479 290.189 156.239 290.839 156.029C290.889 156.199 290.929 156.359 290.969 156.519Z" fill="white"/>
<path d="M283.03 146.197C282.879 146.89 282.597 147.512 282.283 148.118C281.953 148.715 281.591 149.294 281.096 149.803C281.246 149.11 281.528 148.487 281.843 147.882C282.175 147.286 282.537 146.706 283.03 146.197Z" fill="white"/>
<path d="M274.049 162.371C273.818 162.223 271.464 161.165 271.274 161.138C271.53 159.675 271.805 158.216 272.045 156.75C272.165 156.018 272.272 155.281 272.369 154.546C272.475 153.735 272.639 152.818 272.733 152.1C272.748 151.988 272.607 151.957 272.581 152.069C272.366 152.989 272.235 153.683 272.054 154.48C271.926 155.044 271.815 155.614 271.707 156.184C271.697 156.033 271.686 155.881 271.679 155.734C271.643 154.917 271.536 154.117 271.548 153.297C271.549 153.197 271.388 153.2 271.392 153.301C271.418 154.117 271.339 154.927 271.35 155.742C271.358 156.341 271.329 156.989 271.434 157.593C271.197 158.822 270.941 160.082 270.783 161.297C270.768 161.415 273.752 162.403 274.019 162.458C274.065 162.465 274.086 162.394 274.049 162.371Z" fill="#263238"/>
<path d="M292.999 167.566C289.714 165.944 286.414 164.374 283.038 162.948C281.354 162.236 279.662 161.55 277.957 160.89C276.255 160.231 274.479 159.745 272.79 159.062C272.697 159.024 272.642 159.176 272.738 159.209C274.459 159.8 276.118 160.634 277.805 161.319C279.498 162.007 281.189 162.704 282.874 163.41C286.24 164.82 289.613 166.225 292.947 167.712C293.04 167.755 293.087 167.61 292.999 167.566Z" fill="#263238"/>
<path d="M294.794 170.954C294.455 167.672 290.907 154.409 289.582 151.337C289.564 151.296 289.506 151.312 289.515 151.357C290.151 154.62 293.578 167.374 294.4 170.507C294.344 170.478 291.707 169.489 290.96 169.258C290.848 169.224 290.801 169.354 290.903 169.402C292.851 170.32 294.799 171.002 294.794 170.954Z" fill="#263238"/>
<path d="M226.649 89.474C224.301 85.918 222.591 79.506 220.094 77.555C217.841 75.794 215.766 77.295 215.766 77.295C215.766 77.295 216.051 73.8 213.494 72.403C212.178 71.684 209.874 73.155 209.874 73.155C209.874 73.155 209.98 70.344 207.63 69.242C205.757 68.364 203.729 69.969 203.729 69.969C203.729 69.969 202.574 67.226 200.379 66.943C195.929 66.37 186.741 81.56 190.918 87.291C192.865 89.962 194.907 86.13 194.907 86.13C194.907 86.13 193.301 92.35 196.384 94.324C199.467 96.298 201.82 91.159 201.82 91.159C201.82 91.159 200.316 97.2 203.719 98.925C207.262 100.72 208.735 95.176 208.735 95.176C208.735 95.176 208.982 99.939 211.89 100.662C216.691 101.857 215.474 92.385 218.285 89.526L224.904 91.013L226.649 89.474Z" fill="#EB9481"/>
<path d="M223.706 83.5349C226.224 86.7079 232.668 85.1109 235.512 87.7989C239.359 91.4359 232.006 93.7939 224.907 91.0129L219.775 87.8859L223.706 83.5349Z" fill="#EB9481"/>
<path d="M203.374 70.1769C203.408 70.1289 203.348 70.0709 203.305 70.1139C199.066 74.3739 195.713 80.3539 194.774 86.3269C194.743 86.5229 195.048 86.6579 195.123 86.4489C197.268 80.4779 199.649 75.3499 203.374 70.1769Z" fill="#263238"/>
<path d="M209.889 73.0618C209.93 73.0058 209.837 72.9378 209.785 72.9908C205.441 77.4038 201.85 84.2438 201.578 91.2548C201.568 91.4948 201.801 91.7208 201.833 91.4448C202.368 86.7968 206.512 77.7018 209.889 73.0618Z" fill="#263238"/>
<path d="M208.879 95.6938C209.4 88.9808 212.022 83.1098 215.58 77.4678C215.627 77.3938 215.518 77.3358 215.462 77.3878C212.969 79.6738 211.075 83.5068 209.854 86.6138C208.684 89.5898 208.227 92.5108 208.643 95.6768C208.661 95.7988 208.868 95.8378 208.879 95.6938Z" fill="#263238"/>
<path d="M318.415 239.622H214.906V279.527H318.415V239.622Z" fill="#A6A6A6"/>
<path d="M301.51 375.518H214.906V370.518H301.51C309.343 370.518 315.715 364.145 315.715 356.312V162.74C315.715 152.15 324.331 143.534 334.921 143.534H346.592V148.534H334.921C327.088 148.534 320.715 154.906 320.715 162.74V356.311C320.715 366.901 312.099 375.518 301.51 375.518Z" fill="#C7C7C7"/>
<path d="M217.406 402.528H212.406V237.566C212.406 228.031 220.163 220.274 229.698 220.274H318.215V225.274H229.698C222.92 225.274 217.406 230.788 217.406 237.566V402.528Z" fill="#C7C7C7"/>
<path d="M362.079 140.885H331.104V150.826H362.079V140.885Z" fill="#263238"/>
<path d="M312.894 430.675C274.326 430.675 242.949 391.513 242.949 343.375C242.949 295.237 274.326 256.074 312.894 256.074C351.462 256.074 382.839 295.237 382.839 343.375C382.839 391.513 351.463 430.675 312.894 430.675ZM312.894 263.074C278.186 263.074 249.949 299.096 249.949 343.375C249.949 387.652 278.186 423.675 312.894 423.675C347.602 423.675 375.839 387.653 375.839 343.375C375.84 299.097 347.602 263.074 312.894 263.074Z" fill="#263238"/>
<path d="M318.415 420.764C284.294 420.764 256.535 386.047 256.535 343.375C256.535 300.702 284.294 265.985 318.415 265.985C352.536 265.985 380.296 300.702 380.296 343.375C380.296 386.047 352.536 420.764 318.415 420.764ZM318.415 270.985C287.052 270.985 261.535 303.459 261.535 343.375C261.535 383.29 287.052 415.764 318.415 415.764C349.779 415.764 375.296 383.29 375.296 343.375C375.296 303.459 349.779 270.985 318.415 270.985Z" fill="#C7C7C7"/>
<path d="M316.046 356.027C321.586 356.027 326.078 350.362 326.078 343.375C326.078 336.387 321.586 330.723 316.046 330.723C310.505 330.723 306.014 336.387 306.014 343.375C306.014 350.362 310.505 356.027 316.046 356.027Z" fill="#C7C7C7"/>
<path d="M319.26 356.027C324.801 356.027 329.293 350.362 329.293 343.375C329.293 336.387 324.801 330.723 319.26 330.723C313.72 330.723 309.229 336.387 309.229 343.375C309.229 350.362 313.72 356.027 319.26 356.027Z" fill="#DBDBDB"/>
<path d="M216.318 433.072C223.525 433.072 229.368 425.703 229.368 416.613C229.368 407.523 223.525 400.154 216.318 400.154C209.11 400.154 203.268 407.523 203.268 416.613C203.268 425.703 209.11 433.072 216.318 433.072Z" fill="#C7C7C7"/>
<path d="M220.499 433.072C227.707 433.072 233.549 425.703 233.549 416.613C233.549 407.523 227.707 400.154 220.499 400.154C213.292 400.154 207.449 407.523 207.449 416.613C207.449 425.703 213.292 433.072 220.499 433.072Z" fill="#DBDBDB"/>
<path d="M412.532 314.375C411.679 320.212 411.997 326.232 413.421 331.946C414.089 334.621 415.007 337.2 416.113 339.714C417.51 342.929 418.972 346.068 418.62 349.585C418.28 349.812 419.445 349.775 419.483 349.433C428.883 344.082 440.937 343.101 448.171 334.35C451.597 330.207 453.326 324.955 454.145 319.702C455.035 313.982 455.282 307.65 453.806 302.012C452.563 297.244 449.776 292.645 445.296 290.309C440.671 287.904 434.615 288.104 429.746 289.616C419.241 292.88 414.018 304.214 412.532 314.375Z" fill="#FFC727"/>
<path d="M407.706 383.959C408.989 379.683 410.27 375.407 411.588 371.142C414.167 362.788 416.849 354.464 419.816 346.239C421.594 341.312 423.469 336.433 425.442 331.6C425.105 328.564 424.973 325.539 424.32 322.514C423.534 318.87 422.392 315.35 421.329 311.783C421.264 311.564 421.619 311.448 421.708 311.656C423.819 316.569 426.573 322.856 426.641 328.675C428.936 323.208 431.389 317.813 434.029 312.504C434.178 307.977 434.343 303.591 433.615 299.035C433.582 298.83 433.894 298.769 433.932 298.973C434.638 302.798 435.136 306.899 434.852 310.862C436.873 306.873 439.001 302.932 441.266 299.052C441.47 298.703 441.953 299.06 441.774 299.404C438.241 306.206 434.965 313.15 431.891 320.187C436.15 316.411 441.306 313.552 446.628 311.653C446.862 311.569 447.038 311.908 446.8 312.008C440.742 314.54 435.656 318.12 430.86 322.562C428.65 327.714 426.546 332.912 424.541 338.143C430.423 332.378 438.471 328.584 446.257 326.55C446.523 326.481 446.592 326.887 446.337 326.964C437.327 329.677 430.328 334.785 423.476 340.921C422.68 343.037 421.898 345.158 421.133 347.282C418.23 355.337 415.478 363.448 412.84 371.593C411.575 375.498 410.33 379.409 409.108 383.327C407.793 387.542 406.766 391.993 405.054 396.064C404.891 396.453 404.192 396.364 404.281 395.898C405.055 391.862 406.524 387.895 407.706 383.959Z" fill="#263238"/>
<path d="M423.299 306.148C424.983 308.729 426.107 311.565 426.685 314.586C426.7 314.663 426.579 314.709 426.55 314.631C425.503 311.788 424.271 309.041 422.88 306.351C422.737 306.077 423.14 305.905 423.299 306.148Z" fill="#263238"/>
<path d="M440.066 325.733C442.499 324.349 445.729 323.257 448.502 322.893C448.578 322.883 448.626 322.995 448.547 323.028C447.191 323.591 445.766 323.984 444.393 324.511C443.014 325.041 441.671 325.684 440.277 326.168C439.988 326.269 439.79 325.89 440.066 325.733Z" fill="#263238"/>
<path d="M444.791 302.173C445.646 301.607 446.555 300.881 447.505 300.497C447.654 300.437 447.784 300.621 447.661 300.735C446.909 301.428 445.86 301.942 444.986 302.47C444.813 302.574 444.621 302.285 444.791 302.173Z" fill="#263238"/>
<path d="M380.842 346.302C387.612 348.312 394.417 350.169 401.185 352.156C401.773 352.332 413.218 330.402 409.081 319.105C405.258 308.648 396.506 300.822 386.071 297.27C381.237 295.628 375.294 294.249 370.187 295.375C365.647 296.38 362.44 300.096 360.964 304.366C358.954 310.17 359.624 317.092 360.717 323.018C361.733 328.512 363.744 333.924 367.378 338.241C370.976 342.513 375.564 344.737 380.842 346.302Z" fill="#FFC727"/>
<path d="M371.028 325.459C375.339 327.632 379.706 329.208 384.302 330.685C387.18 331.61 390.404 332.445 393.163 333.893C390.304 327.519 387.167 321.278 383.837 315.094C379.464 313.828 374.864 311.854 371.566 308.759C371.386 308.59 371.617 308.337 371.812 308.474C375.42 311.023 379.398 312.554 383.389 314.277C382.488 312.613 381.581 310.95 380.653 309.293C380.395 308.832 381.03 308.373 381.341 308.822C384.889 313.942 388.081 319.37 390.96 324.977C391.674 320.029 391.931 315.208 391.656 310.175C391.649 310.047 391.833 310.037 391.853 310.161C392.69 315.484 392.651 321.117 391.686 326.426C394.06 331.165 396.223 336.02 398.166 340.935C398.939 337.982 399.942 335.075 400.612 332.097C401.576 327.812 402.028 323.447 401.585 319.065C401.572 318.937 401.761 318.928 401.782 319.051C403.095 326.82 401.897 335.593 398.941 342.974C400.073 345.933 401.153 348.904 402.14 351.879C407.195 367.111 410.311 382.817 411.126 398.851C411.145 399.221 410.597 399.258 410.554 398.892C408.714 383.163 405.467 367.507 400.465 352.473C398.501 346.571 396.242 340.84 393.762 335.216C389.764 334.035 385.78 332.431 381.853 331.071C378.021 329.744 374.094 328.209 370.876 325.689C370.75 325.591 370.888 325.389 371.028 325.459Z" fill="#263238"/>
<path d="M364.714 319.089C368.854 320.561 372.779 322.623 376.915 324.116C377.109 324.186 376.996 324.493 376.801 324.453C372.424 323.55 368.083 322.197 364.557 319.326C364.421 319.216 364.571 319.038 364.714 319.089Z" fill="#263238"/>
<path d="M398.523 310.156C398.473 309.937 398.794 309.81 398.861 310.036C399.996 313.852 400.78 317.902 399.675 321.804C399.632 321.957 399.391 321.962 399.382 321.786C399.184 317.855 399.404 314.03 398.523 310.156Z" fill="#263238"/>
<path d="M381.415 301.34C382.803 303.111 383.302 305.626 383.212 307.83C383.206 307.975 382.974 308.06 382.934 307.888C382.429 305.705 381.586 303.715 380.916 301.594C380.818 301.282 381.218 301.088 381.415 301.34Z" fill="#263238"/>
<path d="M461.37 355.975C459.385 362.274 454.67 370.982 447.201 371.051C442.359 371.097 437.483 370.523 432.63 370.454C427.433 370.374 422.224 370.385 417.038 370.695C416.614 370.718 417.66 355.132 430.152 347.542C433.652 345.416 437.931 344.743 441.901 343.882C446.444 342.895 451.125 342.23 455.784 342.436C458.652 342.551 461.039 343.159 462.06 346.096C463.126 349.171 462.322 352.98 461.37 355.975Z" fill="#FFC727"/>
<path d="M455.996 348.092C452.961 348.873 449.898 349.769 446.852 350.737C447.666 349.893 448.461 349.037 449.369 348.282C450.677 347.194 452.117 346.326 453.52 345.373C453.637 345.293 453.567 345.068 453.416 345.127C450.646 346.216 447.766 348.489 446.05 350.986C442.253 352.213 438.493 353.566 434.874 355.051C432.305 356.105 429.936 357.363 427.718 358.819C428.515 357.277 429.242 355.695 430.307 354.314C431.964 352.165 434.208 350.968 436.378 349.443C436.583 349.299 436.409 349.01 436.183 349.11C431.282 351.288 428.3 354.824 426.442 359.674C423.879 361.502 421.534 363.634 419.356 366.108C411.092 375.495 404.583 387.985 404.559 400.73C404.558 401.034 405.046 401.12 405.105 400.804C407.45 388.145 412.45 376.776 420.866 366.95C421.457 366.26 422.064 365.603 422.683 364.967C424.956 364.729 427.207 364.425 429.511 364.46C432.17 364.5 434.809 364.851 437.456 365.066C441.816 365.42 446.638 365.471 450.572 363.278C450.745 363.181 450.628 362.88 450.434 362.95C441.665 366.139 432.468 362.094 423.679 363.995C427.429 360.399 431.688 357.688 436.641 355.635C436.909 355.524 437.179 355.421 437.448 355.312C443.075 355.989 449.017 357.455 454.497 355.626C454.66 355.571 454.595 355.324 454.425 355.367C449.129 356.69 444.051 355.026 438.825 354.761C444.515 352.546 450.314 350.783 456.024 348.583C456.504 348.397 456.515 347.958 455.996 348.092Z" fill="#263238"/>
<path d="M458.479 353.632C455.732 354.084 453.05 354.099 450.288 354.253C450.225 354.256 450.205 354.352 450.272 354.367C452.965 354.973 455.912 354.6 458.536 353.84C458.672 353.8 458.613 353.61 458.479 353.632Z" fill="#263238"/>
<path d="M439.979 348.23C438.485 348.747 437.094 350.014 435.925 351.049C435.782 351.175 435.974 351.431 436.131 351.316C436.818 350.815 437.526 350.344 438.24 349.883C438.891 349.463 439.618 349.128 440.215 348.634C440.4 348.48 440.202 348.153 439.979 348.23Z" fill="#263238"/>
<path d="M395.873 368.511C395.965 368.717 395.666 368.912 395.552 368.695C395.541 368.695 395.541 368.695 395.541 368.684C395.495 368.741 395.438 368.799 395.346 368.81C390.298 369.9 385.227 371.013 380.087 371.472C375.957 371.839 371.195 372.069 367.581 369.671C362.682 366.424 359.458 357.739 362.108 352.22C365.24 345.669 374.683 349.225 379.421 351.555C386.706 355.111 392.557 361.122 395.873 368.511Z" fill="#FFC727"/>
<path d="M399.535 371.54C396.757 368.821 393.684 366.557 390.425 364.604C388.191 360.812 384.763 357.663 381.185 355.187C381.006 355.063 380.853 355.347 381.018 355.473C384.103 357.848 386.51 360.634 388.804 363.663C385.159 361.629 381.304 359.954 377.373 358.463C376.004 355.952 373.774 353.603 371.233 352.31C371.182 352.284 371.117 352.355 371.168 352.394C373.385 354.13 375.164 355.931 376.714 358.214C374.391 357.347 372.046 356.54 369.701 355.763C369.49 355.693 369.41 356.013 369.61 356.091C373.783 357.722 378.05 359.441 382.186 361.426C376.966 362.126 372.266 362.288 366.957 361.381C366.817 361.357 366.756 361.557 366.897 361.597C372.019 363.059 377.892 363.33 383.056 361.838C385.694 363.135 388.268 364.549 390.72 366.131C388.668 365.864 386.605 366.224 384.526 366.638C380.9 367.359 377.353 367.998 373.64 367.871C373.502 367.867 373.465 368.093 373.607 368.118C379.922 369.205 385.894 366.334 392.153 367.081C394.471 368.674 396.663 370.433 398.672 372.405C402.606 376.266 405.753 380.881 408.179 385.819C410.814 391.182 412.242 396.866 414.371 402.407C414.465 402.65 414.804 402.557 414.761 402.3C412.935 391.376 407.494 379.327 399.535 371.54Z" fill="#263238"/>
<path d="M380.49 356.557C380.122 355.804 379.477 355.162 378.872 354.595C378.343 354.099 377.697 353.458 377.008 353.199C376.945 353.175 376.91 353.261 376.947 353.304C377.464 353.892 378.186 354.322 378.744 354.885C379.307 355.452 379.772 356.114 380.342 356.671C380.421 356.749 380.536 356.652 380.49 356.557Z" fill="#263238"/>
<path d="M370.073 359.949C369.137 359.714 368.146 359.731 367.193 359.537C366.23 359.34 365.334 358.997 364.401 358.701C364.278 358.662 364.207 358.842 364.315 358.906C365.852 359.818 368.278 360.595 370.073 360.244C370.223 360.213 370.214 359.984 370.073 359.949Z" fill="#263238"/>
<path d="M425.559 388.838L424.731 398.252L421.917 430.037H397.025L393.511 398.252L392.473 388.838H425.559Z" fill="#455A64"/>
<path d="M425.559 388.838L424.731 398.252H393.511L392.473 388.838H425.559Z" fill="#263238"/>
<path d="M428.024 386.271H390.008V393.908H428.024V386.271Z" fill="#455A64"/>
</svg>
