<svg width="171" height="129" viewBox="0 0 171 129" fill="none" xmlns="http://www.w3.org/2000/svg">
<path d="M134.282 25.6337H134.278C134.292 25.3079 134.305 24.9815 134.305 24.6524C134.305 11.4468 122.861 0 108.745 0C98.4237 0 89.5376 6.46729 85.5021 14.7057H85.4969C81.4614 6.4671 72.5753 0 62.2542 0C48.1376 0 36.694 11.4466 36.694 24.6524C36.694 24.9815 36.7064 25.3079 36.7205 25.6337H36.7172C36.7172 25.6337 35.2743 41.3209 53.2114 58.4482C61.3666 66.4013 70.4877 73.9592 85.4993 85.835C100.511 73.959 109.632 66.4011 117.787 58.4482C135.725 41.3211 134.282 25.6337 134.282 25.6337Z" fill="#86B3D1"/>
<path d="M23.2071 84.5319C23.2071 84.5319 17.9859 74.3687 14.6294 71.6462C11.2729 68.9239 12.7646 65.1127 18.9183 66.02C25.0719 66.9274 33.463 77.6353 37.5655 82.5354C41.6679 87.4356 46.3297 87.7985 46.3297 87.7985C61.4338 89.9763 65.8679 91.0181 74.1346 103.722C84.7613 120.053 76.7451 127.679 65.5569 126.953C54.3687 126.227 48.4015 120.782 48.4015 120.782C48.4015 120.782 32.5308 111.029 26.3772 108.307C20.2237 105.584 6.61128 77.8168 3.44115 70.3757C0.271212 62.9348 2.6952 36.4376 7.17049 36.6189C11.6458 36.8005 14.07 39.3412 14.07 48.9602C14.07 58.5789 15.0025 63.1162 15.0025 63.1162" stroke="#222223" stroke-width="3" stroke-miterlimit="10" stroke-linecap="round" stroke-linejoin="round"/>
<path d="M147.792 84.5319C147.792 84.5319 153.013 74.3687 156.37 71.6462C159.726 68.9239 158.234 65.1126 152.081 66.02C145.927 66.9274 137.536 77.6352 133.434 82.5354C129.331 87.4355 124.67 87.7984 124.67 87.7984C109.565 89.9763 105.131 91.0181 96.8647 103.722C86.238 120.053 94.2541 127.679 105.442 126.953C116.631 126.227 122.598 120.782 122.598 120.782C122.598 120.782 138.469 111.029 144.622 108.307C150.776 105.584 164.388 77.8168 167.558 70.3757C170.728 62.9348 168.304 36.4375 163.829 36.6189C159.353 36.8005 156.929 39.3412 156.929 48.9602C156.929 58.5789 155.997 63.1161 155.997 63.1161" stroke="#222223" stroke-width="3" stroke-miterlimit="10" stroke-linecap="round" stroke-linejoin="round"/>
</svg>
