<svg width="500" height="500" viewBox="0 0 500 500" fill="none" xmlns="http://www.w3.org/2000/svg">
<path d="M402.072 387.564H437.23V376.374H402.072V387.564Z" fill="#EBEBEB"/>
<path d="M316.488 277.185H351.646V265.995H316.488V277.185Z" fill="#EBEBEB"/>
<path d="M421.683 401.674L439.383 401.381L448.13 401.261L456.841 401.218L456.385 401.674L456.341 390.484L456.84 390.983L439.261 390.915L430.472 390.83L421.683 390.721L421.92 390.484L421.683 401.674ZM421.683 401.674L421.446 390.484L421.441 390.25L421.684 390.247L430.473 390.138L439.262 390.053L456.841 389.985L457.343 389.983L457.341 390.484L457.297 401.674L457.295 402.132L456.841 402.13L447.973 402.087L439.141 401.967L421.683 401.674Z" fill="#EBEBEB"/>
<path d="M198.496 128.87L216.196 128.577L224.943 128.457L233.654 128.414L233.198 128.87L233.154 117.68L233.653 118.179L216.074 118.111L207.285 118.026L198.496 117.917L198.733 117.68L198.496 128.87ZM198.496 128.87L198.259 117.68L198.254 117.445L198.496 117.442L207.285 117.333L216.074 117.248L233.653 117.18L234.154 117.178L234.152 117.68L234.108 128.87L234.106 129.328L233.652 129.326L224.784 129.283L215.952 129.163L198.496 128.87Z" fill="#EBEBEB"/>
<path d="M218.107 142.979L235.807 142.686L244.554 142.566L253.264 142.523L252.808 142.979L252.764 131.789L253.263 132.288L235.684 132.22L226.895 132.135L218.106 132.026L218.343 131.789L218.107 142.979ZM218.107 142.979L217.87 131.789L217.865 131.555L218.107 131.552L226.896 131.443L235.685 131.358L253.264 131.29L253.766 131.288L253.764 131.79L253.72 142.98L253.718 143.438L253.264 143.436L244.396 143.393L235.564 143.273L218.107 142.979Z" fill="#EBEBEB"/>
<path d="M237.641 128.87H272.799V117.68H237.641V128.87Z" fill="#EBEBEB"/>
<path d="M43.1614 401.674H78.3184V390.484H43.1614V401.674Z" fill="#EBEBEB"/>
<path d="M62.7717 56.1235L97.9297 56.1235V44.9335H62.7717V56.1235Z" fill="#EBEBEB"/>
<path d="M43.16 70.2333L60.86 69.9403L69.607 69.8203L78.318 69.7773L77.862 70.2333L77.818 59.0433L78.317 59.5423L60.738 59.4743L51.949 59.3893L43.16 59.2803L43.397 59.0433L43.16 70.2333ZM43.16 70.2333L42.923 59.0433L42.918 58.8083L43.16 58.8053L51.949 58.6963L60.738 58.6113L78.317 58.5433L78.819 58.5413L78.817 59.0433L78.773 70.2333L78.771 70.6913L78.317 70.6893L69.449 70.6463L60.617 70.5263L43.16 70.2333Z" fill="#EBEBEB"/>
<path d="M402.072 56.1232L419.772 55.8302L428.519 55.7102L437.23 55.6672L436.774 56.1232L436.73 44.9332L437.229 45.4322L419.65 45.3642L410.861 45.2792L402.072 45.1702L402.309 44.9332L402.072 56.1232ZM402.072 56.1232L401.835 44.9332L401.83 44.6982L402.073 44.6952L410.862 44.5862L419.651 44.5012L437.23 44.4332L437.731 44.4312L437.729 44.9322L437.685 56.1222L437.683 56.5802L437.229 56.5782L428.361 56.5352L419.529 56.4152L402.072 56.1232Z" fill="#EBEBEB"/>
<path d="M313.768 43.1541V238.134H440.5V43.1541H313.768ZM435.822 233.458H318.444V47.8311H435.822V233.458Z" fill="#EBEBEB"/>
<path d="M435.821 47.8311H318.443V233.458H435.821V47.8311Z" fill="white"/>
<path d="M318.439 142.98L435.818 142.98V138.305H318.439V142.98Z" fill="#EBEBEB"/>
<path d="M305.152 251.552L449.104 251.552V238.133L305.152 238.133V251.552Z" fill="#DBDBDB"/>
<path d="M318.439 47.8262H435.818V167.924H318.439V47.8262ZM431.488 52.1562H322.769V163.594H431.488V52.1562Z" fill="#DBDBDB"/>
<path d="M398.355 47.8262H396.018V163.594H398.355V47.8262Z" fill="#DBDBDB"/>
<path d="M358.239 47.8262H355.902V163.594H358.239V47.8262Z" fill="#DBDBDB"/>
<path d="M59.5117 43.1541V238.134H186.244V43.1541H59.5117ZM181.567 233.458H64.1887V47.8311H181.567V233.458Z" fill="#EBEBEB"/>
<path d="M181.567 47.8311H64.1895V233.458H181.567V47.8311Z" fill="white"/>
<path d="M64.1855 142.98L181.564 142.98V138.305H64.1855V142.98Z" fill="#EBEBEB"/>
<path d="M50.8976 251.552L194.85 251.552V238.133L50.8976 238.133V251.552Z" fill="#DBDBDB"/>
<path d="M64.1836 47.8262H181.563V167.924H64.1836V47.8262ZM177.233 52.1562H68.5136V163.594H177.233V52.1562Z" fill="#DBDBDB"/>
<path d="M144.099 47.8262H141.762V163.594H144.099V47.8262Z" fill="#DBDBDB"/>
<path d="M103.983 47.8262H101.646V163.594H103.983V47.8262Z" fill="#DBDBDB"/>
<path d="M41.4512 444.96L93.5882 444.716L145.725 444.628L249.999 444.461L354.273 444.627L406.41 444.715L458.547 444.96L406.41 445.204L354.273 445.292L249.999 445.458L145.725 445.291L93.5882 445.203L41.4512 444.96Z" fill="#263238"/>
<path d="M457.932 298.087H331.041V316.097H457.932V298.087Z" fill="#455A64"/>
<path d="M454.907 316.096H334.068V321.945H454.907V316.096Z" fill="#455A64"/>
<path d="M454.907 316.096H334.068V318.032H454.907V316.096Z" fill="#263238"/>
<path d="M335.258 445.458H330.426L344.489 321.945H356.822L335.258 445.458Z" fill="#455A64"/>
<path d="M356.819 321.947L355.375 330.211H343.553L344.49 321.947H356.819Z" fill="#263238"/>
<path d="M453.716 445.458H458.548L444.485 321.945H432.152L453.716 445.458Z" fill="#455A64"/>
<path d="M432.156 321.947L433.6 330.211H445.422L444.485 321.947H432.156Z" fill="#263238"/>
<path d="M425.59 371.07C424.738 374.69 423.839 378.252 423.664 381.966C423.762 382.148 423.743 382.822 423.634 382.639C423.612 383.237 422.701 383.128 422.701 382.538C422.71 382.153 422.72 381.768 422.738 381.394C420.609 378.751 417.518 377.076 415.019 374.779C412.999 372.92 411.553 370.704 410.789 368.046C408.716 360.903 410.659 353.334 408.166 346.209C406.018 340.066 402.163 334.725 398.901 329.16C395.459 323.274 392.918 317.089 392.664 310.195C392.461 304.916 393.091 297.881 397.111 293.927C401.372 289.73 406.655 292.875 409.921 296.617C419.382 307.476 423.76 321.198 425.53 335.229C426.506 342.995 427.519 350.807 427.285 358.646C427.151 362.859 426.546 366.978 425.59 371.07Z" fill="#FFC727"/>
<path d="M423.704 384.817C424.194 377.478 424.164 370.127 423.445 362.817C423.457 362.79 423.48 362.773 423.48 362.737C423.599 356.79 424.072 350.867 423.838 344.914C423.585 338.446 422.638 332.107 421.22 325.796C421.204 325.723 421.091 325.74 421.105 325.815C422.271 331.97 422.949 338.251 423.174 344.511C423.295 347.87 423.27 351.233 423.093 354.59C423.035 355.682 422.934 356.783 422.861 357.884C422.861 357.881 422.86 357.877 422.86 357.874C420.462 341.139 414.285 325.262 405.168 311.054C405.043 310.861 404.701 311.068 404.822 311.266C411.388 321.987 416.229 333.763 419.223 345.981C414.673 337.552 407.802 330.62 402.704 322.52C402.676 322.476 402.603 322.521 402.626 322.568C407.206 331.585 414.773 338.696 419.596 347.58C420.433 351.201 421.117 354.856 421.627 358.533C422.327 363.582 422.657 368.662 422.725 373.749C419.954 368.569 417.076 363.614 414.809 358.135C414.749 357.989 414.539 358.089 414.588 358.234C416.517 363.925 419.109 370.056 422.739 374.909C422.759 378.51 422.653 382.114 422.441 385.712C421.875 395.317 420.235 404.793 419.476 414.366C419.453 414.654 419.859 414.688 419.915 414.413C421.911 404.752 423.048 394.657 423.704 384.817Z" fill="#263238"/>
<path d="M413.505 310.747C413.476 310.677 413.373 310.725 413.398 310.795C415.152 315.646 416.143 320.561 417.411 325.534C417.469 325.761 417.797 325.713 417.773 325.475C417.258 320.43 415.457 315.397 413.505 310.747Z" fill="#263238"/>
<path d="M458.053 331.079C456.916 333.928 455.504 336.687 454.018 339.368C450.859 345.105 447.564 350.361 446.968 357.041C446.701 360.023 446.607 363.02 445.698 365.894C444.913 368.382 443.637 370.677 442.17 372.824C438.746 377.812 434.467 382.109 431.294 387.285C427.993 392.664 425.558 398.581 424.068 404.71C423.989 405.045 423.46 404.955 423.539 404.62C423.551 404.593 423.554 404.572 423.559 404.543C423.547 404.526 423.529 404.509 423.528 404.472C423.025 390.15 424.168 375.714 428.537 361.993C430.448 355.994 432.804 350.026 435.478 344.324C437.818 339.349 440.735 334.565 444.844 330.849C447.509 328.448 453.291 323.897 457.086 326.305C458.906 327.463 458.77 329.291 458.053 331.079Z" fill="#FFC727"/>
<path d="M443.659 363.548C441.203 367.747 438.29 371.656 435.336 375.513C433.949 377.323 432.543 379.119 431.159 380.932C430.505 381.789 429.772 382.641 429.171 383.561C429.55 382.055 429.918 380.547 430.303 379.042C432.151 371.806 433.927 364.505 436.68 357.547C439.37 350.746 442.949 344.359 446.625 338.052C446.722 337.886 446.454 337.766 446.356 337.926C443.329 342.903 440.258 347.874 437.714 353.121C436.292 356.053 435.097 359.068 434.046 362.137C435.284 355.558 436.766 349.242 438.929 342.873C438.948 342.817 438.867 342.775 438.843 342.833C436.204 349.079 434.304 356.102 433.775 362.871C433.774 362.884 433.78 362.893 433.785 362.903C433.164 364.763 432.594 366.641 432.061 368.533C429.805 376.546 427.824 384.643 425.987 392.768C426.018 387.403 426.356 382.134 427.369 376.841C427.392 376.72 427.21 376.691 427.181 376.809C425.85 382.261 425.248 387.998 425.798 393.599C425.104 396.689 424.428 399.782 423.768 402.876C422.36 409.478 420.63 416.198 419.808 422.902C419.787 423.076 420.028 423.112 420.073 422.947C421.055 419.333 421.648 415.587 422.452 411.929C423.258 408.259 424.088 404.595 424.942 400.936C426.186 395.607 427.489 390.293 428.816 384.984C429.703 383.037 431.419 381.309 432.703 379.677C434.113 377.886 435.523 376.094 436.895 374.273C439.45 370.882 441.794 367.36 443.787 363.608C443.829 363.527 443.704 363.472 443.659 363.548Z" fill="#263238"/>
<path d="M444.27 357.423C441.164 361.41 438.344 365.823 436.125 370.366C436.096 370.424 436.187 370.486 436.223 370.429C438.965 366.133 441.66 361.804 444.396 357.504C444.442 357.431 444.322 357.356 444.27 357.423Z" fill="#263238"/>
<path d="M383.298 344.658C385.154 347.855 387.273 351.694 386.476 355.532C385.971 357.962 384.192 359.934 383.872 362.412C383.153 367.883 388.605 371.498 392.55 374.083C402.385 380.536 415.873 386.289 417.661 399.466C417.729 399.933 418.536 399.816 418.477 399.359C418.477 399.33 418.467 399.301 418.458 399.272C418.477 399.243 418.507 399.233 418.507 399.194C419.78 392.518 419.751 385.715 418.322 379.068C416.855 372.275 413.891 366.172 410.392 360.206C404.474 350.109 398.206 339.769 389.255 332.034C386.777 329.896 381.704 326.048 379.731 330.878C377.817 335.572 381.024 340.761 383.298 344.658Z" fill="#FFC727"/>
<path d="M392.299 366.066C398.819 373.125 409.186 377.082 414.799 384.989C411.473 372.87 405.969 361.973 397.506 352.507C397.289 352.264 397.628 351.919 397.865 352.147C404.06 358.101 408.648 365.062 411.996 372.613C410.491 367.221 408.385 362.121 405.911 357.051C405.818 356.86 406.089 356.695 406.199 356.882C409.351 362.256 411.446 368.29 412.758 374.375C420.153 392.279 420.839 413.277 419.289 432.148C419.267 432.417 418.856 432.425 418.864 432.148C419.289 417.276 419.048 402.145 415.484 387.621C415.41 387.318 415.327 387.019 415.25 386.717C409.144 378.205 398.822 374.26 392.185 366.178C392.122 366.101 392.228 365.99 392.299 366.066Z" fill="#263238"/>
<path d="M390.788 360.004C394.211 363.144 397.581 366.356 401.009 369.495C401.044 369.526 400.998 369.587 400.958 369.56C397.226 367.035 393.436 363.698 390.583 360.208C390.468 360.066 390.649 359.876 390.788 360.004Z" fill="#263238"/>
<path d="M390.249 346.398C393.357 351.381 396.618 356.054 400.49 360.485C400.541 360.544 400.461 360.626 400.404 360.571C396.247 356.567 392.555 351.725 390.065 346.505C390.007 346.383 390.175 346.28 390.249 346.398Z" fill="#263238"/>
<path d="M405.658 445.458H435.64L431.6 405.119H410.275L405.658 445.458Z" fill="#455A64"/>
<path d="M409.523 411.676H432.26L431.602 405.119H410.273L409.523 411.676Z" fill="#263238"/>
<path d="M406.596 407.091H434.701V400.65H406.596V407.091Z" fill="#455A64"/>
<path d="M80.404 170.409H75.002V440.056H80.404V170.409Z" fill="#263238"/>
<path d="M169.783 75.0505L41.4512 203.383L45.2709 207.203L173.603 78.8703L169.783 75.0505Z" fill="#263238"/>
<path d="M48.4258 440.056V445.458H106.979V440.056H48.4258Z" fill="#263238"/>
<path d="M174.151 94.959L192.249 77.959L175.207 64.116L161.654 76.862L174.151 94.959Z" fill="#FFC727"/>
<path opacity="0.1" d="M192.249 77.956L174.151 94.956L169.182 87.76L184.695 71.825L192.249 77.956Z" fill="black"/>
<path d="M172.278 123.352L221.123 77.4539L197.794 64.8909L161.189 99.2859L172.278 123.352Z" fill="#FFC727"/>
<path opacity="0.6" d="M362.811 268.564C362.811 268.564 345.457 260.569 345.457 249.853C345.457 239.136 367.963 232.238 367.963 223.862C367.963 215.486 358.148 210.559 358.148 210.559C358.148 210.559 373.651 215.856 373.651 226.449C373.651 237.043 358.815 244.221 357.396 250.962C355.425 260.323 362.811 268.564 362.811 268.564Z" fill="#DBDBDB"/>
<path opacity="0.6" d="M361.953 268.564C361.953 268.564 379.307 262.278 379.307 253.852C379.307 245.426 356.801 240.002 356.801 233.417C356.801 226.832 366.616 222.957 366.616 222.957C366.616 222.957 351.113 227.121 351.113 235.451C351.113 243.78 368.15 249.506 369.368 256.273C370.563 262.91 361.953 268.564 361.953 268.564Z" fill="#DBDBDB"/>
<path d="M370.88 295.51H354.373V298.086H370.88V295.51Z" fill="#FFC727"/>
<path opacity="0.1" d="M370.88 295.51H354.373V297.209H370.88V295.51Z" fill="black"/>
<path d="M390.476 288.584C388.524 291.327 385.068 293.292 381.181 292.559C380.629 292.455 380.074 292.3 379.506 292.078C378.737 291.781 377.961 291.381 377.172 290.851L379.269 287.742C379.696 288.038 380.109 288.269 380.508 288.445C384.439 290.227 386.927 287.128 387.417 286.42C389.68 283.24 390.49 275.977 388.197 273.183C388.045 272.977 387.383 272.649 384.725 273.215C384.234 273.326 383.678 273.449 383.048 273.623C382.35 273.821 381.935 273.934 381.539 273.948L381.472 272.081L381.29 270.218C381.461 270.187 381.729 270.11 382.078 270.011C383.081 269.743 384.433 269.375 385.831 269.233C387.787 269.03 389.838 269.264 391.096 270.809C394.82 275.371 393.309 284.598 390.476 288.584Z" fill="#FFC727"/>
<path opacity="0.1" d="M379.269 287.742C379.696 288.038 380.109 288.269 380.508 288.445L379.506 292.078C378.737 291.781 377.961 291.381 377.172 290.851L379.269 287.742Z" fill="black"/>
<path opacity="0.1" d="M385.83 269.233L384.724 273.215C384.233 273.326 383.677 273.449 383.047 273.623C382.349 273.821 381.934 273.934 381.538 273.948L381.471 272.081L381.289 270.218C381.46 270.187 381.728 270.11 382.077 270.011C383.08 269.743 384.431 269.376 385.83 269.233Z" fill="black"/>
<path d="M340.664 264.372C340.664 264.372 340.806 265.599 341.09 267.537C341.142 267.834 341.18 268.157 341.232 268.48C341.426 269.811 341.684 271.387 341.981 273.079C341.994 273.17 342.02 273.273 342.033 273.376C342.472 275.805 343.002 278.453 343.622 280.947C343.648 281.063 343.687 281.167 343.712 281.27C343.88 281.942 344.061 282.601 344.242 283.234C344.423 283.867 344.617 284.487 344.811 285.081C345.212 286.27 345.625 287.355 346.064 288.272C349.488 295.352 354.268 296.14 357.226 296.14C360.197 296.14 359.926 296.14 362.626 296.14C365.326 296.14 365.042 296.14 368.026 296.14C370.984 296.14 375.765 295.352 379.176 288.272C379.279 288.052 379.383 287.82 379.486 287.574C379.564 287.406 379.641 287.225 379.706 287.044C379.783 286.863 379.861 286.682 379.926 286.488C379.978 286.359 380.029 286.217 380.081 286.088C380.74 284.279 381.334 282.147 381.851 279.951C381.877 279.861 381.903 279.783 381.916 279.693C381.929 279.654 381.929 279.628 381.942 279.59C382.149 278.712 382.343 277.82 382.523 276.942C382.833 275.495 383.104 274.074 383.337 272.717C383.44 272.097 383.544 271.49 383.647 270.908C383.673 270.74 383.699 270.585 383.725 270.43C383.79 270.042 383.854 269.655 383.906 269.293C383.958 268.931 384.01 268.582 384.061 268.247C384.113 267.911 384.151 267.588 384.203 267.291C384.462 265.495 384.591 264.371 384.591 264.371H340.664V264.372Z" fill="#FFC727"/>
<path opacity="0.1" d="M342.035 273.377C342.474 275.806 343.004 278.454 343.624 280.948C343.895 280.987 344.167 281.039 344.438 281.103C345.743 281.413 347.022 281.943 348.146 282.705C349.283 283.442 350.291 284.372 351.247 285.289C352.216 286.206 353.172 287.137 354.257 287.847C355.342 288.558 356.582 288.984 357.874 289.023C359.127 289.088 360.264 288.351 361.168 287.46C362.098 286.543 362.873 285.47 363.635 284.385C364.397 283.3 365.16 282.189 366.064 281.155C366.516 280.651 367.02 280.16 367.588 279.759C367.885 279.565 368.221 279.41 368.544 279.268C368.906 279.203 369.255 279.035 369.616 279.087C370.352 279.022 371.05 279.307 371.683 279.604C372.29 279.953 372.846 280.353 373.337 280.831C374.345 281.748 375.197 282.795 376.089 283.777C376.98 284.72 377.923 285.754 379.151 286.051C379.461 286.129 379.771 286.142 380.081 286.09C380.74 284.281 381.334 282.149 381.851 279.953C381.502 279.863 381.14 279.772 380.792 279.656C379.513 279.23 378.299 278.571 377.252 277.705C376.193 276.852 375.288 275.845 374.41 274.837C373.532 273.829 372.679 272.809 371.671 271.995C370.663 271.181 369.462 270.638 368.183 270.47C366.943 270.289 365.741 270.909 364.746 271.71C363.738 272.524 362.873 273.519 362.007 274.526C361.128 275.534 360.263 276.567 359.268 277.51C358.777 277.975 358.222 278.402 357.614 278.75C357.304 278.918 356.955 279.034 356.619 279.151C356.257 279.177 355.883 279.306 355.521 279.228C354.784 279.215 354.126 278.853 353.531 278.505C352.962 278.104 352.433 277.639 351.993 277.122C351.076 276.114 350.339 274.99 349.538 273.931C348.75 272.898 347.91 271.786 346.722 271.36C345.508 270.934 344.216 271.606 343.208 272.407C342.81 272.718 342.422 273.041 342.035 273.377Z" fill="black"/>
<path d="M341.982 273.079C341.995 273.17 342.021 273.273 342.034 273.376C342.422 273.04 342.809 272.717 343.21 272.407C344.218 271.606 345.51 270.934 346.724 271.36C347.913 271.786 348.752 272.898 349.54 273.931C350.341 274.99 351.077 276.114 351.995 277.122C352.434 277.639 352.964 278.104 353.533 278.505C354.127 278.854 354.786 279.216 355.523 279.228C355.885 279.306 356.259 279.176 356.621 279.151C356.957 279.035 357.306 278.918 357.616 278.75C358.223 278.401 358.779 277.975 359.27 277.51C360.265 276.567 361.13 275.533 362.009 274.526C362.875 273.518 363.74 272.523 364.748 271.71C365.743 270.909 366.944 270.289 368.185 270.47C369.464 270.638 370.665 271.181 371.673 271.995C372.681 272.809 373.534 273.83 374.412 274.837C375.29 275.845 376.195 276.852 377.254 277.705C378.3 278.571 379.515 279.229 380.794 279.656C381.143 279.772 381.505 279.863 381.853 279.953C381.879 279.863 381.905 279.785 381.918 279.695C381.582 279.592 381.233 279.488 380.897 279.359C378.365 278.506 376.44 276.581 374.799 274.514C373.946 273.493 373.094 272.434 372.021 271.555C370.962 270.69 369.644 270.082 368.274 269.888C366.801 269.668 365.419 270.392 364.372 271.232C363.287 272.085 362.395 273.105 361.517 274.113C360.639 275.121 359.799 276.154 358.856 277.059C357.913 277.925 356.802 278.777 355.574 278.635C354.334 278.571 353.261 277.718 352.409 276.749C351.53 275.78 350.768 274.682 349.942 273.623C349.102 272.602 348.224 271.44 346.841 270.974C346.156 270.729 345.407 270.845 344.761 271.09C344.115 271.335 343.546 271.736 343.017 272.162C342.654 272.459 342.318 272.757 341.982 273.079Z" fill="white"/>
<path d="M343.623 280.947C343.649 281.063 343.688 281.167 343.713 281.27C343.933 281.309 344.152 281.36 344.359 281.412C346.956 282.019 349.062 283.738 350.909 285.637C351.852 286.58 352.795 287.549 353.945 288.311C355.095 289.073 356.451 289.551 357.847 289.603C359.32 289.694 360.638 288.841 361.594 287.898C362.589 286.942 363.377 285.844 364.165 284.759C364.927 283.661 365.664 282.55 366.529 281.568C367.369 280.612 368.402 279.656 369.63 279.669C370.87 279.617 372.02 280.367 372.963 281.245C373.932 282.124 374.798 283.144 375.728 284.113C376.658 285.043 377.64 286.116 379.061 286.451C379.345 286.516 379.642 286.528 379.927 286.49C379.979 286.361 380.03 286.219 380.082 286.09C379.772 286.142 379.462 286.129 379.152 286.051C377.924 285.754 376.981 284.72 376.09 283.777C375.198 282.795 374.346 281.749 373.338 280.831C372.847 280.353 372.291 279.952 371.684 279.604C371.051 279.307 370.353 279.023 369.617 279.087C369.255 279.035 368.906 279.203 368.545 279.268C368.222 279.41 367.886 279.565 367.589 279.759C367.021 280.16 366.517 280.651 366.065 281.155C365.161 282.189 364.398 283.3 363.636 284.385C362.874 285.47 362.099 286.543 361.169 287.46C360.265 288.351 359.128 289.088 357.875 289.023C356.583 288.984 355.343 288.558 354.258 287.847C353.173 287.137 352.217 286.206 351.248 285.289C350.292 284.372 349.284 283.442 348.147 282.705C347.023 281.943 345.744 281.413 344.439 281.103C344.166 281.038 343.894 280.986 343.623 280.947Z" fill="white"/>
<path d="M168.887 383.392L92.5332 444.96H96.8342L185.018 383.392H168.887Z" fill="#C7C7C7"/>
<path d="M176.061 383.392L138.332 444.96H142.634L188.877 383.392H176.061Z" fill="#C7C7C7"/>
<path d="M194.56 383.392L232.289 444.96H227.987L181.744 383.392H194.56Z" fill="#C7C7C7"/>
<path d="M201.15 383.392L277.504 444.96H273.202L185.018 383.392H201.15Z" fill="#C7C7C7"/>
<path d="M328.586 360.808V342.795L223.733 338.493L168.35 190.624H41.4512L86.3492 360.808L193.622 390.92H200.343L328.586 360.808Z" fill="#455A64"/>
<path d="M41.4512 190.624H55.9692L102.749 345.753L197.654 372.638L328.586 342.795V360.808L200.343 390.92H193.622L86.3492 360.808L41.4512 190.624Z" fill="#37474F"/>
<path d="M405.696 444.342C402.313 444.419 314.566 417.295 311.879 414.152C311.588 413.804 312.958 400.811 315.224 390.496C315.329 390.003 284.064 349.037 284.064 349.037L340.594 327.048L367.636 383.081L374.672 397.651C374.672 397.651 403.943 427.078 406.535 430.847C409.097 434.62 409.08 444.265 405.696 444.342Z" fill="#EBEBEB"/>
<path d="M408.167 444.836C404.64 444.93 313.036 416.967 310.216 413.693C309.14 412.457 310.778 406.79 315.224 390.496L375.281 397.728C375.281 397.728 406.277 426.834 408.984 430.757C411.671 434.673 411.694 444.741 408.167 444.836Z" fill="#FFC727"/>
<path d="M407.972 440.77C392.732 435.706 330.783 416.718 315.333 412.87C315.208 412.838 315.182 412.923 315.304 412.966C330.3 418.316 392.401 436.801 407.896 441.022C408.222 441.111 408.294 440.877 407.972 440.77Z" fill="#263238"/>
<path d="M404.098 425.663C400.502 424.403 396.415 425.046 393.767 426.609C391.223 428.11 388.696 430.543 387.833 433.76C387.808 433.852 387.976 433.906 388.019 433.816C390.73 428.075 397.807 424.465 404.04 425.856C404.166 425.883 404.222 425.706 404.098 425.663Z" fill="#263238"/>
<path d="M381.483 403.786C375.363 401.825 367.575 401.819 362.221 405.68C362.014 405.83 362.229 406.122 362.44 406.084C368.871 404.916 374.803 404.394 381.357 404.575C381.82 404.588 381.921 403.927 381.483 403.786Z" fill="#263238"/>
<path d="M385.662 407.084C379.542 405.123 371.754 405.117 366.4 408.978C366.193 409.127 366.409 409.42 366.62 409.382C373.05 408.214 378.983 407.692 385.537 407.873C385.999 407.886 386.1 407.225 385.662 407.084Z" fill="#263238"/>
<path d="M389.843 410.382C383.723 408.42 375.935 408.415 370.581 412.276C370.373 412.425 370.589 412.718 370.801 412.68C377.231 411.512 383.164 410.99 389.718 411.171C390.18 411.184 390.281 410.523 389.843 410.382Z" fill="#263238"/>
<path d="M394.023 413.68C387.903 411.718 380.115 411.713 374.762 415.573C374.554 415.723 374.77 416.015 374.981 415.977C381.411 414.809 387.344 414.287 393.898 414.468C394.36 414.482 394.461 413.821 394.023 413.68Z" fill="#263238"/>
<path d="M393.13 389.413C390.807 385.884 386.118 387.208 383.382 389.302C378.951 392.692 374.96 398.121 373 403.314C372.952 403.442 373.035 403.525 373.139 403.548C373.136 404.028 373.543 404.557 374.093 404.381C379.393 402.69 385.268 401.539 389.891 398.272C392.589 396.365 395.328 392.751 393.13 389.413ZM381.602 400.174C379.016 401.069 376.401 401.832 373.849 402.822C375.882 400.095 377.786 397.293 380.092 394.772C381.193 393.569 382.346 392.354 383.602 391.312C385.557 389.689 393.158 386.394 391.728 393.268C390.94 397.057 384.684 399.107 381.602 400.174Z" fill="#263238"/>
<path d="M357.036 400.931C362.136 403.387 368.121 403.548 373.628 404.337C374.199 404.419 374.513 403.831 374.43 403.357C374.528 403.317 374.596 403.221 374.528 403.103C371.734 398.306 366.898 393.614 361.967 391.005C358.922 389.395 354.078 388.865 352.372 392.731C350.758 396.388 354.058 399.497 357.036 400.931ZM354.393 396.3C351.844 389.758 359.886 391.749 362.083 393.025C363.495 393.845 364.834 394.852 366.118 395.856C368.81 397.96 371.153 400.407 373.609 402.76C370.927 402.206 368.223 401.887 365.523 401.433C362.307 400.891 355.798 399.907 354.393 396.3Z" fill="#263238"/>
<path d="M370.497 385.695L308.181 394.9C308.181 394.9 274.175 333.15 260.44 317.792L260.406 317.765C259.505 316.752 258.663 315.933 257.894 315.312L257.868 315.303C256.998 314.804 255.479 314.432 253.371 314.179L253.345 314.17C234.92 311.931 172.903 317.957 130.049 315.192L150.062 288.439L158.931 276.573C207.21 271.066 266.455 251.328 293.19 264.738C322.228 279.305 370.497 385.695 370.497 385.695Z" fill="#263238"/>
<path d="M362.686 375.112C352.094 376.476 355.116 375.943 344.538 377.419C339.362 378.141 313.336 381.711 308.619 383.188C308.515 383.221 308.541 383.391 308.65 383.392C313.593 383.431 339.534 379.3 344.697 378.484C355.246 376.815 352.2 377.185 362.73 375.404C362.927 375.371 362.885 375.086 362.686 375.112Z" fill="#37474F"/>
<path d="M308.499 382.317C301.447 370.526 269.338 312.327 262.947 310.035C257.131 307.949 140.741 310.369 139.019 310.381C138.896 310.382 138.886 310.572 139.01 310.571C152.787 310.395 259.172 310.016 262.207 311.216C268.514 313.711 306.912 381.225 307.855 382.633C308.106 383.01 308.741 382.722 308.499 382.317Z" fill="#37474F"/>
<path d="M97.4983 290.85C97.4983 290.85 93.8183 325.946 111.626 343.403C132.938 364.294 273.58 359.017 295.376 351.972C317.172 344.927 317.853 309.756 294.027 301.606C271.366 293.855 170.869 289.399 168.489 288.45C166.109 287.5 159.143 276.379 159.143 276.379L97.4983 290.85Z" fill="#263238"/>
<path d="M127.261 289.861C127.233 289.693 126.973 289.747 126.973 289.907C126.992 294.339 125.35 299.002 122.44 302.363C119.102 306.217 114.181 308.375 109.721 310.63C109.292 310.847 109.617 311.518 110.061 311.385C112.779 310.57 115.458 309.384 117.936 307.992C120.193 306.725 122.278 305.135 123.859 303.068C126.775 299.257 128.05 294.611 127.261 289.861Z" fill="#37474F"/>
<path d="M167.531 286.262C166.536 284.991 165.451 283.782 164.413 282.546C161.958 279.624 159.491 276.69 156.917 273.871C156.673 273.604 156.196 273.982 156.42 274.274C158.153 276.54 159.988 278.734 161.792 280.943C162.717 282.076 163.645 283.205 164.58 284.329C165.454 285.379 166.535 286.421 167.182 287.63C167.854 288.886 166.97 289.96 165.668 290.099C164.503 290.223 163.427 289.63 162.533 288.945C160.501 287.389 158.904 285.161 157.214 283.259C156.18 282.096 155.147 280.934 154.097 279.784C152.981 278.562 151.791 277.404 150.678 276.184C150.606 276.105 150.468 276.215 150.532 276.302C151.505 277.635 152.403 279.031 153.378 280.367C154.352 281.703 155.34 283.026 156.346 284.338C157.298 285.58 158.283 286.796 159.297 287.988C160.158 289.001 161.137 289.988 162.291 290.667C164.156 291.764 167.393 292 168.385 289.592C168.876 288.404 168.263 287.198 167.531 286.262Z" fill="#37474F"/>
<path d="M292.395 352.104C284.891 352.244 277.391 352.68 269.886 352.841C262.442 353 254.995 353.042 247.55 352.972C232.597 352.831 217.648 352.26 202.727 351.229C187.651 350.187 171.391 348.685 156.416 346.611C149.25 345.618 141.986 344.792 134.905 343.269C128.515 341.895 122.721 339.24 117.938 334.601C108.239 325.194 104.468 311.363 102.919 298.149C102.711 296.376 102.541 294.6 102.397 292.82C102.387 292.699 102.205 292.702 102.213 292.825C103.089 306.375 105.195 320.501 113.718 331.394C117.405 336.107 122.097 339.968 127.6 342.173C134.307 344.86 141.751 345.49 148.832 346.451C163.868 348.491 180.193 350.065 195.315 351.239C210.533 352.419 225.788 353.155 241.048 353.38C256.306 353.605 271.581 353.39 286.825 352.641C288.687 352.549 290.543 352.44 292.4 352.278C292.504 352.265 292.502 352.102 292.395 352.104Z" fill="#37474F"/>
<path d="M312.43 319.306C310.998 313.357 307.416 308.37 302.38 304.931C296.979 301.243 290.517 299.564 284.122 298.634C276.886 297.581 269.558 297.045 262.282 296.338C247.352 294.888 232.411 293.549 217.461 292.319C202.521 291.09 170.34 288.591 168.53 288.521C168.373 288.515 168.34 288.782 168.499 288.8C182.922 290.403 196.044 291.779 210.495 293.092C225.017 294.411 239.535 295.794 254.046 297.228C261.276 297.943 268.506 298.666 275.732 299.413C282.429 300.105 289.318 300.787 295.601 303.374C300.99 305.593 305.835 309.162 308.584 314.405C311.239 319.47 311.799 325.523 310.737 331.092C309.751 336.263 307.318 341.301 303.765 345.2C300.264 349.041 295.822 351.983 290.701 353.087C289.38 353.372 287.785 353.576 286.569 353.819C286.477 353.837 286.382 354.033 286.476 354.035C297.278 354.308 307.27 346.42 311.171 336.553C313.321 331.115 313.8 324.998 312.43 319.306Z" fill="#37474F"/>
<path d="M139.492 204.483C146.638 232.503 160.845 265.955 166.693 271.3C174.089 278.059 219.337 286.931 221.727 287.164C225.651 287.546 233.741 247.215 230.074 247.297C220.394 247.514 190.573 244.482 188.433 242.388C186.213 240.198 171.068 222.012 155.446 201.427C144.667 187.201 135.058 187.097 139.492 204.483Z" fill="#EB9481"/>
<path d="M218.057 285.485C218.713 285.798 228.021 290.203 233.748 291.715C238.02 292.843 250.406 295.76 252.115 291.18C253.285 288.057 246.203 285.485 241.236 283.553C238.619 282.536 235.362 279.9 236.085 278.216C237.35 275.272 244.09 278.037 248.537 280.48C257.137 285.205 268.647 293.804 273.725 289.377C275.642 287.703 273.298 284.796 269.901 281.972C275.38 285.227 281.205 287.865 283.408 286.091C284.673 285.08 284.701 283.733 283.946 282.214C285.626 282.716 287.096 282.574 288.097 281.464C289.809 279.586 288.888 276.896 286.901 274.163C287.515 274.084 288.061 273.758 288.469 273.078C292.049 267.324 273.061 251.504 266.593 250.136C247.562 246.092 227.642 247.408 227.642 247.408C220.354 253.526 218.042 285.473 218.057 285.485Z" fill="#EB9481"/>
<path d="M245.466 267.398C249.939 267.989 254.366 269.55 258.205 271.954C263.078 275.005 266.349 278.635 270.464 282.27C270.572 282.366 270.427 282.537 270.318 282.441C268.358 280.713 260.25 274.234 258.161 272.767C254.331 270.08 250.082 268.23 245.452 267.475C245.401 267.467 245.416 267.392 245.466 267.398Z" fill="#263238"/>
<path d="M248.8 259.284C253.806 260.524 258.935 261.777 263.607 264.019C268.72 266.472 272.774 270.574 276.758 274.52C279.15 276.889 281.494 279.309 283.775 281.785C283.871 281.889 283.733 282.06 283.63 281.956C279.586 277.878 275.42 273.918 271.134 270.094C267.102 266.498 262.636 263.778 257.538 261.975C254.666 260.959 251.722 260.164 248.782 259.373C248.728 259.357 248.743 259.27 248.8 259.284Z" fill="#263238"/>
<path d="M253.943 252.134C258.799 253.01 263.035 253.758 267.376 256.245C273.123 259.537 278.73 265.182 280.697 267.183C282.871 269.394 284.968 271.675 287.031 273.989C287.115 274.083 286.953 274.232 286.867 274.138C282.157 269.084 277.099 264.297 271.776 259.894C269.232 257.79 266.478 255.969 263.405 254.732C260.367 253.509 257.128 252.853 253.937 252.167C253.916 252.163 253.922 252.131 253.943 252.134Z" fill="#263238"/>
<path d="M226.907 244.593L213.309 291.563C213.309 291.563 173.196 281.147 165.727 273.468C158.258 265.79 143.849 225.57 139.424 206.014C134.999 186.459 144.948 186.706 154.377 198.876C163.807 211.047 187.262 240.529 188.549 241.151C189.836 241.773 226.907 244.593 226.907 244.593Z" fill="#FFC727"/>
<path d="M208.99 270.945C210.64 265.406 212.335 259.878 213.78 254.277C214.601 251.095 215.44 247.916 216.231 244.726C216.261 244.606 216.059 244.538 216.018 244.657C214.142 250.151 212.272 255.665 210.647 261.244C209.03 266.795 207.367 272.332 205.822 277.905C204.944 281.074 204.164 284.257 203.478 287.476C203.464 287.54 203.566 287.575 203.59 287.512C205.653 282.077 207.328 276.522 208.99 270.945Z" fill="#263238"/>
<path opacity="0.1" d="M207.524 289.991C196.138 286.782 171.421 279.325 165.723 273.472C158.256 265.789 143.845 225.572 139.423 206.019C137.304 196.628 138.487 191.794 141.346 190.673C141.644 190.807 141.953 190.982 142.261 191.167C156.981 211.408 187.539 259.72 207.524 289.991Z" fill="black"/>
<path d="M93.4479 296.929C93.6729 297.157 178.465 278.584 179.25 277.596C180.347 276.206 165.194 212.448 149.206 193.419C145.208 188.661 132.48 188.99 126.783 193.792C98.5529 217.591 92.6449 296.106 93.4479 296.929Z" fill="#FFC727"/>
<path d="M120.191 198.354C103.282 211.361 58.7163 263.948 68.0323 276.425C77.4143 288.991 141.195 284.747 159.825 279.378C165.366 277.781 151.146 242.525 145.232 240.778C140.309 239.324 112.665 246.827 112.167 245.225C111.604 243.416 117.726 231.758 127.603 210.455C138.991 185.891 127.659 192.609 120.191 198.354Z" fill="#EB9481"/>
<path d="M171.219 236.669C183.54 236.984 186.654 238.957 197.194 233.701C204.11 230.252 209.28 233.188 204.581 239.709C196.895 250.374 180.914 253.306 175.081 252.727L171.219 236.669Z" fill="#EB9481"/>
<path d="M137.312 242.969C137.312 242.969 152.088 237.694 165.251 236.731C174.354 236.066 194.317 236.825 209.835 259.215C213.515 264.526 214.994 274.703 205.832 268.213C199.325 263.602 196.59 258.713 192.317 256.72C192.317 256.72 192.661 269.889 187.197 273.368C184.755 274.923 177.991 279.011 172.27 281.443C172.27 281.443 171.405 280.34 170.509 278.785C170.509 278.785 165.098 281.553 156.165 279.187L137.312 242.969Z" fill="#EB9481"/>
<path d="M174.039 237.483C177.863 240.358 185.864 246.586 190.638 253.957C195.94 262.145 203.947 279.346 197.863 283.198C193.401 286.022 189.767 279.724 189.767 279.724C189.767 279.724 191.578 287.532 186.99 289.201C182.809 290.723 180.289 285.681 180.289 285.681C180.289 285.681 180.573 290.606 176.264 291.296C171.08 292.126 171.335 281.668 165.358 277.972C164.016 277.142 174.039 237.483 174.039 237.483Z" fill="#EB9481"/>
<path d="M181.052 258.116C184.205 261.409 189.446 270.724 189.863 279.545C189.872 279.745 189.726 279.859 189.679 279.678C187.158 270.065 182.967 261.636 180.975 258.166C180.948 258.12 181.017 258.08 181.052 258.116Z" fill="#263238"/>
<path d="M172.942 263.709C175.37 266.83 180.344 276.673 180.459 285.625C180.462 285.825 180.307 285.93 180.268 285.747C178.047 275.594 174.644 267.337 172.862 263.754C172.838 263.706 172.91 263.669 172.942 263.709Z" fill="#263238"/>
<path d="M192.333 256.641C196.066 258.446 198.3 260.794 201.232 263.642C202.682 265.051 204.159 266.44 205.758 267.68C207.214 268.809 209.355 270.506 211.282 269.434C212.354 268.837 212.567 267.464 212.536 266.348C212.5 265.094 211.671 262.653 211.118 261.525C211.09 261.468 211.189 261.417 211.218 261.474C211.734 262.481 212.706 264.727 212.919 265.841C213.111 266.85 213.201 268.001 212.767 268.963C211.832 271.032 209.233 270.894 207.525 270C206.503 269.465 205.574 268.721 204.683 267.994C203.822 267.291 202.995 266.546 202.187 265.782C200.53 264.213 198.965 262.55 197.326 260.962C195.525 259.217 194.235 258.296 192.253 256.763C192.185 256.71 192.259 256.605 192.333 256.641Z" fill="#263238"/>
<path d="M198.266 271.809C197.621 269.403 193.664 259.173 192.237 256.721C192.201 256.658 192.287 256.599 192.331 256.658C194.91 260.064 198.552 268.579 199.289 271.236C200.018 273.862 200.806 277.195 200.357 279.913C199.679 284.014 196.831 284.341 195.792 284.375C194.552 284.416 193.382 283.963 192.397 283.226C191.3 282.406 190.353 280.925 189.726 279.73C189.693 279.667 189.78 279.603 189.82 279.666C190.973 281.516 193.07 283.501 195.347 283.577C196.335 283.61 197.386 283.332 198.109 282.628C198.959 281.801 199.219 280.571 199.311 279.433C199.517 276.859 198.929 274.28 198.266 271.809Z" fill="#263238"/>
<path d="M137.312 241.195L150.139 285.845C150.139 285.845 70.3112 290.396 65.8862 275.9C61.4612 261.404 100.031 213.912 116.027 200.87C134.565 185.756 135.563 192.105 129.527 207.222C123.208 223.049 112.326 245.649 112.326 245.649L137.312 241.195Z" fill="#FFC727"/>
<path d="M87.1088 252.799C91.0748 250.895 95.2268 249.373 99.4238 248.063C103.581 246.766 107.858 245.921 112.154 245.249C114.609 244.865 117.073 244.601 119.541 244.32C119.616 244.311 119.626 244.426 119.552 244.437C115.228 245.044 110.938 246.034 106.717 247.135C102.512 248.232 98.3338 249.403 94.1718 250.653C91.8178 251.36 89.4978 252.179 87.1688 252.965C87.0598 253.001 87.0078 252.847 87.1088 252.799Z" fill="#263238"/>
<path d="M137.126 241.04C136.722 241.077 114.524 244.544 113.78 244.751C113.92 244.448 119.548 233.88 120.385 232.335C120.468 232.181 120.544 232.024 120.626 231.87C121.13 231.203 121.639 230.539 122.117 229.851C122.73 228.97 123.337 228.084 123.944 227.199C123.963 227.172 123.924 227.14 123.904 227.167C123.258 228.021 122.61 228.875 121.968 229.733C121.671 230.13 121.388 230.536 121.106 230.943C121.668 229.847 122.216 228.745 122.764 227.638C123.638 225.873 124.454 224.086 125.266 222.291C125.292 222.233 125.206 222.198 125.176 222.252C123.519 225.332 121.766 228.357 120.1 231.431C118.437 234.5 112.116 245.802 112.151 245.798C112.184 245.835 136.688 241.453 137.165 241.34C137.352 241.297 137.325 241.022 137.126 241.04Z" fill="#263238"/>
<path d="M134.077 268.278C132.676 263.299 131.313 258.308 129.727 253.381C128.826 250.582 127.939 247.776 127.011 244.985C126.976 244.88 126.791 244.925 126.817 245.034C128.026 250.086 129.25 255.151 130.69 260.148C132.122 265.119 133.513 270.103 135.011 275.057C135.863 277.874 136.795 280.654 137.817 283.417C137.837 283.472 137.931 283.449 137.919 283.391C136.879 278.293 135.489 273.291 134.077 268.278Z" fill="#263238"/>
<path d="M151.024 286.658C150.464 285.256 149.795 283.258 149.177 281.881C149.014 281.517 148.749 281.544 148.867 281.917C149.262 283.171 149.533 284.552 149.916 285.836C148.8 285.872 147.683 285.884 146.567 285.932C145.276 285.987 143.985 286.048 142.694 286.099C140.166 286.199 137.636 286.272 135.106 286.319C129.983 286.415 124.857 286.402 119.734 286.281C109.465 286.038 99.1794 285.419 88.9884 284.113C86.1374 283.748 83.2914 283.327 80.4634 282.819C77.5904 282.303 74.4894 281.727 72.1574 281.032C72.0834 281.01 72.0464 281.136 72.1204 281.165C74.5064 282.081 76.7524 282.775 79.2464 283.315C81.7914 283.866 84.3534 284.347 86.9274 284.743C92.0534 285.531 97.2204 286.046 102.391 286.421C112.646 287.165 122.937 287.463 133.218 287.352C136.099 287.321 138.979 287.256 141.858 287.157C143.31 287.107 144.764 287.057 146.216 286.979C147.669 286.901 151.119 286.896 151.024 286.658Z" fill="#263238"/>
<path d="M258.702 292.533H156.561V296.653H258.702V292.533Z" fill="#455A64"/>
<path d="M213.079 292.533H156.561V296.653H213.079V292.533Z" fill="#A6A6A6"/>
<path d="M211.363 296.649H300.883L313.531 235.85H224.011L211.363 296.649Z" fill="#A6A6A6"/>
<path d="M215.422 296.649H304.942L317.59 235.85H228.07L215.422 296.649Z" fill="#C7C7C7"/>
<path d="M260.541 267.608C260.195 270.903 262.585 273.574 265.88 273.574C269.175 273.574 272.127 270.903 272.474 267.608C272.82 264.313 270.43 261.641 267.135 261.641C263.839 261.641 260.887 264.313 260.541 267.608Z" fill="#EBEBEB"/>
<path d="M142.787 213.813C142.787 213.813 127.857 198.966 118.102 199.221L109.766 206.5C109.766 206.5 107.041 207.369 106.215 205.64C104.172 201.365 103.842 191.062 112.755 184.449C120.917 178.394 134.197 178.957 145.255 181.969C155.874 184.861 165.05 192 161.728 198.915C158.405 205.829 142.787 213.813 142.787 213.813Z" fill="#FFC727"/>
<path opacity="0.1" d="M143.881 210.559C143.881 210.559 156.16 201.946 157.463 196.781C158.766 191.616 148.46 186.599 141.794 184.61C131.476 181.531 124.427 182.137 118.587 187.609C112.747 193.081 143.881 210.559 143.881 210.559Z" fill="black"/>
<path d="M143.881 210.559C143.881 210.559 131.981 190.033 116.928 187.89L118.102 199.222C118.102 199.222 127.092 199.318 142.787 213.814L143.881 210.559Z" fill="#FFC727"/>
<path d="M114.037 199.395C116.799 199.075 119.534 199.709 122.116 200.546C124.714 201.395 127.162 202.646 129.495 204.062C131.85 205.447 134.046 207.09 136.201 208.777L139.33 211.446L142.338 214.26L142.675 214.576L143.056 214.385C145.899 212.959 148.609 211.345 151.219 209.555C152.518 208.655 153.805 207.734 154.99 206.682C156.179 205.642 157.333 204.549 158.295 203.3C156.046 205.506 153.418 207.214 150.765 208.851C149.433 209.663 148.064 210.416 146.683 211.142C145.304 211.866 143.914 212.594 142.513 213.242L143.231 213.366L140.219 210.461C139.177 209.532 138.111 208.628 137.043 207.728C135.923 206.889 134.82 206.028 133.67 205.231C132.49 204.474 131.339 203.676 130.092 203.026C127.664 201.626 125.042 200.546 122.335 199.807C121.663 199.61 120.967 199.486 120.283 199.343C119.587 199.25 118.894 199.139 118.194 199.101C116.804 198.996 115.38 199.029 114.037 199.395Z" fill="#263238"/>
<path d="M109.766 206.5C111.329 205.486 112.759 204.319 114.157 203.116C115.538 201.894 116.888 200.634 118.102 199.221C116.538 200.234 115.108 201.401 113.711 202.605C112.33 203.829 110.982 205.088 109.766 206.5Z" fill="#263238"/>
<path d="M137.781 206.866C137.781 206.866 136.526 212.696 136.345 221.131C136.273 224.47 137.554 236.446 141.266 236.014C144.977 235.582 138.935 227.852 137.876 221.535C136.801 215.123 138.506 210.594 138.733 206.812L137.781 206.866Z" fill="#FFC727"/>
<g opacity="0.1">
<path d="M137.781 206.866C137.781 206.866 136.526 212.696 136.345 221.131C136.273 224.47 137.554 236.446 141.266 236.014C144.977 235.582 138.935 227.852 137.876 221.535C136.801 215.123 138.506 210.594 138.733 206.812L137.781 206.866Z" fill="black"/>
</g>
<path d="M150.948 207.529C150.948 207.529 152.678 213.838 153.707 221.419C154.114 224.42 154.19 235.342 150.801 235.334C147.413 235.326 152.063 227.74 152.369 221.94C152.68 216.052 150.678 210.961 150.086 207.577L150.948 207.529Z" fill="#FFC727"/>
<g opacity="0.1">
<path d="M150.948 207.529C150.948 207.529 152.678 213.838 153.707 221.419C154.114 224.42 154.19 235.342 150.801 235.334C147.413 235.326 152.063 227.74 152.369 221.94C152.68 216.052 150.678 210.961 150.086 207.577L150.948 207.529Z" fill="black"/>
</g>
<path d="M145.133 208.255C141.259 208.003 134.041 199.915 131.584 193.498C131.418 193.057 132.633 188.827 133.866 183.616C134.602 180.451 135.347 176.91 135.793 173.629L155.688 181.426C155.688 181.426 152.73 188.028 151.987 193.752C151.93 194.231 151.917 194.682 151.945 195.117C151.943 195.18 151.951 195.257 151.944 195.344C152.014 197.959 151.199 208.65 145.133 208.255Z" fill="#EB9481"/>
<path d="M151.941 195.12C151.94 195.184 151.954 195.253 151.946 195.347C151.283 195.349 150.586 195.294 149.811 195.17C138.15 193.311 137.227 178.668 137.232 174.193L155.696 181.424C155.696 181.424 152.736 188.026 151.979 193.756C151.935 194.229 151.913 194.676 151.941 195.12Z" fill="#263238"/>
<path d="M139.84 147.965C135.671 154.437 133.614 175.961 137.36 181.951C142.791 190.635 154.57 194.656 162.678 187.468C170.537 180.5 172.722 152.402 168.268 146.661C161.709 138.205 145.998 138.406 139.84 147.965Z" fill="#EB9481"/>
<path d="M153.273 163.665C153.929 163.586 154.52 163.404 155.16 163.259C155.882 163.095 156.475 163.039 157.006 162.478C157.291 162.177 157.266 161.568 156.999 161.264C156.379 160.556 155.444 160.536 154.566 160.698C153.614 160.874 152.924 161.252 152.298 161.988C151.691 162.701 152.409 163.769 153.273 163.665Z" fill="#263238"/>
<path d="M167.861 165.656C167.228 165.468 166.675 165.189 166.069 164.939C165.384 164.656 164.81 164.502 164.38 163.859C164.149 163.514 164.276 162.919 164.59 162.663C165.32 162.069 166.245 162.207 167.083 162.513C167.993 162.846 168.608 163.335 169.103 164.166C169.582 164.972 168.696 165.904 167.861 165.656Z" fill="#263238"/>
<path d="M152.159 180.588C152.462 180.97 152.748 181.48 153.266 181.591C153.763 181.697 154.382 181.546 154.865 181.426C154.913 181.414 154.953 181.468 154.918 181.508C154.472 182.015 153.639 182.262 152.984 182.059C152.345 181.862 152.093 181.255 152.01 180.636C152 180.549 152.115 180.532 152.159 180.588Z" fill="#263238"/>
<path d="M154.229 176.456C154.878 177.813 155.98 178.65 157.234 179.063C157.793 179.251 158.395 179.348 158.993 179.369C159.11 179.381 159.228 179.383 159.336 179.373C159.443 179.374 159.54 179.374 159.659 179.365C159.83 179.362 159.941 179.234 159.99 179.078L159.991 179.068C159.997 179.015 160.001 178.972 159.996 178.918C159.996 178.918 159.996 178.918 159.997 178.907L160.01 178.78C160.182 177.671 160.29 175.966 160.29 175.966C160.671 176.221 162.624 177.418 162.665 176.832C162.991 171.985 163.353 166.594 162.653 161.701C162.638 161.539 162.391 161.544 162.385 161.704C161.888 166.35 162.211 171.053 161.786 175.728C161.157 175.393 160.137 174.79 159.554 174.727C159.39 174.752 159.405 178.027 159.288 178.518C159.288 178.518 159.286 178.54 159.272 178.57C157.373 178.571 156.036 177.827 154.381 176.341C154.283 176.247 154.156 176.33 154.229 176.456Z" fill="#263238"/>
<path d="M158.41 178.722C158.41 178.722 157.254 179.927 155.843 180.235C155.323 180.35 154.778 180.352 154.235 180.131C153.12 179.681 153.226 178.619 153.553 177.74C153.819 177.017 154.247 176.419 154.247 176.419C154.247 176.419 155.73 178.21 158.41 178.722Z" fill="#263238"/>
<path d="M155.841 180.235C155.321 180.35 154.776 180.352 154.233 180.131C153.118 179.681 153.224 178.619 153.551 177.74C154.773 178.024 155.89 179.02 155.841 180.235Z" fill="#FF9ABB"/>
<path d="M156.111 167.603C156.109 167.547 155.989 167.653 155.981 167.712C155.799 169.147 155.349 170.762 153.982 171.03C153.94 171.038 153.932 171.111 153.981 171.112C155.593 171.141 156.169 168.992 156.111 167.603Z" fill="#263238"/>
<path d="M155.071 165.908C152.801 165.368 151.888 169.948 153.992 170.448C156.061 170.941 156.974 166.361 155.071 165.908Z" fill="#263238"/>
<path d="M164.475 168.7C164.497 168.649 164.572 168.79 164.558 168.848C164.219 170.255 164.068 171.924 165.252 172.66C165.289 172.683 165.27 172.753 165.224 172.737C163.706 172.192 163.929 169.979 164.475 168.7Z" fill="#263238"/>
<path d="M166.045 167.483C168.359 167.782 167.59 172.389 165.447 172.111C163.337 171.838 164.106 167.232 166.045 167.483Z" fill="#263238"/>
<path d="M141.894 161.827C144.852 158.132 144.995 150.203 147.785 149.075C153.825 146.633 160.3 157.864 166.687 160.225C172.876 162.513 176.398 159.276 177.103 153.836C177.808 148.396 174.759 143.462 168.174 139.898C161.362 136.21 153.744 136.732 149.346 137.725C149.346 137.725 151.824 135.78 151.521 134.786C151.218 133.793 147.303 135.107 146.001 135.8C144.679 136.504 143.399 138.239 143.399 138.239C143.399 138.239 142.389 137.492 140.673 136.919C139.081 136.387 136.645 136.902 136.398 137.232C136.151 137.562 138.305 138.669 139.858 139.323C139.858 139.323 135.486 142.173 134.333 145.549C133.18 148.926 132.621 166.751 133.813 167.378C135.343 168.182 140.693 163.328 141.894 161.827Z" fill="#455A64"/>
<path d="M140.618 139.138C140.685 139.125 140.733 139.229 140.662 139.256C138.68 140.012 136.907 141.087 135.586 142.783C134.051 144.756 133.328 147.222 133.011 149.669C132.395 154.431 133.098 159.207 133.495 163.952C133.506 164.091 133.272 164.115 133.251 163.976C132.508 158.977 131.858 153.605 132.716 148.585C133.448 144.306 136.055 140.025 140.618 139.138Z" fill="#455A64"/>
<path d="M148.129 147.358C150.042 147.764 152.006 148.672 153.623 149.767C155.216 150.846 156.32 152.482 157.581 153.905C160.41 157.098 163.737 159.984 167.901 161.211C167.955 161.227 167.929 161.305 167.876 161.293C163.983 160.41 160.745 157.982 158.037 155.137C156.671 153.702 155.528 151.942 153.997 150.682C152.257 149.248 150.097 148.498 148.025 147.699C147.809 147.615 147.906 147.31 148.129 147.358Z" fill="#455A64"/>
<path d="M153.808 137.348C156.765 136.978 159.785 137.127 162.721 137.605C165.539 138.064 168.342 138.837 170.847 140.237C175.171 142.653 178.336 147.113 177.701 152.224C177.379 154.814 176.176 157.349 174.166 159.05C174.03 159.165 173.855 158.974 173.98 158.847C177.368 155.4 178.445 150.12 176.043 145.803C173.463 141.166 168.26 138.994 163.285 138.039C160.153 137.438 156.993 137.321 153.813 137.385C153.792 137.384 153.788 137.35 153.808 137.348Z" fill="#455A64"/>
<path d="M150.999 174.722C148.116 173.92 146.023 171.239 146.092 168.113C146.174 164.415 149.247 161.474 152.943 161.555C156.641 161.636 159.583 164.709 159.502 168.407C159.42 172.103 156.346 175.045 152.649 174.964C152.078 174.952 151.526 174.868 150.999 174.722ZM154.353 162.662C153.898 162.535 153.418 162.463 152.924 162.452C149.721 162.381 147.059 164.93 146.987 168.133C146.918 171.335 149.466 174.002 152.668 174.069C155.871 174.139 158.533 171.591 158.605 168.388C158.664 165.679 156.852 163.357 154.353 162.662Z" fill="#37474F"/>
<path d="M166.219 177.008C163.747 176.32 162.208 173.164 162.746 169.707C163.017 167.962 163.771 166.394 164.867 165.292C166 164.151 167.365 163.638 168.71 163.848C170.06 164.055 171.2 164.961 171.934 166.392C172.643 167.776 172.884 169.498 172.612 171.242C172.043 174.895 169.368 177.524 166.648 177.101C166.503 177.078 166.361 177.047 166.219 177.008ZM168.906 164.806C168.797 164.776 168.686 164.751 168.573 164.734C167.52 164.57 166.429 164.992 165.502 165.923C164.539 166.893 163.875 168.285 163.631 169.844C163.139 173.01 164.546 175.868 166.786 176.215C169.017 176.562 171.233 174.269 171.727 171.105C171.969 169.546 171.759 168.017 171.136 166.801C170.602 165.757 169.818 165.06 168.906 164.806Z" fill="#37474F"/>
<path d="M159.159 169.14L158.695 168.372C159.831 167.685 162.332 166.911 163.681 168.895L162.94 169.399C161.734 167.62 159.263 169.078 159.159 169.14Z" fill="#37474F"/>
<path d="M129.369 166.25L128.645 165.721C128.893 165.384 131.115 162.424 133.144 162.41C135.039 162.403 146.741 165.363 147.238 165.49L147.017 166.359C143.663 165.507 134.614 163.297 133.15 163.307C131.811 163.315 129.967 165.434 129.369 166.25Z" fill="#37474F"/>
<path d="M139.49 165.882C139.49 165.882 136.579 158.01 133.126 158.879C129.672 159.748 130.646 170.309 133.846 172.556C137.045 174.803 139.183 171.882 139.183 171.882L139.49 165.882Z" fill="#EB9481"/>
<path d="M133.48 161.9C133.425 161.88 133.393 161.957 133.436 161.99C135.658 163.647 136.363 166.294 136.654 168.924C136.156 167.811 135.281 167.043 133.819 167.6C133.742 167.629 133.778 167.747 133.852 167.75C134.927 167.799 135.615 168.167 136.09 169.163C136.426 169.868 136.567 170.685 136.742 171.443C136.8 171.696 137.232 171.682 137.215 171.403C137.214 171.383 137.212 171.361 137.21 171.34C138.101 168.189 136.799 163.109 133.48 161.9Z" fill="#263238"/>
</svg>
