<svg width="500" height="500" viewBox="0 0 500 500" fill="none" xmlns="http://www.w3.org/2000/svg">
<path d="M425.166 88.4876C427.949 71.1638 416.162 54.8641 398.838 52.0812C381.514 49.2983 365.214 61.086 362.431 78.4098C359.649 95.7336 371.436 112.033 388.76 114.816C406.084 117.599 422.384 105.811 425.166 88.4876Z" fill="#EBEBEB"/>
<path d="M395.261 114.457C412.004 114.457 425.577 100.884 425.577 84.1409C425.577 67.3979 412.004 53.825 395.261 53.825C378.518 53.825 364.945 67.3979 364.945 84.1409C364.945 100.884 378.518 114.457 395.261 114.457Z" fill="#DBDBDB"/>
<path d="M395.261 112.543C410.947 112.543 423.663 99.827 423.663 84.141C423.663 68.455 410.947 55.739 395.261 55.739C379.575 55.739 366.859 68.455 366.859 84.141C366.859 99.827 379.575 112.543 395.261 112.543Z" fill="white"/>
<path opacity="0.5" d="M423.02 78.114C410.087 85.951 388.83 98.805 376.95 105.852C373.617 103.039 370.943 99.474 369.189 95.417L408.482 59C415.799 62.852 421.226 69.808 423.02 78.114Z" fill="#EBEBEB"/>
<path opacity="0.5" d="M423.644 85.1331C423.535 88.3781 422.88 91.4841 421.767 94.3621L386.344 111.115C384.79 110.6 383.294 109.957 381.871 109.192C392.571 103.008 412.124 91.7581 423.644 85.1331Z" fill="#EBEBEB"/>
<path d="M395.535 57.801H394.986V62.106H395.535V57.801Z" fill="#C7C7C7"/>
<path d="M382.352 61.1794L381.877 61.4539L384.029 65.1824L384.505 64.9079L382.352 61.1794Z" fill="#C7C7C7"/>
<path d="M372.601 70.7314L372.326 71.2068L376.054 73.3597L376.329 72.8843L372.601 70.7314Z" fill="#C7C7C7"/>
<path d="M373.227 83.8669H368.922V84.4159H373.227V83.8669Z" fill="#C7C7C7"/>
<path d="M376.05 94.9125L372.322 97.0654L372.597 97.5409L376.325 95.3879L376.05 94.9125Z" fill="#C7C7C7"/>
<path d="M384.002 103.09L381.852 106.819L382.327 107.093L384.478 103.364L384.002 103.09Z" fill="#C7C7C7"/>
<path d="M395.535 106.176H394.986V110.481H395.535V106.176Z" fill="#C7C7C7"/>
<path d="M406.507 103.088L406.031 103.362L408.184 107.09L408.659 106.816L406.507 103.088Z" fill="#C7C7C7"/>
<path d="M414.501 94.9213L414.227 95.3967L417.955 97.5497L418.229 97.0742L414.501 94.9213Z" fill="#C7C7C7"/>
<path d="M421.602 83.8669H417.297V84.4159H421.602V83.8669Z" fill="#C7C7C7"/>
<path d="M417.933 70.752L414.205 72.9045L414.48 73.38L418.208 71.2275L417.933 70.752Z" fill="#C7C7C7"/>
<path d="M408.209 61.1854L406.059 64.9148L406.534 65.1891L408.685 61.4597L408.209 61.1854Z" fill="#C7C7C7"/>
<path d="M395.674 59.7509L396.608 86.0579L393.914 86.0249L394.942 59.7419L395.674 59.7509Z" fill="#C7C7C7"/>
<path d="M412.06 74.967L394.361 86.264L393.074 83.897L411.711 74.324L412.06 74.967Z" fill="#A6A6A6"/>
<path d="M396.181 84.1409C396.181 84.6489 395.769 85.0609 395.261 85.0609C394.753 85.0609 394.342 84.6489 394.342 84.1409C394.342 83.6329 394.754 83.2219 395.261 83.2219C395.77 83.2219 396.181 83.6329 396.181 84.1409Z" fill="#C7C7C7"/>
<path d="M62.0179 107.662L173.838 107.662V101.023L62.0179 101.023V107.662Z" fill="#EBEBEB"/>
<path d="M165.349 107.665H158.707V129.625H165.349V107.665Z" fill="#EBEBEB"/>
<path d="M165.349 107.665H158.707V114.452H165.349V107.665Z" fill="#DBDBDB"/>
<path d="M77.144 107.665H70.502V129.625H77.144V107.665Z" fill="#EBEBEB"/>
<path d="M77.144 107.665H70.502V114.452H77.144V107.665Z" fill="#DBDBDB"/>
<path d="M145.574 101.024V58.709H134.918V101.024H145.574Z" fill="#C7C7C7"/>
<path d="M145.574 61.0963V56.4463H134.918V61.0963H145.574Z" fill="#DBDBDB"/>
<path d="M145.574 68.7794V67.0544H134.918V68.7794H145.574Z" fill="#DBDBDB"/>
<path d="M145.574 95.474V90.824H133.59V95.474H145.574Z" fill="#DBDBDB"/>
<path d="M134.918 101.025V51.6626H127.471L127.471 101.025H134.918Z" fill="#DBDBDB"/>
<path d="M133.461 75.2877V56.3027H128.992V75.2877H133.461Z" fill="#EBEBEB"/>
<path d="M79.7219 101.037L114.828 66.3354L109.593 61.0391L74.4866 95.7406L79.7219 101.037Z" fill="#C7C7C7"/>
<path d="M86.8963 91.8179L100.398 78.4714L97.2567 75.2931L83.7546 88.6395L86.8963 91.8179Z" fill="#DBDBDB"/>
<path d="M127.475 101.032V63.5378H114.828V101.032H127.475Z" fill="#A6A6A6"/>
<path d="M127.475 97.058V93.563H114.828V97.058H127.475Z" fill="#C7C7C7"/>
<path d="M127.477 91.2696V89.9146H114.83V91.2696H127.477Z" fill="#C7C7C7"/>
<path d="M154.311 101.032V65.7954H145.575V101.032H154.311Z" fill="#A6A6A6"/>
<path d="M154.311 97.2972V94.0132H145.575V97.2972H154.311Z" fill="#C7C7C7"/>
<path d="M154.311 76.3433V73.0593H145.575V76.3433H154.311Z" fill="#C7C7C7"/>
<path d="M154.311 79.8658V78.5928H145.575V79.8658H154.311Z" fill="#C7C7C7"/>
<path d="M223.811 104.042V51.6621H276.191V104.042H223.811ZM226.281 54.1321V101.572H273.721V54.1321H226.281Z" fill="#C7C7C7"/>
<path d="M270.307 92.3854V75.9854H233.331V92.3854H270.307Z" fill="#EBEBEB"/>
<path d="M234.43 164.868H246.816V129.085H234.43V164.868Z" fill="#C7C7C7"/>
<path d="M231.539 195.329V210.888H257.576V195.329H231.539Z" fill="#EBEBEB"/>
<path d="M223.811 171.407V119.027H276.191V171.407H223.811ZM226.281 121.497V168.937H273.721V121.497H226.281Z" fill="#C7C7C7"/>
<path d="M223.811 238.771V186.392H276.191V238.771H223.811ZM226.281 188.862V236.301H273.721V188.862H226.281Z" fill="#C7C7C7"/>
<path d="M259.475 87.3254V68.3794H240.529V87.3254H259.475Z" fill="#C7C7C7"/>
<path d="M259.473 154.69V135.744H240.527V154.69H259.473Z" fill="#EBEBEB"/>
<path d="M259.475 222.055V203.109H240.529V222.055H259.475Z" fill="#C7C7C7"/>
<path d="M72.5943 325.055L59.4693 325.334L52.8083 325.446C50.5823 325.493 48.3453 325.483 46.1133 325.501L45.6693 325.504L45.6673 325.055L45.6133 313.865L45.6113 313.363L46.1133 313.365L59.3533 313.428C63.7663 313.433 68.1803 313.541 72.5933 313.592L72.8693 313.595L72.8663 313.865C72.8473 315.764 72.7803 317.652 72.7353 319.519L72.5943 325.055ZM72.5943 325.055L72.4523 319.401C72.4073 317.538 72.3403 315.696 72.3213 313.865L72.5943 314.138C68.1813 314.189 63.7673 314.297 59.3543 314.302L46.1143 314.365L46.6133 313.866L46.5593 325.056L46.1133 324.61C48.2953 324.628 50.4713 324.618 52.6593 324.665L59.2383 324.777L72.5943 325.055Z" fill="#EBEBEB"/>
<path d="M57.8228 339.165L44.6978 339.444L38.0368 339.556C35.8108 339.603 33.5738 339.593 31.3418 339.611L30.8978 339.614L30.8958 339.165L30.8418 327.975L30.8398 327.473L31.3418 327.475L44.5818 327.538C48.9948 327.543 53.4088 327.651 57.8218 327.702L58.0978 327.705L58.0948 327.975C58.0758 329.874 58.0088 331.762 57.9638 333.629L57.8228 339.165ZM57.8228 339.165L57.6808 333.511C57.6358 331.648 57.5688 329.806 57.5498 327.975L57.8228 328.248C53.4098 328.299 48.9958 328.407 44.5828 328.412L31.3428 328.475L31.8418 327.976L31.7878 339.166L31.3418 338.72C33.5238 338.738 35.6998 338.728 37.8878 338.775L44.4668 338.887L57.8228 339.165Z" fill="#EBEBEB"/>
<path d="M338.6 158.623L325.475 158.902L318.814 159.014C316.588 159.061 314.351 159.052 312.119 159.069L311.675 159.072L311.673 158.623L311.619 147.433L311.617 146.931L312.119 146.933L325.359 146.996C329.773 147.001 334.186 147.108 338.599 147.16L338.875 147.163L338.872 147.433C338.853 149.332 338.786 151.22 338.741 153.087L338.6 158.623ZM338.6 158.623L338.458 152.969C338.413 151.106 338.346 149.264 338.327 147.433L338.6 147.706C334.187 147.757 329.773 147.865 325.36 147.87L312.12 147.933L312.619 147.434L312.565 158.624L312.119 158.178C314.301 158.196 316.477 158.186 318.665 158.233L325.244 158.345L338.6 158.623Z" fill="#EBEBEB"/>
<path d="M323.829 172.732L310.704 173.011L304.043 173.123C301.817 173.17 299.58 173.161 297.348 173.178L296.904 173.181L296.902 172.732L296.848 161.542L296.846 161.04L297.348 161.042L310.588 161.105C315.001 161.11 319.415 161.217 323.828 161.269L324.104 161.272L324.101 161.542C324.082 163.441 324.015 165.329 323.97 167.196L323.829 172.732ZM323.829 172.732L323.687 167.078C323.642 165.215 323.575 163.373 323.556 161.542L323.829 161.815C319.416 161.866 315.002 161.974 310.589 161.979L297.349 162.042L297.848 161.543L297.794 172.733L297.348 172.287C299.53 172.305 301.706 172.295 303.894 172.342L310.473 172.454L323.829 172.732Z" fill="#EBEBEB"/>
<path d="M309.116 158.623L295.991 158.902L289.33 159.014C287.104 159.061 284.867 159.052 282.635 159.069L282.191 159.072L282.189 158.623L282.135 147.433L282.133 146.931L282.635 146.933L295.875 146.996C300.288 147.001 304.702 147.108 309.115 147.16L309.391 147.163L309.388 147.433C309.369 149.332 309.302 151.22 309.257 153.087L309.116 158.623ZM309.116 158.623L308.974 152.969C308.929 151.106 308.862 149.264 308.843 147.433L309.116 147.706C304.703 147.757 300.289 147.865 295.876 147.87L282.636 147.933L283.135 147.434L283.081 158.624L282.635 158.178C284.817 158.196 286.993 158.186 289.181 158.233L295.76 158.345L309.116 158.623Z" fill="#EBEBEB"/>
<path d="M468.661 339.165L455.536 339.444L448.875 339.556C446.649 339.603 444.412 339.593 442.18 339.611L441.736 339.614L441.734 339.165L441.68 327.975L441.678 327.473L442.18 327.475L455.42 327.538C459.833 327.543 464.247 327.651 468.66 327.702L468.936 327.705L468.933 327.975C468.914 329.874 468.847 331.762 468.802 333.629L468.661 339.165ZM468.661 339.165L468.519 333.511C468.474 331.648 468.407 329.806 468.388 327.975L468.661 328.248C464.248 328.299 459.834 328.407 455.421 328.412L442.181 328.475L442.68 327.976L442.626 339.166L442.18 338.72C444.362 338.738 446.538 338.728 448.726 338.775L455.305 338.887L468.661 339.165Z" fill="#EBEBEB"/>
<path d="M453.887 65.4859L440.762 65.7649L434.101 65.8769C431.875 65.9239 429.638 65.9139 427.406 65.9319L426.962 65.9359L426.96 65.4869L426.906 54.2969L426.904 53.7949L427.406 53.7969L440.646 53.8599C445.059 53.8649 449.473 53.9729 453.886 54.0239L454.162 54.0269L454.159 54.2969C454.14 56.1959 454.073 58.0839 454.028 59.9509L453.887 65.4859ZM453.887 65.4859L453.745 59.8319C453.7 57.9689 453.633 56.1269 453.614 54.2959L453.887 54.5689C449.474 54.6199 445.06 54.7279 440.647 54.7329L427.407 54.7959L427.906 54.2969L427.852 65.4869L427.406 65.0409C429.588 65.0589 431.764 65.0489 433.952 65.0959L440.531 65.2079L453.887 65.4859Z" fill="#EBEBEB"/>
<path d="M468.661 79.5958L455.536 79.8748L448.875 79.9868C446.649 80.0338 444.412 80.0238 442.18 80.0418L441.736 80.0448L441.734 79.5958L441.68 68.4058L441.678 67.9038L442.18 67.9058L455.42 67.9688C459.833 67.9738 464.247 68.0818 468.66 68.1328L468.936 68.1358L468.933 68.4058C468.914 70.3048 468.847 72.1928 468.802 74.0598L468.661 79.5958ZM468.661 79.5958L468.519 73.9418C468.474 72.0788 468.407 70.2368 468.388 68.4058L468.661 68.6788C464.248 68.7298 459.834 68.8378 455.421 68.8428L442.181 68.9058L442.68 68.4068L442.626 79.5968L442.18 79.1508C444.362 79.1688 446.538 79.1588 448.726 79.2058L455.305 79.3178L468.661 79.5958Z" fill="#EBEBEB"/>
<path d="M72.5943 65.4859L59.4693 65.7649L52.8083 65.8769C50.5823 65.9239 48.3453 65.9139 46.1133 65.9319L45.6693 65.9359L45.6673 65.4869L45.6133 54.2969L45.6113 53.7949L46.1133 53.7969L59.3533 53.8599C63.7663 53.8649 68.1803 53.9729 72.5933 54.0239L72.8693 54.0269L72.8663 54.2969C72.8473 56.1959 72.7803 58.0839 72.7353 59.9509L72.5943 65.4859ZM72.5943 65.4859L72.4523 59.8319C72.4073 57.9689 72.3403 56.1269 72.3213 54.2959L72.5943 54.5689C68.1813 54.6199 63.7673 54.7279 59.3543 54.7329L46.1143 54.7959L46.6133 54.2969L46.5593 65.4869L46.1133 65.0409C48.2953 65.0589 50.4713 65.0489 52.6593 65.0959L59.2383 65.2079L72.5943 65.4859Z" fill="#EBEBEB"/>
<path d="M249.945 445.648C366.912 445.648 461.732 437.35 461.732 427.113C461.732 416.877 366.912 408.578 249.945 408.578C132.978 408.578 38.1582 416.877 38.1582 427.113C38.1582 437.35 132.978 445.648 249.945 445.648Z" fill="#EBEBEB"/>
<path d="M35.4688 388.715L89.1017 388.472L142.735 388.384L250.001 388.216L357.267 388.383L410.9 388.47L464.533 388.715L410.9 388.96L357.267 389.047L250.001 389.214L142.735 389.046L89.1017 388.958L35.4688 388.715Z" fill="#263238"/>
<path d="M140.215 313.709L142.475 327.258L157.781 409.915H160.248L149.118 327.258L147.473 313.709H140.215Z" fill="#DBDBDB"/>
<path d="M147.473 313.709H140.215L142.475 327.258H149.118L147.473 313.709Z" fill="#A6A6A6"/>
<path d="M92.1484 409.915H94.6164L109.921 327.258L112.181 313.709H104.923L103.278 327.258L92.1484 409.915Z" fill="#DBDBDB"/>
<path d="M104.924 313.709L103.279 327.258H109.922L112.182 313.709H104.924Z" fill="#A6A6A6"/>
<path d="M46.2402 409.915H48.7072L64.0132 327.258L66.2732 313.709H59.0152L57.3702 327.258L46.2402 409.915Z" fill="#DBDBDB"/>
<path d="M57.3711 327.258H64.0141L66.2741 313.709H59.0161L57.3711 327.258Z" fill="#A6A6A6"/>
<path d="M50.1523 320.075H162.308V308.257H120.322L106.212 226.161H54.4283L50.1523 320.075Z" fill="#DBDBDB"/>
<path d="M50.1523 320.075H56.2663L60.2513 226.161H54.4283L50.1523 320.075Z" fill="#A6A6A6"/>
<path d="M166.526 424.4C164.296 424.679 103.425 410.478 101.448 408.562C101.207 408.35 104.085 396.661 104.085 396.661C105.041 391.85 120.893 352.593 120.893 352.593L160.687 362.41L143.824 398.798C143.824 398.798 151.411 403.932 157.931 408.828C157.938 408.838 157.947 408.84 157.945 408.849C161.971 411.855 165.445 414.559 166.192 415.446C168.128 417.764 168.753 424.138 166.526 424.4Z" fill="#EB9481"/>
<path d="M166.526 424.399C164.298 424.68 103.429 410.479 101.452 408.562C101.211 408.351 104.091 396.659 104.091 396.659C104.412 395.083 106.329 389.774 108.778 383.351L146.865 392.233L143.824 398.797C143.824 398.797 151.411 403.935 157.935 408.833C157.945 408.843 157.945 408.843 157.945 408.853C161.97 411.854 165.452 414.564 166.195 415.447C168.132 417.765 168.754 424.138 166.526 424.399Z" fill="#EBEBEB"/>
<path d="M166.7 424.573C164.395 424.814 103.033 411.061 101.032 409.054C100.258 408.305 105.703 388.538 105.726 388.424L145.003 397.097L144.837 397.765C144.837 397.765 164.573 412.895 166.542 415.333C168.493 417.761 169.004 424.342 166.7 424.573Z" fill="#455A64"/>
<path d="M166.54 422.042C156.253 419.47 114.52 410.065 104.156 408.304C104.072 408.29 104.059 408.346 104.142 408.369C114.282 411.141 156.09 420.207 166.503 422.212C166.722 422.254 166.758 422.096 166.54 422.042Z" fill="#263238"/>
<path d="M147.991 397.574C144.091 395.903 138.973 395.411 135.212 397.61C135.066 397.695 135.19 397.901 135.331 397.889C139.631 397.525 143.563 397.554 147.86 398.084C148.163 398.121 148.271 397.693 147.991 397.574Z" fill="#263238"/>
<path d="M150.532 400C146.632 398.329 141.514 397.837 137.753 400.036C137.607 400.121 137.731 400.327 137.872 400.315C142.172 399.951 146.104 399.98 150.401 400.51C150.703 400.548 150.811 400.12 150.532 400Z" fill="#263238"/>
<path d="M153.072 402.427C149.172 400.756 144.053 400.264 140.292 402.463C140.146 402.548 140.27 402.753 140.411 402.742C144.711 402.378 148.644 402.407 152.94 402.937C153.243 402.974 153.351 402.547 153.072 402.427Z" fill="#263238"/>
<path d="M155.276 389.895C154.171 387.337 150.97 387.658 148.95 388.704C145.679 390.396 142.46 393.463 140.589 396.61C140.543 396.687 140.588 396.751 140.652 396.778C140.594 397.09 140.798 397.48 141.176 397.429C144.817 396.939 148.769 396.867 152.151 395.276C154.125 394.346 156.321 392.314 155.276 389.895ZM146.543 395.558C144.758 395.842 142.971 396.037 141.197 396.387C142.832 394.849 144.393 393.249 146.182 391.877C147.036 391.222 147.926 390.566 148.862 390.033C150.32 389.204 155.641 387.937 153.921 392.236C152.974 394.606 148.67 395.219 146.543 395.558Z" fill="#263238"/>
<path d="M130.482 393.229C133.516 395.409 137.389 396.201 140.879 397.346C141.241 397.465 141.513 397.118 141.513 396.801C141.581 396.786 141.637 396.732 141.606 396.648C140.341 393.213 137.736 389.611 134.83 387.351C133.035 385.955 129.947 385.056 128.393 387.37C126.922 389.558 128.711 391.956 130.482 393.229ZM129.296 389.919C128.391 385.379 133.391 387.594 134.673 388.675C135.496 389.37 136.251 390.177 136.971 390.976C138.48 392.651 139.721 394.509 141.048 396.319C139.368 395.651 137.646 395.134 135.943 394.529C133.914 393.809 129.795 392.422 129.296 389.919Z" fill="#263238"/>
<path d="M146.937 397.432L104.482 387.927C104.482 387.927 139.494 306.696 136.395 302.588C134.846 300.534 95.5159 299.93 83.0079 289.333C66.7599 275.567 77.6609 254.534 77.6609 254.534L121.584 253.231C121.584 253.231 121.054 262.406 122.768 263.788C123.898 264.71 176.234 269.108 181.981 286.745C189.029 308.372 146.937 397.432 146.937 397.432Z" fill="#263238"/>
<path d="M148.152 389.752C147.031 389.283 136.069 386.173 133.614 385.545C128.67 384.28 123.72 383.035 118.752 381.87C116.163 381.263 110.611 379.941 110.279 379.968C110.119 379.981 110.106 380.192 110.255 380.238C115.097 381.746 119.991 383.068 124.886 384.401C129.772 385.732 146.597 389.845 148.058 390.006C148.196 390.021 148.31 389.818 148.152 389.752Z" fill="#37474F"/>
<path d="M143.907 298.952C143.024 298.198 141.698 298.106 140.592 297.921C134.252 296.861 127.913 295.792 121.572 294.732C115.638 293.74 109.675 292.853 103.769 291.714C98.8793 290.771 93.9063 289.499 89.6773 286.849C85.4423 284.196 82.5163 280.208 81.0403 275.554C79.5643 270.9 79.4593 265.897 79.9233 261.079C80.0373 259.9 80.2533 258.723 80.4743 257.559C80.4913 257.47 80.3493 257.441 80.3333 257.529C78.7253 266.524 78.5813 276.964 85.3273 284.133C88.6163 287.628 93.1333 289.681 97.7433 291.011C102.944 292.512 108.38 293.222 113.717 294.114C120.058 295.173 126.398 296.234 132.74 297.287C135.791 297.794 138.889 298.191 141.914 298.823C142.495 298.944 143.15 299.114 143.567 299.553C144.141 300.158 143.985 301.018 143.835 301.75C143.529 303.244 143.127 304.72 142.698 306.184C139.236 317.992 115.88 374.34 115.194 375.637C115.122 375.774 115.336 375.88 115.412 375.745C121.229 365.386 138.155 321.869 141.996 310.698C142.977 307.844 143.883 304.957 144.49 302.004C144.707 300.942 144.835 299.744 143.907 298.952Z" fill="#37474F"/>
<path d="M249.428 425.053C247.298 425.77 186.375 424.911 184.056 423.428C183.155 422.571 182.439 414.781 181.889 405.086L171.408 363.535L210.601 363.211L222.077 404.479C222.077 404.479 230.536 408.002 237.902 411.503C237.911 411.512 237.92 411.512 237.92 411.521C242.465 413.666 246.409 415.626 247.317 416.346C249.674 418.232 251.558 424.354 249.428 425.053Z" fill="#EB9481"/>
<path d="M250.677 425.096C248.477 425.825 185.589 425.523 183.204 423.991C182.287 423.425 181.797 414.272 181.523 403.195C181.521 403.079 181.519 402.964 181.518 402.848L222.092 402.591L222.073 403.279C222.073 403.279 246.093 414.146 248.54 416.106C250.967 418.058 252.878 424.377 250.677 425.096Z" fill="#455A64"/>
<path d="M249.976 422.658C239.376 422.347 196.594 422.092 186.093 422.589C186.008 422.593 186.007 422.651 186.093 422.656C196.592 423.193 239.375 423.102 249.976 422.832C250.199 422.826 250.2 422.664 249.976 422.658Z" fill="#263238"/>
<path d="M226.607 402.728C222.439 401.931 217.334 402.545 214.132 405.498C214.008 405.612 214.173 405.787 214.308 405.745C218.43 404.469 222.277 403.656 226.588 403.254C226.892 403.226 226.906 402.785 226.607 402.728Z" fill="#263238"/>
<path d="M229.609 404.554C225.441 403.756 220.336 404.371 217.134 407.324C217.01 407.438 217.175 407.613 217.31 407.571C221.432 406.295 225.279 405.482 229.59 405.08C229.894 405.052 229.908 404.612 229.609 404.554Z" fill="#263238"/>
<path d="M232.613 406.381C228.445 405.584 223.34 406.199 220.138 409.151C220.014 409.265 220.179 409.44 220.314 409.398C224.436 408.122 228.283 407.309 232.594 406.907C232.897 406.879 232.911 406.438 232.613 406.381Z" fill="#263238"/>
<path d="M232.076 393.668C230.448 391.405 227.391 392.405 225.642 393.858C222.811 396.211 220.324 399.896 219.171 403.37C219.143 403.455 219.2 403.508 219.269 403.52C219.279 403.837 219.563 404.174 219.921 404.044C223.372 402.787 227.217 401.87 230.178 399.592C231.908 398.262 233.617 395.808 232.076 393.668ZM224.762 401.069C223.08 401.728 221.376 402.302 219.718 403.023C220.986 401.171 222.166 399.274 223.619 397.551C224.313 396.729 225.041 395.897 225.841 395.176C227.087 394.054 232.013 391.678 231.255 396.245C230.839 398.763 226.767 400.282 224.762 401.069Z" fill="#263238"/>
<path d="M208.574 402.231C212.005 403.711 215.958 403.656 219.613 404.027C219.992 404.066 220.183 403.669 220.116 403.359C220.18 403.33 220.222 403.265 220.173 403.189C218.2 400.104 214.883 397.143 211.559 395.558C209.506 394.579 206.297 394.361 205.276 396.954C204.309 399.407 206.571 401.367 208.574 402.231ZM206.705 399.251C204.846 395.01 210.206 396.104 211.69 396.886C212.644 397.388 213.554 398.015 214.429 398.642C216.262 399.956 217.874 401.504 219.558 402.988C217.774 402.696 215.981 402.559 214.188 402.332C212.051 402.062 207.73 401.589 206.705 399.251Z" fill="#263238"/>
<path d="M225.922 403.023L180.187 402.988C180.187 402.988 160.611 325.329 157.147 320.905C152.529 315.007 87.9007 315.142 74.0387 295.905C61.5887 278.628 72.0977 254.178 72.0977 254.178L121.04 252.726C121.04 252.726 119.513 260.487 116.504 268.118C116.504 268.118 175.461 278.984 191.978 297.044C203.124 309.233 225.922 403.023 225.922 403.023Z" fill="#263238"/>
<path d="M125.04 264.768C123.627 265.017 122.231 265.587 120.893 266.096C119.488 266.631 118.104 267.239 116.752 267.897C114.076 269.2 111.526 270.69 109.009 272.271C108.931 272.32 109.008 272.428 109.086 272.388C111.732 271.014 114.468 269.779 117.207 268.599C118.525 268.032 119.843 267.466 121.161 266.898C122.487 266.326 123.9 265.84 125.16 265.133C125.327 265.04 125.236 264.733 125.04 264.768Z" fill="#37474F"/>
<path d="M122.107 252.704C121.547 254.935 121.056 257.183 120.417 259.394C120.124 260.408 119.835 261.44 119.451 262.424C119.127 263.254 118.636 264.203 117.674 264.388C116.565 264.602 116.248 263.653 116.338 262.738C116.439 261.717 116.7 260.693 116.902 259.689C117.135 258.53 117.37 257.373 117.581 256.21C117.686 255.629 117.796 255.048 117.895 254.465C117.92 254.319 118.029 253.205 118.108 252.886C118.117 252.913 118.134 252.939 118.169 252.934C118.182 252.932 118.195 252.93 118.208 252.928C118.238 252.924 118.271 252.904 118.276 252.87C118.288 252.783 118.286 252.764 118.22 252.703C118.191 252.676 118.151 252.678 118.118 252.695C117.906 252.811 117.891 253.102 117.822 253.316C117.642 253.881 117.458 254.444 117.293 255.014C116.984 256.079 116.683 257.147 116.411 258.222C116.14 259.296 115.876 260.372 115.611 261.448C115.413 262.253 115.178 263.1 115.395 263.927C115.633 264.83 116.355 265.285 117.149 265.354C117.11 265.427 117.065 265.496 117.031 265.572C116.934 265.791 116.862 266.026 116.779 266.251C116.694 266.482 116.617 266.712 116.55 266.949C116.519 267.061 116.498 267.178 116.486 267.294C116.472 267.423 116.498 267.549 116.482 267.679C116.456 267.879 116.728 268.001 116.828 267.803C116.886 267.688 116.972 267.601 117.037 267.491C117.105 267.376 117.154 267.243 117.197 267.117C117.273 266.894 117.337 266.671 117.394 266.443C117.45 266.218 117.52 265.991 117.562 265.762C117.587 265.626 117.592 265.488 117.604 265.351C118.058 265.305 118.511 265.149 118.892 264.861C119.559 264.358 119.948 263.59 120.227 262.823C120.564 261.894 120.825 260.933 121.087 259.981C121.734 257.624 122.285 255.229 122.511 252.792C122.535 252.534 122.174 252.439 122.107 252.704Z" fill="#37474F"/>
<path d="M221.188 394.835C219.986 394.66 218.736 394.657 217.522 394.607C216.236 394.554 214.948 394.498 213.661 394.46C211.128 394.385 208.595 394.336 206.06 394.327C200.956 394.31 195.852 394.313 190.749 394.394C188.089 394.437 182.383 394.509 182.067 394.613C181.915 394.663 181.954 394.863 182.11 394.872C187.174 395.141 192.244 395.224 197.316 395.317C202.38 395.41 207.449 395.489 212.514 395.402C213.917 395.378 215.317 395.325 216.719 395.289C218.187 395.251 219.701 395.29 221.156 395.096C221.297 395.077 221.358 394.86 221.188 394.835Z" fill="#37474F"/>
<path d="M162.477 321.553C161.956 320.218 161.508 318.728 160.568 317.616C159.612 316.484 158.2 316.065 156.822 315.688C144.631 312.352 132.048 310.853 119.651 308.509C113.55 307.355 107.476 305.996 101.558 304.102C95.6475 302.211 89.6515 299.822 84.4425 296.402C81.8245 294.683 79.6855 292.488 78.1465 289.754C76.6995 287.185 75.7845 284.328 75.1885 281.45C73.8265 274.873 73.9205 267.943 75.2335 261.368C75.5635 259.716 75.9835 258.086 76.4875 256.479C76.5195 256.378 76.3645 256.343 76.3295 256.44C74.0675 262.837 73.0635 269.617 73.5735 276.394C74.0165 282.276 75.4415 288.465 79.2435 293.132C81.1575 295.482 83.6475 297.197 86.2775 298.657C89.0555 300.199 91.9465 301.54 94.8965 302.718C100.647 305.013 106.623 306.685 112.664 308.021C125.031 310.757 137.651 312.145 150.016 314.895C151.541 315.234 153.063 315.594 154.577 315.98C156.047 316.354 157.766 316.615 159.068 317.427C160.533 318.341 161.019 320.163 161.596 321.683C162.233 323.359 182.114 390.639 182.562 392.331C182.634 392.604 183.05 392.477 182.981 392.204C181.25 385.325 163.767 324.855 162.477 321.553Z" fill="#37474F"/>
<path d="M158.87 323.337C158.405 321.869 158 320.292 156.632 319.4C155.36 318.571 135.695 315.887 133.494 315.548C133.392 315.532 133.351 315.688 133.455 315.706C135.341 316.024 153.416 319.263 155.031 319.8C155.704 320.024 156.354 320.367 156.794 320.939C157.337 321.645 157.56 322.559 157.825 323.392C158.381 325.142 158.937 326.893 159.492 328.643C160.607 332.157 161.72 335.673 162.78 339.204C163.981 343.208 165.356 347.4 166.391 351.45C166.47 351.759 166.911 351.61 166.857 351.309C165.481 343.711 159.45 325.168 158.87 323.337Z" fill="#37474F"/>
<path d="M116.741 268.241C125.759 269.227 134.72 271.252 143.44 273.713C152.233 276.195 160.867 279.285 169.203 283.028C173.885 285.131 178.418 287.48 182.914 289.95C183.003 289.999 182.921 290.13 182.832 290.083C174.767 285.884 166.322 282.264 157.778 279.159C149.262 276.063 140.545 273.517 131.688 271.593C126.701 270.51 121.68 269.667 116.647 268.831C116.313 268.775 116.403 268.204 116.741 268.241Z" fill="#37474F"/>
<path d="M115.156 211.398C119.794 221.714 137.916 254.923 149.029 256.875C156.321 258.156 185.425 254.166 190.181 247.054C192.253 243.955 187.712 223.102 183.851 224.091C179.989 225.08 156.688 229.106 153.778 228.385C150.885 227.667 128.32 203.696 120.021 197.853C105.71 187.777 112.658 205.843 115.156 211.398Z" fill="#EB9481"/>
<path d="M174.951 222.931L176.825 254.459C176.825 254.459 153.839 259.602 143.786 256.172C131.578 252.006 113.599 214.319 111.132 208.122C107.084 197.95 108.172 191.777 113.86 193.264C116.07 193.823 118.98 195.552 122.551 198.674C126.288 201.925 147.754 223.035 154.518 227.013C158.301 229.238 174.951 222.931 174.951 222.931Z" fill="#FFC727"/>
<path opacity="0.6" d="M174.951 222.931L176.825 254.459C176.825 254.459 153.839 259.602 143.786 256.172C131.578 252.006 113.599 214.319 111.132 208.122C107.084 197.95 108.172 191.777 113.86 193.264C116.07 193.823 118.98 195.552 122.551 198.674C126.288 201.925 147.754 223.035 154.518 227.013C158.301 229.238 174.951 222.931 174.951 222.931Z" fill="black"/>
<path d="M170.907 253.358C170.491 248.707 169.481 229.613 169.542 225.473C169.546 225.186 169.729 225.119 169.763 225.418C171.347 239.325 170.915 248.753 171.09 253.335C171.095 253.45 170.918 253.476 170.907 253.358Z" fill="#263238"/>
<path opacity="0.6" d="M167.074 256.203C159.575 257.288 149.549 258.14 143.783 256.174C131.579 252.007 113.6 214.322 111.134 208.125C107.083 197.95 108.17 191.78 113.859 193.267C114.035 193.309 114.212 193.361 114.393 193.424L167.074 256.203Z" fill="black"/>
<path d="M130.494 263.674C129.108 265.018 69.8195 271.191 69.5255 270.793C68.7375 269.716 79.8165 214.082 103.56 194.911C107.744 191.533 114.722 192.951 117.882 194.983C119.461 195.998 123.832 203.984 125.086 211.09C126.332 218.186 131.366 262.817 130.494 263.674Z" fill="#EBEBEB"/>
<path d="M105.115 193.523C105.115 193.523 111.583 227.139 111.795 228.508C112.007 229.877 111.059 267.31 111.059 267.31L67.0332 272.746C67.0332 272.746 72.0102 254.162 72.2762 253.271C72.5412 252.38 81.8602 221.536 91.8872 207.708C101.101 195 105.115 193.523 105.115 193.523Z" fill="#FFC727"/>
<path opacity="0.6" d="M105.115 193.523C105.115 193.523 111.583 227.139 111.795 228.508C112.007 229.877 111.059 267.31 111.059 267.31L67.0332 272.746C67.0332 272.746 72.0102 254.162 72.2762 253.271C72.5412 252.38 81.8602 221.536 91.8872 207.708C101.101 195 105.115 193.523 105.115 193.523Z" fill="black"/>
<path d="M118.791 195.475C118.791 195.475 123.233 225.299 123.362 227.179C123.491 229.059 126.848 265.333 126.848 265.333L132.284 263.296C132.284 263.296 129.252 239.685 128.895 237.638C128.538 235.591 126.009 213.632 125.059 209.527C123.555 203.033 118.791 195.475 118.791 195.475Z" fill="#FFC727"/>
<path opacity="0.6" d="M118.791 195.475C118.791 195.475 123.233 225.299 123.362 227.179C123.491 229.059 126.848 265.333 126.848 265.333L132.284 263.296C132.284 263.296 129.252 239.685 128.895 237.638C128.538 235.591 126.009 213.632 125.059 209.527C123.555 203.033 118.791 195.475 118.791 195.475Z" fill="black"/>
<path d="M172.626 253.938L136.09 257.666L148.366 209.054L184.902 205.326L172.626 253.938Z" fill="#EBEBEB"/>
<path d="M186.473 213.906C188.527 217.813 193.491 222.566 194.015 225.805C194.488 228.729 192.09 229.862 192.09 229.862C192.09 229.862 195.403 231.349 195.394 234.366C195.389 235.919 192.904 237.275 192.904 237.275C192.904 237.275 195.507 238.582 195.334 241.265C195.195 243.402 192.727 244.442 192.727 244.442C192.727 244.442 194.64 246.86 193.8 248.992C192.098 253.316 173.726 254.067 170.612 247.416C169.16 244.316 173.658 244.376 173.658 244.376C173.658 244.376 167.212 242.727 166.96 238.944C166.708 235.161 172.547 235.592 172.547 235.592C172.547 235.592 166.314 233.94 166.449 229.991C166.589 225.88 172.355 227.311 172.355 227.311C172.355 227.311 168.157 224.709 168.953 221.709C170.266 216.756 178.253 222.59 182.251 221.467L184.207 214.718L186.473 213.906Z" fill="#EB9481"/>
<path d="M190.393 219.542C188.771 215.673 193.439 210.623 192.419 206.701C191.04 201.395 185.229 206.889 184.207 214.719L184.482 220.937L190.393 219.542Z" fill="#EB9481"/>
<path d="M192.36 244.663C192.421 244.656 192.443 244.74 192.382 244.757C186.399 246.476 179.299 246.532 173.411 244.402C173.218 244.332 173.247 243.988 173.475 244.024C179.964 245.059 185.806 245.46 192.36 244.663Z" fill="#263238"/>
<path d="M192.995 237.31C193.066 237.301 193.082 237.419 193.007 237.44C186.833 239.178 178.834 239.021 172.336 235.767C172.113 235.656 172.025 235.332 172.291 235.441C176.777 237.277 187.099 238.057 192.995 237.31Z" fill="#263238"/>
<path d="M171.956 226.925C178.308 229.804 184.943 230.357 191.841 229.946C191.931 229.94 191.929 230.068 191.855 230.093C188.536 231.214 184.112 231.018 180.683 230.574C177.398 230.149 174.52 229.106 171.855 227.147C171.752 227.071 171.82 226.863 171.956 226.925Z" fill="#263238"/>
<path d="M91.6037 205.99C73.9317 225.944 54.1297 259.478 62.8397 266.496C70.7937 272.905 99.5117 266.403 117.528 259.127C120.957 257.742 112.987 227.119 109.177 228.177C102.6 230.003 92.2227 234.43 91.7607 234.561C90.7717 234.842 95.5177 222.938 101.352 208.504C107.857 192.406 101.705 194.584 91.6037 205.99Z" fill="#EB9481"/>
<path d="M147.619 227.323C147.385 229.975 145.177 231.013 145.177 231.013C145.177 231.013 147.163 232.442 147.572 234.757C148.041 237.408 144.09 239.306 144.09 239.306C144.09 239.306 145.801 241.169 145.987 243.657C146.181 246.239 142.467 248.723 142.467 248.723C142.467 248.723 143.107 251.334 141.726 253.6C139.364 257.475 116.504 260.439 113.406 260.71L107.898 228.804C107.898 228.804 127.354 219.079 132.55 219.704C136.927 220.23 148.034 222.621 147.619 227.323Z" fill="#EB9481"/>
<path d="M145.113 230.907C140.594 229.231 135.683 228.639 130.937 228.121C130.832 228.11 130.815 228.275 130.921 228.286C135.647 228.747 140.362 230.483 145.06 231.131C145.19 231.148 145.235 230.953 145.113 230.907Z" fill="#263238"/>
<path d="M143.99 238.938C142.957 238.59 141.811 238.583 140.731 238.519C139.568 238.45 138.406 238.402 137.241 238.372C134.91 238.311 132.578 238.304 130.248 238.365C130.145 238.368 130.123 238.526 130.232 238.53C132.555 238.594 134.876 238.694 137.194 238.856C138.354 238.937 139.513 239.029 140.672 239.127C141.75 239.219 142.879 239.406 143.958 239.255C144.117 239.233 144.146 238.991 143.99 238.938Z" fill="#263238"/>
<path d="M142.371 248.717C141.485 248.378 140.353 248.502 139.417 248.497C138.355 248.491 137.292 248.48 136.23 248.463C134.106 248.428 131.982 248.393 129.86 248.284C129.754 248.279 129.737 248.442 129.844 248.448C131.999 248.57 134.152 248.72 136.309 248.822C137.368 248.872 138.427 248.917 139.486 248.955C140.386 248.988 141.508 249.131 142.374 248.823C142.422 248.807 142.415 248.734 142.371 248.717Z" fill="#263238"/>
<path d="M100.311 197.19C87.4565 205.122 54.3885 251.795 60.4745 264.638C66.5605 277.481 108.021 263.34 108.021 263.34L104.354 228.47C104.354 228.47 93.4515 234.602 93.0855 234.05C92.7195 233.498 99.0765 217.573 101.667 211.095C104.257 204.618 107.153 192.968 100.311 197.19Z" fill="#FFC727"/>
<path opacity="0.6" d="M100.311 197.19C87.4565 205.122 54.3885 251.795 60.4745 264.638C66.5605 277.481 108.021 263.34 108.021 263.34L104.354 228.47C104.354 228.47 93.4515 234.602 93.0855 234.05C92.7195 233.498 99.0765 217.573 101.667 211.095C104.257 204.618 107.153 192.968 100.311 197.19Z" fill="black"/>
<path d="M102.767 261.366C102 256.76 99.5472 237.797 99.2942 233.665C99.2762 233.378 99.4542 233.298 99.5112 233.593C102.143 247.34 102.427 256.774 102.948 261.329C102.961 261.443 102.786 261.483 102.767 261.366Z" fill="#263238"/>
<path d="M104.098 228.504C102.89 228.891 101.726 229.546 100.595 230.114C99.5707 230.628 98.5447 231.141 97.5277 231.67C95.3167 232.819 93.1327 234.016 90.9577 235.232C88.7847 236.446 86.6247 237.682 84.4837 238.951C82.3437 240.219 80.2797 241.607 78.1417 242.879C78.0437 242.937 78.1437 243.081 78.2417 243.025C80.4147 241.79 82.6707 240.701 84.8727 239.52C87.0307 238.362 89.1877 237.2 91.3467 236.044C93.5037 234.89 95.6677 233.747 97.8207 232.586C98.8757 232.018 99.9237 231.439 100.977 230.867C102.092 230.262 103.297 229.691 104.316 228.934C104.537 228.77 104.365 228.418 104.098 228.504Z" fill="#263238"/>
<path d="M100.437 218.488C99.7684 219.344 99.1104 220.203 98.4864 221.092C98.3714 221.256 98.2664 221.428 98.1544 221.594C98.3244 221.137 98.4944 220.681 98.6654 220.224C99.2624 218.631 99.9764 217.031 100.391 215.382C100.411 215.305 100.298 215.274 100.262 215.339C99.3884 216.889 98.7794 218.61 98.0834 220.242C97.3994 221.847 96.7054 223.45 96.0544 225.068C95.4034 226.689 94.7294 228.303 94.1094 229.935C93.5024 231.53 92.8164 233.149 92.4514 234.815C92.4304 234.913 92.5654 234.948 92.6134 234.869C93.5364 233.345 94.1784 231.636 94.8614 229.999C95.5334 228.387 96.1594 226.755 96.8064 225.132C97.0774 224.453 97.3364 223.769 97.5944 223.084C97.7064 222.928 97.8174 222.772 97.9294 222.621C98.2434 222.197 98.5364 221.756 98.8204 221.312C99.4064 220.397 99.9524 219.464 100.49 218.52C100.505 218.491 100.459 218.46 100.437 218.488Z" fill="#263238"/>
<path d="M108.097 262.575C108.074 262.342 107.954 262.294 107.914 262.544C107.892 262.681 107.876 262.931 107.854 263.067C106.439 263.445 101.278 265.023 100.018 265.396C97.3719 266.179 94.7059 266.873 92.0109 267.468C89.3079 268.066 86.5949 268.576 83.8599 269.007C81.1439 269.434 78.3859 269.879 75.6409 270.056C75.5299 270.063 75.5399 270.234 75.6509 270.228C78.4539 270.084 81.2369 270.003 84.0289 269.681C86.7569 269.367 89.4819 268.912 92.1699 268.348C94.9079 267.773 97.6309 267.071 100.308 266.256C101.648 265.848 102.977 265.402 104.297 264.936C105.542 264.496 106.889 264.116 108.025 263.431C108.11 263.38 108.165 263.268 108.156 263.17C108.136 262.972 108.116 262.773 108.097 262.575Z" fill="#263238"/>
<path d="M115.997 204.407C112.578 205.154 106.82 199.859 104.582 195.608C104.43 195.316 105.826 183.786 105.865 181.473C105.871 180.998 120.335 185.242 120.335 185.242C120.335 185.242 118.825 190.067 118.781 194.101C118.782 194.438 119.301 203.683 115.997 204.407Z" fill="#EB9481"/>
<path d="M120.34 185.238C120.34 185.238 120.34 185.238 120.33 185.248C120.311 185.318 120.224 185.6 120.098 186.054C119.886 186.829 119.559 188.087 119.294 189.526C119.019 190.964 118.796 192.583 118.783 194.099C118.774 194.209 118.785 194.32 118.787 194.42L118.788 194.47C118.8 194.661 118.803 194.911 118.806 195.213C118.375 195.268 117.903 195.283 117.391 195.269C109.489 194.956 106.991 185.208 106.316 181.472C106.396 181.481 106.477 181.5 106.567 181.519C106.949 181.585 107.452 181.7 108.056 181.843C108.207 181.881 108.358 181.92 108.519 181.958C109.485 182.198 110.633 182.506 111.831 182.824C112.224 182.93 112.616 183.036 113.019 183.152C113.875 183.393 114.741 183.634 115.546 183.856C115.889 183.963 116.231 184.059 116.553 184.146C116.906 184.242 117.258 184.349 117.58 184.436C117.741 184.484 117.902 184.533 118.053 184.571C118.134 184.6 118.204 184.62 118.275 184.639C118.748 184.774 119.151 184.89 119.473 184.987C119.715 185.055 119.906 185.113 120.047 185.151C120.168 185.19 120.248 185.209 120.289 185.228C120.309 185.228 120.319 185.228 120.329 185.238C120.34 185.238 120.34 185.238 120.34 185.238Z" fill="#263238"/>
<path d="M105.02 164.161C103.016 169.155 104.463 184.196 107.832 187.809C112.717 193.047 121.345 194.242 125.96 188.234C130.434 182.41 128.201 162.842 124.378 159.494C118.748 154.563 107.981 156.785 105.02 164.161Z" fill="#EB9481"/>
<path d="M118.771 174.07C118.759 174.033 118.698 174.128 118.704 174.169C118.858 175.176 118.864 176.356 117.989 176.801C117.962 176.815 117.971 176.866 118.004 176.857C119.102 176.566 119.078 175 118.771 174.07Z" fill="#263238"/>
<path d="M117.74 173.123C116.099 173.195 116.363 176.472 117.884 176.406C119.381 176.339 119.116 173.062 117.74 173.123Z" fill="#263238"/>
<path d="M124.661 173.761C124.666 173.721 124.744 173.802 124.746 173.844C124.796 174.862 125.024 176.019 125.97 176.282C125.999 176.29 126.001 176.341 125.966 176.339C124.833 176.273 124.545 174.733 124.661 173.761Z" fill="#263238"/>
<path d="M125.482 172.628C127.105 172.372 127.497 175.637 125.994 175.873C124.514 176.107 124.122 172.842 125.482 172.628Z" fill="#263238"/>
<path d="M116.326 171.729C116.763 171.581 117.142 171.371 117.559 171.179C118.03 170.963 118.427 170.839 118.71 170.379C118.862 170.132 118.757 169.719 118.531 169.549C118.004 169.154 117.362 169.275 116.785 169.512C116.158 169.769 115.741 170.127 115.419 170.721C115.104 171.297 115.749 171.924 116.326 171.729Z" fill="#A6A6A6"/>
<path d="M126.614 170.875C126.154 170.838 125.735 170.726 125.284 170.642C124.775 170.547 124.36 170.524 123.973 170.146C123.766 169.943 123.767 169.517 123.945 169.297C124.359 168.785 125.012 168.747 125.63 168.836C126.3 168.933 126.792 169.179 127.25 169.676C127.694 170.159 127.221 170.924 126.614 170.875Z" fill="#A6A6A6"/>
<path d="M118.591 183.568C118.853 183.786 119.122 184.094 119.493 184.095C119.849 184.096 120.25 183.903 120.564 183.751C120.595 183.736 120.63 183.768 120.612 183.8C120.38 184.211 119.845 184.5 119.368 184.455C118.902 184.412 118.643 184.033 118.497 183.622C118.477 183.564 118.553 183.537 118.591 183.568Z" fill="#263238"/>
<path d="M119.413 180.443C120.052 181.278 120.927 181.692 121.844 181.795C122.254 181.843 122.679 181.823 123.092 181.751C123.174 181.743 123.255 181.727 123.328 181.705C123.401 181.69 123.467 181.676 123.548 181.653C123.665 181.626 123.722 181.523 123.733 181.409L123.732 181.402C123.728 181.365 123.725 181.335 123.714 181.299C123.714 181.299 123.714 181.299 123.713 181.292L123.704 181.203C123.662 180.42 123.49 179.237 123.49 179.237C123.787 179.357 125.296 179.894 125.24 179.488C124.765 176.124 124.237 172.383 123.054 169.135C123.02 169.026 122.852 169.065 122.871 169.176C123.199 172.427 124.098 175.599 124.479 178.86C124 178.721 123.216 178.455 122.807 178.497C122.699 178.538 123.18 180.777 123.171 181.13C123.171 181.13 123.173 181.145 123.167 181.168C121.867 181.442 120.845 181.125 119.499 180.346C119.42 180.292 119.345 180.367 119.413 180.443Z" fill="#263238"/>
<path d="M122.599 181.392C122.599 181.392 121.981 182.383 121.06 182.797C120.721 182.951 120.348 183.031 119.945 182.957C119.117 182.809 119.037 182.067 119.134 181.418C119.212 180.885 119.419 180.414 119.419 180.414C119.419 180.414 120.692 181.428 122.599 181.392Z" fill="#263238"/>
<path d="M121.06 182.797C120.721 182.951 120.348 183.031 119.945 182.957C119.117 182.809 119.037 182.067 119.134 181.418C120.01 181.438 120.918 181.958 121.06 182.797Z" fill="#FF9ABB"/>
<g opacity="0.2">
<path d="M120.652 167.092C121.209 167.127 121.764 167.187 122.322 167.144C122.887 167.101 123.435 166.947 124.002 166.917C125.076 166.859 126.085 167.14 127.142 167.46C127.232 167.487 127.219 167.545 127.128 167.521C126.04 167.228 124.93 167.023 123.804 167.205C122.859 167.357 122.006 167.468 121.048 167.366C118.939 167.141 116.842 167.191 114.945 168.254C114.933 168.261 114.921 168.243 114.933 168.236C116.647 167.224 118.693 166.971 120.652 167.092Z" fill="black"/>
<path d="M120.558 165.601C121.086 165.634 121.612 165.691 122.141 165.65C122.677 165.609 123.197 165.463 123.734 165.434C124.752 165.379 125.709 165.645 126.712 165.949C126.797 165.975 126.785 166.03 126.699 166.007C125.667 165.729 124.615 165.535 123.547 165.707C122.651 165.852 121.842 165.957 120.934 165.86C118.935 165.647 116.946 165.694 115.147 166.702C115.136 166.709 115.124 166.691 115.136 166.685C116.761 165.726 118.7 165.486 120.558 165.601Z" fill="black"/>
</g>
<path d="M126.671 165.505C121.525 169.11 114.374 163.816 114.374 163.816C112.746 167.883 108.692 167.44 108.692 167.44C108.692 167.44 107.765 176.215 105.454 176.223C101.928 176.238 100.712 164.299 101.798 161.939C102.884 159.578 105.869 158.946 105.869 158.946C105.869 158.946 106.069 157.122 108.23 155.436C110.617 153.57 118.953 155.96 118.953 155.96C118.953 155.96 119.507 154.409 121.05 153.069C122.03 152.224 123.344 152.378 124.191 153.323C123.793 153.904 123.498 154.637 123.368 155.493C122.979 158.063 125.079 158.038 125.035 155.711C125.015 154.676 124.679 153.867 124.191 153.323C125.21 151.791 126.896 151.278 127.932 152.082C129.81 153.541 130.952 162.51 126.671 165.505Z" fill="#A6A6A6"/>
<path d="M116.739 180.3C114.636 180.205 112.777 178.698 112.331 176.543C111.804 173.995 113.447 171.493 115.994 170.966C118.542 170.438 121.043 172.081 121.571 174.629C122.098 177.176 120.455 179.678 117.908 180.206C117.515 180.288 117.123 180.318 116.739 180.3ZM117.136 171.502C116.804 171.487 116.464 171.513 116.123 171.583C113.916 172.04 112.493 174.207 112.949 176.415C113.407 178.621 115.575 180.047 117.78 179.588C119.987 179.131 121.41 176.963 120.954 174.756C120.567 172.891 118.958 171.585 117.136 171.502Z" fill="#455A64"/>
<path d="M127.534 179.466C125.731 179.385 124.178 177.464 124.001 175.008C123.911 173.769 124.181 172.575 124.759 171.646C125.356 170.685 126.211 170.118 127.166 170.049C128.125 169.978 129.049 170.419 129.778 171.284C130.483 172.121 130.92 173.264 131.008 174.502C131.194 177.097 129.775 179.321 127.844 179.46C127.739 179.469 127.637 179.471 127.534 179.466ZM127.451 170.676C127.372 170.672 127.292 170.673 127.211 170.679C126.463 170.733 125.782 171.195 125.293 171.979C124.786 172.796 124.55 173.855 124.629 174.962C124.792 177.21 126.207 178.948 127.798 178.832C129.383 178.718 130.54 176.796 130.379 174.549C130.299 173.442 129.914 172.427 129.294 171.691C128.763 171.06 128.116 170.706 127.451 170.676Z" fill="#455A64"/>
<path d="M121.453 175.185L121.014 174.732C121.684 174.082 123.277 173.156 124.515 174.304L124.086 174.766C122.979 173.737 121.515 175.126 121.453 175.185Z" fill="#455A64"/>
<path d="M100.572 177.905L99.9922 177.656C100.109 177.386 101.165 175.006 102.554 174.676C103.852 174.372 112.342 174.555 112.703 174.563L112.689 175.193C110.255 175.138 103.702 175.051 102.7 175.289C101.783 175.508 100.854 177.251 100.572 177.905Z" fill="#455A64"/>
<path d="M107.301 176.5C107.301 176.5 104.255 171.485 101.997 172.54C99.7402 173.595 101.812 180.711 104.309 181.829C106.806 182.946 107.887 180.658 107.887 180.658L107.301 176.5Z" fill="#EB9481"/>
<path d="M102.642 174.565C102.601 174.559 102.589 174.616 102.624 174.633C104.371 175.475 105.207 177.198 105.756 178.963C105.266 178.265 104.563 177.855 103.632 178.431C103.583 178.461 103.623 178.538 103.675 178.53C104.42 178.421 104.942 178.582 105.4 179.202C105.724 179.641 105.93 180.183 106.151 180.68C106.225 180.845 106.52 180.779 106.471 180.59C106.467 180.576 106.463 180.562 106.459 180.548C106.653 178.267 105.083 174.954 102.642 174.565Z" fill="#263238"/>
<path d="M118.859 195.318L115.388 203.955L104.657 193.023L101.615 196.529C101.615 196.529 112.11 213.895 112.176 213.111L115.738 205.667L120.876 210.848L120.462 197.844L118.859 195.318Z" fill="#EBEBEB"/>
<path d="M121.034 204.408C120.894 202.263 120.812 200.099 120.573 197.963C120.564 197.887 120.446 197.853 120.427 197.942C119.997 200.013 120.577 208.213 120.567 210.178C120.56 210.171 120.551 210.163 120.544 210.155C120.33 209.931 115.782 205.596 115.737 205.665C114.965 206.847 112.351 212.268 112.172 212.761C110.512 210.003 104.151 199.974 102.186 197.366C102.13 197.291 102.013 197.353 102.057 197.44C103.523 200.353 111.941 213.857 112.07 213.819C112.158 213.887 115.407 207.21 115.795 205.948C116.565 206.893 121.154 211.784 121.17 211.465C121.277 209.316 121.174 206.556 121.034 204.408Z" fill="#263238"/>
<path d="M326.459 268.249H256.18V425.497H326.459V268.249Z" fill="#FFC727"/>
<path opacity="0.3" d="M326.459 268.249H256.18V425.497H326.459V268.249Z" fill="black"/>
<path d="M127.775 268.249H57.4961V425.497H127.775V268.249Z" fill="#FFC727"/>
<path d="M326.459 268.249H127.775V290.094H326.459V268.249Z" fill="#FFC727"/>
<path opacity="0.2" d="M326.459 268.249H127.775V290.094H326.459V268.249Z" fill="black"/>
<g opacity="0.1">
<path d="M128.227 279.166L153.006 278.984L177.785 278.918L227.344 278.792L276.902 278.917L301.681 278.983L326.46 279.166L301.681 279.35L276.902 279.415L227.344 279.54L177.785 279.415L153.006 279.349L128.227 279.166Z" fill="black"/>
</g>
<path d="M137.232 268.249H127.777V425.497H137.232V268.249Z" fill="#FFC727"/>
<path opacity="0.2" d="M137.232 268.249H127.777V425.497H137.232V268.249Z" fill="black"/>
<path d="M326.461 268.249H317.006V425.497H326.461V268.249Z" fill="#FFC727"/>
<path opacity="0.2" d="M326.461 268.249H317.006V425.497H326.461V268.249Z" fill="black"/>
<path d="M221.161 265.669H163.645V268.249H221.161V265.669Z" fill="#455A64"/>
<path d="M221.159 265.669H192.211V268.249H221.159V265.669Z" fill="#263238"/>
<path d="M195.326 268.246H251.379L258.708 230.176H202.655L195.326 268.246Z" fill="#455A64"/>
<path d="M223.605 249.211C223.44 251.095 224.834 252.623 226.718 252.623C228.603 252.623 230.264 251.096 230.429 249.211C230.594 247.326 229.2 245.799 227.315 245.799C225.431 245.799 223.77 247.327 223.605 249.211Z" fill="#263238"/>
<path d="M364.649 313.709L362.389 327.258L347.084 409.915H344.617L355.747 327.258L357.391 313.709H364.649Z" fill="#DBDBDB"/>
<path d="M357.392 313.709H364.65L362.39 327.258H355.748L357.392 313.709Z" fill="#A6A6A6"/>
<path d="M412.715 409.915H410.248L394.942 327.258L392.682 313.709H399.94L401.585 327.258L412.715 409.915Z" fill="#DBDBDB"/>
<path d="M399.94 313.709L401.585 327.258H394.942L392.682 313.709H399.94Z" fill="#A6A6A6"/>
<path d="M458.622 409.915H456.155L440.849 327.258L438.59 313.709H445.847L447.492 327.258L458.622 409.915Z" fill="#DBDBDB"/>
<path d="M447.492 327.258H440.849L438.59 313.709H445.847L447.492 327.258Z" fill="#A6A6A6"/>
<path d="M454.71 320.075H342.555V308.257H384.54L398.651 226.161H450.434L454.71 320.075Z" fill="#DBDBDB"/>
<path d="M454.709 320.075H448.595L444.611 226.161H450.433L454.709 320.075Z" fill="#A6A6A6"/>
<path d="M274.535 398.424C276.607 399.635 340.381 412.966 343.134 411.938C344.18 411.554 346.663 402.379 349.349 391.207C349.93 388.794 350.514 386.3 351.093 383.763C354.874 367.298 358.501 349.74 358.501 349.74L315.866 340.699L309.632 374.971L308.258 382.493C308.258 382.493 281.558 388.31 278.659 389.762C275.774 391.217 272.463 397.213 274.535 398.424Z" fill="#D3766A"/>
<path d="M348.314 395.47C346.044 404.63 344.044 411.6 343.134 411.94C340.384 412.97 276.604 399.63 274.534 398.42C272.464 397.21 275.774 391.22 278.654 389.76C280.444 388.87 291.294 386.31 299.344 384.48C292.314 386.16 279.194 390.93 306.324 392.89C328.754 394.52 343.554 395.26 348.314 395.47Z" fill="#263238"/>
<path d="M332.09 431.04C334.402 431.683 399.468 428.323 401.868 426.626C402.782 425.988 400.278 399.865 399.596 397.354C397.288 388.843 386.293 363.21 386.293 363.21L342.762 365.332L360.64 407.042C360.64 407.042 336.304 419.471 333.871 421.614C331.452 423.756 329.778 430.397 332.09 431.04Z" fill="#D3766A"/>
<path d="M401.867 426.624C399.467 428.324 334.407 431.684 332.087 431.044C329.777 430.394 331.447 423.754 333.867 421.614C335.007 420.614 340.887 417.394 346.847 414.234C339.367 418.444 327.527 427.834 401.187 411.094C401.857 418.544 402.357 426.284 401.867 426.624Z" fill="#263238"/>
<path d="M433.033 302.355C420.065 316.802 376.493 305.391 373.887 311.14C371.593 316.209 401.326 397.633 401.326 397.633L353.745 402.762C353.745 402.762 312.672 312.839 327.354 286.858C335.284 272.825 370.229 278.421 391.317 275.852C397.678 275.077 400.665 261.959 400.665 261.959H438.347C438.347 261.959 447.855 285.843 433.033 302.355Z" fill="#37474F"/>
<path d="M340.58 278.808L380.535 309.383C393.805 309.102 422.848 313.698 433.028 302.352C447.856 285.839 438.348 261.963 438.348 261.963H400.666C400.666 261.963 397.678 275.08 391.32 275.855C376.518 277.651 354.906 275.437 340.58 278.808Z" fill="#263238"/>
<path d="M351.926 392.146C353.24 391.735 365.578 390.359 368.298 390.065C373.745 389.477 390.892 387.875 393.999 387.883C394.082 387.883 394.095 388.011 394.014 388.028C391.315 388.594 380.372 389.871 377.652 390.15C372.197 390.711 353.464 392.528 351.95 392.378C351.817 392.365 351.798 392.186 351.926 392.146Z" fill="#263238"/>
<path d="M368.115 306.371C371.174 304.849 394.365 305.602 411.005 304.044C416.428 303.536 421.866 302.38 426.004 298.827C429.731 295.627 432.127 291.194 433.411 286.629C435.01 280.944 434.845 275.014 434.572 269.19C434.505 267.757 434.406 266.325 434.315 264.893C434.31 264.811 434.458 264.794 434.468 264.877C435.733 275.309 436.701 286.963 429.917 296.003C426.935 299.976 422.739 302.657 417.787 303.96C407.75 306.601 370.019 305.946 368.688 306.964C367.102 308.177 391.496 382.444 391.98 383.858C392.071 384.124 391.605 384.304 391.493 384.04C389.086 378.338 365.452 307.695 368.115 306.371Z" fill="#263238"/>
<path d="M325.646 289.371C327.89 283.676 333.007 280.131 340.535 278.774C340.661 278.751 340.653 278.937 340.53 278.973C333.961 280.894 329.265 283.535 326.682 289.079C325.477 291.667 324.851 295.304 324.538 300.18C322.979 324.495 344.196 379.693 344.628 380.654C344.667 380.741 344.547 380.806 344.499 380.725C341.509 375.69 316.384 312.876 325.646 289.371Z" fill="#263238"/>
<path d="M308.445 372.79L344.473 380.452C344.473 380.452 316.048 295.619 329.399 284.674C333.099 281.641 341.167 280.581 350.755 284.721C365.069 290.903 381.64 303.51 397.26 308.12C411.89 312.438 429.255 308.467 435.233 301.888C447.789 288.068 438.344 261.949 438.344 261.949L386.532 260.004C386.532 260.004 387.305 260.632 384.834 262.826C384.834 262.826 354.377 255.921 341.145 264.005C317.274 278.589 308.445 372.79 308.445 372.79Z" fill="#37474F"/>
<path d="M415.962 264.978C415.996 264.878 416.138 264.903 416.142 265.007C416.216 266.97 416.129 268.885 416.591 270.817C417.03 272.652 417.866 274.297 419.197 275.644C422.037 278.517 426.112 279.495 429.837 280.67C430.034 280.732 429.997 281.078 429.777 281.044C425.645 280.409 421.299 279.362 418.28 276.262C416.894 274.839 415.963 273.015 415.607 271.062C415.25 269.102 415.307 266.875 415.962 264.978Z" fill="#263238"/>
<path d="M330.292 283.054C335.832 279.578 344.491 282.219 348.636 283.807C348.724 283.84 348.683 283.98 348.593 283.948C344.78 282.576 335.29 280.5 330.217 284.094C318.494 292.399 334.184 349.195 344.472 380.453C344.632 380.941 344.245 380.812 344.029 380.341C342.332 376.635 329.071 337.137 325.611 311.006C325.08 306.988 322.305 288.066 330.292 283.054Z" fill="#263238"/>
<path d="M312.551 363.21C313.64 363.182 322.978 365.241 325.033 365.704C329.148 366.631 338.684 369.099 340.908 369.949C340.967 369.971 340.931 370.095 340.867 370.088C338.729 369.885 333.759 368.794 331.708 368.318C327.597 367.363 313.515 363.984 312.484 363.433C312.394 363.385 312.445 363.213 312.551 363.21Z" fill="#263238"/>
<path d="M332.055 281.58C335.783 279.541 340.219 279.209 344.357 279.718C348.744 280.258 352.915 281.816 356.927 283.651C365.355 287.505 373.383 292.214 381.822 296.046C390.212 299.857 399.17 302.84 408.417 303.124C416.321 303.367 426.325 301.975 431.408 294.864C439.238 283.909 434.677 265.021 434.586 263.8C434.579 263.705 434.706 263.711 434.73 263.802C440.804 287.021 432.989 296.034 427.714 299.827C423.526 302.838 417.506 303.597 413.53 303.933C404.33 304.71 395.11 302.458 386.585 299.062C377.846 295.581 369.652 290.896 361.281 286.614C353.253 282.508 344.307 278.273 335.139 280.625C334.103 280.891 333.079 281.257 332.09 281.668C332.041 281.689 332.009 281.605 332.055 281.58Z" fill="#263238"/>
<path d="M386.737 200.516C386.6 212.166 386.657 224.151 388.311 235.697C389.596 244.689 393.716 251.963 403.202 253.77C412 255.443 424.398 254.744 431.513 248.65C434.826 245.807 435.855 241.955 435.44 237.711C434.867 231.808 428.76 199.608 426.918 189.562C425.806 183.445 424.71 177.24 422.519 171.377C417.922 159.073 411.753 159.447 410.886 159.233C410.124 158.792 405.293 156.886 398.644 159.329C394.97 160.679 392.445 163.318 390.943 166.811C386.531 177.041 386.871 189.607 386.737 200.516Z" fill="#263238"/>
<path d="M412.887 160.878C420.465 164.025 422.589 172.056 424.705 179.245C427.65 189.252 430.425 199.314 432.71 209.494C433.809 214.389 434.798 219.309 435.639 224.255C436.444 228.989 437.596 234.027 437.485 238.851C437.302 246.825 430.186 250.76 423.186 252.2C422.845 252.27 422.723 251.756 423.061 251.674C427.04 250.703 431.089 249.409 433.947 246.3C437.612 242.314 436.949 237.349 436.279 232.405C435.14 223.99 433.521 215.646 431.606 207.376C429.688 199.095 427.474 190.883 425.135 182.713C422.908 174.936 421.087 164.647 412.848 161.005C412.77 160.971 412.807 160.845 412.887 160.878Z" fill="#263238"/>
<path d="M387.897 175.45C389.043 169.313 391.94 163.252 398.261 161.209C398.273 161.205 398.277 161.223 398.265 161.227C390.111 164.222 388.492 173.347 387.72 180.943C386.907 188.937 386.401 196.959 386.176 204.99C385.96 212.715 385.907 220.496 386.394 228.213C386.92 236.541 388.77 244.282 393.993 250.938C394.101 251.075 393.915 251.255 393.791 251.125C388.7 245.78 386.761 238.195 386.058 231.045C385.133 221.63 385.326 212.002 385.654 202.56C385.966 193.588 386.246 184.292 387.897 175.45Z" fill="#263238"/>
<path d="M405.583 211.902C394.115 226.001 378.433 239.32 371.863 239.102C366.563 238.927 334.837 219.89 332.599 217.002C330.672 214.515 345.595 195.278 348.689 196.602C353.877 198.822 372.323 214.078 373.89 213.845C375.521 213.596 388.385 207.978 401.241 201.927C413.539 196.137 413.546 202.113 405.583 211.902Z" fill="#D3766A"/>
<path d="M336.113 219.639C333.566 218.203 322.474 210.597 319.861 207.789C317.248 204.982 310.313 196.357 312.26 194.138C314.207 191.918 316.439 194.281 316.439 194.281C316.439 194.281 314.088 190.176 316.251 188.12C318.414 186.064 321.766 189.854 321.766 189.854C321.766 189.854 319.659 185.462 321.963 183.566C324.267 181.67 326.999 186.045 326.999 186.045C326.999 186.045 324.885 182.119 327.441 181.356C330.515 180.438 333.595 188.116 336.713 190.999C337.421 191.654 352.007 203.247 352.007 203.247L336.113 219.639Z" fill="#D3766A"/>
<path d="M326.758 185.674C329.036 191.315 331.009 193.389 335.87 196.888C335.965 196.956 335.885 197.113 335.779 197.051C330.707 194.058 327.858 191.814 326.479 185.771C326.411 185.474 326.649 185.405 326.758 185.674Z" fill="#263238"/>
<path d="M321.593 189.402C324.471 195.054 326.591 197.323 331.412 201.361C331.48 201.418 331.391 201.54 331.317 201.488C326.256 197.922 323.464 195.617 321.33 189.592C321.234 189.32 321.462 189.144 321.593 189.402Z" fill="#263238"/>
<path d="M316.692 194.478C319.874 199.749 322.09 202.336 327.275 205.657C327.397 205.735 327.295 205.921 327.164 205.854C321.548 202.983 318.758 199.775 316.542 194.592C316.391 194.239 316.491 194.147 316.692 194.478Z" fill="#263238"/>
<path d="M356.842 203.22C356.842 203.22 354.388 196.003 352.611 193.07C350.833 190.137 340.187 181.646 338.222 183.841C335.685 186.676 340.866 192.788 343.794 195.451C343.794 195.451 337.92 202.002 340.689 207.194C343.458 212.385 356.842 203.22 356.842 203.22Z" fill="#D3766A"/>
<path d="M337.78 184.848C337.332 189.101 341.401 192.348 344.049 195.143C344.25 195.356 344.15 195.592 343.957 195.714C341.678 198.624 339.312 203.393 340.458 207.122C340.492 207.231 340.341 207.294 340.293 207.189C338.52 203.357 340.463 198.481 343.163 195.454C340.403 192.63 336.464 189.195 337.739 184.842C337.747 184.817 337.783 184.821 337.78 184.848Z" fill="#263238"/>
<path d="M359.372 202.606L339.672 226.999C339.672 226.999 365.839 241.061 372.65 239.782C379.461 238.503 387.902 232.581 404.86 213.145C418.292 197.75 407.666 197.618 399.293 201.82C392.453 205.253 375.074 213.088 373.701 212.476C372.326 211.863 359.372 202.606 359.372 202.606Z" fill="#FFC727"/>
<path d="M339.674 227.003C339.674 227.003 363.342 239.722 371.513 239.866C371.931 239.873 372.313 239.843 372.647 239.786C379.458 238.499 387.904 232.578 404.867 213.142C410.807 206.33 412.042 202.509 410.848 200.725C409.331 198.485 403.967 199.474 399.292 201.82C392.459 205.254 375.078 213.093 373.697 212.478C372.326 211.864 359.378 202.608 359.378 202.608L339.674 227.003Z" fill="#FFC727"/>
<path d="M363.563 207.378C360.894 211.157 358.046 214.815 355.131 218.404C353.7 220.166 352.267 221.931 350.77 223.638C349.212 225.416 347.547 227.102 346.004 228.888C345.934 228.969 345.803 228.871 345.871 228.786C347.354 226.963 348.707 225.021 350.149 223.162C351.54 221.368 352.983 219.616 354.411 217.852C357.325 214.255 360.256 210.663 363.291 207.168C363.434 207.005 363.691 207.197 363.563 207.378Z" fill="#263238"/>
<path d="M387.172 246.77L386.536 259.952C386.536 259.952 402.117 261.662 440.644 261.662C440.644 261.662 432.522 220.537 419.48 205.225C412.957 197.567 404.94 197.809 399.643 202.781C398.303 204.039 385.881 224.86 383.959 232.566C382.279 239.365 387.172 246.77 387.172 246.77Z" fill="#FFC727"/>
<path d="M402.195 207.107L398.996 217.043C397.938 220.355 396.931 223.683 395.979 227.016C395.102 230.364 394.014 233.717 394.656 237.068C395.171 240.409 396.562 243.657 398.368 246.524L398.45 246.655L398.443 246.79C398.33 249.114 398.126 251.434 397.972 253.756C397.805 256.078 397.598 258.397 397.366 260.716C397.348 258.386 397.356 256.057 397.403 253.73C397.463 251.403 397.474 249.075 397.575 246.75L397.651 247.016C395.726 244.031 394.273 240.758 393.676 237.219C393.386 235.462 393.432 233.599 393.815 231.865C394.18 230.137 394.638 228.449 395.128 226.773C396.092 223.416 397.264 220.132 398.434 216.852C399.602 213.572 400.873 210.328 402.195 207.107Z" fill="#263238"/>
<path d="M394.725 220.202C394.673 220.673 394.978 221.105 395.405 221.168C395.832 221.231 396.22 220.9 396.272 220.429C396.324 219.958 396.018 219.526 395.591 219.463C395.164 219.401 394.777 219.732 394.725 220.202Z" fill="#263238"/>
<path d="M391.662 229.88C391.61 230.351 391.915 230.783 392.341 230.846C392.768 230.909 393.156 230.578 393.208 230.107C393.26 229.636 392.955 229.204 392.528 229.141C392.101 229.079 391.713 229.41 391.662 229.88Z" fill="#263238"/>
<path d="M391.662 239.605C391.61 240.076 391.915 240.508 392.342 240.571C392.769 240.634 393.157 240.303 393.208 239.832C393.26 239.361 392.955 238.929 392.528 238.866C392.101 238.804 391.713 239.134 391.662 239.605Z" fill="#263238"/>
<path d="M394.725 247.516C394.673 247.987 394.978 248.419 395.405 248.482C395.832 248.545 396.22 248.214 396.272 247.743C396.324 247.272 396.018 246.84 395.591 246.777C395.164 246.715 394.777 247.046 394.725 247.516Z" fill="#263238"/>
<path d="M394.074 256.335C394.022 256.806 394.327 257.238 394.754 257.301C395.181 257.364 395.569 257.033 395.621 256.562C395.673 256.091 395.368 255.659 394.941 255.596C394.514 255.533 394.126 255.864 394.074 256.335Z" fill="#263238"/>
<path d="M391.93 215.254C390.617 217.462 389.394 219.718 388.203 221.992C388.495 220.92 388.846 219.864 389.209 218.813C389.238 218.729 389.104 218.678 389.065 218.756C388.438 220.018 388.057 221.373 387.806 222.755C387.423 223.495 387.026 224.228 386.653 224.974C385.911 226.456 385.153 227.93 384.555 229.477C383.946 231.051 383.652 232.657 383.559 234.337C383.554 234.424 383.703 234.442 383.713 234.354C383.912 232.67 384.585 231.053 385.264 229.513C385.938 227.982 386.69 226.482 387.423 224.978C388.987 221.767 390.536 218.551 392.013 215.299C392.037 215.245 391.962 215.202 391.93 215.254Z" fill="#263238"/>
<path d="M420.412 207.39C428.85 222.003 443.746 252.036 438.756 260.347C433.807 268.589 405.7 274.037 396.095 275.74C392.933 276.301 381.516 253.765 384.657 252.378C389.989 250.023 415.326 245.423 416.134 243.705C416.641 242.627 411.676 222.944 411.088 211.365C410.324 196.315 417.791 202.851 420.412 207.39Z" fill="#D3766A"/>
<path d="M387.43 251.442C387.43 251.442 377.466 252.829 370.993 254.042C367.382 254.719 361.293 256.432 358.868 258.142C355.24 260.701 341.7 273.721 344.786 277.072C347.58 280.105 357.792 267.442 357.792 267.442C357.792 267.442 346.357 279.309 350.392 282.343C354.427 285.377 364.063 269.535 364.063 269.535C364.063 269.535 352.588 281.991 357.244 284.461C360.763 286.328 370.299 272.472 370.299 272.472C370.299 272.472 360.51 283.246 364.046 285.322C367.953 287.616 377.558 275.378 377.558 275.378C387.434 279.142 393.676 276.894 397.926 274.766C398.953 274.251 387.43 251.442 387.43 251.442Z" fill="#D3766A"/>
<path d="M361.483 263.085C360.09 264.43 358.67 265.783 357.401 267.247C356.132 268.712 354.913 270.222 353.785 271.798C351.02 275.664 349.894 278.517 349.983 278.348C352.083 274.359 356.545 269.046 357.815 267.581C359.082 266.12 360.275 264.594 361.541 263.131C361.572 263.094 361.516 263.053 361.483 263.085Z" fill="#263238"/>
<path d="M366.855 267.572C365.15 269.367 363.391 271.086 361.765 272.957C360.147 274.818 358.774 276.726 357.288 278.694C357.174 278.846 357.293 278.857 357.414 278.71C358.978 276.803 360.57 275.16 362.156 273.272C363.736 271.39 365.255 269.432 366.902 267.609C366.927 267.581 366.881 267.544 366.855 267.572Z" fill="#263238"/>
<path d="M372.158 270.594C369.412 273.203 367.15 276.317 365.005 279.423C364.898 279.578 365.054 279.576 365.172 279.424C367.495 276.444 369.295 274.09 372.25 270.689C372.296 270.636 372.216 270.539 372.158 270.594Z" fill="#263238"/>
<path d="M386.527 250.956L406.771 276.005C406.771 276.005 436.065 269.295 440.236 259.299C444.407 249.304 430.275 221.216 422.468 209.588C414.661 197.96 409.711 198.245 410.623 211.575C411.44 223.512 415.86 242.697 415.399 243.353C414.938 244.009 386.527 250.956 386.527 250.956Z" fill="#FFC727"/>
<path d="M394.175 250.495C397.329 253.88 400.327 257.416 403.245 261.003C404.678 262.765 406.112 264.528 407.477 266.342C408.899 268.23 410.209 270.205 411.642 272.081C411.707 272.166 411.584 272.274 411.516 272.19C410.034 270.366 408.41 268.644 406.885 266.853C405.414 265.125 403.993 263.354 402.559 261.596C399.633 258.008 396.717 254.405 393.916 250.72C393.783 250.545 394.023 250.333 394.175 250.495Z" fill="#263238"/>
<path d="M386.471 250.963C388.729 250.78 415.602 243.892 415.633 243.882C415.686 243.852 414.325 235.349 414.043 233.742C413.47 230.456 412.824 227.178 412.116 223.92C412.107 223.847 411.972 223.854 411.981 223.927C412.139 225.915 412.36 227.904 412.623 229.874C412.322 229.015 412.001 228.155 411.627 227.325C411.598 227.252 411.482 227.301 411.501 227.374C411.948 229.047 412.457 230.711 412.966 232.365C413.038 232.803 413.079 233.24 413.152 233.678C413.423 235.326 413.714 236.974 414.027 238.613C414.184 239.417 414.803 242.548 414.95 243.388C411.38 244.089 388.511 249.995 386.434 250.795C386.36 250.826 386.387 250.972 386.471 250.963Z" fill="#263238"/>
<path d="M440.197 259.427C440.093 259.612 439.524 260.913 438.794 261.58C438.715 261.653 438.818 261.674 438.914 261.601C439.806 260.928 440.213 259.712 440.239 259.483C440.244 259.433 440.225 259.377 440.197 259.427Z" fill="#263238"/>
<path d="M411.433 201.468C411.275 202.486 406.992 209.344 402.403 209.476C400.908 209.517 400.322 201.368 400.322 201.368L400.141 200.776L397.617 192.492L407.034 185.388L408.401 184.438C408.401 184.438 408.942 186.75 409.587 189.636C409.618 189.77 409.648 189.904 409.679 190.047C409.72 190.209 409.76 190.362 409.791 190.515C409.893 190.945 409.995 191.384 410.088 191.824C410.16 192.158 410.232 192.483 410.294 192.837C410.366 193.191 410.429 193.535 410.501 193.888C411.135 197.389 411.494 201.036 411.433 201.468Z" fill="#D3766A"/>
<path d="M409.586 189.637C407.681 196.528 402.531 199.669 400.141 200.776L397.617 192.492L407.034 185.388L408.401 184.438C408.401 184.438 408.941 186.751 409.586 189.637Z" fill="#263238"/>
<path d="M385.407 178.615C383.511 193.695 392.329 196.534 395.582 196.939C398.534 197.307 408.634 198.184 412.078 183.38C415.522 168.576 409.11 162.928 402.402 161.729C395.693 160.531 387.302 163.535 385.407 178.615Z" fill="#D3766A"/>
<path d="M388.503 174.639C388.864 174.641 389.198 174.583 389.555 174.549C389.959 174.51 390.284 174.52 390.611 174.252C390.786 174.108 390.815 173.776 390.691 173.593C390.403 173.165 389.897 173.091 389.41 173.118C388.881 173.147 388.481 173.306 388.09 173.662C387.711 174.007 388.027 174.635 388.503 174.639Z" fill="#263238"/>
<path d="M398.496 175.972C398.145 175.887 397.835 175.749 397.497 175.629C397.115 175.493 396.797 175.425 396.544 175.085C396.409 174.903 396.462 174.574 396.626 174.426C397.009 174.081 397.518 174.131 397.984 174.275C398.49 174.432 398.84 174.682 399.133 175.123C399.417 175.55 398.959 176.084 398.496 175.972Z" fill="#263238"/>
<path d="M395.751 179.548C395.765 179.51 395.824 179.608 395.817 179.651C395.633 180.676 395.595 181.881 396.477 182.36C396.504 182.375 396.494 182.426 396.46 182.416C395.346 182.09 395.413 180.49 395.751 179.548Z" fill="#263238"/>
<path d="M396.829 178.607C398.504 178.724 398.147 182.067 396.594 181.958C395.067 181.851 395.425 178.509 396.829 178.607Z" fill="#263238"/>
<path d="M397.467 178.854C397.739 179.074 397.989 179.439 398.337 179.511C398.74 179.595 399.085 179.278 399.387 178.97C399.418 178.938 399.444 178.97 399.44 179.014C399.381 179.656 399.064 180.286 398.368 180.308C397.732 180.328 397.343 179.713 397.252 179.052C397.235 178.93 397.357 178.765 397.467 178.854Z" fill="#263238"/>
<path d="M390.04 178.668C390.036 178.628 389.954 178.709 389.951 178.752C389.881 179.791 389.626 180.97 388.654 181.221C388.624 181.229 388.622 181.281 388.657 181.279C389.818 181.232 390.14 179.664 390.04 178.668Z" fill="#263238"/>
<path d="M389.222 177.494C387.568 177.202 387.106 180.531 388.638 180.802C390.146 181.068 390.609 177.739 389.222 177.494Z" fill="#263238"/>
<path d="M388.497 177.617C388.209 177.757 387.905 178.041 387.587 178.019C387.22 177.992 387 177.595 386.815 177.217C386.796 177.178 386.766 177.202 386.759 177.246C386.653 177.88 386.771 178.572 387.366 178.779C387.908 178.968 388.394 178.479 388.633 177.866C388.678 177.752 388.613 177.56 388.497 177.617Z" fill="#263238"/>
<path d="M394.768 187.814C394.504 188.042 394.235 188.362 393.856 188.371C393.492 188.379 393.079 188.19 392.755 188.041C392.723 188.026 392.688 188.059 392.707 188.092C392.952 188.507 393.505 188.792 393.992 188.737C394.467 188.684 394.725 188.291 394.866 187.868C394.885 187.809 394.806 187.781 394.768 187.814Z" fill="#263238"/>
<path d="M390.889 183.563C390.889 183.563 390.492 185.082 390.405 185.81C390.397 185.878 390.57 185.932 390.815 185.975C390.826 185.98 390.833 185.985 390.843 185.979C392.105 186.333 393.453 186.043 394.36 185.086C394.419 185.021 394.335 184.935 394.264 184.972C393.22 185.563 392.137 185.618 390.994 185.502C390.967 185.294 391.761 182.924 391.646 182.901C391.252 182.82 390.435 182.997 389.947 183.079C390.683 179.891 391.923 176.847 392.608 173.662C392.63 173.548 392.469 173.494 392.423 173.592C390.897 176.69 389.97 180.34 389.126 183.613C389.018 184.021 390.583 183.652 390.889 183.563Z" fill="#263238"/>
<path d="M391.002 185.804C391.002 185.804 391.547 186.839 392.437 187.321C392.765 187.5 393.132 187.607 393.54 187.563C394.378 187.476 394.513 186.74 394.463 186.085C394.424 185.546 394.252 185.061 394.252 185.061C394.252 185.061 392.906 185.979 391.002 185.804Z" fill="#263238"/>
<path d="M392.438 187.321C392.766 187.5 393.132 187.607 393.54 187.563C394.378 187.476 394.514 186.74 394.464 186.085C393.586 186.039 392.64 186.493 392.438 187.321Z" fill="#FF9ABB"/>
<path d="M411.597 182.562C408.765 182.986 407.887 176.496 407.887 176.496C407.887 176.496 395.738 174.723 394.486 164.892C394.486 164.892 392.556 171.22 386.283 174.208C386.283 174.208 386.458 163.396 394.974 161.101C394.974 161.101 405.513 156.989 411.681 165.285C417.85 173.582 413.497 182.277 411.597 182.562Z" fill="#263238"/>
<path d="M394.427 164.165C394.299 165.672 394.555 167.21 395.07 168.651C395.585 170.092 396.381 171.456 397.445 172.577C397.688 172.878 398.004 173.108 398.281 173.376L398.71 173.764C398.863 173.881 399.021 173.99 399.18 174.099C399.499 174.314 399.809 174.542 400.135 174.744C400.473 174.925 400.816 175.097 401.159 175.266C401.331 175.349 401.499 175.44 401.673 175.517L402.211 175.711L403.284 176.095C404.02 176.282 404.764 176.43 405.501 176.567C404.799 176.279 404.082 176.068 403.396 175.778L402.383 175.313L401.878 175.083C401.715 174.995 401.56 174.893 401.402 174.799C401.087 174.606 400.772 174.416 400.453 174.235C400.15 174.029 399.864 173.797 399.569 173.581L399.129 173.253L398.729 172.879C398.471 172.621 398.174 172.401 397.948 172.113C396.928 171.064 396.167 169.793 395.558 168.458C395.257 167.787 395.02 167.085 394.832 166.367C394.631 165.65 394.503 164.915 394.427 164.165Z" fill="#263238"/>
<path d="M409.535 182.86C409.535 182.86 413.032 178.247 415.138 179.512C417.243 180.777 414.486 187.553 411.925 188.396C409.364 189.239 408.537 186.883 408.537 186.883L409.535 182.86Z" fill="#D3766A"/>
<path d="M414.299 181.435C414.34 181.433 414.345 181.49 414.31 181.503C412.512 182.152 411.516 183.758 410.798 185.435C411.35 184.8 412.081 184.469 412.935 185.129C412.98 185.164 412.933 185.234 412.883 185.222C412.164 185.039 411.636 185.145 411.123 185.706C410.76 186.104 410.503 186.615 410.236 187.08C410.147 187.235 409.864 187.139 409.932 186.959C409.937 186.946 409.943 186.932 409.948 186.919C409.989 184.661 411.866 181.569 414.299 181.435Z" fill="#263238"/>
<path d="M400.053 200.508L402.319 207.485L411.343 199.465L413.547 202.385C413.547 202.385 404.363 215.476 404.353 214.856L401.952 208.811L397.635 212.609L398.658 202.406L400.053 200.508Z" fill="#FFC727"/>
<path d="M397.855 207.539C398.08 205.86 398.261 204.163 398.563 202.496C398.574 202.437 398.669 202.417 398.679 202.488C398.906 204.14 398.01 210.555 397.912 212.101C397.918 212.096 397.925 212.09 397.931 212.085C398.112 211.92 401.92 208.756 401.951 208.812C402.495 209.783 404.259 214.185 404.373 214.583C405.826 212.503 411.949 204.331 413.633 202.385C413.681 202.329 413.769 202.384 413.73 202.451C412.421 204.663 404.495 215.458 404.395 215.421C404.322 215.47 402.126 210.045 401.889 209.033C401.233 209.734 397.362 213.334 397.367 213.082C397.4 211.384 397.629 209.219 397.855 207.539Z" fill="#263238"/>
<path d="M70.0386 336.884C70.3206 332.758 70.8256 328.626 71.7846 324.598C72.6506 320.961 73.8796 317.242 76.1746 314.235C78.2706 311.489 81.2796 309.303 84.7776 308.874C88.1466 308.462 91.3116 309.963 93.8326 312.086C96.9556 314.716 99.3466 318.199 101.592 321.574C104.103 325.349 106.239 329.273 108.295 333.306C108.363 333.439 108.159 333.551 108.093 333.418C106.397 330.01 104.311 326.697 102.099 323.602C100.008 320.677 97.7736 317.762 95.1956 315.245C92.8826 312.987 89.9436 310.875 86.5916 310.768C83.2576 310.662 80.1796 312.534 78.1716 315.104C75.9266 317.978 74.7856 321.566 73.9296 325.063C72.9906 328.902 72.5216 332.827 72.2016 336.761C71.5426 344.854 71.3646 352.995 71.1816 361.11C71.0776 365.702 71.0156 370.296 70.9736 374.889C70.9526 377.216 70.9336 379.544 70.9166 381.871C70.8996 384.113 71.0176 386.387 70.6476 388.602C70.5726 389.054 69.8326 389.01 69.7566 388.58C69.3866 386.483 69.4776 384.328 69.4476 382.202C69.4176 379.996 69.3886 377.79 69.3696 375.584C69.3316 371.296 69.3096 367.007 69.3216 362.718C69.3466 354.113 69.4506 345.472 70.0386 336.884Z" fill="#263238"/>
<path d="M81.6018 330.782C82.0318 328.494 82.8048 325.511 84.1088 323.738C86.4518 320.552 88.9808 321.938 86.6428 325.466C84.0888 329.318 83.7208 332.361 83.3538 334.165C83.3538 334.165 87.2918 339.792 92.0458 342.562C91.8428 340.399 91.2318 337.072 91.6538 333.863C92.5668 326.913 96.7708 327.303 95.7318 332.824C94.8968 337.252 94.5538 341.952 94.7798 343.991C96.2078 345.073 98.6418 346.003 99.8598 346.479C99.5868 345.675 99.2978 344.707 98.9778 343.535C97.2908 337.303 101.446 335.359 101.578 338.865C101.68 341.747 102.796 346.214 103.195 347.705C105.475 348.47 107.365 348.994 108.521 349.4C113.324 351.087 116.315 354.726 116.315 354.726C118.494 352.789 120.251 350.439 121.625 347.854C120.173 346.604 117.877 344.746 114.691 342.497C108.717 338.28 110.794 332.954 115.534 336.265C118.954 338.654 121.602 343.082 122.804 345.355C124.452 341.419 125.319 337.101 125.514 332.915C120.821 328.511 109.217 322.373 112.715 322.373C115.862 322.373 122.906 326.988 125.491 328.769C125.421 327.527 125.288 326.317 125.093 325.153C120.673 322.256 106.312 317.75 108.6 316.454C111.114 315.033 121.134 319.671 124.163 321.139C123.499 318.984 122.601 317.109 121.508 315.641C115.401 307.465 104.389 304.649 99.5848 306.206C96.1848 307.309 97.1778 315.934 96.4488 315.641C82.7908 310.144 76.5798 314.028 81.6018 330.782ZM115.08 329.837C116.048 328.666 120.531 332.109 119.234 333.991C117.938 335.873 113.831 331.336 115.08 329.837ZM91.6608 322.481C92.8398 323.231 91.0988 327.588 89.2788 326.268C87.7328 325.144 90.4738 321.723 91.6608 322.481Z" fill="#FFC727"/>
<path opacity="0.2" d="M81.6018 330.782C82.0318 328.494 82.8048 325.511 84.1088 323.738C86.4518 320.552 88.9808 321.938 86.6428 325.466C84.0888 329.318 83.7208 332.361 83.3538 334.165C83.3538 334.165 87.2918 339.792 92.0458 342.562C91.8428 340.399 91.2318 337.072 91.6538 333.863C92.5668 326.913 96.7708 327.303 95.7318 332.824C94.8968 337.252 94.5538 341.952 94.7798 343.991C96.2078 345.073 98.6418 346.003 99.8598 346.479C99.5868 345.675 99.2978 344.707 98.9778 343.535C97.2908 337.303 101.446 335.359 101.578 338.865C101.68 341.747 102.796 346.214 103.195 347.705C105.475 348.47 107.365 348.994 108.521 349.4C113.324 351.087 116.315 354.726 116.315 354.726C118.494 352.789 120.251 350.439 121.625 347.854C120.173 346.604 117.877 344.746 114.691 342.497C108.717 338.28 110.794 332.954 115.534 336.265C118.954 338.654 121.602 343.082 122.804 345.355C124.452 341.419 125.319 337.101 125.514 332.915C120.821 328.511 109.217 322.373 112.715 322.373C115.862 322.373 122.906 326.988 125.491 328.769C125.421 327.527 125.288 326.317 125.093 325.153C120.673 322.256 106.312 317.75 108.6 316.454C111.114 315.033 121.134 319.671 124.163 321.139C123.499 318.984 122.601 317.109 121.508 315.641C115.401 307.465 104.389 304.649 99.5848 306.206C96.1848 307.309 97.1778 315.934 96.4488 315.641C82.7908 310.144 76.5798 314.028 81.6018 330.782ZM115.08 329.837C116.048 328.666 120.531 332.109 119.234 333.991C117.938 335.873 113.831 331.336 115.08 329.837ZM91.6608 322.481C92.8398 323.231 91.0988 327.588 89.2788 326.268C87.7328 325.144 90.4738 321.723 91.6608 322.481Z" fill="black"/>
<path d="M93.4495 323.816C94.0665 322.598 94.7095 321.385 95.4125 320.214C96.0815 319.099 96.7945 317.911 97.6685 316.942C97.4735 316.703 97.2855 316.458 97.0855 316.223C97.0035 316.127 97.1435 315.992 97.2275 316.088C97.4565 316.349 97.6745 316.616 97.8965 316.881C97.9395 316.906 97.9745 316.943 97.9915 316.993C98.8355 318.004 99.6305 319.046 100.389 320.109C101.731 320.393 103.058 320.823 104.356 321.258C105.696 321.707 107.023 322.172 108.325 322.722C108.461 322.78 108.393 323.003 108.258 322.943C106.968 322.372 105.66 321.82 104.323 321.368C103.058 320.941 101.772 320.612 100.49 320.25C100.907 320.838 101.316 321.431 101.709 322.034C104.114 322.726 106.467 323.824 108.722 324.895C111.092 326.021 113.373 327.329 115.643 328.642C115.772 328.716 115.649 328.915 115.521 328.839C113.298 327.509 110.982 326.373 108.637 325.276C106.44 324.248 104.167 323.403 101.952 322.424C107.528 331.127 110.874 341.17 115.345 350.468C115.41 350.603 115.199 350.715 115.143 350.58C113.778 347.319 112.205 344.142 110.719 340.934C109.384 338.054 108.082 335.159 106.745 332.28C106.354 331.437 105.951 330.596 105.543 329.757C105.787 334.406 105.688 339.135 106.45 343.729C106.477 343.894 106.233 343.923 106.222 343.754C105.9 338.787 105.024 333.897 105.06 328.901C105.06 328.872 105.079 328.86 105.087 328.837C104.14 326.938 103.132 325.064 102.043 323.241C100.195 327.591 98.2525 332.007 97.3905 336.679C97.3645 336.822 97.1295 336.758 97.1695 336.612C98.4255 331.929 99.5905 327.241 101.846 322.913C100.654 320.944 99.3545 319.045 97.9185 317.251C97.2995 318.407 96.5035 319.5 95.7995 320.605C95.1115 321.685 94.4355 322.771 93.7985 323.883C92.4385 326.259 91.2435 328.682 90.3105 331.255C90.2595 331.396 90.0315 331.323 90.0895 331.188C91.1525 328.711 92.2315 326.221 93.4495 323.816Z" fill="#263238"/>
<path d="M49.4869 334.398C53.0659 330.809 57.2259 326.097 62.7569 326.107C68.0949 326.116 72.0239 330.414 74.2809 334.848C76.6409 339.485 77.4889 344.738 78.1559 349.844C78.9549 355.957 79.3969 362.119 79.5709 368.281C79.6679 371.704 79.6549 375.131 79.5699 378.554C79.4849 382.008 79.4008 385.512 78.7858 388.919C78.6858 389.472 77.7999 389.492 77.7669 388.895C77.6059 386.013 77.7219 383.117 77.7379 380.233C77.7529 377.392 77.7088 374.551 77.6048 371.711C77.3938 365.967 76.9759 360.232 76.3019 354.524C75.7129 349.539 75.2449 344.412 73.7529 339.595C72.4069 335.252 69.8848 330.283 65.4808 328.375C59.4718 325.771 53.6009 330.528 49.6679 334.545C49.5619 334.651 49.3819 334.504 49.4869 334.398Z" fill="#263238"/>
<path d="M31.227 342.418V342.426C31.254 343.16 31.297 343.885 31.346 344.594C32.98 343.445 35.033 342.401 37.211 342.164C42.29 341.624 41.967 345.486 38.574 345.648C35.337 345.802 33.166 346.352 31.604 347.044C32.433 353.751 34.277 359.144 34.554 359.216C34.831 359.281 41.04 358.836 47.975 357.52C46.713 354.829 43.837 351.252 45.301 350.963C46.804 350.665 48.371 353.858 49.183 357.274C52.528 356.598 55.973 355.714 58.944 354.588C56.71 352.654 53.256 350.247 54.576 349.222C55.895 348.19 58.637 351.584 60.279 354.047C61.911 353.351 63.359 352.571 64.498 351.695C61.488 347.273 54.151 346.373 55.108 343.176C56.086 339.916 62.93 344.413 66.012 350.333C69.632 346.579 70.692 341.267 70.311 336.728C67.159 336.362 61.092 337.027 61.531 334.763C61.944 332.609 66.353 332.93 69.942 334.252C69.5 332.194 68.751 330.439 67.835 329.263C64.512 324.997 54.373 330.422 54.373 330.422C54.373 330.422 55.458 320.23 51.59 318.468C49.361 317.456 45.429 317.464 41.482 319.787C43.696 319.971 46.372 320.671 47.445 322.207C48.821 324.166 46.651 325.231 45.271 324.328C44.302 323.686 42.486 321.67 39.213 321.404C37.942 322.458 36.701 323.799 35.552 325.457C35.178 325.983 34.83 326.539 34.483 327.142C37.672 325.817 41.893 325.138 46.353 327.357C50.749 329.54 48.293 334.105 44.511 332.331C40.769 330.579 37.127 328.814 33.117 329.818C31.645 333.211 31.157 337.229 31.189 341.184C32.693 340.096 34.913 338.794 37.701 338.059C42.071 336.912 43.392 339.523 38.592 340.01C35.544 340.32 32.978 341.436 31.227 342.418ZM36.544 335.402C36.242 333.986 39.342 333.58 39.858 334.728C40.288 335.708 36.839 336.819 36.544 335.402ZM63.062 343.244C63.354 342.472 65.428 343.35 65.24 344.313C64.981 345.599 62.779 344.016 63.062 343.244ZM48.422 348.211C49.933 347.607 52.294 351.365 50.646 352.225C48.999 353.086 47.187 348.708 48.422 348.211Z" fill="#FFC727"/>
<path opacity="0.2" d="M31.227 342.418V342.426C31.254 343.16 31.297 343.885 31.346 344.594C32.98 343.445 35.033 342.401 37.211 342.164C42.29 341.624 41.967 345.486 38.574 345.648C35.337 345.802 33.166 346.352 31.604 347.044C32.433 353.751 34.277 359.144 34.554 359.216C34.831 359.281 41.04 358.836 47.975 357.52C46.713 354.829 43.837 351.252 45.301 350.963C46.804 350.665 48.371 353.858 49.183 357.274C52.528 356.598 55.973 355.714 58.944 354.588C56.71 352.654 53.256 350.247 54.576 349.222C55.895 348.19 58.637 351.584 60.279 354.047C61.911 353.351 63.359 352.571 64.498 351.695C61.488 347.273 54.151 346.373 55.108 343.176C56.086 339.916 62.93 344.413 66.012 350.333C69.632 346.579 70.692 341.267 70.311 336.728C67.159 336.362 61.092 337.027 61.531 334.763C61.944 332.609 66.353 332.93 69.942 334.252C69.5 332.194 68.751 330.439 67.835 329.263C64.512 324.997 54.373 330.422 54.373 330.422C54.373 330.422 55.458 320.23 51.59 318.468C49.361 317.456 45.429 317.464 41.482 319.787C43.696 319.971 46.372 320.671 47.445 322.207C48.821 324.166 46.651 325.231 45.271 324.328C44.302 323.686 42.486 321.67 39.213 321.404C37.942 322.458 36.701 323.799 35.552 325.457C35.178 325.983 34.83 326.539 34.483 327.142C37.672 325.817 41.893 325.138 46.353 327.357C50.749 329.54 48.293 334.105 44.511 332.331C40.769 330.579 37.127 328.814 33.117 329.818C31.645 333.211 31.157 337.229 31.189 341.184C32.693 340.096 34.913 338.794 37.701 338.059C42.071 336.912 43.392 339.523 38.592 340.01C35.544 340.32 32.978 341.436 31.227 342.418ZM36.544 335.402C36.242 333.986 39.342 333.58 39.858 334.728C40.288 335.708 36.839 336.819 36.544 335.402ZM63.062 343.244C63.354 342.472 65.428 343.35 65.24 344.313C64.981 345.599 62.779 344.016 63.062 343.244ZM48.422 348.211C49.933 347.607 52.294 351.365 50.646 352.225C48.999 353.086 47.187 348.708 48.422 348.211Z" fill="black"/>
<path d="M35.1473 358.443C37.4253 354.635 39.6763 350.806 42.0673 347.068C43.1813 345.326 44.3483 343.62 45.5593 341.946C45.3763 341.909 45.1943 341.855 45.0173 341.818C44.7163 341.754 44.4133 341.696 44.1103 341.644C43.4113 341.522 42.7053 341.421 41.9993 341.349C41.3343 341.282 40.6673 341.246 39.9993 341.238C39.3043 341.229 38.5453 341.206 37.8623 341.35C37.7763 341.368 37.7633 341.233 37.8443 341.237C38.5553 341.265 39.2843 341.172 39.9973 341.162C40.6893 341.152 41.3823 341.17 42.0723 341.211C42.7213 341.25 43.3673 341.314 44.0103 341.413C44.3653 341.468 44.7193 341.53 45.0723 341.599C45.2823 341.641 45.5043 341.671 45.7123 341.734C46.9463 340.037 48.2263 338.375 49.5503 336.746C45.5563 334.911 41.4483 333.4 37.0813 332.767C37.0083 332.756 37.0363 332.643 37.1093 332.655C41.4593 333.35 45.8223 334.474 49.7583 336.491C50.4863 335.598 51.2183 334.708 51.9553 333.822C52.7793 332.831 53.6603 331.863 54.4063 330.811C54.4553 330.742 54.5553 330.818 54.4993 330.879C53.4653 331.983 52.5303 333.2 51.6083 334.418C51.6153 334.421 51.6223 334.417 51.6293 334.421C53.2743 335.521 54.7863 336.834 56.2653 338.144C57.7803 339.487 59.2603 340.876 60.6963 342.302C60.7493 342.354 60.6693 342.438 60.6163 342.386C59.1963 340.975 57.7233 339.627 56.1833 338.347C54.6443 337.068 53.0243 335.894 51.4773 334.628C51.4693 334.622 51.4713 334.612 51.4663 334.605C51.1123 335.073 50.7603 335.54 50.4053 336C50.2263 336.233 50.0483 336.467 49.8693 336.7C49.8603 336.721 49.8473 336.734 49.8313 336.75C49.2383 337.521 48.6483 338.294 48.0633 339.071C48.7803 340.032 49.3103 341.167 49.8233 342.247C50.3343 343.322 50.7783 344.432 51.1873 345.549C52.0343 347.862 52.6033 350.273 53.0873 352.685C53.1023 352.758 52.9903 352.791 52.9763 352.718C52.5193 350.318 51.7673 348.003 50.9023 345.722C50.4603 344.557 49.9563 343.422 49.4363 342.29C48.9633 341.26 48.3903 340.27 47.9473 339.228C47.4363 339.907 46.9273 340.589 46.4273 341.276C46.2823 341.476 46.1433 341.68 45.9993 341.881C46.0213 341.925 46.0073 341.983 45.9493 341.986C45.9413 341.986 45.9333 341.985 45.9263 341.985C44.3613 344.17 42.8723 346.406 41.4233 348.669C41.5213 348.815 41.5643 348.994 41.6223 349.164C41.7153 349.439 41.8023 349.715 41.8833 349.994C42.0453 350.553 42.1773 351.117 42.2803 351.689C42.3773 352.226 42.4543 352.767 42.5073 353.31C42.5663 353.908 42.5093 354.57 42.6433 355.154C42.6643 355.246 42.5163 355.252 42.5323 355.157C42.6213 354.613 42.4823 353.979 42.4063 353.437C42.3233 352.849 42.2143 352.264 42.0783 351.686C41.9553 351.163 41.8143 350.641 41.6593 350.127C41.5813 349.869 41.4983 349.613 41.4103 349.358C41.3633 349.223 41.2973 349.081 41.2523 348.937C40.5743 350 39.9023 351.067 39.2413 352.142C37.9303 354.271 36.6303 356.408 35.3223 358.539C35.2533 358.645 35.0823 358.552 35.1473 358.443Z" fill="#263238"/>
<path d="M70.2756 387.688C70.3346 385.53 70.6766 383.356 70.9096 381.21C71.1426 379.054 71.3886 376.899 71.6186 374.742C72.0616 370.586 72.3096 366.337 73.2876 362.262C74.1286 358.757 75.6726 355.399 78.3646 352.929C79.7266 351.679 81.4586 350.655 83.3436 350.553C85.2716 350.449 87.0496 351.116 88.6306 352.183C90.4316 353.398 91.8196 355.121 93.0766 356.868C94.3726 358.669 95.5196 360.53 96.5436 362.498C96.5826 362.573 96.4656 362.618 96.4256 362.548C94.5336 359.268 91.9256 356.439 88.9256 354.144C87.5436 353.087 85.9576 352.294 84.1976 352.174C82.4526 352.054 80.8966 352.888 79.6136 354.002C77.0966 356.19 75.6396 359.408 74.7726 362.568C73.7446 366.314 73.4116 370.256 72.8986 374.097C72.5936 376.38 72.3026 378.665 72.0006 380.949C71.7006 383.221 71.5116 385.55 71.0286 387.791C70.9226 388.273 70.2626 388.173 70.2756 387.688Z" fill="#263238"/>
<path d="M80.8923 370.927C81.5143 371.796 82.3093 372.587 83.2403 373.324C82.8853 371.218 82.4553 367.475 83.5193 365.483C85.1703 362.389 87.1243 363.932 86.1413 366.622C84.7223 370.462 84.5373 373.056 84.5513 374.249C86.6443 375.626 89.1693 376.739 91.7213 377.631C91.4953 376.596 91.3523 375.31 91.4853 373.94C91.8143 370.633 94.3473 370.694 93.6893 374.135C93.4003 375.623 93.3393 377.054 93.3423 378.176C99.1193 379.987 104.515 380.696 104.515 380.696C106.666 377.831 108.175 375.079 109.14 372.464C106.448 371.79 100.996 371.636 101.113 369.712C101.268 367.123 106.549 369.116 109.638 370.994C110.398 368.515 110.665 366.176 110.571 364.028C109.365 363.633 107.134 363.142 103.146 362.798C97.6013 362.319 97.8743 359.176 101.892 359.248C104.856 359.302 108.605 361.117 110.382 362.06C109.225 354.52 103.473 349.687 98.8613 349.503C91.1083 349.19 93.8973 358.84 93.8973 358.84C93.8973 358.84 88.6443 355.143 83.6853 355.24C78.7373 355.348 75.5913 363.551 80.8923 370.927ZM101.602 356.978C101.429 355.893 104.89 355.632 105.07 357.025C105.277 358.588 101.777 358.083 101.602 356.978ZM107.169 368.298C107.098 367.588 108.592 367.464 108.929 368.358C109.156 368.94 107.229 368.999 107.169 368.298ZM88.5513 368.959C89.7203 369.124 90.3843 373.302 88.3733 373.22C86.8383 373.155 87.5603 368.818 88.5513 368.959Z" fill="#FFC727"/>
<path opacity="0.2" d="M80.8923 370.927C81.5143 371.796 82.3093 372.587 83.2403 373.324C82.8853 371.218 82.4553 367.475 83.5193 365.483C85.1703 362.389 87.1243 363.932 86.1413 366.622C84.7223 370.462 84.5373 373.056 84.5513 374.249C86.6443 375.626 89.1693 376.739 91.7213 377.631C91.4953 376.596 91.3523 375.31 91.4853 373.94C91.8143 370.633 94.3473 370.694 93.6893 374.135C93.4003 375.623 93.3393 377.054 93.3423 378.176C99.1193 379.987 104.515 380.696 104.515 380.696C106.666 377.831 108.175 375.079 109.14 372.464C106.448 371.79 100.996 371.636 101.113 369.712C101.268 367.123 106.549 369.116 109.638 370.994C110.398 368.515 110.665 366.176 110.571 364.028C109.365 363.633 107.134 363.142 103.146 362.798C97.6013 362.319 97.8743 359.176 101.892 359.248C104.856 359.302 108.605 361.117 110.382 362.06C109.225 354.52 103.473 349.687 98.8613 349.503C91.1083 349.19 93.8973 358.84 93.8973 358.84C93.8973 358.84 88.6443 355.143 83.6853 355.24C78.7373 355.348 75.5913 363.551 80.8923 370.927ZM101.602 356.978C101.429 355.893 104.89 355.632 105.07 357.025C105.277 358.588 101.777 358.083 101.602 356.978ZM107.169 368.298C107.098 367.588 108.592 367.464 108.929 368.358C109.156 368.94 107.229 368.999 107.169 368.298ZM88.5513 368.959C89.7203 369.124 90.3843 373.302 88.3733 373.22C86.8383 373.155 87.5603 368.818 88.5513 368.959Z" fill="black"/>
<path d="M90.1679 373.599C90.3609 373.079 90.5329 372.551 90.6969 372.019C90.5459 372.556 90.4119 373.096 90.3119 373.638C90.2919 373.745 90.1299 373.703 90.1679 373.599Z" fill="#263238"/>
<path d="M92.2145 366.883C92.5785 365.812 92.9855 364.754 93.4015 363.702C93.6235 363.14 93.8545 362.583 94.1005 362.032C94.3075 361.567 94.4805 361.039 94.7915 360.633C94.5535 360.189 94.3315 359.738 94.1635 359.28C94.1475 359.236 94.2035 359.202 94.2345 359.239C94.8255 359.929 95.2835 360.798 95.7455 361.582C95.9615 361.948 96.1655 362.32 96.3775 362.688C96.8125 362.714 97.2555 362.812 97.6815 362.891C98.1465 362.976 98.6095 363.071 99.0715 363.175C99.5325 363.279 99.9935 363.386 100.454 363.496C100.91 363.605 101.365 363.757 101.829 363.827C101.937 363.843 101.892 364.013 101.79 363.971C101.331 363.786 100.822 363.698 100.339 363.594C99.8935 363.498 99.4475 363.419 98.9965 363.354C98.5455 363.289 98.0945 363.234 97.6415 363.188C97.3025 363.154 96.9575 363.137 96.6165 363.105C96.8015 363.43 96.9935 363.752 97.1735 364.08C97.2015 364.132 97.2275 364.185 97.2555 364.237C97.6285 364.206 98.0025 364.303 98.3695 364.368C98.7705 364.44 99.1695 364.516 99.5675 364.604C100.377 364.783 101.181 364.974 101.98 365.197C103.658 365.665 105.316 366.201 106.971 366.742C107.063 366.772 107.005 366.912 106.913 366.881C105.271 366.32 103.593 365.872 101.901 365.49C101.108 365.311 100.315 365.129 99.5185 364.964C99.1195 364.881 98.7215 364.794 98.3235 364.71C98.0165 364.645 97.6935 364.608 97.3975 364.506C98.2505 366.082 99.0545 367.684 99.7925 369.317C101.401 372.875 102.755 376.54 104.134 380.191C104.168 380.282 104.028 380.341 103.996 380.25C102.707 376.601 101.079 373.09 99.3765 369.619C99.0665 368.988 98.7475 368.361 98.4345 367.732C98.4085 367.86 98.3765 367.988 98.3525 368.117C98.2725 368.548 98.1965 368.98 98.1235 369.412C97.9785 370.277 97.8305 371.141 97.7015 372.009C97.4405 373.764 97.0165 375.617 97.0765 377.397C97.0805 377.509 96.9105 377.503 96.9275 377.397C97.0665 376.538 97.0665 375.641 97.1205 374.773C97.1775 373.866 97.2435 372.958 97.3495 372.055C97.4505 371.184 97.5625 370.314 97.7065 369.449C97.7785 369.017 97.8545 368.585 97.9335 368.153C97.9915 367.839 98.0045 367.484 98.1775 367.215C97.7225 366.304 97.2735 365.391 96.8135 364.482C96.3825 363.63 95.9465 362.78 95.5035 361.934C95.3165 361.577 95.1125 361.215 94.9135 360.851C94.8005 361.3 94.5715 361.732 94.3995 362.157C94.2015 362.647 94.0015 363.135 93.8005 363.624C93.3555 364.706 92.9425 365.799 92.5295 366.892C91.9435 368.443 91.2955 370.031 90.8125 371.646C91.2825 370.06 91.6835 368.447 92.2145 366.883Z" fill="#263238"/>
<path d="M90.6973 372.019C90.7323 371.894 90.7723 371.769 90.8093 371.644C90.7723 371.769 90.7353 371.895 90.6973 372.019Z" fill="#263238"/>
<path d="M57.3086 383.49L57.8546 395.033L59.2576 424.781H89.9496L91.3536 395.033L91.8986 383.49H57.3086Z" fill="#37474F"/>
<path d="M57.3086 383.49L57.8546 395.033H91.3536L91.8986 383.49H57.3086Z" fill="#263238"/>
<path d="M55.1261 388.157H94.0801V378.825H55.1261V388.157Z" fill="#37474F"/>
<path d="M87.4661 424.781H82.0781V429.667H87.4661V424.781Z" fill="#37474F"/>
<path d="M87.4661 424.781H82.0781V427.224H87.4661V424.781Z" fill="#263238"/>
<path d="M67.1252 424.781H61.7422V429.667H67.1252V424.781Z" fill="#37474F"/>
<path d="M67.1252 424.781H61.7422V427.224H67.1252V424.781Z" fill="#263238"/>
<path d="M373.838 165.226C375.168 163.2 375.916 160.922 375.916 158.514C375.916 150.011 366.578 143.117 355.067 143.117C343.556 143.117 334.227 150.011 334.227 158.514C334.227 167.017 343.556 173.911 355.067 173.911C360.649 173.911 365.709 172.294 369.447 169.651L376.628 171.477L373.838 165.226Z" fill="#FFFEFD"/>
<path d="M373.837 165.226C375.04 163.321 375.754 161.109 375.789 158.874C375.799 156.642 375.202 154.418 374.023 152.531C371.679 148.731 367.722 146.141 363.505 144.814C359.269 143.461 354.702 143.214 350.337 143.975C345.979 144.714 341.756 146.636 338.642 149.73C337.101 151.279 335.879 153.152 335.243 155.22C334.6 157.277 334.534 159.527 335.155 161.604C335.756 163.687 336.952 165.581 338.473 167.152C339.997 168.729 341.837 169.998 343.816 170.977C345.794 171.969 347.938 172.618 350.115 173.027C352.293 173.431 354.527 173.624 356.75 173.497C361.187 173.282 365.624 171.978 369.315 169.463L369.405 169.401L369.504 169.428L376.658 171.36L376.518 171.526L373.837 165.226ZM373.837 165.226L376.738 171.428L376.843 171.653L376.598 171.594L369.39 169.874L369.579 169.839C365.864 172.509 361.334 173.906 356.792 174.215C352.246 174.503 347.576 173.781 343.429 171.772C341.365 170.766 339.431 169.453 337.81 167.796C336.193 166.145 334.894 164.128 334.229 161.872C333.546 159.624 333.591 157.165 334.29 154.927C334.994 152.683 336.324 150.685 337.964 149.056C341.281 145.802 345.681 143.854 350.186 143.112C352.444 142.744 354.743 142.601 357.026 142.778C359.305 142.97 361.562 143.415 363.727 144.149C365.892 144.878 367.964 145.911 369.803 147.275C371.64 148.631 373.268 150.314 374.399 152.313C375.558 154.295 376.104 156.608 376.026 158.883C375.933 161.164 375.115 163.373 373.837 165.226Z" fill="#263238"/>
<path d="M347.569 158.513C347.569 159.707 346.601 160.675 345.408 160.675C344.214 160.675 343.246 159.707 343.246 158.513C343.246 157.319 344.214 156.351 345.408 156.351C346.602 156.352 347.569 157.32 347.569 158.513Z" fill="#263238"/>
<path d="M357.23 158.513C357.23 159.707 356.262 160.675 355.068 160.675C353.874 160.675 352.906 159.707 352.906 158.513C352.906 157.319 353.874 156.351 355.068 156.351C356.262 156.352 357.23 157.32 357.23 158.513Z" fill="#263238"/>
<path d="M366.889 158.513C366.889 159.707 365.921 160.675 364.728 160.675C363.534 160.675 362.566 159.707 362.566 158.513C362.566 157.319 363.534 156.351 364.728 156.351C365.921 156.352 366.889 157.32 366.889 158.513Z" fill="#263238"/>
</svg>
