<svg width="20" height="20" viewBox="0 0 20 20" fill="none" xmlns="http://www.w3.org/2000/svg">
<path d="M13.6 1H6.4C2.8 1 1 2.8 1 6.4V18.1C1 18.595 1.405 19 1.9 19H13.6C17.2 19 19 17.2 19 13.6V6.4C19 2.8 17.2 1 13.6 1Z" stroke="#385A64" stroke-width="1.5" stroke-linecap="round" stroke-linejoin="round"/>
<path d="M10.8195 6.25603L6.1485 10.927C5.9685 11.107 5.7975 11.458 5.7615 11.71L5.5095 13.492C5.4195 14.14 5.8695 14.59 6.5175 14.5L8.29948 14.248C8.55148 14.212 8.9025 14.041 9.0825 13.861L13.7535 9.19003C14.5545 8.38903 14.9415 7.45303 13.7535 6.26503C12.5655 5.06803 11.6295 5.44603 10.8195 6.25603Z" stroke="#385A64" stroke-width="1.5" stroke-miterlimit="10" stroke-linecap="round" stroke-linejoin="round"/>
<path d="M10.1533 6.92203C10.5493 8.33503 11.6563 9.45103 13.0783 9.84703" stroke="#385A64" stroke-width="1.5" stroke-miterlimit="10" stroke-linecap="round" stroke-linejoin="round"/>
</svg>
