<svg width="80" height="80" viewBox="0 0 80 80" fill="none" xmlns="http://www.w3.org/2000/svg">
<path d="M50.417 57.7083H29.5837C23.3337 57.7083 19.167 54.5833 19.167 47.2917V32.7083C19.167 25.4167 23.3337 22.2917 29.5837 22.2917H50.417C56.667 22.2917 60.8337 25.4167 60.8337 32.7083V47.2917C60.8337 54.5833 56.667 57.7083 50.417 57.7083Z" fill="#C8D2D7" stroke="black" stroke-width="3" stroke-miterlimit="10" stroke-linecap="round" stroke-linejoin="round"/>
<path d="M50.4163 33.75L43.8955 38.9583C41.7497 40.6667 38.2288 40.6667 36.083 38.9583L29.583 33.75" fill="#C8D2D7"/>
<path d="M50.4163 33.75L43.8955 38.9583C41.7497 40.6667 38.2288 40.6667 36.083 38.9583L29.583 33.75" stroke="black" stroke-width="3" stroke-miterlimit="10" stroke-linecap="round" stroke-linejoin="round"/>
<path d="M40 78C60.9868 78 78 60.9868 78 40C78 19.0132 60.9868 2 40 2C19.0132 2 2 19.0132 2 40C2 60.9868 19.0132 78 40 78Z" stroke="black" stroke-width="3" stroke-linecap="round" stroke-linejoin="round"/>
</svg>
