<svg width="80" height="80" viewBox="0 0 80 80" fill="none" xmlns="http://www.w3.org/2000/svg">
<path d="M40.439 43C40.1829 42.9634 39.8537 42.9634 39.561 43C33.122 42.7802 28 37.5038 28 31.0183C28 24.3863 33.3415 19 40 19C46.622 19 52 24.3863 52 31.0183C51.9634 37.5038 46.878 42.7802 40.439 43Z" fill="#C8D2D7" stroke="black" stroke-width="3" stroke-linecap="round" stroke-linejoin="round"/>
<path d="M65 68.4219C58.3976 74.3808 49.6439 78 40 78C30.3561 78 21.6024 74.3808 15 68.4219C15.3709 64.9855 17.5964 61.6222 21.5653 58.9901C31.7285 52.3366 48.3457 52.3366 58.4347 58.9901C62.4036 61.6222 64.6291 64.9855 65 68.4219Z" fill="#C8D2D7" stroke="black" stroke-width="3" stroke-linecap="round" stroke-linejoin="round"/>
<path d="M40 78C60.9868 78 78 60.9868 78 40C78 19.0132 60.9868 2 40 2C19.0132 2 2 19.0132 2 40C2 60.9868 19.0132 78 40 78Z" stroke="black" stroke-width="3" stroke-linecap="round" stroke-linejoin="round"/>
</svg>
