<svg width="750" height="500" viewBox="0 0 750 500" fill="none" xmlns="http://www.w3.org/2000/svg">
<path d="M663.161 304.224L650.036 304.503L643.375 304.615C641.149 304.662 638.912 304.652 636.68 304.67L636.236 304.673L636.234 304.224L636.18 293.034L636.178 292.532L636.68 292.534L649.92 292.597C654.333 292.602 658.747 292.709 663.16 292.761L663.436 292.764L663.433 293.034C663.414 294.933 663.347 296.821 663.302 298.688L663.161 304.224ZM663.161 304.224L663.019 298.57C662.974 296.707 662.907 294.865 662.888 293.034L663.161 293.307C658.747 293.358 654.334 293.466 649.921 293.471L636.681 293.534L637.18 293.035L637.126 304.225L636.68 303.779C638.862 303.797 641.038 303.787 643.226 303.834L649.805 303.946L663.161 304.224Z" fill="#EBEBEB"/>
<path d="M648.389 318.334L635.264 318.613L628.603 318.725C626.377 318.772 624.14 318.762 621.908 318.78L621.464 318.784L621.462 318.335L621.408 307.145L621.406 306.643L621.908 306.645L635.148 306.708C639.561 306.713 643.975 306.82 648.388 306.872L648.664 306.875L648.661 307.145C648.642 309.044 648.575 310.932 648.53 312.799L648.389 318.334ZM648.389 318.334L648.247 312.68C648.202 310.817 648.135 308.975 648.116 307.144L648.389 307.417C643.976 307.468 639.562 307.576 635.149 307.581L621.909 307.644L622.408 307.145L622.354 318.335L621.908 317.889C624.09 317.907 626.266 317.897 628.454 317.944L635.033 318.056L648.389 318.334Z" fill="#EBEBEB"/>
<path d="M113.323 304.224L100.198 304.503L93.5368 304.615C91.3109 304.662 89.0738 304.652 86.8418 304.67L86.3979 304.673L86.3958 304.224L86.3418 293.034L86.3398 292.532L86.8418 292.534L100.082 292.597C104.495 292.602 108.909 292.709 113.322 292.761L113.598 292.764L113.595 293.034C113.576 294.933 113.509 296.821 113.464 298.688L113.323 304.224ZM113.323 304.224L113.181 298.57C113.136 296.707 113.069 294.865 113.05 293.034L113.323 293.307C108.91 293.358 104.496 293.466 100.083 293.471L86.8428 293.534L87.3418 293.035L87.2878 304.225L86.8418 303.779C89.0238 303.797 91.1998 303.787 93.3878 303.834L99.9668 303.946L113.323 304.224Z" fill="#EBEBEB"/>
<path d="M98.5514 318.334L85.4264 318.613L78.7654 318.725C76.5394 318.772 74.3024 318.762 72.0704 318.78L71.6264 318.784L71.6244 318.335L71.5704 307.145L71.5684 306.643L72.0704 306.645L85.3104 306.708C89.7234 306.713 94.1374 306.82 98.5504 306.872L98.8264 306.875L98.8234 307.145C98.8044 309.044 98.7374 310.932 98.6924 312.799L98.5514 318.334ZM98.5514 318.334L98.4094 312.68C98.3644 310.817 98.2974 308.975 98.2784 307.144L98.5514 307.417C94.1384 307.468 89.7244 307.576 85.3114 307.581L72.0714 307.644L72.5704 307.145L72.5164 318.335L72.0704 317.889C74.2524 317.907 76.4284 317.897 78.6164 317.944L85.1954 318.056L98.5514 318.334Z" fill="#EBEBEB"/>
<path d="M677.932 318.334L664.807 318.613L658.146 318.725C655.92 318.772 653.683 318.762 651.451 318.78L651.007 318.784L651.005 318.335L650.951 307.145L650.949 306.643L651.451 306.645L664.691 306.708C669.104 306.713 673.518 306.82 677.931 306.872L678.207 306.875L678.204 307.145C678.185 309.044 678.118 310.932 678.073 312.799L677.932 318.334ZM677.932 318.334L677.79 312.68C677.745 310.817 677.678 308.975 677.659 307.144L677.932 307.417C673.519 307.468 669.105 307.576 664.692 307.581L651.452 307.644L651.951 307.145L651.897 318.335L651.451 317.889C653.633 317.907 655.809 317.897 657.997 317.944L664.576 318.056L677.932 318.334Z" fill="#EBEBEB"/>
<path d="M473.69 137.37L460.565 137.649L453.904 137.761C451.678 137.808 449.441 137.798 447.209 137.816L446.765 137.819L446.763 137.37L446.709 126.18L446.707 125.678L447.209 125.68L460.449 125.743C464.862 125.748 469.276 125.856 473.689 125.907L473.965 125.91L473.962 126.18C473.943 128.079 473.876 129.967 473.831 131.834L473.69 137.37ZM473.69 137.37L473.548 131.716C473.503 129.853 473.436 128.011 473.417 126.18L473.69 126.453C469.277 126.504 464.863 126.612 460.45 126.617L447.21 126.68L447.709 126.181L447.655 137.371L447.209 136.925C449.391 136.943 451.567 136.933 453.755 136.98L460.334 137.092L473.69 137.37Z" fill="#EBEBEB"/>
<path d="M458.919 151.48L445.794 151.759L439.133 151.871C436.907 151.918 434.67 151.908 432.438 151.926L431.994 151.929L431.992 151.48L431.938 140.29L431.936 139.788L432.438 139.79L445.678 139.853C450.091 139.858 454.505 139.966 458.918 140.017L459.194 140.02L459.191 140.29C459.172 142.189 459.105 144.077 459.06 145.944L458.919 151.48ZM458.919 151.48L458.777 145.826C458.732 143.963 458.665 142.121 458.646 140.29L458.919 140.563C454.506 140.614 450.092 140.722 445.679 140.727L432.439 140.79L432.938 140.291L432.884 151.481L432.438 151.035C434.62 151.053 436.796 151.043 438.984 151.09L445.563 151.202L458.919 151.48Z" fill="#EBEBEB"/>
<path d="M488.462 151.48L475.337 151.759L468.676 151.871C466.45 151.918 464.213 151.908 461.981 151.926L461.537 151.929L461.535 151.48L461.481 140.29L461.479 139.788L461.981 139.79L475.221 139.853C479.634 139.858 484.048 139.966 488.461 140.017L488.737 140.02L488.734 140.29C488.715 142.189 488.648 144.077 488.603 145.944L488.462 151.48ZM488.462 151.48L488.32 145.826C488.275 143.963 488.208 142.121 488.189 140.29L488.462 140.563C484.049 140.614 479.635 140.722 475.222 140.727L461.982 140.79L462.481 140.291L462.427 151.481L461.981 151.035C464.163 151.053 466.339 151.043 468.527 151.09L475.106 151.202L488.462 151.48Z" fill="#EBEBEB"/>
<path d="M149.669 245.107L136.544 245.386L129.883 245.498C127.657 245.545 125.42 245.535 123.188 245.553L122.744 245.556L122.742 245.107L122.688 233.917L122.686 233.415L123.188 233.417L136.428 233.48C140.841 233.485 145.255 233.593 149.668 233.644L149.944 233.647L149.941 233.917C149.922 235.816 149.855 237.704 149.81 239.571L149.669 245.107ZM149.669 245.107L149.527 239.453C149.482 237.59 149.415 235.748 149.396 233.917L149.669 234.19C145.256 234.241 140.842 234.349 136.429 234.354L123.189 234.417L123.688 233.918L123.634 245.108L123.188 244.662C125.37 244.68 127.546 244.67 129.734 244.717L136.313 244.829L149.669 245.107Z" fill="#EBEBEB"/>
<path d="M271.34 347.262L258.215 347.541L251.554 347.653C249.328 347.7 247.091 347.69 244.859 347.708L244.415 347.712L244.413 347.263L244.359 336.073L244.357 335.571L244.859 335.573L258.099 335.636C262.512 335.641 266.926 335.748 271.339 335.8L271.615 335.803L271.612 336.073C271.593 337.972 271.526 339.86 271.481 341.727L271.34 347.262ZM271.34 347.262L271.198 341.608C271.153 339.745 271.086 337.903 271.067 336.072L271.34 336.345C266.927 336.396 262.513 336.504 258.1 336.509L244.86 336.572L245.359 336.073L245.305 347.263L244.859 346.817C247.041 346.835 249.217 346.825 251.405 346.872L257.984 346.984L271.34 347.262Z" fill="#EBEBEB"/>
<path d="M661.629 62.38L648.504 62.659L641.843 62.771C639.617 62.818 637.38 62.808 635.148 62.826L634.704 62.83L634.702 62.381L634.648 51.191L634.646 50.689L635.148 50.691L648.388 50.754C652.801 50.759 657.215 50.866 661.628 50.918L661.904 50.921L661.901 51.191C661.882 53.09 661.815 54.978 661.77 56.845L661.629 62.38ZM661.629 62.38L661.487 56.726C661.442 54.863 661.375 53.021 661.356 51.19L661.629 51.463C657.216 51.514 652.802 51.622 648.389 51.627L635.149 51.69L635.648 51.191L635.594 62.381L635.148 61.935C637.33 61.953 639.506 61.943 641.694 61.99L648.273 62.102L661.629 62.38Z" fill="#EBEBEB"/>
<path d="M676.402 76.489L663.277 76.768L656.616 76.88C654.39 76.927 652.153 76.917 649.921 76.935L649.477 76.939L649.475 76.49L649.422 65.3L649.42 64.798L649.922 64.8L663.162 64.863C667.575 64.868 671.989 64.976 676.402 65.027L676.678 65.03L676.675 65.3C676.656 67.199 676.589 69.087 676.544 70.954L676.402 76.489ZM676.402 76.489L676.26 70.835C676.215 68.972 676.148 67.13 676.129 65.299L676.402 65.572C671.989 65.623 667.575 65.731 663.162 65.736L649.922 65.799L650.421 65.3L650.367 76.49L649.921 76.044C652.103 76.062 654.279 76.052 656.467 76.099L663.046 76.211L676.402 76.489Z" fill="#EBEBEB"/>
<path d="M98.5514 62.3909L85.4264 62.6699L78.7654 62.782C76.5394 62.829 74.3024 62.819 72.0704 62.837L71.6264 62.84L71.6244 62.3909L71.5704 51.201L71.5684 50.7L72.0704 50.702L85.3104 50.7649C89.7234 50.7699 94.1374 50.878 98.5504 50.929L98.8264 50.9319L98.8234 51.202C98.8044 53.101 98.7374 54.9889 98.6924 56.8559L98.5514 62.3909ZM98.5514 62.3909L98.4094 56.7369C98.3644 54.874 98.2974 53.032 98.2784 51.201L98.5514 51.4739C94.1384 51.5249 89.7244 51.633 85.3114 51.638L72.0714 51.701L72.5704 51.202L72.5164 62.3919L72.0704 61.9459C74.2524 61.9639 76.4284 61.9539 78.6164 62.0009L85.1954 62.1129L98.5514 62.3909Z" fill="#EBEBEB"/>
<path d="M89.5802 382.18H187.367L187.367 200.311H89.5802L89.5802 382.18Z" fill="#EBEBEB"/>
<path d="M84.8435 200.311H192.105V195.29H84.8435V200.311Z" fill="#DBDBDB"/>
<path d="M51.1097 200.311H84.8438V195.29H51.1097V200.311Z" fill="#EBEBEB"/>
<path d="M56.4491 382.18H89.5801L89.5801 200.311H56.4491L56.4491 382.18Z" fill="#DBDBDB"/>
<path d="M176.842 317.427H100.105V274.054H176.842V317.427ZM100.355 317.177H176.592V274.304H100.355V317.177Z" fill="#C7C7C7"/>
<path d="M134.244 295.318H149.182V286.732H134.244V295.318Z" fill="#C7C7C7"/>
<path d="M144.891 294.796H129.703V287.255H144.891V294.796ZM129.954 294.546H144.642V287.505H129.954V294.546Z" fill="#C7C7C7"/>
<path d="M176.842 371.907H100.105V328.534H176.842V371.907ZM100.355 371.657H176.592V328.784H100.355V371.657Z" fill="#C7C7C7"/>
<path d="M134.244 349.798H149.182V341.212H134.244V349.798Z" fill="#C7C7C7"/>
<path d="M144.891 349.276H129.703V341.735H144.891V349.276ZM129.954 349.026H144.642V341.985H129.954V349.026Z" fill="#C7C7C7"/>
<path d="M100.23 262.821H176.717V219.698H100.23V262.821Z" fill="#A6A6A6"/>
<path d="M165.906 208.655H107.68V250.862H165.906V208.655Z" fill="#C7C7C7"/>
<path d="M145.332 204.284H165.905V208.655H144.15L145.332 204.284Z" fill="#C7C7C7"/>
<path d="M107.832 250.862H166.058L170.549 212.157H112.323L107.832 250.862Z" fill="#A6A6A6"/>
<path d="M150.442 208.149H171.015L170.55 212.157H148.795L150.442 208.149Z" fill="#A6A6A6"/>
<path d="M137.077 262.821H213.564V219.698H137.077V262.821Z" fill="#EBEBEB"/>
<path d="M213.689 262.946H136.953V219.573H213.689V262.946ZM137.203 262.696H213.439V219.823H137.203V262.696Z" fill="#C7C7C7"/>
<path d="M171.093 240.837H186.031V232.251H171.093V240.837Z" fill="#C7C7C7"/>
<path d="M181.741 240.315H166.553V232.775H181.741V240.315ZM166.803 240.065H181.491V233.025H166.803V240.065Z" fill="#C7C7C7"/>
<path d="M100.23 262.821H136.891V226.16H100.23V262.821Z" fill="#DBDBDB"/>
<path d="M652.145 331.79H585.322V382.178H652.145V331.79Z" fill="#EBEBEB"/>
<path d="M686.651 331.79H652.146V382.18H686.651V331.79Z" fill="#DBDBDB"/>
<path d="M684.273 378.965C681.718 375.382 679.183 371.788 676.677 368.181L669.191 357.343L661.801 346.458C659.35 342.824 656.926 339.176 654.523 335.518C657.079 339.101 659.613 342.694 662.12 346.301L669.605 357.139L676.994 368.024C679.446 371.659 681.87 375.307 684.273 378.965Z" fill="#EBEBEB"/>
<path d="M684.273 335.518C681.87 339.176 679.446 342.824 676.994 346.458L669.605 357.343L662.12 368.181C659.613 371.788 657.079 375.381 654.523 378.964C656.926 375.306 659.35 371.658 661.801 368.024L669.191 357.139L676.677 346.301C679.183 342.695 681.718 339.101 684.273 335.518Z" fill="#EBEBEB"/>
<path d="M633.03 339.761H604.439V346.334H633.03V339.761Z" fill="#C7C7C7"/>
<path d="M635.986 356.442H601.482V366.9H635.986V356.442Z" fill="white"/>
<path d="M689.86 324.453H582.076V331.722H689.86V324.453Z" fill="#C7C7C7"/>
<path d="M666.639 274.063H599.816V324.451H666.639V274.063Z" fill="#EBEBEB"/>
<path d="M701.144 274.063H666.639V324.453H701.144V274.063Z" fill="#DBDBDB"/>
<path d="M698.768 321.238C696.213 317.655 693.678 314.061 691.172 310.454L683.686 299.616L676.296 288.731C673.845 285.097 671.42 281.449 669.018 277.791C671.574 281.374 674.108 284.967 676.615 288.574L684.1 299.412L691.489 310.297C693.941 313.932 696.365 317.58 698.768 321.238Z" fill="#EBEBEB"/>
<path d="M698.768 277.791C696.365 281.449 693.941 285.097 691.489 288.731L684.1 299.616L676.615 310.454C674.108 314.061 671.574 317.654 669.018 321.237C671.421 317.579 673.845 313.931 676.296 310.297L683.686 299.412L691.172 288.574C693.678 284.968 696.213 281.374 698.768 277.791Z" fill="#EBEBEB"/>
<path d="M647.525 282.034H618.934V288.606H647.525V282.034Z" fill="#C7C7C7"/>
<path d="M650.481 298.714H615.977V309.172H650.481V298.714Z" fill="white"/>
<path d="M704.354 266.726H596.57V273.995H704.354V266.726Z" fill="#C7C7C7"/>
<path opacity="0.19" d="M427.681 100.861C439.852 100.861 449.719 90.9942 449.719 78.8229C449.719 66.6517 439.852 56.7849 427.681 56.7849C415.509 56.7849 405.643 66.6517 405.643 78.8229C405.643 90.9942 415.509 100.861 427.681 100.861Z" fill="#EBEBEB"/>
<path opacity="0.19" d="M443.518 86.4642C445.745 77.7177 440.461 68.8215 431.714 66.594C422.967 64.3665 414.071 69.6513 411.844 78.3978C409.616 87.1444 414.901 96.0406 423.648 98.2681C432.394 100.496 441.29 95.2108 443.518 86.4642Z" fill="#EBEBEB"/>
<path d="M451.744 82.4469L436.516 108.393H418.846L403.617 82.4469H451.744Z" fill="#EBEBEB"/>
<path d="M440.655 117.13H414.717L418.847 108.393H436.517L440.655 117.13Z" fill="#EBEBEB"/>
<path d="M439.271 103.709L436.522 108.396H418.842L416.76 104.848L439.271 103.709Z" fill="#C7C7C7"/>
<path opacity="0.19" d="M521.999 100.861C534.17 100.861 544.037 90.9942 544.037 78.8229C544.037 66.6517 534.17 56.7849 521.999 56.7849C509.828 56.7849 499.961 66.6517 499.961 78.8229C499.961 90.9942 509.828 100.861 521.999 100.861Z" fill="#EBEBEB"/>
<path opacity="0.19" d="M531.316 95.8849C538.737 90.7485 540.59 80.5683 535.454 73.1466C530.317 65.725 520.137 63.8725 512.715 69.0088C505.294 74.1452 503.441 84.3255 508.578 91.7471C513.714 99.1687 523.894 101.021 531.316 95.8849Z" fill="#EBEBEB"/>
<path d="M546.064 82.4469L530.835 108.393H513.165L497.936 82.4469H546.064Z" fill="#EBEBEB"/>
<path d="M534.973 117.13H509.035L513.165 108.393H530.835L534.973 117.13Z" fill="#EBEBEB"/>
<path d="M533.59 103.709L530.841 108.396H513.161L511.078 104.848L533.59 103.709Z" fill="#C7C7C7"/>
<path opacity="0.19" d="M616.317 100.861C628.489 100.861 638.355 90.9942 638.355 78.8229C638.355 66.6517 628.489 56.7849 616.317 56.7849C604.146 56.7849 594.279 66.6517 594.279 78.8229C594.279 90.9942 604.146 100.861 616.317 100.861Z" fill="#EBEBEB"/>
<path opacity="0.19" d="M625.324 96.0724C632.858 91.103 634.937 80.9667 629.968 73.4322C624.999 65.8978 614.862 63.8184 607.328 68.7878C599.793 73.7572 597.714 83.8936 602.683 91.4281C607.653 98.9625 617.789 101.042 625.324 96.0724Z" fill="#EBEBEB"/>
<path d="M640.381 82.4469L625.152 108.393H607.482L592.254 82.4469H640.381Z" fill="#EBEBEB"/>
<path d="M629.29 117.13H603.354L607.482 108.393H625.152L629.29 117.13Z" fill="#EBEBEB"/>
<path d="M627.906 103.709L625.158 108.396H607.478L605.395 104.848L627.906 103.709Z" fill="#C7C7C7"/>
<path d="M45.6465 382.18L127.984 381.937L210.322 381.849L374.999 381.681L539.676 381.848L622.015 381.936L704.353 382.18L622.015 382.425L539.676 382.513L374.999 382.679L210.322 382.512L127.984 382.423L45.6465 382.18Z" fill="#263238"/>
<path d="M375.001 453.473C545.694 453.473 684.068 443.501 684.068 431.2C684.068 418.899 545.694 408.927 375.001 408.927C204.308 408.927 65.9336 418.899 65.9336 431.2C65.9336 443.501 204.308 453.473 375.001 453.473Z" fill="#EBEBEB"/>
<path d="M278.162 268.838C278.507 263.799 279.123 258.753 280.295 253.834C281.353 249.392 282.854 244.85 285.656 241.179C288.215 237.826 291.891 235.155 296.163 234.632C300.278 234.129 304.143 235.962 307.221 238.555C311.035 241.767 313.956 246.02 316.697 250.142C319.763 254.753 322.372 259.544 324.883 264.47C324.966 264.632 324.717 264.769 324.636 264.607C322.565 260.445 320.018 256.399 317.315 252.618C314.761 249.045 312.034 245.485 308.885 242.412C306.06 239.655 302.471 237.075 298.377 236.945C294.305 236.815 290.546 239.101 288.094 242.241C285.353 245.75 283.958 250.133 282.914 254.403C281.767 259.091 281.195 263.885 280.803 268.689C279.999 278.573 279.781 288.515 279.557 298.425C279.43 304.034 279.354 309.643 279.303 315.253C279.277 318.095 279.255 320.938 279.234 323.78C279.214 326.519 279.357 329.295 278.906 332.001C278.814 332.553 277.91 332.5 277.817 331.974C277.365 329.413 277.476 326.781 277.44 324.185C277.403 321.491 277.368 318.797 277.344 316.103C277.297 310.866 277.27 305.628 277.286 300.39C277.317 289.879 277.444 279.326 278.162 268.838Z" fill="#263238"/>
<path d="M292.283 261.385C292.808 258.591 293.752 254.948 295.345 252.783C298.206 248.892 301.296 250.584 298.439 254.893C295.32 259.597 294.87 263.314 294.422 265.517C294.422 265.517 299.232 272.389 305.037 275.771C304.789 273.129 304.043 269.066 304.558 265.147C305.674 256.659 310.807 257.136 309.539 263.878C308.519 269.286 308.1 275.026 308.376 277.516C310.12 278.837 313.093 279.973 314.58 280.555C314.246 279.573 313.894 278.39 313.502 276.96C311.442 269.349 316.516 266.975 316.678 271.257C316.802 274.776 318.166 280.231 318.652 282.053C321.437 282.988 323.745 283.627 325.156 284.123C331.021 286.183 334.674 290.627 334.674 290.627C337.335 288.262 339.481 285.391 341.159 282.234C339.385 280.708 336.581 278.438 332.69 275.692C325.394 270.542 327.931 264.038 333.72 268.081C337.897 270.999 341.13 276.407 342.599 279.182C344.611 274.375 345.67 269.101 345.908 263.989C340.176 258.61 326.004 251.114 330.277 251.114C334.121 251.114 342.723 256.75 345.88 258.925C345.794 257.409 345.632 255.93 345.394 254.509C339.996 250.971 322.457 245.468 325.252 243.885C328.323 242.149 340.559 247.814 344.259 249.607C343.448 246.975 342.352 244.686 341.016 242.893C333.558 232.908 320.109 229.468 314.242 231.371C310.09 232.718 311.303 243.252 310.412 242.893C293.735 236.181 286.15 240.925 292.283 261.385ZM333.168 260.232C334.351 258.801 339.825 263.007 338.242 265.306C336.659 267.603 331.642 262.063 333.168 260.232ZM304.567 251.248C306.007 252.164 303.88 257.485 301.658 255.873C299.77 254.5 303.117 250.322 304.567 251.248Z" fill="#FFC727"/>
<path d="M306.749 252.878C307.503 251.39 308.288 249.91 309.147 248.479C309.964 247.117 310.835 245.667 311.903 244.483C311.665 244.191 311.435 243.892 311.19 243.605C311.09 243.488 311.261 243.323 311.364 243.44C311.644 243.758 311.91 244.085 312.181 244.409C312.234 244.439 312.277 244.484 312.296 244.546C313.327 245.781 314.298 247.053 315.225 248.351C316.864 248.697 318.484 249.223 320.069 249.754C321.705 250.302 323.326 250.871 324.916 251.542C325.082 251.612 325 251.886 324.834 251.812C323.259 251.115 321.661 250.441 320.028 249.889C318.484 249.367 316.913 248.966 315.347 248.523C315.856 249.242 316.356 249.966 316.836 250.703C319.774 251.548 322.647 252.889 325.401 254.197C328.295 255.572 331.082 257.17 333.854 258.773C334.011 258.864 333.862 259.107 333.705 259.013C330.991 257.388 328.162 256.002 325.298 254.661C322.615 253.405 319.839 252.374 317.134 251.179C323.944 261.807 328.03 274.073 333.49 285.428C333.569 285.593 333.312 285.73 333.243 285.565C331.576 281.582 329.656 277.702 327.84 273.784C326.21 270.267 324.619 266.731 322.987 263.215C322.509 262.186 322.018 261.159 321.519 260.134C321.817 265.811 321.696 271.587 322.627 277.197C322.66 277.398 322.362 277.434 322.349 277.228C321.955 271.161 320.886 265.189 320.93 259.089C320.93 259.054 320.954 259.039 320.963 259.01C319.807 256.69 318.576 254.402 317.246 252.176C314.988 257.489 312.617 262.882 311.564 268.587C311.532 268.762 311.246 268.684 311.294 268.505C312.828 262.786 314.251 257.06 317.006 251.775C315.55 249.37 313.962 247.052 312.209 244.86C311.453 246.272 310.481 247.607 309.621 248.956C308.78 250.275 307.955 251.602 307.178 252.959C305.517 255.861 304.058 258.82 302.918 261.963C302.855 262.135 302.577 262.046 302.648 261.881C303.944 258.856 305.262 255.816 306.749 252.878Z" fill="#263238"/>
<path d="M253.062 265.802C257.433 261.418 262.513 255.665 269.268 255.676C275.787 255.687 280.586 260.937 283.342 266.351C286.225 272.014 287.26 278.429 288.075 284.665C289.05 292.13 289.591 299.656 289.803 307.181C289.921 311.361 289.905 315.546 289.802 319.727C289.698 323.945 289.595 328.224 288.845 332.385C288.723 333.06 287.641 333.086 287.6 332.356C287.403 328.837 287.545 325.3 287.564 321.777C287.583 318.307 287.528 314.837 287.401 311.37C287.144 304.355 286.633 297.352 285.809 290.38C285.09 284.291 284.519 278.03 282.696 272.148C281.052 266.844 277.972 260.775 272.593 258.445C265.254 255.265 258.084 261.074 253.281 265.98C253.154 266.11 252.934 265.931 253.062 265.802Z" fill="#263238"/>
<path d="M230.764 275.597V275.607C230.797 276.503 230.849 277.388 230.909 278.254C232.904 276.851 235.412 275.576 238.072 275.287C244.275 274.628 243.88 279.344 239.736 279.542C235.782 279.731 233.132 280.401 231.224 281.247C232.236 289.438 234.489 296.024 234.827 296.113C235.165 296.192 242.749 295.649 251.218 294.041C249.676 290.754 246.164 286.386 247.952 286.034C249.787 285.669 251.701 289.569 252.693 293.742C256.778 292.917 260.985 291.837 264.614 290.461C261.885 288.099 257.668 285.159 259.279 283.908C260.89 282.647 264.238 286.793 266.244 289.801C268.237 288.952 270.006 287.998 271.396 286.929C267.72 281.529 258.759 280.429 259.929 276.525C261.123 272.544 269.482 278.036 273.245 285.265C277.667 280.681 278.961 274.193 278.496 268.649C274.646 268.202 267.237 269.015 267.774 266.249C268.279 263.618 273.663 264.011 278.047 265.625C277.507 263.111 276.593 260.968 275.474 259.532C271.415 254.322 259.033 260.947 259.033 260.947C259.033 260.947 260.358 248.5 255.634 246.348C252.911 245.113 248.109 245.122 243.289 247.959C245.992 248.183 249.261 249.039 250.572 250.915C252.252 253.308 249.603 254.608 247.917 253.505C246.734 252.721 244.516 250.259 240.519 249.934C238.967 251.221 237.45 252.859 236.048 254.883C235.592 255.525 235.166 256.205 234.743 256.941C238.638 255.323 243.792 254.494 249.24 257.203C254.609 259.869 251.61 265.444 246.99 263.278C242.419 261.138 237.972 258.982 233.075 260.209C231.277 264.353 230.681 269.26 230.721 274.09C232.558 272.761 235.27 271.171 238.674 270.273C244.011 268.872 245.624 272.061 239.762 272.656C236.036 273.034 232.902 274.397 230.764 275.597ZM237.257 267.028C236.888 265.298 240.674 264.803 241.305 266.205C241.829 267.402 237.617 268.758 237.257 267.028ZM269.643 276.605C269.999 275.662 272.533 276.734 272.302 277.91C271.986 279.481 269.296 277.547 269.643 276.605ZM251.763 282.672C253.609 281.935 256.492 286.523 254.479 287.574C252.466 288.625 250.255 283.278 251.763 282.672Z" fill="#FFC727"/>
<path d="M235.549 295.167C238.331 290.516 241.08 285.84 244.001 281.275C245.361 279.148 246.786 277.064 248.266 275.019C248.042 274.974 247.82 274.908 247.603 274.863C247.235 274.785 246.866 274.714 246.496 274.65C245.642 274.502 244.78 274.378 243.918 274.291C243.106 274.209 242.291 274.165 241.475 274.155C240.626 274.144 239.699 274.116 238.865 274.292C238.76 274.314 238.744 274.15 238.843 274.154C239.712 274.189 240.601 274.075 241.473 274.062C242.318 274.05 243.164 274.072 244.008 274.122C244.801 274.169 245.589 274.248 246.375 274.368C246.809 274.435 247.241 274.51 247.672 274.596C247.928 274.647 248.2 274.683 248.453 274.761C249.96 272.689 251.523 270.658 253.14 268.669C248.263 266.429 243.245 264.583 237.913 263.809C237.823 263.796 237.858 263.658 237.947 263.672C243.26 264.521 248.588 265.894 253.395 268.357C254.284 267.266 255.179 266.179 256.078 265.097C257.085 263.887 258.161 262.705 259.071 261.42C259.131 261.336 259.253 261.429 259.184 261.503C257.921 262.851 256.779 264.338 255.653 265.825C255.662 265.828 255.671 265.823 255.679 265.829C257.688 267.172 259.534 268.775 261.34 270.376C263.19 272.016 264.998 273.712 266.751 275.454C266.816 275.518 266.718 275.62 266.653 275.556C264.918 273.832 263.12 272.187 261.239 270.624C259.36 269.063 257.382 267.628 255.491 266.082C255.481 266.074 255.484 266.063 255.477 266.054C255.045 266.626 254.615 267.196 254.181 267.758C253.962 268.042 253.745 268.328 253.527 268.612C253.517 268.637 253.5 268.654 253.48 268.673C252.756 269.614 252.035 270.559 251.32 271.507C252.196 272.681 252.843 274.066 253.47 275.386C254.093 276.698 254.636 278.055 255.135 279.418C256.17 282.242 256.865 285.188 257.455 288.133C257.473 288.222 257.337 288.262 257.32 288.174C256.762 285.243 255.844 282.416 254.787 279.631C254.247 278.208 253.631 276.822 252.997 275.439C252.419 274.181 251.719 272.972 251.178 271.7C250.554 272.53 249.933 273.362 249.322 274.201C249.145 274.445 248.976 274.695 248.8 274.939C248.827 274.993 248.81 275.064 248.739 275.067C248.729 275.068 248.72 275.065 248.71 275.066C246.799 277.734 244.98 280.465 243.211 283.229C243.331 283.407 243.383 283.626 243.453 283.834C243.567 284.169 243.673 284.507 243.772 284.847C243.97 285.529 244.131 286.219 244.257 286.918C244.376 287.574 244.469 288.235 244.534 288.898C244.606 289.629 244.537 290.437 244.7 291.149C244.726 291.261 244.545 291.268 244.564 291.152C244.673 290.488 244.502 289.714 244.409 289.052C244.308 288.333 244.174 287.62 244.008 286.914C243.858 286.275 243.686 285.638 243.496 285.01C243.401 284.695 243.299 284.382 243.192 284.071C243.135 283.907 243.054 283.733 242.999 283.557C242.171 284.856 241.35 286.159 240.543 287.471C238.942 290.072 237.355 292.681 235.757 295.283C235.679 295.414 235.47 295.3 235.549 295.167Z" fill="#263238"/>
<path d="M278.451 330.883C278.523 328.247 278.941 325.593 279.225 322.972C279.51 320.338 279.809 317.707 280.091 315.073C280.633 309.997 280.935 304.808 282.129 299.832C283.156 295.551 285.041 291.451 288.329 288.434C289.992 286.908 292.107 285.656 294.41 285.532C296.765 285.404 298.936 286.22 300.867 287.523C303.066 289.007 304.761 291.111 306.297 293.244C307.88 295.443 309.28 297.716 310.531 300.119C310.579 300.21 310.436 300.266 310.387 300.18C308.077 296.175 304.892 292.72 301.227 289.916C299.539 288.625 297.603 287.656 295.453 287.51C293.321 287.364 291.421 288.382 289.855 289.743C286.781 292.415 285.002 296.345 283.942 300.205C282.686 304.781 282.28 309.594 281.653 314.285C281.28 317.073 280.925 319.864 280.556 322.653C280.19 325.428 279.959 328.273 279.369 331.009C279.241 331.598 278.435 331.475 278.451 330.883Z" fill="#263238"/>
<path d="M291.418 310.414C292.178 311.476 293.149 312.441 294.285 313.342C293.851 310.77 293.327 306.199 294.626 303.767C296.642 299.988 299.029 301.873 297.828 305.158C296.095 309.848 295.869 313.016 295.886 314.472C298.442 316.154 301.526 317.513 304.642 318.603C304.366 317.339 304.192 315.769 304.354 314.096C304.756 310.057 307.85 310.132 307.046 314.335C306.693 316.152 306.618 317.9 306.622 319.27C313.678 321.482 320.267 322.347 320.267 322.347C322.893 318.848 324.737 315.486 325.915 312.293C322.627 311.469 315.969 311.282 316.112 308.933C316.301 305.771 322.75 308.205 326.523 310.499C327.451 307.471 327.777 304.615 327.662 301.992C326.189 301.509 323.465 300.91 318.594 300.49C311.822 299.905 312.156 296.066 317.063 296.155C320.683 296.221 325.261 298.437 327.432 299.589C326.02 290.38 318.994 284.478 313.362 284.253C303.893 283.87 307.3 295.655 307.3 295.655C307.3 295.655 300.885 291.14 294.829 291.259C288.785 291.387 284.943 301.405 291.418 310.414ZM316.71 293.379C316.499 292.054 320.725 291.735 320.945 293.436C321.198 295.345 316.924 294.728 316.71 293.379ZM323.509 307.203C323.422 306.336 325.246 306.185 325.659 307.277C325.935 307.987 323.582 308.059 323.509 307.203ZM300.771 308.01C302.199 308.211 303.009 313.314 300.554 313.214C298.679 313.134 299.561 307.837 300.771 308.01Z" fill="#FFC727"/>
<path d="M302.745 313.677C302.98 313.042 303.191 312.396 303.391 311.748C303.207 312.404 303.043 313.063 302.921 313.725C302.896 313.855 302.698 313.803 302.745 313.677Z" fill="#263238"/>
<path d="M305.246 305.475C305.69 304.167 306.188 302.875 306.696 301.59C306.967 300.904 307.249 300.224 307.549 299.55C307.802 298.982 308.013 298.338 308.393 297.842C308.103 297.3 307.831 296.75 307.627 296.19C307.607 296.136 307.676 296.095 307.714 296.139C308.437 296.983 308.995 298.043 309.559 299C309.822 299.447 310.072 299.901 310.33 300.35C310.861 300.382 311.402 300.502 311.923 300.598C312.491 300.702 313.057 300.817 313.62 300.944C314.183 301.071 314.746 301.201 315.307 301.336C315.864 301.469 316.42 301.655 316.986 301.741C317.117 301.761 317.063 301.968 316.938 301.917C316.378 301.691 315.756 301.584 315.166 301.456C314.622 301.338 314.078 301.242 313.527 301.163C312.977 301.084 312.425 301.016 311.872 300.961C311.458 300.92 311.037 300.898 310.62 300.859C310.846 301.256 311.08 301.649 311.3 302.05C311.334 302.113 311.366 302.178 311.4 302.241C311.855 302.203 312.312 302.321 312.76 302.401C313.25 302.489 313.737 302.581 314.223 302.689C315.211 302.908 316.195 303.141 317.17 303.413C319.219 303.985 321.243 304.639 323.265 305.3C323.377 305.337 323.306 305.508 323.194 305.469C321.189 304.784 319.14 304.236 317.073 303.771C316.104 303.553 315.136 303.33 314.164 303.128C313.677 303.027 313.191 302.92 312.705 302.817C312.33 302.738 311.936 302.693 311.574 302.567C312.616 304.492 313.598 306.448 314.499 308.443C316.462 312.788 318.116 317.265 319.8 321.723C319.842 321.834 319.67 321.906 319.631 321.795C318.057 317.339 316.069 313.051 313.99 308.812C313.612 308.041 313.222 307.276 312.84 306.507C312.809 306.663 312.77 306.82 312.74 306.978C312.643 307.505 312.549 308.032 312.46 308.56C312.283 309.616 312.102 310.672 311.945 311.731C311.626 313.874 311.108 316.138 311.182 318.312C311.187 318.449 310.979 318.441 311 318.312C311.17 317.263 311.17 316.168 311.236 315.107C311.305 313.999 311.387 312.891 311.515 311.788C311.639 310.725 311.775 309.662 311.951 308.605C312.039 308.077 312.132 307.549 312.229 307.023C312.3 306.639 312.316 306.206 312.527 305.877C311.972 304.764 311.422 303.649 310.861 302.54C310.335 301.499 309.802 300.461 309.261 299.428C309.033 298.992 308.784 298.55 308.541 298.105C308.403 298.653 308.123 299.181 307.913 299.7C307.671 300.298 307.426 300.894 307.181 301.491C306.638 302.812 306.133 304.147 305.628 305.483C304.913 307.377 304.121 309.317 303.531 311.289C304.108 309.355 304.597 307.385 305.246 305.475Z" fill="#263238"/>
<path d="M303.391 311.748C303.434 311.595 303.483 311.443 303.528 311.29C303.483 311.442 303.438 311.595 303.391 311.748Z" fill="#263238"/>
<path d="M262.617 325.757L263.284 339.853L264.997 376.183H302.481L304.194 339.853L304.861 325.757H262.617Z" fill="#37474F"/>
<path d="M262.617 325.757L263.284 339.853H304.194L304.861 325.757H262.617Z" fill="#263238"/>
<path d="M259.952 331.456H307.525V320.059H259.952V331.456Z" fill="#37474F"/>
<path d="M299.447 376.184H292.867V382.151H299.447V376.184Z" fill="#37474F"/>
<path d="M299.447 376.184H292.867V379.168H299.447V376.184Z" fill="#263238"/>
<path d="M274.605 376.184H268.031V382.151H274.605V376.184Z" fill="#37474F"/>
<path d="M274.605 376.184H268.031V379.168H274.605V376.184Z" fill="#263238"/>
<path d="M639.962 216.138H372.781V394.863H639.962V216.138Z" fill="#DBDBDB"/>
<path d="M638.021 218.318H374.723V392.683H638.021V218.318Z" fill="#263238"/>
<path d="M674.761 408.264H337.982V420.53H674.761V408.264Z" fill="#C7C7C7"/>
<path d="M337.982 408.264L372.781 394.862H639.962L674.761 408.264H337.982Z" fill="#DBDBDB"/>
<path d="M375.889 403.511L398.346 394.862H614.399L636.855 403.511H375.889Z" fill="#263238"/>
<path d="M623.14 231.565H389.602V379.435H623.14V231.565Z" fill="white"/>
<path d="M623.14 231.565H389.602V237.255H623.14V231.565Z" fill="#455A64"/>
<path d="M394.959 234.41C394.959 235.005 394.477 235.487 393.882 235.487C393.287 235.487 392.805 235.005 392.805 234.41C392.805 233.815 393.287 233.333 393.882 233.333C394.477 233.333 394.959 233.816 394.959 234.41Z" fill="#C7C7C7"/>
<path d="M399.355 234.41C399.355 235.005 398.873 235.487 398.278 235.487C397.683 235.487 397.201 235.005 397.201 234.41C397.201 233.815 397.683 233.333 398.278 233.333C398.873 233.333 399.355 233.816 399.355 234.41Z" fill="white"/>
<path d="M403.752 234.41C403.752 235.005 403.27 235.487 402.675 235.487C402.08 235.487 401.598 235.005 401.598 234.41C401.598 233.815 402.08 233.333 402.675 233.333C403.27 233.333 403.752 233.816 403.752 234.41Z" fill="#FFC727"/>
<path d="M623.14 237.255H618.994V379.435H623.14V237.255Z" fill="#DBDBDB"/>
<path d="M621.063 286.547C620.472 286.547 619.992 286.068 619.992 285.476V239.158C619.992 238.566 620.471 238.087 621.063 238.087C621.654 238.087 622.134 238.566 622.134 239.158V285.476C622.134 286.068 621.655 286.547 621.063 286.547Z" fill="#A6A6A6"/>
<path d="M572.487 368.714H440.256V360.157H572.488V368.714H572.487ZM440.756 368.214H571.988V360.657H440.756V368.214Z" fill="#FFC727"/>
<path d="M445.019 361.938H442.033V366.933H445.019V361.938Z" fill="#FFC727"/>
<path d="M449.14 361.938H446.154V366.933H449.14V361.938Z" fill="#FFC727"/>
<path d="M453.263 361.938H450.277V366.933H453.263V361.938Z" fill="#FFC727"/>
<path d="M457.384 361.938H454.398V366.933H457.384V361.938Z" fill="#FFC727"/>
<path d="M461.506 361.938H458.52V366.933H461.506V361.938Z" fill="#FFC727"/>
<path d="M465.629 361.938H462.643V366.933H465.629V361.938Z" fill="#FFC727"/>
<path d="M469.75 361.938H466.764V366.933H469.75V361.938Z" fill="#FFC727"/>
<path d="M473.873 361.938H470.887V366.933H473.873V361.938Z" fill="#FFC727"/>
<path d="M477.994 361.938H475.008V366.933H477.994V361.938Z" fill="#FFC727"/>
<path d="M482.115 361.938H479.129V366.933H482.115V361.938Z" fill="#FFC727"/>
<path d="M486.236 361.938H483.25V366.933H486.236V361.938Z" fill="#FFC727"/>
<path d="M490.359 361.938H487.373V366.933H490.359V361.938Z" fill="#FFC727"/>
<path d="M550.363 294.376H468.57V347.259H550.363V294.376Z" fill="#FFC727"/>
<path d="M494.347 288.9H468.57V294.376H495.828L494.347 288.9Z" fill="#FFC727"/>
<g opacity="0.1">
<path d="M550.363 294.376H468.57V347.259H550.363V294.376Z" fill="black"/>
<path d="M494.347 288.9H468.57V294.376H495.828L494.347 288.9Z" fill="black"/>
</g>
<path d="M468.852 309.599L519.6 325.552L540.079 260.407L502.399 248.562L485.429 256.867L468.852 309.599Z" fill="#EBEBEB"/>
<path d="M502.398 248.562L485.428 256.867L498.496 260.975L502.398 248.562Z" fill="#DBDBDB"/>
<path d="M531.705 269.791L503.488 260.921L502.962 262.594L531.179 271.464L531.705 269.791Z" fill="#DBDBDB"/>
<path d="M530.377 274.013L502.16 265.143L501.634 266.816L529.851 275.686L530.377 274.013Z" fill="#DBDBDB"/>
<path d="M529.052 278.234L500.836 269.364L500.31 271.037L528.526 279.907L529.052 278.234Z" fill="#DBDBDB"/>
<path d="M527.722 282.458L486.381 269.462L485.855 271.135L527.196 284.131L527.722 282.458Z" fill="#DBDBDB"/>
<path d="M526.394 286.68L485.053 273.684L484.527 275.357L525.868 288.354L526.394 286.68Z" fill="#DBDBDB"/>
<path d="M525.068 290.901L483.727 277.905L483.201 279.579L524.542 292.575L525.068 290.901Z" fill="#DBDBDB"/>
<path d="M523.74 295.124L482.398 282.128L481.872 283.801L523.214 296.797L523.74 295.124Z" fill="#DBDBDB"/>
<path d="M522.414 299.347L481.072 286.351L480.546 288.024L521.888 301.02L522.414 299.347Z" fill="#DBDBDB"/>
<path d="M521.086 303.569L479.744 290.573L479.218 292.246L520.56 305.242L521.086 303.569Z" fill="#DBDBDB"/>
<path d="M519.758 307.792L478.416 294.795L477.89 296.469L519.232 309.465L519.758 307.792Z" fill="#DBDBDB"/>
<path d="M518.43 312.015L477.088 299.019L476.562 300.692L517.903 313.688L518.43 312.015Z" fill="#DBDBDB"/>
<path d="M517.103 316.237L475.762 303.241L475.236 304.914L516.577 317.91L517.103 316.237Z" fill="#DBDBDB"/>
<path d="M550.172 347.259H468.379L462.752 298.764H544.545L550.172 347.259Z" fill="#FFC727"/>
<path d="M487.947 293.742H462.17L462.753 298.764H490.011L487.947 293.742Z" fill="#FFC727"/>
<path d="M355.288 164.703C351.602 144.927 347.921 125.396 344.242 106.051C319.697 108.96 295.313 121.798 270.717 121.56C274.403 141.336 278.084 160.866 281.763 180.212C306.308 177.304 330.692 164.465 355.288 164.703Z" fill="#DBDBDB"/>
<path d="M282.65 126.248C284.695 136.969 286.739 147.635 288.782 158.257C289.412 158.137 290.041 158.012 290.67 157.883C288.627 147.289 286.584 136.655 284.54 125.97C283.91 126.068 283.28 126.161 282.65 126.248Z" fill="#C7C7C7"/>
<path d="M287.42 125.48C289.463 136.115 291.506 146.705 293.548 157.26C294.177 157.117 294.806 156.971 295.435 156.82C293.393 146.289 291.351 135.725 289.308 125.119C288.679 125.244 288.05 125.365 287.42 125.48Z" fill="#C7C7C7"/>
<path d="M292.186 124.514C294.228 135.079 296.27 145.607 298.311 156.108C298.94 155.947 299.569 155.784 300.198 155.617C298.157 145.133 296.116 134.625 294.074 124.084C293.445 124.232 292.815 124.375 292.186 124.514Z" fill="#C7C7C7"/>
<path d="M296.949 123.387C299.94 138.785 302.93 154.122 305.919 169.43C306.548 169.251 307.176 169.071 307.805 168.89C304.816 153.594 301.826 138.276 298.836 122.904C298.206 123.068 297.578 123.229 296.949 123.387Z" fill="#C7C7C7"/>
<path d="M301.711 122.136C304.701 137.474 307.69 152.77 310.679 168.054C311.308 167.87 311.936 167.686 312.565 167.501C309.576 152.219 306.587 136.934 303.598 121.614C302.968 121.79 302.34 121.964 301.711 122.136Z" fill="#C7C7C7"/>
<path d="M306.471 120.799C309.46 136.098 312.449 151.374 315.438 166.657C316.067 166.473 316.695 166.289 317.324 166.106C314.335 150.817 311.346 135.544 308.357 120.254C307.728 120.436 307.1 120.618 306.471 120.799Z" fill="#C7C7C7"/>
<path d="M311.229 119.413C314.218 134.695 317.206 149.972 320.195 165.276C320.824 165.096 321.453 164.918 322.082 164.741C319.092 149.424 316.103 134.14 313.115 118.859C312.486 119.044 311.858 119.228 311.229 119.413Z" fill="#C7C7C7"/>
<path d="M315.988 118.016C318.977 133.303 321.966 148.603 324.956 163.948C325.585 163.778 326.214 163.61 326.842 163.445C323.852 148.078 320.862 132.763 317.873 117.468C317.245 117.65 316.617 117.833 315.988 118.016Z" fill="#C7C7C7"/>
<path d="M320.748 116.647C323.737 131.96 326.727 147.304 329.718 162.713C330.347 162.557 330.976 162.405 331.605 162.257C328.613 146.818 325.623 131.45 322.634 116.121C322.005 116.293 321.376 116.469 320.748 116.647Z" fill="#C7C7C7"/>
<path d="M325.508 115.341C328.498 130.702 331.489 146.112 334.482 161.605C335.111 161.469 335.741 161.337 336.37 161.21C333.377 145.678 330.386 130.235 327.395 114.85C326.766 115.011 326.137 115.174 325.508 115.341Z" fill="#C7C7C7"/>
<path d="M330.27 114.137C333.261 129.567 336.254 145.065 339.248 160.664C339.878 160.552 340.507 160.446 341.137 160.346C338.142 144.699 335.149 129.16 332.157 113.697C331.528 113.84 330.899 113.987 330.27 114.137Z" fill="#C7C7C7"/>
<path d="M335.035 113.073C338.028 128.593 341.022 144.201 344.018 159.927C344.648 159.845 345.278 159.769 345.909 159.7C342.912 143.917 339.917 128.26 336.923 112.698C336.294 112.818 335.664 112.943 335.035 113.073Z" fill="#C7C7C7"/>
<path d="M346.057 142.138C345.827 159.425 345.597 176.706 345.367 193.983C373.02 220.886 400.672 175.814 428.325 201.834C428.496 189.001 428.667 176.17 428.837 163.342C423.627 153.767 418.417 146.747 413.208 141.324C390.824 137.39 368.44 162.954 346.057 142.138Z" fill="#EBEBEB"/>
<path d="M428.836 163.342C423.626 153.767 418.416 146.747 413.207 141.324C413.148 145.82 413.089 150.316 413.029 154.813C418.298 155.703 423.567 158.216 428.836 163.342Z" fill="#DBDBDB"/>
<path d="M414.472 188.959C414.6 179.258 414.728 169.558 414.856 159.859C414.146 159.687 413.436 159.546 412.726 159.435C412.598 169.145 412.47 178.856 412.342 188.568C413.051 188.668 413.762 188.798 414.472 188.959Z" fill="#DBDBDB"/>
<path d="M409.095 188.296C409.223 178.569 409.351 168.844 409.479 159.119C408.769 159.091 408.059 159.088 407.349 159.108C407.221 168.842 407.093 178.576 406.965 188.311C407.675 188.283 408.385 188.277 409.095 188.296Z" fill="#DBDBDB"/>
<path d="M403.718 188.589C403.846 178.842 403.974 169.097 404.102 159.351C403.392 159.436 402.682 159.54 401.972 159.661C401.844 169.413 401.716 179.165 401.588 188.918C402.298 188.791 403.008 188.681 403.718 188.589Z" fill="#DBDBDB"/>
<path d="M398.341 189.605C398.528 175.304 398.716 161.003 398.903 146.703C398.193 146.868 397.483 147.046 396.773 147.235C396.586 161.541 396.398 175.848 396.211 190.156C396.921 189.961 397.631 189.776 398.341 189.605Z" fill="#DBDBDB"/>
<path d="M392.966 191.109C393.153 176.795 393.341 162.481 393.528 148.167C392.818 148.384 392.108 148.608 391.398 148.837C391.211 163.154 391.023 177.471 390.836 191.788C391.545 191.557 392.256 191.33 392.966 191.109Z" fill="#DBDBDB"/>
<path d="M387.589 192.868C387.776 178.549 387.964 164.23 388.151 149.91C387.441 150.148 386.731 150.388 386.021 150.626C385.834 164.945 385.646 179.264 385.459 193.583C386.169 193.346 386.879 193.107 387.589 192.868Z" fill="#DBDBDB"/>
<path d="M382.212 194.648C382.399 180.332 382.587 166.016 382.774 151.699C382.064 151.928 381.354 152.152 380.644 152.369C380.457 166.682 380.269 180.995 380.082 195.308C380.792 195.095 381.502 194.875 382.212 194.648Z" fill="#DBDBDB"/>
<path d="M376.835 196.216C377.022 181.912 377.21 167.606 377.397 153.3C376.687 153.489 375.977 153.666 375.267 153.831C375.08 168.131 374.892 182.429 374.705 196.727C375.415 196.57 376.125 196.399 376.835 196.216Z" fill="#DBDBDB"/>
<path d="M371.458 197.337C371.645 183.052 371.833 168.766 372.02 154.479C371.31 154.597 370.6 154.697 369.89 154.778C369.703 169.056 369.515 183.332 369.328 197.607C370.037 197.536 370.747 197.446 371.458 197.337Z" fill="#DBDBDB"/>
<path d="M366.081 197.779C366.268 183.522 366.456 169.263 366.643 155.003C365.933 155.019 365.223 155.011 364.513 154.977C364.326 169.224 364.138 183.47 363.951 197.714C364.66 197.761 365.371 197.782 366.081 197.779Z" fill="#DBDBDB"/>
<path d="M360.704 197.307C360.891 183.086 361.079 168.863 361.266 154.637C360.556 154.52 359.846 154.373 359.136 154.194C358.949 168.403 358.761 182.61 358.574 196.815C359.284 197.011 359.994 197.174 360.704 197.307Z" fill="#DBDBDB"/>
<path d="M355.327 195.687C355.514 181.51 355.702 167.33 355.889 153.148C355.179 152.867 354.469 152.55 353.759 152.196C353.572 166.359 353.384 180.519 353.197 194.676C353.907 195.051 354.617 195.387 355.327 195.687Z" fill="#DBDBDB"/>
<path d="M435.274 182.033C424.965 198.396 414.525 214.992 403.947 231.835C436.39 218.827 430.764 273.543 459.867 266.477C466.543 256.068 473.221 245.656 479.904 235.235C482.36 231.578 484.82 227.915 487.283 224.245C455.918 235.13 463.182 177.298 435.274 182.033Z" fill="#DBDBDB"/>
<path d="M450.385 261.421C457.544 250.292 464.691 239.185 471.828 228.095C471.311 227.866 470.812 227.607 470.327 227.32C463.205 238.383 456.071 249.467 448.922 260.578C449.396 260.884 449.883 261.166 450.385 261.421Z" fill="#C7C7C7"/>
<path d="M446.849 259.015C453.989 247.921 461.11 236.859 468.216 225.825C467.776 225.459 467.35 225.069 466.937 224.657C459.838 235.68 452.721 246.734 445.582 257.825C445.993 258.242 446.415 258.639 446.849 259.015Z" fill="#C7C7C7"/>
<path d="M443.771 255.797C450.913 244.698 458.031 233.643 465.127 222.626C464.748 222.151 464.38 221.658 464.022 221.148C456.924 232.169 449.801 243.232 442.652 254.343C443.017 254.843 443.39 255.328 443.771 255.797Z" fill="#C7C7C7"/>
<path d="M441.033 251.979C448.213 240.816 455.361 229.709 462.482 218.651C462.149 218.096 461.823 217.527 461.504 216.947C454.372 228.025 447.21 239.156 440.014 250.347C440.349 250.899 440.688 251.444 441.033 251.979Z" fill="#C7C7C7"/>
<path d="M438.512 247.771C445.738 236.526 452.927 225.346 460.083 214.227C459.78 213.619 459.48 213.003 459.184 212.381C452.009 223.535 444.798 234.754 437.547 246.043C437.867 246.623 438.188 247.199 438.512 247.771Z" fill="#C7C7C7"/>
<path d="M436.09 243.387C443.385 232.02 450.636 220.729 457.848 209.509C457.559 208.876 457.271 208.24 456.982 207.605C449.742 218.875 442.459 230.221 435.131 241.647C435.452 242.225 435.771 242.805 436.09 243.387Z" fill="#C7C7C7"/>
<path d="M433.648 239.037C441.033 227.508 448.369 216.068 455.66 204.709C455.369 204.079 455.076 203.452 454.78 202.83C447.453 214.255 440.077 225.766 432.65 237.369C432.987 237.917 433.319 238.474 433.648 239.037Z" fill="#C7C7C7"/>
<path d="M431.069 234.932C438.567 223.203 446.01 211.573 453.4 200.035C453.092 199.436 452.778 198.845 452.458 198.266C445.022 209.885 437.531 221.601 429.982 233.42C430.352 233.911 430.714 234.415 431.069 234.932Z" fill="#C7C7C7"/>
<path d="M428.233 231.285C435.866 219.317 443.437 207.458 450.95 195.702C450.609 195.162 450.259 194.635 449.9 194.126C442.333 205.979 434.705 217.939 427.012 230.013C427.429 230.418 427.836 230.843 428.233 231.285Z" fill="#C7C7C7"/>
<path d="M425.02 228.306C432.809 216.059 440.531 203.932 448.188 191.92C447.798 191.466 447.396 191.033 446.982 190.621C439.261 202.746 431.474 214.989 423.617 227.358C424.099 227.65 424.566 227.967 425.02 228.306Z" fill="#C7C7C7"/>
<path d="M421.314 226.208C429.282 213.643 437.176 201.21 445 188.901C444.545 188.562 444.076 188.248 443.591 187.963C435.695 200.4 427.727 212.966 419.682 225.667C420.243 225.818 420.787 225.999 421.314 226.208Z" fill="#C7C7C7"/>
<path d="M416.992 225.202C425.161 212.28 433.249 199.501 441.262 186.857C440.727 186.661 440.175 186.495 439.603 186.363C431.51 199.15 423.338 212.078 415.084 225.152C415.74 225.134 416.376 225.151 416.992 225.202Z" fill="#C7C7C7"/>
<path d="M159.536 98.561C152.384 103.263 148.692 112.649 148.692 112.649C148.692 112.649 140.986 121.295 141.495 126.93C142.005 132.565 146.329 134.753 146.329 134.753L146.365 131.693C146.365 131.693 147.503 135.867 153.578 138.698C159.653 141.529 168.501 141.282 173.348 139.956C178.195 138.63 180.964 135.593 180.964 135.593L178.443 139.536C178.443 139.536 184.685 140.583 189.712 134.743C194.739 128.903 186.099 117.263 185.62 115.041C185.141 112.818 187.037 97.707 170.864 97.08C170.864 97.08 164.46 95.324 159.536 98.561Z" fill="#C7C7C7"/>
<path d="M144.143 133.906C142.545 132.709 141.444 130.613 140.893 128.728C140.309 126.731 140.326 124.61 141.102 122.665C142.028 120.345 143.73 118.483 145.388 116.662C147.1 114.781 148.956 113.021 150.633 111.112C150.725 111.007 150.566 110.872 150.462 110.949C148.717 112.243 147.113 113.792 145.532 115.278C144.026 116.694 142.529 118.171 141.387 119.905C140.35 121.479 139.563 123.324 139.549 125.237C139.538 126.815 139.945 128.352 140.665 129.751C141.523 131.42 142.803 132.641 144.034 134.019C144.112 134.107 144.235 133.975 144.143 133.906Z" fill="#C7C7C7"/>
<path d="M192.417 128.226C191.659 122.367 187.443 117.887 185.422 112.5C184.328 109.583 183.657 106.464 182.003 103.788C181.958 103.716 181.834 103.792 181.876 103.866C183.196 106.24 183.703 108.876 184.484 111.448C185.277 114.062 186.533 116.456 187.821 118.852C190.162 123.207 192.98 128.362 191.205 133.423C190.386 135.76 188.425 138.131 185.808 138.378C185.707 138.387 185.733 138.554 185.834 138.534C187.994 138.11 189.792 136.945 191.013 135.095C192.355 133.062 192.727 130.619 192.417 128.226Z" fill="#C7C7C7"/>
<path d="M192.343 129.748C192.898 127.709 192.913 125.526 192.186 123.526C191.464 121.54 190.028 119.92 188.562 118.442C186.871 116.738 185.06 115.082 184.238 112.765C184.203 112.668 184.061 112.734 184.093 112.83C185.371 116.636 188.798 118.989 190.751 122.371C192.984 126.237 192.013 131.008 189.254 134.345C187.556 136.398 185.297 137.913 182.866 138.965C182.824 138.983 182.853 139.047 182.895 139.03C187.089 137.353 191.106 134.29 192.343 129.748Z" fill="#C7C7C7"/>
<path d="M230.845 440.581C228.622 441.298 165.255 440.477 162.865 438.912C161.946 438.333 161.528 429.093 161.342 417.914C161.341 417.797 161.34 417.681 161.34 417.564C161.297 415.261 161.267 412.888 161.263 410.483C161.262 410.152 161.261 409.821 161.251 409.491C161.162 393.357 161.418 376.618 161.418 376.618L203.807 377.042L202.532 409.607L202.483 410.897L202.227 417.638L202.202 418.332C202.202 418.332 226.316 429.495 228.766 431.493C231.195 433.481 233.068 439.873 230.845 440.581Z" fill="#D3766A"/>
<path d="M211.805 422.664C211.64 422.616 211.553 422.567 211.543 422.519C211.543 422.519 211.64 422.567 211.805 422.664Z" fill="#FFC727"/>
<path d="M230.841 440.578C228.621 441.295 165.255 440.481 162.86 438.911C162.046 438.397 161.619 431.04 161.406 421.559C173.019 423.982 218.016 433.085 219.247 429.236C219.732 427.724 215.883 425.107 213.45 423.633C220.1 426.803 227.467 430.428 228.766 431.494C231.19 433.482 233.07 439.87 230.841 440.578Z" fill="#263238"/>
<path d="M148.41 194.084C148.41 194.084 157.924 301.159 159.475 309.331C159.834 311.192 160.057 321.312 160.202 334.321C160.532 362.704 160.335 413.897 160.335 413.897H205.003C205.003 413.897 203.677 325.2 201.7 308.876C199.722 292.543 187.082 194.085 187.082 194.085H148.41V194.084Z" fill="#263238"/>
<path d="M202.986 406.113C196.016 405.968 198.019 405.911 191.048 405.844C187.637 405.811 165.22 405.616 162.033 406.144C161.963 406.156 161.963 406.274 162.033 406.286C165.22 406.814 187.637 406.619 191.048 406.586C198.019 406.519 196.017 406.462 202.986 406.317C203.117 406.314 203.117 406.116 202.986 406.113Z" fill="#37474F"/>
<path d="M168.824 355.409C168.775 348.931 168.726 342.452 168.679 335.973C168.634 329.698 168.642 323.417 168.344 317.148C167.74 304.454 165.164 291.974 163.333 279.424C161.501 266.867 159.973 254.266 158.59 241.652C157.038 227.501 155.667 213.329 154.212 199.168C154.202 199.072 154.052 199.074 154.061 199.172C156.165 224.458 158.514 249.737 162.015 274.874C162.886 281.126 163.84 287.365 164.87 293.593C165.912 299.897 166.949 306.204 167.446 312.579C167.933 318.819 168.012 325.08 168.076 331.336C168.143 337.811 168.206 344.285 168.269 350.759C168.408 365.141 168.548 387.277 168.687 401.659C168.69 401.937 169.121 401.926 169.119 401.648C169.019 388.818 168.921 368.236 168.824 355.409Z" fill="#37474F"/>
<path d="M138.994 194.084C138.994 194.084 157.925 301.159 159.476 309.331C159.835 311.192 160.058 321.312 160.203 334.321L160.213 334.36L181.5 194.084H138.994Z" fill="#37474F"/>
<path d="M125.212 444.183C122.905 443.819 66.7403 414.467 65.3143 411.991C64.7563 411.06 68.5553 402.626 73.4393 392.568C73.4913 392.463 73.5433 392.359 73.5953 392.254C74.5973 390.179 94.6533 356.358 94.6533 356.358L129.196 376.64L110.042 410.786L109.707 411.394C109.707 411.394 126.18 432.245 127.463 435.134C128.731 438.007 127.516 444.556 125.212 444.183Z" fill="#D3766A"/>
<path d="M125.21 444.183C122.901 443.823 66.7426 414.469 65.3146 411.987C64.8366 411.197 67.5376 404.919 71.3786 396.85C79.4276 402.944 118.297 432.131 121.137 429.098C121.733 428.455 121.286 426.942 120.496 425.317C123.904 429.819 126.94 433.954 127.465 435.132C128.73 438.007 127.516 444.552 125.21 444.183Z" fill="#263238"/>
<path d="M115.011 409.538L74.0801 384.245C74.0801 384.245 121.43 316.49 121.656 310.471C121.992 301.522 126.283 264.591 129.886 234.691C129.886 234.691 123.054 218.502 135.841 194.048H187.125C187.125 194.048 183.687 217.318 177.804 232.074C177.804 232.074 173.323 233.464 166.402 237.279C166.402 237.279 161.297 303.947 161.106 312.263C160.727 328.7 115.011 409.538 115.011 409.538Z" fill="#263238"/>
<path d="M117.514 400.09C111.608 396.386 113.355 397.366 107.408 393.729C104.498 391.949 85.3634 380.27 82.3574 379.086C82.2914 379.06 82.2304 379.162 82.2844 379.208C84.7484 381.298 104.083 392.641 107.027 394.365C113.043 397.887 111.354 396.811 117.409 400.265C117.523 400.329 117.625 400.16 117.514 400.09Z" fill="#37474F"/>
<path d="M179.749 231.061C175.127 232.652 170.666 234.91 166.401 237.278C166.234 237.371 166.344 237.631 166.525 237.553C171.022 235.622 175.607 233.774 179.992 231.598C180.336 231.427 180.103 230.939 179.749 231.061Z" fill="#37474F"/>
<path d="M173.463 223.634C173.909 220.954 174.267 218.266 174.497 215.559C174.927 210.506 174.948 205.453 174.334 200.417C174.314 200.251 174.075 200.264 174.075 200.431C174.081 207.426 173.898 214.407 172.852 221.335C172.349 224.664 170.672 229.677 174.154 230.189C177.701 230.711 179.995 222.315 180.428 220.018C181.636 213.609 181.684 206.69 181.178 200.206C181.166 200.05 180.893 200.016 180.894 200.184C180.93 205.522 180.59 210.219 180.14 215.208C179.931 217.524 178.068 230.325 174.051 229.391C173.379 229.235 173.035 228.573 172.93 227.559C172.802 226.341 173.261 224.846 173.463 223.634Z" fill="#37474F"/>
<path d="M174.158 229.736C173.795 230.595 173.503 231.49 173.255 232.389C173.062 233.087 172.8 233.842 172.88 234.57C172.895 234.711 173.083 234.725 173.158 234.629C173.629 234.031 173.828 233.215 174.091 232.507C174.396 231.686 174.72 230.871 175.002 230.043C175.189 229.493 174.382 229.206 174.158 229.736Z" fill="#37474F"/>
<path d="M141.864 197.275C140.287 199.947 139.04 202.801 138.018 205.723C136.99 208.644 136.23 211.657 135.739 214.707C135.445 216.225 135.345 217.771 135.178 219.304C135.137 220.847 134.991 222.387 135.081 223.929C135.078 227.019 135.571 230.076 136.152 233.097L136.162 233.15L136.158 233.197C134.974 246.129 133.736 259.058 132.474 271.984C131.236 284.913 129.97 297.839 128.654 310.758L128.532 311.969L128.471 312.575C128.446 312.78 128.457 312.961 128.342 313.231C127.972 314.118 127.572 314.746 127.164 315.479C126.347 316.892 125.498 318.276 124.649 319.662C122.946 322.429 121.214 325.176 119.476 327.919C116 333.404 112.45 338.84 108.911 344.283C101.841 355.173 94.6397 365.978 87.4297 376.776L108.354 343.924L118.751 327.461C120.477 324.714 122.198 321.963 123.886 319.195C124.727 317.81 125.57 316.424 126.373 315.024C126.758 314.343 127.201 313.576 127.459 312.967C127.53 312.868 127.536 312.634 127.557 312.437L127.616 311.831L127.733 310.62C128.965 297.698 130.248 284.783 131.558 271.872C132.845 258.957 134.155 246.045 135.52 233.137L135.526 233.236C134.97 230.166 134.509 227.064 134.546 223.939C134.475 222.379 134.631 220.823 134.711 219.268C134.91 217.723 135.043 216.168 135.37 214.644C135.926 211.582 136.751 208.57 137.842 205.66C138.926 202.75 140.234 199.915 141.864 197.275Z" fill="#37474F"/>
<path d="M186.157 184.679L187.71 196.773L135.303 195.119C135.303 195.119 137.944 156.488 153.049 141.923C160.604 134.638 168.903 135.709 173.894 141.412C175.157 142.855 190.014 162.273 191.223 170.469C192.272 177.701 186.157 184.679 186.157 184.679Z" fill="#455A64"/>
<path d="M178.174 180.602C175.662 180.839 173.139 181.171 170.68 181.819C169.457 182.141 168.255 182.524 167.054 182.937C166.455 183.143 165.854 183.325 165.249 183.505C164.628 183.69 163.962 183.86 163.317 183.87C163.259 183.871 163.258 183.967 163.316 183.97C163.942 184.002 164.542 184.03 165.169 183.968C165.765 183.91 166.359 183.78 166.942 183.633C168.185 183.319 169.415 182.942 170.656 182.614C173.159 181.953 175.66 181.292 178.199 180.833C178.317 180.812 178.292 180.591 178.174 180.602Z" fill="#263238"/>
<path d="M184.334 183.2C182.278 182.926 180.178 182.757 178.105 182.744C177.062 182.737 176.027 182.798 174.987 182.889C174.491 182.933 173.995 182.986 173.5 183.046C172.955 183.112 172.417 183.26 171.872 183.317C171.815 183.323 171.813 183.421 171.871 183.417C172.386 183.38 172.909 183.438 173.426 183.435C173.945 183.432 174.464 183.424 174.983 183.419C176.023 183.412 177.061 183.417 178.1 183.398C180.181 183.361 182.252 183.347 184.332 183.39C184.445 183.392 184.44 183.214 184.334 183.2Z" fill="#263238"/>
<path d="M158.311 195.28C158.421 195.49 158.541 195.68 158.661 195.86L159.531 195.88C159.171 195.64 158.771 195.43 158.311 195.28ZM173.171 141.81C172.581 141.32 171.951 140.89 171.181 140.63C171.551 141.37 172.081 141.91 172.661 142.42C173.241 142.9 173.861 143.34 174.651 143.59C174.281 142.86 173.741 142.31 173.171 141.81ZM141.131 171.9C140.651 172.49 140.211 173.12 139.951 173.89C140.691 173.52 141.231 172.99 141.741 172.43C142.221 171.83 142.661 171.21 142.921 170.42C142.191 170.79 141.631 171.33 141.131 171.9ZM152.551 144.33C152.071 144.93 151.631 145.55 151.381 146.33C152.111 145.95 152.661 145.42 153.161 144.86C153.651 144.27 154.081 143.64 154.351 142.86C153.611 143.24 153.071 143.77 152.551 144.33ZM169.421 168.8C168.941 169.39 168.501 170.02 168.231 170.8C168.971 170.42 169.521 169.89 170.031 169.33C170.511 168.74 170.951 168.11 171.201 167.33C170.481 167.71 169.921 168.24 169.421 168.8ZM156.251 177.47C155.491 177.55 154.741 177.68 154.011 178.05C154.791 178.3 155.551 178.31 156.311 178.27C157.071 178.2 157.831 178.07 158.551 177.69C157.781 177.44 157.011 177.43 156.251 177.47ZM187.231 171.35C186.481 171.43 185.721 171.56 184.991 171.93C185.771 172.19 186.541 172.19 187.291 172.15C188.051 172.08 188.801 171.95 189.531 171.58C188.751 171.32 187.991 171.31 187.231 171.35ZM167.751 152.38C166.991 152.46 166.241 152.58 165.511 152.97C166.291 153.22 167.051 153.23 167.811 153.18C168.561 153.11 169.321 152.97 170.051 152.61C169.271 152.36 168.501 152.34 167.751 152.38ZM176.811 186.91C176.741 186.15 176.611 185.39 176.241 184.67C175.991 185.44 175.981 186.21 176.011 186.97C176.101 187.73 176.231 188.48 176.601 189.21C176.851 188.43 176.861 187.67 176.811 186.91ZM143.391 188.65C143.301 187.9 143.171 187.14 142.801 186.41C142.551 187.19 142.541 187.96 142.591 188.71C142.661 189.47 142.791 190.22 143.161 190.95C143.411 190.17 143.421 189.41 143.391 188.65ZM184.041 157.09C184.021 156.9 184.001 156.71 183.971 156.52C183.971 156.51 183.971 156.5 183.971 156.5C183.781 156.01 183.591 155.53 183.411 155.05C183.211 155.77 183.211 156.45 183.241 157.15C183.321 157.9 183.451 158.65 183.821 159.39C184.071 158.6 184.081 157.84 184.041 157.09ZM154.601 161.69C154.531 160.92 154.401 160.18 154.021 159.44C153.771 160.23 153.761 160.98 153.801 161.75C153.881 162.5 154.011 163.25 154.381 163.99C154.631 163.2 154.641 162.44 154.601 161.69Z" fill="white"/>
<path d="M161.859 141.116C162.132 142.141 167.263 148.691 171.975 148.326C173.509 148.204 173.219 139.8 173.219 139.8L173.34 139.175L175.019 130.421L164.606 124.179L163.104 123.357C163.104 123.357 162.802 125.782 162.457 128.806C162.44 128.946 162.423 129.086 162.408 129.236C162.384 129.407 162.359 129.567 162.344 129.727C162.287 130.178 162.23 130.639 162.183 131.099C162.146 131.449 162.108 131.789 162.083 132.158C162.048 132.528 162.021 132.887 161.986 133.257C161.719 136.909 161.75 140.681 161.859 141.116Z" fill="#D3766A"/>
<path d="M175.024 130.417L173.406 138.83C167.061 136.836 163.779 132.278 162.354 129.658L162.456 128.806C162.806 125.786 163.107 123.362 163.107 123.362L164.606 124.175L175.024 130.417Z" fill="#263238"/>
<path d="M186.942 118.126C187.256 133.766 177.924 135.72 174.551 135.784C171.489 135.842 161.057 135.651 159.129 120.127C157.201 104.603 164.373 99.513 171.369 99.009C178.363 98.507 186.628 102.486 186.942 118.126Z" fill="#D3766A"/>
<path d="M184.574 115.741C184.209 115.685 183.881 115.573 183.525 115.481C183.124 115.377 182.793 115.335 182.506 115.012C182.352 114.839 182.376 114.499 182.531 114.333C182.891 113.947 183.414 113.953 183.902 114.059C184.432 114.174 184.811 114.398 185.149 114.82C185.476 115.229 185.056 115.814 184.574 115.741Z" fill="#C7C7C7"/>
<path d="M173.973 115.373C174.341 115.343 174.676 115.254 175.037 115.187C175.445 115.111 175.777 115.093 176.086 114.79C176.252 114.628 176.251 114.287 176.109 114.111C175.778 113.701 175.256 113.67 174.761 113.741C174.225 113.818 173.831 114.015 173.464 114.413C173.109 114.8 173.487 115.412 173.973 115.373Z" fill="#C7C7C7"/>
<path d="M176.133 118.258C176.125 118.217 176.049 118.307 176.05 118.351C176.071 119.417 175.916 120.64 174.948 120.983C174.918 120.994 174.921 121.047 174.956 121.043C176.134 120.891 176.324 119.264 176.133 118.258Z" fill="#263238"/>
<path d="M175.196 117.134C173.484 116.984 173.31 120.418 174.895 120.557C176.456 120.695 176.63 117.26 175.196 117.134Z" fill="#263238"/>
<path d="M174.512 117.282C174.202 117.461 173.891 117.789 173.527 117.806C173.106 117.826 172.809 117.451 172.553 117.091C172.526 117.053 172.495 117.082 172.492 117.128C172.449 117.785 172.668 118.473 173.368 118.607C174.007 118.729 174.498 118.17 174.696 117.517C174.734 117.396 174.637 117.21 174.512 117.282Z" fill="#263238"/>
<path d="M182.101 118.424C182.111 118.384 182.182 118.477 182.179 118.521C182.104 119.584 182.197 120.814 183.146 121.205C183.175 121.217 183.17 121.27 183.135 121.264C181.967 121.053 181.86 119.419 182.101 118.424Z" fill="#263238"/>
<path d="M183.095 117.349C184.812 117.286 184.813 120.724 183.222 120.783C181.657 120.841 181.656 117.403 183.095 117.349Z" fill="#263238"/>
<path d="M183.812 117.575C184.084 117.757 184.353 118.088 184.677 118.11C185.053 118.134 185.331 117.762 185.571 117.406C185.596 117.369 185.623 117.398 185.624 117.443C185.642 118.1 185.425 118.785 184.794 118.911C184.218 119.026 183.795 118.462 183.638 117.808C183.61 117.687 183.703 117.502 183.812 117.575Z" fill="#263238"/>
<path d="M176.478 127.034C176.739 127.277 177.001 127.615 177.388 127.639C177.759 127.662 178.19 127.484 178.527 127.345C178.56 127.331 178.595 127.366 178.574 127.398C178.307 127.813 177.731 128.082 177.235 128.007C176.751 127.934 176.503 127.522 176.376 127.084C176.358 127.023 176.44 126.999 176.478 127.034Z" fill="#263238"/>
<path d="M176.082 124.179C176.697 125.062 177.571 125.525 178.505 125.672C178.922 125.74 179.357 125.739 179.782 125.685C179.866 125.68 179.949 125.668 180.025 125.648C180.101 125.636 180.169 125.625 180.252 125.605C180.373 125.583 180.436 125.48 180.453 125.365L180.452 125.358C180.45 125.32 180.448 125.289 180.438 125.252C180.438 125.252 180.438 125.252 180.438 125.244L180.433 125.153C180.426 124.35 180.305 123.134 180.305 123.134C180.603 123.27 182.121 123.889 182.082 123.471C181.751 120.011 181.383 116.164 180.323 112.791C180.294 112.678 180.12 112.711 180.134 112.825C180.32 116.163 181.092 119.445 181.333 122.795C180.85 122.631 180.061 122.324 179.641 122.347C179.528 122.384 179.918 124.694 179.892 125.054C179.892 125.054 179.893 125.069 179.887 125.092C178.546 125.312 177.516 124.942 176.176 124.084C176.097 124.026 176.017 124.099 176.082 124.179Z" fill="#263238"/>
<g opacity="0.2">
<path d="M177.34 111.694C178.009 111.66 178.679 111.659 179.339 111.533C180.007 111.406 180.64 111.149 181.312 111.037C182.585 110.824 183.826 111.024 185.13 111.265C185.24 111.285 185.233 111.357 185.122 111.34C183.785 111.136 182.434 111.04 181.115 111.408C180.009 111.716 179.005 111.963 177.85 111.969C175.305 111.983 172.81 112.323 170.69 113.845C170.677 113.855 170.66 113.835 170.673 113.825C172.581 112.387 174.987 111.812 177.34 111.694Z" fill="black"/>
<path d="M177.028 109.928C177.662 109.896 178.297 109.894 178.923 109.775C179.556 109.655 180.157 109.411 180.794 109.305C182.001 109.103 183.178 109.293 184.414 109.521C184.519 109.54 184.512 109.608 184.406 109.592C183.138 109.398 181.858 109.307 180.607 109.656C179.558 109.949 178.607 110.182 177.511 110.188C175.098 110.202 172.732 110.523 170.722 111.967C170.709 111.976 170.693 111.957 170.706 111.948C172.516 110.585 174.797 110.039 177.028 109.928Z" fill="black"/>
</g>
<path d="M159.795 122.095C162.421 122.185 162.787 116.671 162.787 116.671C162.787 116.671 168.107 116.459 169.534 108.735C169.534 108.735 169.572 112.3 167.451 115.161C167.451 115.161 176.787 113.765 180.4 105.747C180.4 105.747 178.996 109.812 177.58 111.297C177.58 111.297 181.467 110.031 183.248 106.755C183.248 106.755 185.084 111.215 186.402 112.412C186.402 112.412 188.378 90.938 167.741 98.761C167.741 98.761 159.122 99.079 156.027 106.76C152.931 114.441 159.795 122.095 159.795 122.095Z" fill="#C7C7C7"/>
<path d="M161.637 121.279C161.637 121.279 158.555 116.18 156.263 117.248C153.971 118.316 156.063 125.549 158.594 126.688C161.125 127.827 162.225 125.505 162.225 125.505L161.637 121.279Z" fill="#D3766A"/>
<path d="M156.914 119.306C156.872 119.299 156.861 119.357 156.896 119.374C158.667 120.233 159.513 121.984 160.067 123.778C159.57 123.069 158.858 122.651 157.913 123.235C157.863 123.266 157.904 123.343 157.956 123.336C158.712 123.226 159.241 123.391 159.705 124.021C160.033 124.468 160.241 125.018 160.464 125.523C160.538 125.692 160.838 125.624 160.788 125.433C160.784 125.419 160.78 125.404 160.776 125.39C160.977 123.072 159.39 119.706 156.914 119.306Z" fill="#263238"/>
<path d="M160.431 126.095C160.406 126.52 160.041 126.844 159.616 126.819C159.191 126.794 158.867 126.429 158.892 126.004C158.917 125.579 159.282 125.255 159.707 125.28C160.132 125.305 160.456 125.67 160.431 126.095Z" fill="white"/>
<path d="M194.204 207.933H264.993L245.982 155.7H175.193L194.204 207.933Z" fill="#FFC727"/>
<path d="M218.553 150.29H244.013L245.982 155.7H219.059L218.553 150.29Z" fill="#FFC727"/>
<g opacity="0.2">
<path d="M194.204 207.933H264.993L245.982 155.7H175.193L194.204 207.933Z" fill="black"/>
<path d="M218.553 150.29H244.013L245.982 155.7H219.059L218.553 150.29Z" fill="black"/>
</g>
<path d="M189.072 174.195L239.368 202.469L275.662 137.904L238.318 116.911L218.451 121.933L189.072 174.195Z" fill="#EBEBEB"/>
<path d="M238.318 116.911L218.451 121.933L231.402 129.214L238.318 116.911Z" fill="#DBDBDB"/>
<path d="M264.667 145.971L236.703 130.252L235.771 131.91L263.735 147.629L264.667 145.971Z" fill="#DBDBDB"/>
<path d="M262.316 150.156L234.352 134.437L233.42 136.095L261.384 151.814L262.316 150.156Z" fill="#DBDBDB"/>
<path d="M259.962 154.341L231.998 138.622L231.066 140.28L259.03 155.999L259.962 154.341Z" fill="#DBDBDB"/>
<path d="M257.61 158.525L216.639 135.494L215.707 137.152L256.678 160.183L257.61 158.525Z" fill="#DBDBDB"/>
<path d="M255.257 162.71L214.285 139.679L213.353 141.337L254.325 164.368L255.257 162.71Z" fill="#DBDBDB"/>
<path d="M252.905 166.894L211.934 143.863L211.002 145.521L251.973 168.552L252.905 166.894Z" fill="#DBDBDB"/>
<path d="M250.552 171.079L209.58 148.048L208.648 149.706L249.62 172.737L250.552 171.079Z" fill="#DBDBDB"/>
<path d="M248.2 175.264L207.229 152.233L206.297 153.891L247.268 176.922L248.2 175.264Z" fill="#DBDBDB"/>
<path d="M245.849 179.449L204.877 156.418L203.945 158.076L244.917 181.107L245.849 179.449Z" fill="#DBDBDB"/>
<path d="M243.495 183.633L202.523 160.602L201.591 162.26L242.563 185.291L243.495 183.633Z" fill="#DBDBDB"/>
<path d="M241.144 187.817L200.172 164.786L199.24 166.444L240.212 189.475L241.144 187.817Z" fill="#DBDBDB"/>
<path d="M238.792 192.003L197.82 168.972L196.888 170.63L237.86 193.661L238.792 192.003Z" fill="#DBDBDB"/>
<path d="M193.92 207.933H264.71L270.267 160.033H199.478L193.92 207.933Z" fill="#FFC727"/>
<path opacity="0.1" d="M193.92 207.933H264.71L270.267 160.033H199.478L193.92 207.933Z" fill="black"/>
<path d="M245.382 155.073H270.843L270.267 160.033H243.344L245.382 155.073Z" fill="#FFC727"/>
<path opacity="0.1" d="M245.382 155.073H270.843L270.267 160.033H243.344L245.382 155.073Z" fill="black"/>
<path d="M149.131 156.52C150.207 164.779 158.152 196.401 165.161 204.284C169.723 209.414 199.402 216.564 207.383 218.975C210.821 220.014 219.204 194.133 215.364 194.084C212.537 194.048 181.739 185.577 179.069 184.521C179.069 184.521 167.816 166.334 160.63 154.416C153.841 143.158 147.121 141.099 149.131 156.52Z" fill="#D3766A"/>
<path d="M226.381 200.352C225.014 199.337 225.537 198.612 228.563 198.529C231.624 198.437 243.637 200.681 244.061 196.413C244.495 192.13 227.443 189.234 222.416 189.76C217.386 190.274 209.439 192.897 209.439 192.897C212.642 194.128 220.127 197.856 226.381 200.352Z" fill="#D3766A"/>
<path d="M203.012 217.337C212.162 220.475 223.362 224.939 234.054 222.754C236.151 222.325 237.143 221.028 237.143 221.028C241.953 220.134 242.975 217.594 242.975 217.594C247.2 215.389 247.888 212.648 247.888 212.648C247.888 212.648 253.523 211.537 253.417 208.019C253.31 204.074 245.416 206.407 240.291 205.035C228.548 201.892 212.734 194.141 209.438 192.898L203.012 217.337Z" fill="#D3766A"/>
<path d="M225.671 210.39C229.145 211.246 232.536 212.178 236.108 212.559C240.027 212.977 243.869 212.722 247.786 212.56C247.908 212.555 247.928 212.724 247.808 212.748C240.763 214.164 232.294 213.195 225.629 210.547C225.469 210.483 225.497 210.347 225.671 210.39Z" fill="#263238"/>
<path d="M222.743 217.202C226.17 217.847 232.2 218.943 242.96 217.478C242.995 217.473 243.014 217.531 242.977 217.542C236.117 219.422 229.51 219.246 222.713 217.365C222.502 217.307 222.515 217.159 222.743 217.202Z" fill="#263238"/>
<path d="M221.239 220.892C227.108 221.768 230.919 221.577 237.117 221.005C237.152 221.002 237.167 221.062 237.129 221.07C230.154 222.46 227.466 222.173 221.181 221.09C220.965 221.052 221.01 220.858 221.239 220.892Z" fill="#263238"/>
<path d="M171.777 169.28L153.38 184.522C153.38 184.522 147.92 158.821 148.448 150.81C149.041 141.794 153.522 144.069 159.238 150.48C164.953 156.89 171.777 169.28 171.777 169.28Z" fill="#455A64"/>
<path d="M154.601 161.69C154.531 160.92 154.401 160.18 154.021 159.44C153.771 160.23 153.761 160.98 153.801 161.75C153.881 162.5 154.011 163.25 154.381 163.99C154.631 163.2 154.641 162.44 154.601 161.69ZM156.251 177.47C155.491 177.55 154.741 177.68 154.011 178.05C154.791 178.3 155.551 178.31 156.311 178.27C157.071 178.2 157.831 178.07 158.551 177.69C157.781 177.44 157.011 177.43 156.251 177.47ZM170.811 167.57C170.271 167.91 169.831 168.35 169.421 168.8C168.941 169.39 168.501 170.02 168.231 170.8C168.971 170.42 169.521 169.89 170.031 169.33C170.391 168.88 170.741 168.42 170.991 167.88V167.87C170.931 167.77 170.871 167.67 170.811 167.57ZM152.121 144.9C151.821 145.33 151.551 145.79 151.381 146.33C151.991 146.01 152.471 145.59 152.901 145.13C152.631 145.02 152.371 144.94 152.121 144.9Z" fill="white"/>
<path d="M153.26 179.111C153.815 178.485 159.473 173.645 160.726 172.62C161.979 171.594 167.059 167.354 168.441 166.403C168.502 166.361 168.574 166.436 168.52 166.49C167.347 167.678 162.236 171.969 160.981 173.04C159.727 174.111 154.021 178.775 153.323 179.202C153.265 179.238 153.223 179.154 153.26 179.111Z" fill="#263238"/>
<path d="M170.31 170.476C170.83 169.977 171.671 169.232 171.671 169.232C170.357 166.79 162.589 155.054 160.765 152.189C160.736 152.144 160.803 152.103 160.834 152.145C161.969 153.702 163.096 155.257 164.208 156.823C164.104 156.603 164.001 156.382 163.897 156.164C163.523 155.383 163.172 154.593 162.772 153.825C162.739 153.761 162.828 153.7 162.868 153.763C163.334 154.5 163.789 155.25 164.156 156.041C164.415 156.599 164.634 157.17 164.846 157.744C165.478 158.646 166.117 159.543 166.729 160.464C168.602 163.285 170.648 166.146 172.296 169.106C172.296 169.106 171.151 170.202 170.399 170.613C170.306 170.664 170.234 170.549 170.31 170.476Z" fill="#263238"/>
<path d="M155.159 183.047C154.613 183.595 154.042 184.113 153.483 184.645L153.303 184.816L153.225 184.562C152.291 181.535 151.577 178.453 151.024 175.34C150.749 173.784 150.5 172.223 150.329 170.651C150.133 169.083 149.995 167.507 149.924 165.927C150.264 167.473 150.555 169.022 150.855 170.569L151.747 175.207L153.537 184.48L153.279 184.397C153.903 183.946 154.519 183.482 155.159 183.047Z" fill="#263238"/>
<path d="M150.785 171.837C150.275 171.399 149.956 170.81 149.708 170.213C149.597 169.908 149.493 169.599 149.441 169.277C149.382 168.957 149.344 168.632 149.366 168.298C149.709 168.87 149.939 169.45 150.173 170.032C150.397 170.619 150.609 171.198 150.785 171.837Z" fill="#263238"/>
<path d="M173.301 139.584L170.969 146.837L161.573 138.536L159.293 141.575C159.293 141.575 168.87 155.142 168.879 154.498L171.354 148.214L175.849 152.145L174.755 141.553L173.301 139.584Z" fill="#455A64"/>
<path d="M175.605 146.879C175.366 145.136 175.174 143.374 174.854 141.644C174.843 141.582 174.744 141.562 174.734 141.636C174.503 143.352 175.453 150.011 175.56 151.617C175.554 151.611 175.546 151.605 175.54 151.6C175.352 151.429 171.388 148.155 171.355 148.214C170.793 149.224 168.975 153.801 168.857 154.214C167.342 152.059 160.959 143.59 159.203 141.575C159.153 141.517 159.061 141.574 159.102 141.643C160.468 143.936 168.732 155.122 168.835 155.084C168.911 155.135 171.175 149.495 171.418 148.442C172.101 149.168 176.132 152.895 176.127 152.633C176.09 150.871 175.845 148.623 175.605 146.879Z" fill="#263238"/>
</svg>
