<svg width="22" height="22" viewBox="0 0 22 22" fill="none" xmlns="http://www.w3.org/2000/svg">
<path d="M8.92833 1.53126L2.53683 5.46126C0.487724 6.72126 0.487724 9.54126 2.53683 10.8013L8.92833 14.7313C10.075 15.4413 11.9648 15.4413 13.1115 14.7313L19.4711 10.8013C21.5096 9.54126 21.5096 6.73126 19.4711 5.47126L13.1115 1.54126C11.9648 0.821257 10.075 0.821257 8.92833 1.53126Z" stroke="#385A64" stroke-width="2" stroke-linecap="round" stroke-linejoin="round"/>
<path d="M4.23523 12.0811L4.22461 16.7711C4.22461 18.0411 5.26509 19.4011 6.53914 19.8011L9.926 20.8611C10.5099 21.0411 11.4761 21.0411 12.0707 20.8611L15.4575 19.8011C16.7316 19.4011 17.7721 18.0411 17.7721 16.7711V12.1311" stroke="#385A64" stroke-width="2" stroke-linecap="round" stroke-linejoin="round"/>
<path d="M20.9785 14.001V8.00098" stroke="#385A64" stroke-width="2" stroke-linecap="round" stroke-linejoin="round"/>
</svg>
