<svg width="12" height="22" viewBox="0 0 12 22" fill="none" xmlns="http://www.w3.org/2000/svg">
<path d="M7 21V14.8462L5 12.7949M5 12.7949L6 6.64103M5 12.7949H3M5 12.7949L4 6.64103M6 6.64103C7 7.83761 8.6 9.71795 11 9.71795M6 6.64103L5.41635 6.04241C4.95532 5.56956 4.17431 5.66768 3.8768 6.25727C3.4647 7.07395 3 8.12144 3 8.69231C3 9.71795 3 10.7436 3 10.7436V12.7949M3 12.7949L1 21M11 8.17949V21M7.5 2.02564C7.5 2.59209 7.05228 3.05128 6.5 3.05128C5.94772 3.05128 5.5 2.59209 5.5 2.02564C5.5 1.4592 5.94772 1 6.5 1C7.05228 1 7.5 1.4592 7.5 2.02564Z" stroke="#385A64" stroke-width="2" stroke-linecap="round" stroke-linejoin="round"/>
</svg>
