<svg width="22" height="22" viewBox="0 0 22 22" fill="none" xmlns="http://www.w3.org/2000/svg">
<path d="M3.37697 15.6155C3.14317 18.5796 5.26689 21.0001 8.09202 21.0001H12.7584C15.9342 21.0001 18.1164 18.3026 17.5903 15.0001C17.035 11.5334 13.8592 8.69238 10.5177 8.69238C6.89378 8.69238 3.67897 11.8103 3.37697 15.6155Z" stroke="#385A64" stroke-width="2" stroke-linecap="round" stroke-linejoin="round"/>
<path d="M9.28019 6.12821C10.6253 6.12821 11.7156 4.98022 11.7156 3.5641C11.7156 2.14799 10.6253 1 9.28019 1C7.93512 1 6.84473 2.14799 6.84473 3.5641C6.84473 4.98022 7.93512 6.12821 9.28019 6.12821Z" stroke="#385A64" stroke-width="2" stroke-linecap="round" stroke-linejoin="round"/>
<path d="M15.9347 7.3594C17.0107 7.3594 17.8831 6.44101 17.8831 5.30812C17.8831 4.17523 17.0107 3.25684 15.9347 3.25684C14.8586 3.25684 13.9863 4.17523 13.9863 5.30812C13.9863 6.44101 14.8586 7.3594 15.9347 7.3594Z" stroke="#385A64" stroke-width="2" stroke-linecap="round" stroke-linejoin="round"/>
<path d="M19.5394 11.4617C20.3464 11.4617 21.0007 10.7729 21.0007 9.92323C21.0007 9.07356 20.3464 8.38477 19.5394 8.38477C18.7324 8.38477 18.0781 9.07356 18.0781 9.92323C18.0781 10.7729 18.7324 11.4617 19.5394 11.4617Z" stroke="#385A64" stroke-width="2" stroke-linecap="round" stroke-linejoin="round"/>
<path d="M2.94837 9.41018C4.02442 9.41018 4.89674 8.49179 4.89674 7.3589C4.89674 6.22601 4.02442 5.30762 2.94837 5.30762C1.87231 5.30762 1 6.22601 1 7.3589C1 8.49179 1.87231 9.41018 2.94837 9.41018Z" stroke="#385A64" stroke-width="2" stroke-linecap="round" stroke-linejoin="round"/>
</svg>
