<svg width="20" height="20" viewBox="0 0 20 20" fill="none" xmlns="http://www.w3.org/2000/svg">
<g clip-path="url(#clip0_1037_52099)">
<path d="M9.90229 4.87301C10.3294 5.08692 10.6459 5.45616 10.8204 5.89855C10.8854 6.09571 10.9081 6.26464 10.9074 6.47197C10.9074 6.50058 10.9074 6.5292 10.9074 6.55868C10.9074 6.65231 10.9068 6.74593 10.9062 6.83956C10.906 6.90486 10.9059 6.97015 10.9058 7.03544C10.9055 7.20658 10.9048 7.37772 10.9039 7.54886C10.9031 7.72378 10.9027 7.8987 10.9023 8.07362C10.9015 8.41631 10.9002 8.75899 10.8985 9.10168C10.937 9.10133 10.9754 9.10098 11.0151 9.10063C11.3783 9.09745 11.7415 9.09511 12.1047 9.09358C12.2914 9.09277 12.4781 9.09166 12.6648 9.08989C12.8451 9.08819 13.0255 9.08726 13.2058 9.08685C13.2745 9.08657 13.3431 9.086 13.4118 9.08516C13.5082 9.08402 13.6047 9.08387 13.7012 9.08394C13.7293 9.08338 13.7574 9.08282 13.7863 9.08224C14.048 9.08434 14.2427 9.18157 14.4435 9.34582C14.635 9.57992 14.7177 9.7818 14.705 10.0883C14.6597 10.3671 14.5016 10.5609 14.2871 10.7348C14.1097 10.8558 13.9671 10.8704 13.7544 10.8684C13.7235 10.8684 13.6926 10.8684 13.6608 10.8684C13.5589 10.8683 13.4571 10.8677 13.3552 10.8671C13.2845 10.867 13.2138 10.8669 13.143 10.8668C12.9571 10.8665 12.7711 10.8657 12.5851 10.8649C12.3953 10.8641 12.2055 10.8637 12.0156 10.8633C11.6433 10.8625 11.2709 10.8611 10.8985 10.8595C10.8985 11.1044 10.8985 11.3493 10.8985 11.6017C11.0044 11.6011 11.1102 11.6005 11.2193 11.5998C11.5698 11.5979 11.9202 11.5966 12.2707 11.5956C12.4832 11.595 12.6956 11.5942 12.908 11.5928C13.1131 11.5916 13.3183 11.5909 13.5234 11.5906C13.6015 11.5903 13.6796 11.5899 13.7577 11.5893C13.8675 11.5884 13.9772 11.5883 14.087 11.5884C14.135 11.5877 14.135 11.5877 14.1839 11.5871C14.5031 11.5888 14.788 11.6731 15.0392 11.8751C15.2336 12.0727 15.3744 12.2768 15.4968 12.5245C15.5129 12.5563 15.529 12.588 15.5457 12.6207C15.5978 12.7235 15.6493 12.8266 15.7008 12.9298C15.7371 13.0017 15.7734 13.0735 15.8098 13.1454C15.9181 13.3597 16.0256 13.5744 16.1329 13.7892C16.1638 13.8509 16.1947 13.9126 16.2256 13.9744C16.4521 14.4271 16.4521 14.4271 16.543 14.6107C16.6738 14.8743 16.8081 15.1357 16.9457 15.3958C17.1363 15.756 17.321 16.119 17.5032 16.4835C17.5544 16.5859 17.6059 16.6881 17.6574 16.7904C17.6907 16.8569 17.7241 16.9235 17.7574 16.99C17.7724 17.0198 17.7875 17.0497 17.803 17.0804C18.02 17.5163 18.176 17.8922 18.0494 18.3839C17.9414 18.6635 17.7124 18.9098 17.4464 19.0455C17.1326 19.17 16.7714 19.2111 16.4503 19.0797C15.9777 18.8281 15.7728 18.395 15.5451 17.9324C15.5273 17.8966 15.5095 17.8607 15.4911 17.8238C15.4347 17.7103 15.3785 17.5967 15.3224 17.483C15.2486 17.3341 15.1748 17.1852 15.1008 17.0364C15.0734 16.9812 15.0734 16.9812 15.0454 16.9249C14.9131 16.6597 14.7763 16.3972 14.6373 16.1355C14.4474 15.7766 14.2675 15.4127 14.087 15.0489C14.0193 14.9124 13.9514 14.7759 13.8835 14.6394C13.8684 14.609 13.8533 14.5785 13.8378 14.5472C13.7696 14.4102 13.6997 14.2757 13.6221 14.1438C13.5548 14.0236 13.5548 14.0236 13.5548 13.9454C13.5189 13.9457 13.5189 13.9457 13.4824 13.946C12.899 13.9503 12.3157 13.9535 11.7323 13.9555C11.4502 13.9566 11.1681 13.9579 10.8859 13.9602C10.6398 13.9621 10.3937 13.9634 10.1476 13.9638C10.0175 13.9641 9.88738 13.9648 9.75725 13.9661C8.71164 13.9763 8.71164 13.9763 8.32041 13.7501C8.29585 13.7363 8.27129 13.7225 8.24598 13.7082C8.18369 13.6695 8.18369 13.6695 8.08603 13.5939C8.05381 13.5713 8.02158 13.5487 7.98838 13.5255C7.67187 13.2407 7.44465 12.8345 7.41181 12.4069C7.41163 12.3606 7.41145 12.3142 7.41126 12.2665C7.41106 12.2405 7.41085 12.2144 7.41064 12.1876C7.41006 12.1011 7.41003 12.0146 7.41 11.9281C7.4097 11.8658 7.40937 11.8035 7.40902 11.7411C7.40816 11.5723 7.40781 11.4034 7.40762 11.2346C7.40747 11.1289 7.40723 11.0232 7.40695 10.9175C7.406 10.5481 7.40549 10.1788 7.40535 9.8094C7.4052 9.46611 7.40404 9.12284 7.4024 8.77956C7.40104 8.48406 7.40044 8.18857 7.40042 7.89308C7.40038 7.71694 7.40005 7.54081 7.39893 7.36467C7.3979 7.19877 7.39783 7.0329 7.39845 6.867C7.39852 6.80649 7.39826 6.74597 7.39764 6.68547C7.3923 6.13668 7.50841 5.68146 7.89072 5.27355C7.91398 5.24868 7.93725 5.2238 7.96121 5.19817C8.45566 4.72015 9.27454 4.62244 9.90229 4.87301Z" fill="#385A64"/>
<path d="M6.28866 8.04688C6.28866 8.67852 6.28866 9.31016 6.28866 9.96094C6.06952 10.077 5.85038 10.193 5.6246 10.3125C5.48586 10.4146 5.36102 10.5113 5.23398 10.625C5.20119 10.6527 5.16841 10.6804 5.13464 10.7089C4.28565 11.441 3.79902 12.5249 3.71054 13.6328C3.6471 14.6708 3.95914 15.8017 4.64911 16.5945C4.67453 16.6226 4.69996 16.6507 4.72616 16.6797C4.75199 16.711 4.77783 16.7423 4.80444 16.7746C5.44232 17.5288 6.37209 18.0132 7.34335 18.1641C7.3855 18.1712 7.42764 18.1783 7.47107 18.1856C8.58674 18.3199 9.71699 18.0352 10.6148 17.3535C11.39 16.7381 11.8425 15.9971 12.1871 15.0781C12.4191 15.0781 12.6512 15.0781 12.8902 15.0781C12.9185 15.1352 12.9468 15.1922 12.976 15.251C13.0141 15.3277 13.0523 15.4043 13.0904 15.481C13.1197 15.5401 13.1197 15.5401 13.1497 15.6004C13.2655 15.8329 13.3845 16.06 13.5219 16.2805C13.5835 16.4454 13.5267 16.5749 13.4595 16.7307C13.4355 16.7774 13.4109 16.8239 13.3858 16.8701C13.3722 16.8953 13.3586 16.9205 13.3446 16.9465C12.5702 18.3325 11.2058 19.3798 9.68481 19.8117C9.13205 19.9599 8.58752 20.0151 8.01718 20.0122C7.98801 20.0121 7.95884 20.0121 7.92879 20.012C7.48932 20.0102 7.06794 19.9897 6.64023 19.8828C6.61402 19.8765 6.58781 19.8702 6.5608 19.8638C5.35358 19.5682 4.19566 18.8899 3.39804 17.9297C3.3712 17.8989 3.34436 17.8682 3.31671 17.8365C2.2109 16.5409 1.79689 14.8859 1.9219 13.2098C2.05102 11.9343 2.64694 10.7084 3.51355 9.77554C3.56903 9.71433 3.62227 9.65105 3.67361 9.58633C4.05824 9.10979 4.66108 8.76069 5.19491 8.47656C5.23424 8.45531 5.27357 8.43406 5.31408 8.41217C6.01408 8.04688 6.01408 8.04688 6.28866 8.04688Z" fill="#385A64"/>
<path d="M9.1606 -0.0142517C9.21173 -0.0149315 9.21173 -0.0149315 9.2639 -0.015625C9.76653 -0.0133911 10.1936 0.187331 10.5635 0.523315C10.9801 0.947131 11.1497 1.47674 11.1475 2.05994C11.1367 2.57648 10.9211 3.01061 10.5864 3.39883C10.069 3.84818 9.54425 3.97854 8.88031 3.95271C8.42028 3.91725 7.94099 3.63463 7.6364 3.29324C7.47123 3.08751 7.36322 2.86188 7.26607 2.61758C7.24439 2.56547 7.24439 2.56547 7.22228 2.5123C7.175 2.33454 7.17508 2.16597 7.17574 1.98282C7.17511 1.94802 7.17448 1.91323 7.17383 1.87738C7.17346 1.3698 7.3725 0.945101 7.71025 0.570312C7.8259 0.457438 7.95253 0.363938 8.08638 0.273834C8.10849 0.258929 8.13059 0.244025 8.15337 0.228668C8.46516 0.0349891 8.79892 -0.0190599 9.1606 -0.0142517Z" fill="#385A64"/>
</g>
<defs>
<clipPath id="clip0_1037_52099">
<rect width="20" height="20" fill="white"/>
</clipPath>
</defs>
</svg>
