<svg width="20" height="20" viewBox="0 0 20 20" fill="none" xmlns="http://www.w3.org/2000/svg">
<g clip-path="url(#clip0_1037_52105)">
<path d="M11.4062 4.88233C11.4322 4.88944 11.4582 4.89655 11.485 4.90387C12.3545 5.14624 13.0952 5.64168 13.75 6.24952C13.7756 6.27213 13.8013 6.29474 13.8277 6.31803C14.6196 7.05091 15.0307 8.1072 15.2344 9.14015C15.2412 9.16984 15.2481 9.19954 15.2552 9.23014C15.3747 9.91982 15.3093 10.738 15.1172 11.4058C15.1092 11.4349 15.1013 11.4641 15.0931 11.4942C14.8667 12.3085 14.447 12.9877 13.88 13.6082C13.268 14.2962 13.0045 15.0142 12.9632 15.9333C12.9419 16.317 12.8507 16.6473 12.6123 16.9551C12.5856 16.9902 12.5589 17.0253 12.5314 17.0614C12.4609 17.148 12.4609 17.148 12.3828 17.2261C12.3751 17.3274 12.372 17.4249 12.3721 17.5262C12.3713 17.5881 12.3705 17.65 12.3697 17.7118C12.3688 17.809 12.3682 17.9062 12.3679 18.0034C12.3656 18.5969 12.2803 19.0305 11.875 19.4917C11.6789 19.6762 11.4603 19.8196 11.2109 19.9214C11.1796 19.9347 11.1483 19.948 11.116 19.9616C10.9235 20.0139 10.7402 20.0122 10.5415 20.0126C10.4995 20.0129 10.4575 20.0132 10.4143 20.0134C10.3255 20.0138 10.2368 20.014 10.148 20.014C10.0133 20.0142 9.87871 20.0156 9.74403 20.0171C9.65749 20.0173 9.57095 20.0175 9.4844 20.0175C9.42475 20.0184 9.42475 20.0184 9.36389 20.0192C8.89011 20.0163 8.51743 19.8413 8.16406 19.5308C7.83988 19.1861 7.64291 18.7894 7.64969 18.3128C7.64947 18.2509 7.64918 18.189 7.64885 18.1271C7.64869 18.0306 7.64892 17.9341 7.65021 17.8376C7.66984 17.408 7.66984 17.408 7.48535 17.0381C7.4386 16.9961 7.39145 16.9545 7.34375 16.9136C7.27707 16.8059 7.27707 16.8059 7.23389 16.7134C7.21175 16.6673 7.21175 16.6673 7.18918 16.6203C7.17573 16.5882 7.16229 16.5561 7.14844 16.523C7.13449 16.4899 7.12054 16.4569 7.10617 16.4229C7.05344 16.2254 7.04811 16.0282 7.03613 15.8247C6.97338 14.9457 6.73839 14.2065 6.0791 13.5835C5.45012 12.9676 5.07482 12.124 4.84375 11.2886C4.83625 11.2622 4.82874 11.2358 4.82101 11.2086C4.60082 10.3921 4.65056 9.35934 4.88281 8.55421C4.89097 8.52463 4.89914 8.49504 4.90755 8.46456C5.29038 7.10531 6.23023 6.00656 7.45087 5.32047C7.83739 5.11225 8.24618 4.95107 8.67187 4.84327C8.71603 4.83159 8.76019 4.81991 8.80569 4.80787C9.6307 4.62585 10.5962 4.64995 11.4062 4.88233ZM7.34375 6.87452C7.31777 6.89527 7.29178 6.91601 7.26501 6.93739C6.52071 7.55276 6.06481 8.50595 5.9375 9.45265C5.85853 10.5616 6.06212 11.6491 6.79321 12.5236C6.8764 12.6183 6.96091 12.7116 7.0459 12.8047C7.78504 13.6227 8.19091 14.5344 8.22544 15.6458C8.23456 15.8842 8.25387 16.0947 8.41553 16.2813C8.6282 16.4628 8.78766 16.4886 9.06111 16.4896C9.10713 16.4898 9.15316 16.4901 9.20058 16.4903C9.24998 16.4904 9.29938 16.4904 9.35028 16.4905C9.40138 16.4906 9.45247 16.4907 9.50512 16.4909C9.61315 16.4911 9.72117 16.4912 9.8292 16.4911C9.96706 16.4911 10.1049 16.4917 10.2428 16.4923C10.375 16.4929 10.5072 16.4929 10.6393 16.4929C10.7132 16.4933 10.7132 16.4933 10.7886 16.4937C11.2025 16.5002 11.2025 16.5002 11.5552 16.3106C11.738 16.0964 11.7589 15.9431 11.7672 15.6665C11.8044 14.5163 12.2688 13.5448 13.0518 12.7144C13.7319 11.978 14.0793 11.0038 14.0747 10.0093C14.0745 9.96069 14.0743 9.91209 14.0741 9.86202C14.0698 9.52724 14.0486 9.22608 13.9453 8.90577C13.932 8.86181 13.9187 8.81785 13.905 8.77256C13.7122 8.18425 13.4107 7.69231 13.0078 7.22608C12.9694 7.1816 12.9694 7.1816 12.9301 7.13621C12.4523 6.62561 11.7615 6.24862 11.0937 6.05421C11.0346 6.03676 11.0346 6.03676 10.9743 6.01896C9.69667 5.70427 8.34601 6.03805 7.34375 6.87452ZM8.82812 17.6558C8.79237 18.1801 8.79237 18.1801 9.00146 18.625C9.28374 18.866 9.55742 18.8349 9.91445 18.8349C9.9946 18.835 10.0747 18.8357 10.1549 18.8364C10.206 18.8365 10.2571 18.8366 10.3098 18.8366C10.3562 18.8368 10.4026 18.837 10.4504 18.8371C10.6569 18.8227 10.8114 18.7911 10.9692 18.6543C11.2394 18.3378 11.1719 18.096 11.1719 17.6558C10.3984 17.6558 9.625 17.6558 8.82812 17.6558Z" fill="#385A64"/>
<path d="M9.89267 7.05584C9.92271 7.05482 9.95275 7.0538 9.98371 7.05274C10.1892 7.05214 10.3082 7.08753 10.4688 7.22674C10.6273 7.43075 10.6163 7.64289 10.586 7.8908C10.5005 8.07137 10.4117 8.15542 10.2345 8.24236C10.1158 8.26903 9.99618 8.28348 9.87558 8.29852C9.37015 8.37146 8.96177 8.51073 8.6326 8.92764C8.50896 9.1131 8.41807 9.29945 8.33749 9.50701C8.24766 9.73636 8.15234 9.84983 7.92978 9.96111C7.73282 9.98272 7.58219 9.98381 7.40488 9.89031C7.16227 9.68322 7.16227 9.68322 7.13785 9.4829C7.11525 8.89703 7.43561 8.40192 7.81015 7.97625C8.3612 7.39107 9.09301 7.07232 9.89267 7.05584Z" fill="#385A64"/>
<path d="M16.7965 2.77313C16.9809 2.83921 17.078 2.92393 17.1872 3.08563C17.2488 3.27052 17.2743 3.45637 17.1858 3.63685C17.0249 3.87422 16.84 4.07486 16.6368 4.27658C16.6031 4.31039 16.5694 4.3442 16.5347 4.37904C16.4638 4.44999 16.3928 4.52079 16.3216 4.59145C16.2131 4.69935 16.1052 4.80787 15.9974 4.91645C15.9282 4.98559 15.8589 5.05469 15.7896 5.12375C15.7576 5.15601 15.7256 5.18828 15.6926 5.22153C15.3177 5.59181 15.3177 5.59181 15.0606 5.64407C14.8697 5.6388 14.7328 5.61728 14.57 5.5075C14.4067 5.33102 14.354 5.18053 14.3598 4.94362C14.4086 4.61457 14.7398 4.34386 14.9641 4.12124C14.9978 4.08743 15.0315 4.05362 15.0662 4.01878C15.1371 3.94783 15.2081 3.87703 15.2793 3.80637C15.3878 3.69847 15.4957 3.58995 15.6035 3.48137C15.6727 3.41223 15.742 3.34313 15.8113 3.27408C15.8433 3.24181 15.8753 3.20954 15.9083 3.17629C16.1759 2.91198 16.4032 2.71427 16.7965 2.77313Z" fill="#385A64"/>
<path d="M3.63701 2.81401C3.87438 2.97489 4.07501 3.15978 4.27673 3.363C4.31055 3.39671 4.34436 3.43041 4.3792 3.46513C4.45015 3.536 4.52095 3.60701 4.59161 3.67817C4.69951 3.78669 4.80802 3.89458 4.91661 4.00242C4.98575 4.07164 5.05484 4.14088 5.1239 4.21017C5.15617 4.2422 5.18844 4.27423 5.22168 4.30724C5.59197 4.68206 5.59197 4.68206 5.64423 4.93924C5.63896 5.13005 5.61744 5.26703 5.50766 5.42981C5.33117 5.59306 5.18069 5.64583 4.94377 5.63998C4.61473 5.59116 4.34401 5.25994 4.1214 5.03567C4.08759 5.00197 4.05377 4.96827 4.01893 4.93355C3.94799 4.86268 3.87719 4.79167 3.80652 4.72051C3.69862 4.61198 3.59011 4.50409 3.48152 4.39625C3.41239 4.32704 3.34329 4.25779 3.27423 4.1885C3.24196 4.15647 3.20969 4.12444 3.17645 4.09144C2.80617 3.71662 2.80617 3.71662 2.75391 3.45944C2.75918 3.26863 2.78069 3.13165 2.89047 2.96887C3.09777 2.77712 3.36858 2.68234 3.63701 2.81401Z" fill="#385A64"/>
<path d="M17.0767 9.39815C17.1041 9.39788 17.1316 9.39761 17.1599 9.39734C17.2503 9.39663 17.3407 9.39677 17.4311 9.397C17.4942 9.39682 17.5573 9.39661 17.6203 9.39638C17.7524 9.39603 17.8845 9.39612 18.0166 9.39651C18.1856 9.39696 18.3545 9.39617 18.5235 9.39503C18.6538 9.39431 18.784 9.39432 18.9143 9.39455C18.9766 9.39455 19.0388 9.39432 19.1011 9.39383C19.1883 9.39325 19.2755 9.39367 19.3627 9.39434C19.4371 9.39435 19.4371 9.39435 19.5129 9.39436C19.7095 9.42285 19.8335 9.50729 19.9546 9.66311C20.0361 9.84863 20.0238 10.0359 19.9996 10.2342C19.9144 10.414 19.8248 10.4993 19.648 10.5858C19.5179 10.601 19.5179 10.601 19.3678 10.6016C19.3403 10.6019 19.3129 10.6021 19.2846 10.6024C19.1942 10.6031 19.1038 10.603 19.0134 10.6027C18.9503 10.6029 18.8872 10.6031 18.8241 10.6034C18.692 10.6037 18.5599 10.6036 18.4278 10.6032C18.2589 10.6028 18.0899 10.6036 17.921 10.6047C17.7907 10.6054 17.6605 10.6054 17.5302 10.6052C17.4679 10.6052 17.4056 10.6054 17.3434 10.6059C17.2561 10.6065 17.169 10.6061 17.0817 10.6054C17.0322 10.6054 16.9826 10.6054 16.9316 10.6054C16.735 10.5769 16.6109 10.4925 16.4899 10.3366C16.4083 10.1511 16.4207 9.96384 16.4449 9.7655C16.5819 9.47626 16.767 9.39947 17.0767 9.39815Z" fill="#385A64"/>
<path d="M0.631363 9.39815C0.658828 9.39788 0.686293 9.39761 0.71459 9.39734C0.804987 9.39663 0.895358 9.39677 0.985758 9.397C1.04885 9.39682 1.11194 9.39661 1.17503 9.39638C1.30713 9.39603 1.43922 9.39612 1.57132 9.39651C1.74029 9.39696 1.90922 9.39617 2.07818 9.39503C2.20845 9.39431 2.3387 9.39432 2.46896 9.39455C2.53124 9.39455 2.59352 9.39432 2.6558 9.39383C2.74303 9.39325 2.8302 9.39367 2.91743 9.39434C2.99176 9.39435 2.99176 9.39435 3.06758 9.39436C3.26421 9.42285 3.38823 9.50729 3.50926 9.66311C3.59082 9.84863 3.57846 10.0359 3.55427 10.2342C3.46912 10.414 3.37948 10.4993 3.20271 10.5858C3.07254 10.601 3.07254 10.601 2.92249 10.6016C2.89502 10.6019 2.86756 10.6021 2.83926 10.6024C2.74886 10.6031 2.65849 10.603 2.56809 10.6027C2.505 10.6029 2.44191 10.6031 2.37882 10.6034C2.24672 10.6037 2.11463 10.6036 1.98253 10.6032C1.81356 10.6028 1.64463 10.6036 1.47567 10.6047C1.34541 10.6054 1.21515 10.6054 1.08489 10.6052C1.02261 10.6052 0.96033 10.6054 0.898053 10.6059C0.810821 10.6065 0.723648 10.6061 0.636417 10.6054C0.586869 10.6054 0.537321 10.6054 0.486271 10.6054C0.28964 10.5769 0.165618 10.4925 0.0445956 10.3366C-0.0369681 10.1511 -0.0246057 9.96384 -0.000417836 9.7655C0.136588 9.47626 0.321725 9.39947 0.631363 9.39815Z" fill="#385A64"/>
<path d="M10.2342 -0.000417836C10.414 0.0847284 10.4993 0.174374 10.5858 0.351145C10.601 0.481311 10.601 0.481311 10.6016 0.631363C10.6019 0.658828 10.6021 0.686293 10.6024 0.71459C10.6031 0.804987 10.603 0.895358 10.6027 0.985758C10.6029 1.04885 10.6031 1.11194 10.6034 1.17503C10.6037 1.30713 10.6036 1.43922 10.6032 1.57132C10.6028 1.74029 10.6036 1.90922 10.6047 2.07818C10.6054 2.20845 10.6054 2.3387 10.6052 2.46896C10.6052 2.53124 10.6054 2.59352 10.6059 2.6558C10.6065 2.74303 10.6061 2.8302 10.6054 2.91743C10.6054 2.96698 10.6054 3.01653 10.6054 3.06758C10.5769 3.26421 10.4925 3.38823 10.3366 3.50926C10.1511 3.59082 9.96384 3.57846 9.7655 3.55427C9.58574 3.46912 9.50049 3.37948 9.41393 3.20271C9.39879 3.07254 9.39879 3.07254 9.39815 2.92249C9.39788 2.89502 9.39761 2.86756 9.39734 2.83926C9.39663 2.74886 9.39677 2.65849 9.397 2.56809C9.39682 2.505 9.39661 2.44191 9.39638 2.37882C9.39603 2.24672 9.39612 2.11463 9.39651 1.98253C9.39696 1.81356 9.39617 1.64463 9.39503 1.47567C9.39431 1.34541 9.39432 1.21515 9.39455 1.08489C9.39455 1.02261 9.39432 0.96033 9.39383 0.898053C9.39325 0.810821 9.39367 0.723648 9.39434 0.636417C9.39434 0.586869 9.39435 0.537321 9.39436 0.486271C9.42285 0.28964 9.50729 0.165618 9.66311 0.0445956C9.84863 -0.0369681 10.0359 -0.0246057 10.2342 -0.000417836Z" fill="#385A64"/>
</g>
<defs>
<clipPath id="clip0_1037_52105">
<rect width="20" height="20" fill="white"/>
</clipPath>
</defs>
</svg>
