<svg width="25" height="22" viewBox="0 0 25 22" fill="none" xmlns="http://www.w3.org/2000/svg">
<path d="M11.5 17.8421C11.5 18.3944 11.9477 18.8421 12.5 18.8421C13.0523 18.8421 13.5 18.3944 13.5 17.8421H11.5ZM12.5 12.5789H13.5C13.5 12.3149 13.3956 12.0616 13.2095 11.8743L12.5 12.5789ZM8.84091 8.89474L8.17986 8.1444C7.97307 8.32658 7.85064 8.58601 7.84146 8.86144C7.83229 9.13688 7.93719 9.40389 8.13139 9.59942L8.84091 8.89474ZM13.0227 5.21053L13.7842 4.5623C13.6104 4.35811 13.3618 4.23229 13.0943 4.21309C12.8269 4.19389 12.5629 4.28292 12.3617 4.46019L13.0227 5.21053ZM19.2955 10.4211C19.8477 10.4211 20.2955 9.97334 20.2955 9.42105C20.2955 8.86877 19.8477 8.42105 19.2955 8.42105V10.4211ZM8.36364 16.7895C8.36364 18.5691 6.93265 20 5.18182 20V22C8.0501 22 10.3636 19.6607 10.3636 16.7895H8.36364ZM5.18182 20C3.43099 20 2 18.5691 2 16.7895H0C0 19.6607 2.31354 22 5.18182 22V20ZM2 16.7895C2 15.0099 3.43099 13.5789 5.18182 13.5789V11.5789C2.31354 11.5789 0 13.9182 0 16.7895H2ZM5.18182 13.5789C6.93265 13.5789 8.36364 15.0099 8.36364 16.7895H10.3636C10.3636 13.9182 8.0501 11.5789 5.18182 11.5789V13.5789ZM13.5 17.8421V12.5789H11.5V17.8421H13.5ZM13.2095 11.8743L9.55043 8.19005L8.13139 9.59942L11.7905 13.2836L13.2095 11.8743ZM9.50196 9.64508L13.6838 5.96087L12.3617 4.46019L8.17986 8.1444L9.50196 9.64508ZM12.2613 5.85875C12.7976 6.48873 13.7871 7.59839 14.9855 8.55717C16.1477 9.48698 17.6838 10.4211 19.2955 10.4211V8.42105C18.398 8.42105 17.3205 7.8639 16.2349 6.99546C15.1856 6.156 14.2933 5.1604 13.7842 4.5623L12.2613 5.85875ZM23 16.7895C23 18.5691 21.569 20 19.8182 20V22C22.6865 22 25 19.6607 25 16.7895H23ZM19.8182 20C18.0674 20 16.6364 18.5691 16.6364 16.7895H14.6364C14.6364 19.6607 16.9499 22 19.8182 22V20ZM16.6364 16.7895C16.6364 15.0099 18.0674 13.5789 19.8182 13.5789V11.5789C16.9499 11.5789 14.6364 13.9182 14.6364 16.7895H16.6364ZM19.8182 13.5789C21.569 13.5789 23 15.0099 23 16.7895H25C25 13.9182 22.6865 11.5789 19.8182 11.5789V13.5789ZM16.7273 2.05263C16.7273 2.08816 16.7005 2.10526 16.6818 2.10526V4.10526C17.8179 4.10526 18.7273 3.17981 18.7273 2.05263H16.7273ZM16.6818 2.10526C16.6632 2.10526 16.6364 2.08816 16.6364 2.05263H14.6364C14.6364 3.17981 15.5457 4.10526 16.6818 4.10526V2.10526ZM16.6364 2.05263C16.6364 2.0171 16.6632 2 16.6818 2V0C15.5457 0 14.6364 0.925456 14.6364 2.05263H16.6364ZM16.6818 2C16.7005 2 16.7273 2.0171 16.7273 2.05263H18.7273C18.7273 0.925456 17.8179 0 16.6818 0V2Z" fill="#385A64"/>
</svg>
